<?xml version="1.0" encoding="utf-8"?>
<!-- Generator: Adobe Illustrator 22.1.0, SVG Export Plug-In . SVG Version: 6.00 Build 0)  -->
<svg version="1.1" id="Layer_1" xmlns="http://www.w3.org/2000/svg" xmlns:xlink="http://www.w3.org/1999/xlink" x="0px" y="0px"
	 viewBox="0 0 1000 500" style="enable-background:new 0 0 1000 500;" xml:space="preserve">
<style type="text/css">
	.st0{enable-background:new    ;}
	.st1{fill:#2D3951;}
	.st2{fill:#CA3A44;}
	.st3{fill:#9AA0AC;}
</style>
<g>
	<g class="st0">
		<path class="st1" d="M281.1,60.7h-15.4V60c3,0,4-3.9,4-9.2V16.2c0-4.8-1-9.3-4-9.3V6.3h15.4c9.7,0,18.3,0.1,18.3,13.2
			c0,11.8-10.6,13.3-12,13.3c4.5,0,15.3,0.9,15.3,14.1C302.6,60.3,293.1,60.7,281.1,60.7z M278.4,7.5v25.1h3.5c4,0,9-1.6,9-13.2
			c0-11.4-5.8-11.9-9.5-11.9C281.4,7.5,278.4,7.5,278.4,7.5z M281.8,33.7h-3.5v25.8h2.9c6.3,0,12.4,0.2,12.4-13.1
			C293.7,34.1,286.8,33.7,281.8,33.7z"/>
		<path class="st1" d="M330.5,41.9V14.2c0-4.9-2.2-6.7-5.2-6.7V6.3h19.8v1.2c-3,0-6.1,1-6.1,6.8v28.3c0,9.4,5.1,14.8,12.2,14.8
			c6.2,0,12-5.3,12-15.1v-22c0-3.7,0-13-8.8-12.9V6.3H374v1.2c-9.8-0.1-9.7,9.2-9.7,12.9v22c0.1,15.2-9.7,19.1-17,19.1
			C338,61.4,330.5,54.5,330.5,41.9z"/>
		<path class="st1" d="M437.8,6.3v14.6h-1c-0.4-13.2-13.6-13.5-14.1-13.5H420v44.8c0,5.2,2.6,7.3,5.5,7.3v1.2H406v-1.2
			c2.9,0,5.5-2.1,5.5-7.3V7.5h-2.7c-1,0-13.6,0.2-14.1,13.5h-1V6.3H437.8z"/>
		<path class="st1" d="M496.6,43.9v16.8h-37.1v-1.2c3,0,4.4-3.2,4.4-8.4v-37c0-4.7-1.9-6.7-4.9-6.7V6.3h19.3v1.2
			c-3,0-5.8,1.3-5.8,6.9v45.2h2.5c3.8,0,18.9,0,20.7-15.6L496.6,43.9L496.6,43.9z"/>
		<path class="st1" d="M556.9,44.3v16.5h-37.1v-1.2c2.9,0,3.9-3.4,3.9-8.7V15.7c0-4.8-0.8-8.3-3.9-8.3V6.3H556v14.3h-1
			c-1.2-13.1-16.6-13.1-19.5-13.1h-3.1v25.2h3.5c1,0,10,0,10.5-7.9h1v17h-1c-0.6-8-9.6-8-10.5-8h-3.5v25.7h2.9
			c3.1,0,18.4,0.2,20.7-15.3L556.9,44.3L556.9,44.3z"/>
		<path class="st1" d="M625.6,60.7h-5.8c-10.7-0.1-9.3-0.1-13.7-16.9c-2.1-8-8.8-8-9.7-8h-3.3V52c0,5.3,1.9,7.6,4.9,7.6v1.2h-18
			v-1.2c3,0,4.7-2.2,4.7-8V13.9c0-4.8-1.6-6.4-4.7-6.4V6.3h15.2c13.8,0,22.6,1.9,22.6,14.8c0,10-5.4,13.3-13.3,14.1
			c4.6-0.2,9.7,1.8,13.2,17.2c1.4,5.9,6.1,7,7.9,7.2L625.6,60.7L625.6,60.7z M595.2,7.5H593v27.2h2.2c7.4,0,13.1,0,13.1-13.6
			C608.3,7.3,602.3,7.5,595.2,7.5z"/>
	</g>
	<g class="st0">
		<path class="st1" d="M188.1,175.5c5.1,0.4,8.9,1.8,11.4,4.2s3.7,5.4,3.7,9c0,3.2-0.8,5.9-2.5,8.1c-1.7,2.3-3.8,3.8-6.5,4.5
			c-2.6,0.7-6.1,1.1-10.5,1.1H166v-1.7h1.7c1.9,0,3.3-0.3,4-0.8s1.2-1.4,1.4-2.5s0.3-3.8,0.3-8V165c0-4.1-0.1-6.7-0.3-7.9
			s-0.7-2-1.3-2.4c-0.7-0.4-2.2-0.7-4.4-0.7h-0.9v-1.7l7.4-0.2l8.4-0.3c12.3,0,18.5,3.9,18.5,11.8c0,3.2-1.1,5.9-3.2,7.8
			C195.6,173.5,192.4,174.8,188.1,175.5z M180,174.8c0.6,0,1,0,1.4,0c4.8,0,8.1-0.8,9.8-2.5s2.6-4.4,2.6-8.1c0-2.6-0.3-4.6-1-6.1
			c-0.7-1.4-1.7-2.5-3.1-3.3c-1.4-0.8-3.7-1.2-7-1.2c-0.9,0-1.8,0-2.7,0.1V174.8z M180,176.6v11.1c0,4.8,0.1,7.8,0.2,9
			c0.2,1.3,0.6,2.3,1.2,2.9c0.7,0.7,2,1,4,1c3.5,0,6.2-1,8-3s2.7-5,2.7-9.1s-1-7.2-3-9.1c-2-2-5.5-2.9-10.6-2.9
			C181.7,176.5,180.9,176.5,180,176.6z"/>
		<path class="st1" d="M253.2,196.9h1.2c-0.2,4.2-2.1,6.3-5.6,6.3c-1.5,0-2.7-0.4-3.6-1.3c-0.9-0.9-1.4-2.2-1.7-3.9
			c-2.2,1.7-4.2,3.1-6.1,3.9c-1.8,0.9-3.5,1.3-4.9,1.3c-1.8,0-3.4-0.6-4.8-1.8c-1.3-1.2-2-2.7-2-4.7c0-2.5,1.1-4.7,3.3-6.6
			c2.2-1.9,5.3-3.7,9.2-5.5l5.1-2.3v-1.5c0-2.1-0.1-3.6-0.4-4.5c-0.2-0.9-0.9-1.8-1.9-2.5s-2.4-1.1-4-1.1c-3.3,0-5.2,1.2-5.5,3.7
			c-0.4,2.5-1.3,3.8-2.8,3.8c-1.4,0-2-0.7-2-2.1c0-1.4,0.9-2.9,2.7-4.5s4.6-2.4,8.4-2.4c2.8,0,5,0.5,6.5,1.5s2.6,2.1,3.1,3.4
			c0.5,1.3,0.7,3.2,0.7,5.8v12.2c0,2.9,0.1,4.7,0.4,5.5s0.8,1.2,1.7,1.2C251.9,200.5,252.8,199.3,253.2,196.9z M243.5,184l-3.6,1.6
			c-5.7,2.6-8.6,5.8-8.6,9.7c0,1.6,0.4,2.8,1.1,3.7c0.7,0.9,1.7,1.4,2.9,1.4c1,0,2.2-0.4,3.6-1.1c1.4-0.8,2.9-1.9,4.6-3.4V184z"/>
		<path class="st1" d="M274.8,203.4v-9.9h1.3c1.5,5.7,4.2,8.6,8.1,8.6c1.7,0,2.9-0.6,3.8-1.7c0.8-1.1,1.2-2.4,1.2-3.7
			c0-1.6-0.4-2.9-1.3-3.9s-2.7-2.2-5.3-3.7c-2.7-1.5-4.7-3-5.9-4.4c-1.2-1.4-1.8-3.2-1.8-5.3c0-2,0.6-3.9,1.9-5.7s3.1-2.7,5.4-2.7
			c2.4,0,4.3,1.1,5.9,3.2c0.3-0.4,0.8-1.3,1.3-2.7h1.2v9.3h-1.2c-0.4-2.2-1.3-4.2-2.6-5.8c-1.3-1.6-2.8-2.4-4.5-2.4
			c-1.3,0-2.4,0.5-3.2,1.4c-0.8,0.9-1.2,2-1.2,3.2c0,1.3,0.5,2.5,1.4,3.4c0.9,1,2.6,2.1,5.1,3.4c3.8,1.9,6.1,3.7,6.9,5.5
			s1.3,3.6,1.3,5.2c0,2.6-0.8,4.8-2.3,6.4s-3.5,2.5-5.9,2.5c-2.5,0-4.7-1.1-6.7-3.4c-0.6,0.7-1.1,1.8-1.5,3.2L274.8,203.4
			L274.8,203.4z"/>
		<path class="st1" d="M329.6,172.2h11v1.7c-2,0-4.7,1.7-8.1,5c-1.1,1-2.8,2.5-5,4.5l9.7,12.6c1.5,1.9,2.6,3.1,3.5,3.7
			s1.7,0.9,2.6,0.9v1.7h-13.7v-1.7c2.3,0,3.4-0.6,3.4-1.6c0-0.5-0.7-1.7-2.2-3.6l-7-9l-1.4,1.2v4.4c0,3.2,0,5.2,0.1,6.1
			c0.1,0.8,0.4,1.5,0.9,1.9c0.6,0.5,1.5,0.7,2.9,0.7v1.7h-13.7v-1.7h1c1.6,0,2.6-0.3,3.1-0.8s0.7-1.1,0.8-1.8
			c0.1-0.7,0.1-2.7,0.1-6.1v-30.3c0-2.9-0.2-4.8-0.7-5.6s-1.7-1.2-3.6-1.2v-1.7c1.3,0,2.9-0.2,4.7-0.5c1.8-0.3,3.1-0.7,3.7-1h0.7v34
			l2.9-2.2c4.6-3.6,6.9-6.3,6.9-7.9c0-1.1-0.9-1.6-2.6-1.7V172.2z"/>
		<path class="st1" d="M387,182.4h-19c-0.1,1.5-0.1,2.5-0.1,3.2c0,5.3,0.7,9.3,2.2,12s3.7,4,6.7,4c4,0,6.9-2,8.6-6h1.6
			c-0.7,2.5-2.1,4.5-4.2,5.9s-4.4,2.1-6.9,2.1c-2.3,0-4.5-0.6-6.5-1.9c-2-1.3-3.7-3.1-5-5.5s-2-5.2-2-8.6c0-4.8,1.3-8.7,3.8-11.9
			s5.7-4.7,9.5-4.7c3.6,0,6.3,1.2,8.3,3.6C385.8,177,386.9,179.6,387,182.4z M381.2,180.9c0.1-0.6,0.1-1.1,0.1-1.5
			c0-2.2-0.6-3.8-1.7-5s-2.5-1.8-4.2-1.8c-4,0-6.4,2.8-7.2,8.3H381.2z"/>
		<path class="st1" d="M417.9,178.7c0.8-2.2,2-4,3.7-5.5s3.4-2.2,5-2.2c1.5,0,2.6,0.5,3.5,1.5c0.8,1,1.3,2,1.3,3.1
			c0,0.7-0.2,1.3-0.6,1.8s-1,0.8-1.6,0.8c-1.1,0-1.9-0.9-2.5-2.7c-0.4-1.2-1-1.8-1.8-1.8c-1,0-2.1,0.7-3.4,2.2
			c-1.3,1.4-2.2,2.9-2.6,4.5s-0.6,3.7-0.6,6.4v5.4c0,3.2,0,5.3,0.1,6.1s0.4,1.5,0.9,1.9c0.6,0.4,1.5,0.7,3,0.7h0.9v1.7h-14.6v-1.7
			h0.7c1.3,0,2.3-0.2,2.8-0.6s0.9-1,1-1.7s0.2-2.9,0.2-6.3v-8.5c0-3.2,0-5.3-0.1-6.1s-0.4-1.5-0.9-1.9c-0.6-0.5-1.5-0.7-3-0.7h-0.7
			v-1.7c2.1-0.3,4.8-1,8.2-2.2C417.4,172.9,417.8,175.5,417.9,178.7z"/>
		<path class="st1" d="M464.8,203.6h-1.9l-9.7-24.3c-1-2.3-1.7-3.8-2.3-4.5c-0.6-0.6-1.5-1-2.7-1v-1.7h12.3v1.7
			c-1.4,0-2.3,0.1-2.8,0.4c-0.5,0.2-0.7,0.7-0.7,1.4c0,0.5,0.4,1.9,1.3,3.9l7.3,18.3l6.6-16.4c1-2.6,1.6-4.3,1.6-5.1
			c0-1.6-1.1-2.5-3.3-2.6V172h9.2v1.7c-1.1,0.1-2.1,0.6-2.8,1.6s-1.8,3.2-3.2,6.6L464.8,203.6z"/>
		<path class="st1" d="M507.4,171v21c0,3.2,0,5.3,0.1,6.1s0.4,1.5,1,1.9s1.5,0.7,3,0.7h0.7v1.7h-14.7v-1.7h1.1
			c1.6,0,2.6-0.3,3.1-0.8s0.8-1.1,0.8-1.8c0.1-0.7,0.1-2.7,0.1-6.1v-9.2c0-3.5-0.1-5.7-0.4-6.5s-0.7-1.3-1.2-1.5s-1.4-0.3-2.6-0.3
			h-0.9v-1.7c3.9-0.4,7-1.1,9.2-2h0.7V171z M501,155.5c0-1.1,0.3-2,1-2.7c0.7-0.8,1.5-1.1,2.4-1.1c1,0,1.8,0.4,2.4,1.1
			c0.7,0.8,1,1.7,1,2.7c0,1.1-0.3,2-1,2.8s-1.5,1.1-2.4,1.1c-1,0-1.8-0.4-2.4-1.1C501.3,157.5,501,156.6,501,155.5z"/>
		<path class="st1" d="M540.8,151.7V192c0,3.2,0,5.3,0.1,6.1s0.4,1.5,0.9,1.9c0.6,0.4,1.5,0.7,3,0.7h0.8v1.7H531v-1.7h0.9
			c1.3,0,2.3-0.2,2.8-0.6s0.9-1,1-1.7s0.2-2.9,0.2-6.3v-29.9c0-3.2-0.3-5.2-0.8-6s-1.8-1.2-3.7-1.2v-1.7c1.4,0,2.9-0.2,4.8-0.5
			c1.8-0.3,3.1-0.7,3.8-1h0.8V151.7z"/>
		<path class="st1" d="M574.1,151.7V192c0,3.2,0,5.3,0.1,6.1s0.4,1.5,0.9,1.9c0.6,0.4,1.5,0.7,3,0.7h0.8v1.7h-14.6v-1.7h0.9
			c1.3,0,2.3-0.2,2.8-0.6c0.6-0.4,0.9-1,1-1.7s0.2-2.9,0.2-6.3v-29.9c0-3.2-0.3-5.2-0.8-6s-1.8-1.2-3.7-1.2v-1.7
			c1.4,0,2.9-0.2,4.8-0.5c1.8-0.3,3.1-0.7,3.8-1h0.8V151.7z"/>
		<path class="st1" d="M624.1,182.4h-19c-0.1,1.5-0.1,2.5-0.1,3.2c0,5.3,0.7,9.3,2.2,12s3.7,4,6.7,4c4,0,6.9-2,8.6-6h1.6
			c-0.7,2.5-2.1,4.5-4.2,5.9c-2.1,1.4-4.4,2.1-6.9,2.1c-2.3,0-4.5-0.6-6.5-1.9s-3.7-3.1-5-5.5s-2-5.2-2-8.6c0-4.8,1.3-8.7,3.8-11.9
			s5.7-4.7,9.5-4.7c3.6,0,6.3,1.2,8.3,3.6C622.9,177,623.9,179.6,624.1,182.4z M618.2,180.9c0.1-0.6,0.1-1.1,0.1-1.5
			c0-2.2-0.6-3.8-1.7-5c-1.1-1.2-2.5-1.8-4.2-1.8c-4,0-6.4,2.8-7.2,8.3H618.2z"/>
	</g>
	<g class="st0">
		<path class="st2" d="M258.1,299.4l-0.2,0.3h-0.2l0.1,0.4l-0.5,0.5v0.5l-0.6,0.7l-0.2,0.7l-0.6,1.5l-0.8,3.3l-0.4,0.5l-1.4,3.5
			l-0.9,1.2l-0.5,2l-2.6,6.8l-0.7,0.9l-0.5,1.4l-0.8,2.5l-1,1.8l0.1,0.3l-1,2.9l-0.9,1l-0.8,1.2l-0.5,1.3l-1.1,1.9l-2.3,5.3
			l-1.4,2.1l-0.8,1.9l-0.5,0.2l-0.1,0.5l-0.4,0.4l-0.5,1l-0.8,0.7l0.3,0.4l-0.6,0.7h-0.5v0.2l-0.9,0.1h-0.7l-0.2-0.3l-1.1-0.3
			l-0.5-0.8l-0.3-1.9l-1.2-4.8l-0.8-7.3l0.4-4.2v-7.6l1.1-10.3l-0.3-1.2l-0.9,1.4h-0.4l-0.5,1.1l-1.1,1.3l-1.5,2.9l-1.1,2.7l-0.8,2
			l-1.4,2.3l-0.2,1.7l-0.4,0.3l-0.2,1.7l-0.5,0.6l-1.1,5.2l-0.6,1.7l-0.2,1.4l0.2,0.4l-0.5,0.7l0.2,1.1v2.6l-0.4,1.7l-0.5,0.9v0.5
			v1.2l-0.5,1h-0.8l-1,0.5l-0.8,0.9l-1.5,0.2l-0.4-0.2l-2.3-1.4l-0.1-1.4l-1.4-4.2l-1.8-9.1l-0.1-1.4l0.2-1.3l-0.4-1.4v-2.5v-3.1
			l0.3-3l0.5-2.3l0.8-5.5l0.2-0.6l0.4-1.4l1-3.2l0.7-0.7l1.4-0.2l1.1,0.3v0.2l1,0.3v0.9l0.4,4.4v1.7l0.4,1.7l1.1,8.5v6l0.8-3.4
			l1.1-2.6l2.1-3.9l0.8-1.1l1.1-2.6l1.6-2.3l1.7-2.9l1.3-1.2l0.1-0.2l1.6-1.6l1.3-0.5h2.4l1.7,0.5l0.9,2.5l0.2,1.4v1.1l-0.5,7.3v3.3
			l-0.2,2.3l-0.7,6.7l0.2,0.4l-0.4,0.5l0.3,0.6l-0.5,4.6l0.3,0.3l-0.2,0.8v2.2l0.8-1.1l2.7-5.7l3.3-7.8l1-1.9l1-1.3l0.5-1.8l1.1-1.8
			l0.2-0.8l0.7-1.2l1.1-2.6l0.4-0.3l5-8.2v-1.2l2.6-3.7h0.2l0.3-0.9l0.5-0.7v-0.2l2-2.3l0.5,0.1v0.2l0.3-0.6L258.1,299.4z"/>
		<path class="st2" d="M286.5,313.6l-0.7-0.4l-0.1,1.3l-0.2-0.1l0.1,0.6l-0.8-0.8l-0.1,0.5l-1.4-0.8c-0.1,0.1-0.2,0.1-0.3,0.1
			c0,0.1-0.1,0.1-0.1,0.1h-0.3c-0.4,0.2-0.8,0.2-0.8,0.2h-0.5l-0.5-0.4c0-0.1-0.3-0.4-0.6-0.8l-0.2-0.4c-0.1-0.1-0.2-0.2-0.2-0.2
			l-0.2-0.1h-0.1l-0.4,0.3v0.2l-0.7,0.1h0.2c-0.1,0-0.1,0-0.2,0.2c-0.3,0.2-0.8,0.4-1.5,0.7l-1.1,0.8l-1.2,0.8
			c-0.8,0.8-1.7,1.7-2.3,2.3L271,319l-1.8,2.3l-1.1,2.5l-1.5,2.6L266,327l-0.8,2.2l-0.8,1.3l-0.9,2l-0.9,2.6l-0.8,2.2l-0.5,2.7v2
			l0.4,1.5l0.9,1.3l1.4,0.8l1.6,0.2h2l4.7-0.8l0.2,0.3h0.3l-0.2,0.4l0.5,0.2l-0.2,0.2l0.2,0.3h-0.3l-0.2,0.3l0.3,0.1l0.2,0.5
			l-0.3,0.1l-0.7,0.4l-2.3,1.1l-0.2-0.1l-2.3,1l-5.5,0.5l-2.7-0.7l-2.3-1.1l-1.9-1.4l-1.3-1.5l-1.3-2.7l-0.4-2.1l0.2-2.6l0.3-0.8
			l-0.1-0.8l0.2-0.3l0.2-1.5l0.5-0.9l0.6-2l2.3-5.1l0.2-0.2l0.6-0.9l0.1-0.4l0.8-1.1c0.2-0.2,0.3-0.3,0.4-0.5
			c0.8-1.8,1.7-2.7,2.6-3.9l0.8-1.1l0.6-0.8v-0.2l2.4-2.9l0.5-0.2l0.1-0.5l2.1-2.6l0.9-0.7l0.5-0.5l1.8-2.1h0.4l0.2-0.4l1.2-0.8
			l0.6-0.7l0.5-0.2v0.2c0.2-0.2,0.4-0.2,0.4-0.2l-0.1-0.1l1.8-0.8l3.9-0.6h0.8l0.9,0.3l0.9,0.5l0.4,0.4h0.1c0,0.1,0.1,0.2,0.2,0.2
			c0.1,0.1,0.2,0.2,0.3,0.2l0.8,0.4l0.5,0.2l0.1,0.1l0.5,0.5l0.5,0.7l0.4,0.7l0.6,1.1l-0.2,0.2l0.2,0.6L286.5,313.6z"/>
		<path class="st2" d="M349.4,300.5c1.2,0.9,0.6,0.8,1.5,4.3v2.7c-0.1,1.1-0.5,3-0.5,5.4l-0.2,0.3c-0.4,2-0.9,5.1-1.6,9.2
			c-0.6,2.3-0.2,4.2-1.2,6.2v0.7c-0.1,0.2-0.1,0.5-0.2,0.8v0.8c-0.3,0.3,0.2,1.7-0.7,4.2c0.1,0.1,0.1,0.2,0.1,0.5l-0.1,0.3
			c0.2-0.8-0.7,2.5-0.7,4.7c0,0.2,0,0.3,0.2,0.6c-0.1,0.1-0.1,0.2-0.2,0.4c0,0.3,0,0.6,0.1,0.9c0,0.1,0,0.3-0.1,0.5l-0.1,0.5
			c0,1.6-1.1,2.6-1.1,2.6l-0.1,0.1c-0.1,0.2-0.3,0.5-0.6,1.1l-0.2,0.2l0.3,0.1l-0.2,0.5l-0.1,0.6l-0.5,0.6l-0.2,1.1l-0.4,0.2
			l0.2,0.1l-0.2,0.1l-0.2,0.2c0,0.2,0,0.5-0.1,0.7l-0.2,0.2l-0.1,0.5c-0.1,0.1-0.2,0.1-0.4,0.2c0-0.2,0-0.3-0.1-0.5V352
			c-0.1-0.2-0.2-0.6-0.3-1.1l-0.1-0.6c0-0.2-0.1-0.8-0.2-1.8V348c0-0.1,0-0.2-0.1-0.5v-0.8l-0.2-0.2c0.1-0.1,0.1-0.3,0.1-0.5
			l-0.1-3.3l0.1-19.7c0-1.1-0.1-1.6-0.3-2.4c0-0.9,0.1-1.9,0.2-2.9v-0.5c0.2-1,0.2-1.7,0.2-2.1l0.1-0.3c-0.2,0.1-0.4,0.3-0.7,0.5
			c-0.3,0-1.1,0.5-2.3,1.7l-1.4,2.3c-0.1,0.2-0.1,0.3-0.2,0.5l-0.6,1c-0.6,1.1-0.8,1.8-1.2,2.3l-0.4,0.3c-0.2,0.5-0.2,1.4-0.9,2v0.2
			l-0.7,1.3c-0.2,0.4-0.5,0.8-0.8,1.6l-0.2,0.4c-0.1,0.1-1,1.9-1.4,1.9c0.1,0-1.8,2.2-2,2.2c-0.2,0.2-0.4,0.3-0.6,0.4
			c-1.7-0.5-3.6-2.5-4.4-2.6c-2.3-0.9-4-3-4.6-7.3v-2.7c0.1-0.5,0.1-1.1,0.1-1.7c-0.1,0.1-0.2,0.3-0.3,0.5l-0.3,0.5l-0.3,0.7
			c-0.2,0-0.1,1.1-1.5,3.8c-0.3,0-0.7,1-1.7,3.6c0,0-0.8,1.8-1.8,6.3l-0.7,2.3c-0.1,0.2-0.1,0.5-0.1,0.7c-0.5,2.6,0.5-3.3-1.7,8.1
			c-0.5,1.1,0.5,0.6-2,4.5l-0.2-0.2c-0.1,0.1-0.1,0.3-0.2,0.3s-0.2,0-0.2-0.1l-0.5-0.2c-0.2-0.1-0.3-0.2-0.5-0.3c0,0,0.1,0,0.1-0.1
			c0,0-0.2-0.1-0.3-0.2v-0.2c-0.5-1.7-0.8-3-0.8-4.5c0-0.2,0.1-0.7,0.2-1.6c1.6-4.8-2,4.1,4.9-24c0.7-1.6,1.3-4.5,2.8-7.6v-0.2
			c0.2-0.3,0.5-0.7,0.8-1l0.3-0.3c0.1-0.3,0.2-0.7,0.3-1c0.1-0.1,1.1-2.8,3.9-2.8c0.2,0,0.7,0.1,1.5,0.3c0.7,0.2,1.4-0.2,3.9,3
			c0.5,1.2,0.9,1.1,1.2,5.5v3.8c-0.1,0.8-0.1,1.4-0.1,1.8v4.5c0,0.4,0.1,1.4,0.2,3c0,0,1.1-2.6,3.3-4.7l1.4-2.5l0.3-0.3l0.7-1.3
			c0.8-1.4,1.4-2.7,3.9-7l1.1-1.8c0.3-0.5,0.8-1.4,1.5-2.5c0.3-0.6,2-2.3,3.5-4.9c0.2-0.8,0.9-0.7,2.7-3.3l0.5-0.3
			c0.3-0.4,0.8-0.5,1.4-0.5C347.1,299.1,348.1,299.4,349.4,300.5z"/>
		<path class="st2" d="M384.3,325.9c-0.1,0.5-0.2,1.3-0.3,2.4c-1.2,1.2-2.3,6.6-3.9,10.4c-0.5,1.2-1,3.3-1.4,6.1l-1,6.3
			c-0.1,0.4-0.1,0.8-0.1,1.2c0,0.5,0,1.1,0.2,1.8c-0.2-0.4-0.8-1-1.6-1.8c-1.6-1.6-1.8-2.6-1.8-5.1c0-2.2,0.2-3.6,0.5-4.5
			c-0.2-0.3-0.5-0.5-0.7-0.5c-0.8,0-1.7,1.5-6.7,5.7c-0.5,1.6-1.9,2.4-7,5.1c-1,1.1-2,1.7-3.1,1.7c-0.2,0-2.3-1-2.9-2.9
			c-0.8-2.9-2.8-3.6-2.8-6.5c0-0.8,0.2-2.1,0.8-4c0.6-0.2,1.3-0.8,2.1-1.6c0.3-1.9,0.5-1.7,4.7-8.4c1.7-1.3,1.3-2.5,4.2-5.1
			c4.2-5.6,7.4-9.3,10.1-9.3c0.8,0,1.8,0.6,3.1,1.9c1.8,0,1.1,1,4.9,2c-0.1-0.1,3.3,1.3,3.3,3.3
			C384.9,324.5,384.3,325.5,384.3,325.9z M374.4,326c-0.4,0-1.2,0.5-2.3,1.5c-1.7,1.1-3.9,3.5-9.8,10.4c-0.6,0.9-4.9,7.1-4.9,8.4
			c0,0.5,0.2,0.6,0.5,0.6c1.1,0,3.3-2.9,6.6-5.4c0.5-0.9,1.4-1.4,5.4-5.4c0-0.8,2.6-4.8,3.9-5.7c0.9-2.3,1.4-3.4,1.5-3.4
			C375.1,326.3,374.9,326,374.4,326z M375.7,325.7c0.1,0.1,0.2,0.2,0.5,0.3c0.1-0.1,0.2-0.3,0.2-0.5
			C376.3,325.4,375.7,325.7,375.7,325.7z"/>
		<path class="st2" d="M420.8,347c-0.1,0.5,0,1.1-0.5,1.6s-0.8,1-1.6,1.7c-0.9,0.7-0.8,0.8-1.7,1.5c-0.9,0.7-0.9,0.6-1.8,1.3
			c-0.5,0.4-0.6,0.1-1.2,0.4c-0.6,0.2-0.8,0.5-1.6,0.7c-0.8,0.2-1.6,0.5-2.2,0.6s-1.1,0.2-1.4,0.2c-0.8,0-1.6-0.5-2.3-1.1
			c-0.8-0.5-1.2-1.5-1.9-2.6c-0.8-1.1-1.4-2.2-1.7-3.3c-0.2-1.1-0.6-2.3-0.5-3.3c0-0.2,0-0.4,0.1-0.6l-0.3-0.9l0.2-0.4l-0.2-1.1
			v-4.2l-0.4-0.2l0.6-1.5l-0.1-0.6l0.2-0.3v-2.3l0.1,1.1c0-0.6,0.1-1.3,0.1-2.3c0.1-0.8,0.8-1.5,0.7-1.9c-0.1-0.5-0.5-0.4-0.8-0.4
			c-0.4,0-0.9,0.2-1.6,1.1c-0.4,0.5-0.8,1.1-1.4,1.9l-2,4l-0.2,0.7l-0.9,1.7v0.6l-0.5,0.6l-1.1,2.3l-0.8,1.1l-0.6,0.2
			c-0.1,0.1-0.1,0.1-0.2,0.2v0.2h-0.2c-0.2,0.2-0.3,0.3-0.3,0.4c-1.2,1.8-2.1,3.2-3,4.1c-1,0.9-1.7,1.1-2.4,1.1
			c-0.4,0-0.4-0.3-0.5-0.9c-0.2-0.6-0.8-1.4-0.7-2c0.2-1.1,0.7-2.3,1.1-3.9c0.3-1.6,0.6-3.5,1.1-5.6c0-0.2-0.1-0.7,0-1.4
			c0.2-0.8,1-1.7,1.2-3c0.1-0.9,0.3-1.7,0.5-2.5s-0.2-1.5-0.1-2.1c0.2-1,1.1-1.7,1.4-2.7c0.5-1,0.9-1.9,1.5-2.9
			c0.7-1.2,1.1-2.3,1.7-2.9s1.1-1.1,1.7-1.1c0.4,0,0.4,0.5,0.5,1.1c0.1,0.7,0.3,1.6,0.2,2.8c-0.4,1.7-0.5,1.7-0.8,3.4
			c-0.4,1.7-0.7,1.7-1,3.4c-0.3,1.2,0.2,2.3,0.2,2.9s-0.1,0.9,0.2,0.9c0.2,0,0.7-0.3,1.4-1c0.6-0.7,1.5-1.7,2.6-3.1
			c1.5-2,2.4-3.9,3.5-5.2c1.1-1.3,2-2,2.6-2.6c1.3-1.4,2.3-2.6,3.2-3.3c0.9-0.7,1.7-1.1,2.4-1.1c0.2,0,0.2,0.6,0.4,1
			c0.2,0.4,0.5,0.8,0.5,1.1c-0.7,2.6-0.5,2.6-1.2,5.4c-0.7,2.6-0.6,2.6-1.2,5.4c-0.2,1-0.6,2-0.5,3.2c0,1.1,0.5,2.3,0.8,3.5
			c0.4,1.6,0.8,3.8,1.3,5.6c0.4,1.9,0.4,3.4,0.5,3.6c0.4,0.8,0.8,1.5,1.3,1.9s0.2,1.1,0.9,1.1c0.4,0,0.8-0.5,1.4-0.5
			c0.5-0.2,1.3-0.1,2-0.3c0.8-0.2,0.8-0.5,1.4-0.7s1,0.3,1.4,0.3c0.3,0,0.7-0.5,0.8-0.4C421,346.4,420.7,346.8,420.8,347z"/>
		<path class="st2" d="M449.4,336.3c-1.3,5.9-4.5,8.4-15.5,14c-0.2,0.1-0.8,0.2-2.1,0.3c-1.4,1.7-3.4,2.5-6,2.5
			c-1.3,0-2.1-0.2-2.4-0.4l-2.8-2.3c-0.1,0-0.2,0-0.2,0c-3.1,0-2.9-4.9-3.3-5.4c0.2-0.4,0.4-0.7,0.4-0.9c0-0.3-0.5-0.8-0.5-1
			c0-0.9,0.5-3.3,0.5-4.2c0.4-0.1,1.9-0.6,1.9-1.6c0-0.3-0.4-1.7-0.4-1.9c2-1.7,2-2.3,4.6-6.6c1.2-1.9,11-11.6,12.1-11.6
			c0.3,0,1,0.2,1.3,0.2c0.4,0,1.1-0.7,2-2.1c0.2,0.1,0.8,0.5,1.6,1.2l2.3,0.5c0.6,0.3,1.5,0.7,2.7,1.1c5,0,5.6,6.1,5.6,11.2
			C451,331.8,450.5,334.1,449.4,336.3z M442.6,327.5c-0.3-0.1-0.6-0.3-0.8-0.5c0.2-0.2,0.2-0.5,0.2-0.8c0-0.9-0.6-2.4-1.4-2.4
			c-0.7,0-2.3,1.1-4.8,3.3c-6,5.2-8.3,8.7-11,12.2c-0.3,0.3-1.6,4.2-1.6,4.7c0,0.8,1.1,2,2,2c2.8,0,6-1.2,9.5-3.6
			c0.8-0.2,1.7-0.6,2.9-1.2c0.4-0.4,1.1-1.8,2.3-4.2c0.3-0.6,1.2-5.4,1.9-5.7c0-1.7,0.3-2.6,0.9-2.9v-0.9H442.6z"/>
		<path class="st2" d="M520.7,298l-0.2,0.6c-0.1,0.4-0.3,1.2-0.6,2.3v0.2c-0.1,0.1-0.1,0.2-0.2,0.4c0.1,0.2,0.2,0.3,0.2,0.5
			c0,0.4,0,1-0.2,2c-0.5,3.6,0.5,3.8-1.9,15.7c0.1,0.2,0.2,0.4,0.2,0.6c-0.2,1.8-0.8,4.8-0.8,6.3v1.1c-0.4,2.5-0.5,4.6-1.7,9.3
			c0,1.5-1.1,6.5-2.5,6.5l-0.5,0.3c-0.2,0.2-1.7,0.8-3,1l-0.1,0.1c-1.4,1.4-2.3,2.5-4.1,2.5c-0.7-0.3-1.1,0-2.9-2.4
			c-3.1-3.8-5.6-6.6-8.2-12.6l-0.5-0.7l-2.3-5c-0.2-0.5-1.1-3.6-2.6-3.9c-0.3,1-0.7,2.5-1.1,4.5c-0.3,0.8-1.1,3-2,7v0.5
			c-0.4,0.9-1.1,3.1-2.4,9.6c-0.8,0.8-0.2,3.9-3.6,6l-0.1-0.1c-0.2,0-0.5,0.8-1.4,0.8c-0.1,0-0.2-0.1-0.2-0.2l-0.3-0.3
			c-0.5-0.2-0.8-1-0.8-2.3c0.4,0-0.4-1.5,0.5-4.6c1.1-2.9,0.9-3.8,1.5-6.4l0.5-2.3c0.8-3.8,1.8-9.5,3.5-17
			c0.2-1.1,1.4-10.4,3.8-10.4h0.5c0.2-0.1,0.4-0.1,0.5-0.1c1.7,0.2,1.7,0.5,2.6,1.5l1.6,2c0.7,1.8,0.5,1.4,4.5,9.5
			c0.5,2.1,0-0.8,4.2,9.8c0.5,0.7,1.4,1.7,2.6,5.7l0.6,0.9c0.2,0.4,0.4,0.8,0.6,1.1c0.5-0.5,0.4-0.3,2.4-1.2l0.6-0.5
			c0.4-1.4-0.1-1.2,1.2-5.1c0.5-1.5,2.6-12.6,3.3-16.6c0.2-0.5,0.8-5.4,3.7-15c0-2.6,2.3-3.3,4-3.6c0.7,0,0.8,0.5,0.9,1.2
			C520.8,297.4,520.8,297.6,520.7,298z"/>
		<path class="st2" d="M538,334.6c-3.9,0-6.3-0.5-7.4-1.4c-1.9,3.1-2.9,5.5-2.9,7.2c0,0.5,0.4,1.1,1.1,2.1c1.4,1.9,1.4,1.9,4.2,2.2
			c0.4,0.2,1.2,1.1,3.4,1.1c1.6,0,4-0.7,7.1-2.1c3.4-1.6,6.2-4,6.7-4c0.2,0,0.4,0.1,0.5,0.2c-0.1,0.7-0.3,1.6-0.7,2.6
			c-0.4,0.4-6.5,8.5-15.4,8.5c-3.3,0-7.7-4.6-9.9-7.3c-2.5-3.2-3.2-8.4-3.2-10.4c0.3-0.6,0.6-1.7,1-3.3c0-0.8,0.9-0.2,1.6-3
			c1.4-0.8,0.4-1.7,2.8-3.6l1.4-1.1c0.8-1,2-2.3,3.7-4.1l2.3-1.3c0.8-0.4,1.3-1,1.4-1.7h0.6c0.3,0,1.3,1.1,1.7,1.1
			c3.4,0.5,5.2,0.8,5.3,0.8c3.3,0.8,8,4.5,8,7.3C551.2,333.6,539.1,334.6,538,334.6z M540.2,322.3l-2.2,1.4c-3.9,2.2-5,4.8-7.3,7.9
			c1,0.3,1.5,0.5,1.6,0.5c0.5,0,1.7-0.6,3.8-1.9c5-3.2,5-5.1,5.5-6.9C540.9,322.6,540.5,322.3,540.2,322.3z"/>
		<path class="st2" d="M589.5,343.4l-1.2,1.4l-0.2,0.1l-0.2,0.3l-0.8,0.8l-0.7,0.6l-0.1,0.2l-1.4,1.2l-1.1,0.8l-0.9,0.6l-1.3,0.9
			l-0.8,0.5l-2,1.2l-0.5,0.2L577,353l-1.9,1.1l-0.4,0.3h-0.2c-1,2.8-1.1,4.2-1.6,4.8c0.2,0.3-0.9,3.5-0.9,3.7c0,0.5-0.7,1.6-0.8,1.9
			c0.1,0.8-0.2,1.4-0.2,1.4c-0.5,0.5-2.4,3.7-2.9,5.1c-0.4,0.2-2.2,3.3-2.4,3.3c-3.1,6.1-5.5,8.3-10.1,12.9c-2,0.7-4.8,3.6-6.3,3.6
			s-2.6-0.2-3.2-0.6c-0.1-0.5-0.2-1.2-0.2-1.8c0-1.3,0.2-2.6,0.5-4.2V384c0-0.6,0.2-1.6,0.5-2.7c5.4-9.8,10.4-16.9,14.9-21.4
			c1.4-2.9,4.9-4.8,5.4-7.3l0.2-0.1c-0.1-0.8-0.1-1.8,0.2-2.9c0.1-0.4,1.1-2.3,1.1-2.6c0-0.4-0.2-0.7-0.5-1
			c-0.6,0.2-1.4,0.8-2.6,1.8c-3.9,3.5-6.3,4.2-9.1,4.2c-3.6,0-5,0.6-7.6-6.3l-0.5-0.5c0-0.2,0.2-0.4,0.6-0.6c0-0.1-0.9-1-0.9-1.3
			l1.2-1.1c0-0.1-0.1-0.1-0.2-0.1c-0.4,0-0.5,0.2-0.5,0.2l0.7-1.4c0.3,0.4,0.5,0.5,0.8,0.5c0.1-0.1,0.1-0.3,0.1-0.7
			c0.6,0.5,0.2-0.1,0.5-0.1c-0.1,0.1-0.3,0.3,0.5-0.1l-0.3-0.4c-0.8-0.4,0.5-0.5-0.3-0.5v-1.1l0.2,0.2c0.2,0.1,0.4,0.2,0.5,0.2
			c0.5,0,0.6,0,0.6,0.1c0-0.1,0.1-0.2,0.2-0.3c0-0.2,0.4-0.5,0-0.5l0.3-0.2l0.2-1.4c0.6,0,1-1.2,1.1-1.4c0-0.1,0.2-0.4,0.2-0.5v-0.6
			c0.6-0.2,0.5-0.7,0.7-1.2c0.4-1.4,1.7-2.4,4.1-4.5c0.9-1.7,3.2-2.4,3.3-3.7c0.5-0.2,1.2-0.8,2-1.4c-0.1-0.2-0.1-0.5-0.1-0.8
			c3-2.3,6.5-5.4,9.2-5.7c0.2-0.1,1.4-1.1,1.8-1.1h3.6c1.4,0,2.6,0.5,3.6,1.1c-0.2,0.1-1.5,1.4-2.5,1.4c-0.3,0-0.4-0.2-0.6-0.2
			c-4.6,0-7.7,4.4-13.2,10.3c-1.1,1.3-3.9,5.2-9.8,14.1c-0.3,0.9-0.6,2.3-1.1,4.2c0.1,0.1,0.2,0.2,0.2,0.2c0,0.2-0.3,0.7-0.3,0.8
			c0.3,0,0.5-1.1,0.6-1.1c0.2,0.1,0.4,0.5,0.8,1.1c0.2,0,0.3-0.1,0.3-0.2l-0.2-0.3h0.6c3.7,0,4.5-0.4,12.7-5.7
			c3.3-1.5,2.2-3.1,5.4-8.2c2.9-6.7,3.6-5,5.7-8.9c-0.1-0.2-0.1-0.5-0.1-0.8c0.1-0.4,0.6-1,1.7-1.7c0.8,0.6,1.9,1.3,3.2,2
			c-0.3,0.2-0.5,0.5-0.5,0.6c0,0.7,0.8,1.2,0.8,1.6c0,0.2-0.2,0.8-0.5,1.7c-0.8,2.6-0.7,3-2.3,5.2c-3.6,4.8-1.1,3.7-3.9,8.8
			c-0.2,0.5-0.3,1.5-1.4,4.4h0.1c-0.1,0-0.1,0.1-0.1,0.1c-0.4,1-0.9,2.2-1.5,3.7l0.4-0.2l3.3-1.5l1.1-0.6l0.7-0.2l0.5-0.5l0.6-0.2
			l0.5-0.3l2.2-1.1l1-0.6l1.1-0.8l0.3-0.1l1.4-0.8l0.5-0.2L589.5,343.4z M568.1,357c-1.1,0.2-8.1,8.5-8.5,9.6
			c-1.9,0.2-2.8,2.8-5.1,8.9c-2.5,3.7-3.4,5.9-3.4,6.4c0.2,1.6,0.7,2.4,1.4,2.4c0.2,0,4.5-4.8,5.1-5.8c1.1-1.7,5.7-9.8,5.8-10.5
			C563.4,367.6,568.1,357,568.1,357z M582,316.9C582,316.9,582.1,316.9,582,316.9C582,317,582,317,582,316.9z"/>
		<path class="st2" d="M618.4,318.9c-0.1,0.3-0.5,0.5-1.1,0.6c-0.6,0.2-1.5,0.5-2.5,0.8c-0.8,0.5-0.8,0.5-1.6,0.9
			c-0.8,0.5-0.8,0.7-1.6,1.1c-0.4,0.2-1.6,0.5-3.3,1.7s-3.9,3.3-6.3,6.5c-0.5,0.6-0.9,1.4-1.3,2.2c-0.5,0.8-0.7,1.7-0.9,2.6
			c-0.1,0.2-0.4,0.6-0.6,1.4c-0.2,0.8-0.5,1.9-0.8,3.4c-0.2,0.8-0.4,1.6-0.6,2.3c-0.2,0.7-0.4,1.3-0.6,1.9c-0.1,0.2-0.1,0.2-0.2,0.4
			c0,0.2,0.1,0.2,0,0.4c0,0.3-0.1,0.3-0.1,0.7c0,0.3,0.2,0.3,0.2,0.6c-0.2,0.8-0.2,0.8-0.5,1.7c-0.2,0.8-0.2,0.8-0.4,1.6
			c-0.1,0.2-0.2,0.1-0.2,0.2c-0.1,0.2,0,0.5-0.2,0.4c-0.5-0.2-0.4-0.4-0.8-0.6c-0.3-0.3-0.2-0.8-0.7-0.5s-0.2,0.5-0.5,1.1
			c-0.2,0.5,0,0.7-0.3,1.1c-0.2,0.2-0.3,0-0.5,0.1s-0.2,0.2-0.5,0.2c-0.2,0-0.2-0.2-0.4-0.2c-0.2-0.1-0.2,0-0.4-0.2
			c-0.2-0.1,0-0.2,0-0.3c-0.1-0.1-0.1-0.1-0.2-0.2c-0.3-0.5-0.3-0.5-0.7-1.1c-0.3-0.5-0.4-0.5-0.6-1.1c-0.2-0.2,0-0.3-0.1-0.5
			c-0.1-0.3-0.2-0.2-0.2-0.5c0-0.1,0.1-0.1,0.1-0.2s0-0.1-0.1-0.2c0-0.1,0.1-0.1,0-0.2s-0.2,0-0.2-0.1c-0.1-0.2-0.1-0.2-0.2-0.5
			c-0.1-0.2-0.2-0.2-0.2-0.5c0-0.2,0.2-0.2,0.2-0.3c0.1-0.2,0.1-0.2,0.1-0.3c-0.1-0.2,0-0.5,0-0.7c0-0.3,0.1-0.5,0.1-0.8
			c0.5-2,0.8-3.8,1.2-5.3s0.8-2.7,1-3.8c0.2-0.4,0.1-0.5,0.2-0.8c0.2-0.5,0.2-0.5,0.3-0.9c0,0,0-0.1,0.1-0.1v0.1
			c0.2-0.5,0.3-0.8,0.4-1c0.1-0.2,0-0.2,0.1-0.4c0.1-0.4,0.2-0.9,0.2-1.6c0.1-0.6,0.1-1.4,0.2-2.2c0.2-0.8,0.3-1.6,0.4-2.3
			c0.1-0.6,0.2-1.1,0.2-1.6c0.1-0.6,0.3-1.3,0.7-1.9c0.3-0.7,0.8-1.4,1.4-2c0-0.1,0.1-0.1,0.1-0.2c0.1-0.2-0.1-0.2,0-0.2
			c0.4-0.5,0.4-0.5,0.8-1c0.4-0.5,0.3-0.5,0.8-1c0.2-0.2,0.2-0.2,0.5-0.2c0.2-0.2,0.2-0.2,0.5-0.3c0.3-0.1,0.3,0.2,0.7,0.2
			c0.3,0,0.4-0.2,0.7-0.1c0.2,0.1,0.2,0.2,0.4,0.4c0.2,0.2,0.1,0.2,0.3,0.4s0.5,0.2,0.8,0.5c0.2,0.2,0.5,0.5,0.8,0.8
			c0.5,0.5,0.8,0.9,1.2,1.1c0.3,0.2,0.7,0.3,1,0.3c0.2,0,0.8-0.3,1.5-0.7c0.8-0.4,1.9-0.8,3.1-1.5c1.4-0.7,2.7-1.3,3.8-1.6
			c1.1-0.3,2-0.4,2.7-0.4c0.3,0,0.5,0.1,0.8,0.2s0.6,0.2,0.8,0.3c0.4,0.2,0.7,0.5,0.8,0.7C618.5,318.2,618.4,318.5,618.4,318.9z"/>
		<path class="st2" d="M642.2,325.9c-0.1,0.5-0.2,1.3-0.3,2.4c-1.2,1.2-2.3,6.6-3.9,10.4c-0.5,1.2-1,3.3-1.4,6.1l-1,6.3
			c-0.1,0.4-0.1,0.8-0.1,1.2c0,0.5,0,1.1,0.2,1.8c-0.2-0.4-0.8-1-1.6-1.8c-1.6-1.6-1.8-2.6-1.8-5.1c0-2.2,0.2-3.6,0.5-4.5
			c-0.2-0.3-0.5-0.5-0.7-0.5c-0.8,0-1.7,1.5-6.7,5.7c-0.5,1.6-1.9,2.4-7,5.1c-1,1.1-2,1.7-3.1,1.7c-0.2,0-2.3-1-2.9-2.9
			c-0.8-2.9-2.8-3.6-2.8-6.5c0-0.8,0.2-2.1,0.8-4c0.6-0.2,1.3-0.8,2.1-1.6c0.3-1.9,0.5-1.7,4.7-8.4c1.7-1.3,1.3-2.5,4.2-5.1
			c4.2-5.6,7.4-9.3,10.1-9.3c0.8,0,1.8,0.6,3.1,1.9c1.8,0,1.1,1,4.9,2c-0.1-0.1,3.3,1.3,3.3,3.3
			C642.8,324.5,642.2,325.5,642.2,325.9z M632.3,326c-0.4,0-1.2,0.5-2.3,1.5c-1.7,1.1-3.9,3.5-9.8,10.4c-0.6,0.9-4.9,7.1-4.9,8.4
			c0,0.5,0.2,0.6,0.5,0.6c1.1,0,3.3-2.9,6.6-5.4c0.5-0.9,1.4-1.4,5.4-5.4c0-0.8,2.6-4.8,3.9-5.7c0.9-2.3,1.4-3.4,1.5-3.4
			C633.1,326.3,632.8,326,632.3,326z M633.6,325.7c0.1,0.1,0.2,0.2,0.5,0.3c0.1-0.1,0.2-0.3,0.2-0.5
			C634.2,325.4,633.7,325.7,633.6,325.7z"/>
	</g>
	<g class="st0">
		<path class="st1" d="M369.2,495.2l16-39.5h6.1l15.8,39.5l-5.1,2l-4.6-11.7h-19l-4.6,11.6L369.2,495.2z M380.2,480.9h15.4
			l-7.7-19.7L380.2,480.9z"/>
		<path class="st1" d="M417.3,453.4h5.3v16c1.6-1.8,4.6-3.9,8.8-3.9c7,0,13.4,5.7,13.4,15.6c0,9.7-6.8,16.2-13.7,16.2
			c-3.5,0-6.8-1.5-8.8-3.2v2.5h-4.9L417.3,453.4L417.3,453.4z M430.2,470.1c-3.3,0-6.2,2-7.6,4v16.3c1.8,1.4,4.3,2.3,7,2.3
			c5.7,0,9.8-4.5,9.8-11.3C439.4,474.3,435.2,470.1,430.2,470.1z"/>
		<path class="st1" d="M460.4,483.6c0.7,5.7,4.1,9.1,9.5,9.1c3.5,0,6.2-0.8,8.8-2l1.2,4.5c-2.8,1.3-6.3,2.2-10.6,2.2
			c-8.7,0-14.2-5.9-14.2-15.9c0-9.1,5.6-15.9,13.7-15.9c8.7,0,13.1,6.4,13.1,14.1c0,1.4-0.1,2.7-0.2,4h-21.3V483.6z M460.3,479.4
			H477c0-5.9-3.2-9.2-8.4-9.2C464.1,470.1,460.9,473.3,460.3,479.4z"/>
		<path class="st1" d="M497.2,483.6c0.7,5.7,4.1,9.1,9.5,9.1c3.5,0,6.2-0.8,8.8-2l1.2,4.5c-2.8,1.3-6.3,2.2-10.6,2.2
			c-8.7,0-14.2-5.9-14.2-15.9c0-9.1,5.6-15.9,13.7-15.9c8.7,0,13.1,6.4,13.1,14.1c0,1.4-0.1,2.7-0.2,4h-21.3V483.6z M497.1,479.4
			h16.7c0-5.9-3.2-9.2-8.4-9.2C500.9,470.1,497.7,473.3,497.1,479.4z"/>
		<path class="st1" d="M528.3,492.3l21.8-31.8h-20.8v-4.8h27.1v4.2l-21.8,31.8h22.6v4.9h-29v-4.3H528.3z"/>
		<path class="st1" d="M572.6,483.6c0.7,5.7,4.1,9.1,9.5,9.1c3.5,0,6.2-0.8,8.8-2l1.2,4.5c-2.8,1.3-6.3,2.2-10.6,2.2
			c-8.7,0-14.2-5.9-14.2-15.9c0-9.1,5.6-15.9,13.7-15.9c8.7,0,13.1,6.4,13.1,14.1c0,1.4-0.1,2.7-0.2,4h-21.3V483.6z M572.6,479.4
			h16.7c0-5.9-3.2-9.2-8.4-9.2C576.3,470.1,573.1,473.3,572.6,479.4z"/>
		<path class="st1" d="M609.4,483.6c0.7,5.7,4.1,9.1,9.5,9.1c3.5,0,6.2-0.8,8.8-2l1.2,4.5c-2.8,1.3-6.3,2.2-10.6,2.2
			c-8.7,0-14.2-5.9-14.2-15.9c0-9.1,5.6-15.9,13.7-15.9c8.7,0,13.1,6.4,13.1,14.1c0,1.4-0.1,2.7-0.2,4h-21.3V483.6z M609.4,479.4
			h16.7c0-5.9-3.2-9.2-8.4-9.2C613.1,470.1,609.9,473.3,609.4,479.4z"/>
	</g>
	<g>
		<g class="st0">
			<path class="st3" d="M698.6,46.4L694,56.8h-2.3L687,46.4v14.4h-2.2V43.4h3.3l4.8,11l4.7-11h3.4v17.4h-2.4V46.4z"/>
			<path class="st3" d="M712.4,47.5c1.5,0,2.7,0.6,3.6,1.3v-1h2v9.8c0,1.3,0.7,1.5,1.5,1.5l-0.5,1.7c-1.6,0-2.6-0.7-2.9-1.9
				c-0.8,1.1-2,2.1-4,2.1c-3.2,0-5.8-2.6-5.8-6.7C706.3,50.5,708.8,47.5,712.4,47.5z M715.8,57.4v-6.9c-0.9-0.6-2-1-3.2-1
				c-2.4,0-4,1.9-4,4.8c0,2.8,1.7,4.8,4,4.8C713.8,59,715,58.4,715.8,57.4z"/>
			<path class="st3" d="M724,44.1c0-0.9,0.6-1.6,1.6-1.6c0.9,0,1.6,0.7,1.6,1.6c0,0.9-0.6,1.6-1.6,1.6C724.7,45.6,724,44.9,724,44.1
				z M726.7,60.7h-2.2V47.8h2.2V60.7z"/>
			<path class="st3" d="M734.8,50c0.9-1.4,2.4-2.5,4.3-2.5c2.9,0,4.3,1.9,4.3,4.8v8.4h-2.2v-8.2c0-1.9-0.9-3.1-2.5-3.1
				c-1.5,0-3,1.2-3.9,2.7v8.5h-2.2V47.8h2.2L734.8,50L734.8,50z"/>
		</g>
	</g>
	<g>
		<g class="st0">
			<path class="st3" d="M684.5,199c1.2,1,2.6,1.7,4.6,1.7c2.4,0,3.9-1.1,3.9-2.8c0-1.4-0.6-2.3-4-3.5c-3.6-1.4-4.8-2.7-4.8-5.2
				s2.1-4.5,5.9-4.5c2,0,3.6,0.4,5.2,1.2l-0.9,2c-1.1-0.6-2.7-1.2-4.3-1.2c-2.2,0-3.5,0.9-3.5,2.3c0,1.3,0.5,2,3.8,3.2
				c3.9,1.4,5.1,3,5.1,5.4c0,3.2-2.6,5.1-6.3,5.1c-2.4,0-4.5-0.7-5.8-1.8L684.5,199z"/>
			<path class="st3" d="M702,196.9c0.3,2.4,1.7,3.8,4,3.8c1.5,0,2.6-0.3,3.7-0.8l0.5,1.9c-1.2,0.5-2.7,0.9-4.5,0.9
				c-3.7,0-6-2.5-6-6.7c0-3.9,2.4-6.7,5.8-6.7c3.7,0,5.6,2.7,5.6,6c0,0.6,0,1.1-0.1,1.7L702,196.9L702,196.9z M702,195.1h7.1
				c0-2.5-1.3-3.9-3.5-3.9C703.6,191.2,702.2,192.5,702,195.1z"/>
			<path class="st3" d="M724.3,191.9c-0.9-0.5-1.7-0.7-2.7-0.7c-2.3,0-4.1,1.8-4.1,4.7c0,2.7,1.6,4.8,3.9,4.8c1.2,0,2-0.3,3-0.8
				l0.7,1.9c-1,0.6-2.3,0.9-3.9,0.9c-3.7,0-6.1-2.8-6.1-6.7c0-3.7,2.4-6.7,6.2-6.7c1.5,0,2.5,0.3,3.5,0.8L724.3,191.9z"/>
			<path class="st3" d="M734.9,189.2c3.6,0,6.4,2.6,6.4,6.7c0,4.1-2.8,6.8-6.4,6.8c-3.7,0-6.4-2.8-6.4-6.7
				C728.5,191.8,731.3,189.2,734.9,189.2z M734.9,191.2c-2.6,0-4.1,1.9-4.1,4.7c0,2.6,1.8,4.8,4.1,4.8c2.6,0,4.1-1.9,4.1-4.8
				C739.1,193.4,737.3,191.2,734.9,191.2z"/>
			<path class="st3" d="M748.4,191.7c0.9-1.4,2.4-2.5,4.3-2.5c2.9,0,4.3,1.9,4.3,4.8v8.4h-2.1v-8.2c0-1.9-0.9-3.1-2.5-3.1
				c-1.5,0-3,1.2-3.9,2.7v8.5h-2.2v-12.9h2.2L748.4,191.7L748.4,191.7z"/>
			<path class="st3" d="M762.1,196c0-3.9,2.6-6.8,5.7-6.8c1.7,0,3,0.9,3.7,1.6v-6.7h2.2v15.2c0,1.3,0.7,1.5,1.5,1.5l-0.5,1.7
				c-1.6,0-2.5-0.6-2.9-1.9c-0.7,1-2,2.1-4,2.1C764.6,202.7,762.1,200.1,762.1,196z M771.5,199.2v-6.4c-0.6-0.8-1.8-1.6-3.2-1.6
				c-2.4,0-3.9,2.1-3.9,4.8c0,2.8,1.7,4.8,4,4.8C769.5,200.7,770.7,200.1,771.5,199.2z"/>
			<path class="st3" d="M785.1,189.2c1.5,0,2.7,0.6,3.6,1.3v-1h2v9.8c0,1.3,0.7,1.5,1.5,1.5l-0.5,1.7c-1.6,0-2.6-0.7-2.9-1.9
				c-0.8,1.1-2,2.1-4,2.1c-3.2,0-5.8-2.6-5.8-6.7C779,192.2,781.5,189.2,785.1,189.2z M788.5,199.1v-6.9c-0.9-0.6-2-1-3.2-1
				c-2.4,0-4,1.9-4,4.8c0,2.8,1.7,4.8,4,4.8C786.5,200.7,787.7,200.1,788.5,199.1z"/>
			<path class="st3" d="M804.1,191.7c-0.3-0.1-0.7-0.2-1.1-0.2c-1.8,0-3.6,1.5-3.6,4.9v6h-2.2v-12.9h2.2v2.8
				c0.6-1.6,1.9-3.1,4.1-3.1c0.5,0,1,0,1.4,0.1L804.1,191.7z"/>
			<path class="st3" d="M807.2,207.7l0.5-1.9c0.4,0.2,1,0.4,1.7,0.4c1.4,0,2.4-0.7,3.4-3.3l0.6-1.5h-1.2l-5-11.3l2-0.9l4.8,10.7
				l3.7-10.6l2.1,0.8l-4.7,12.9c-1.5,4-3.2,5.1-5.7,5.1C808.4,208.2,807.6,207.9,807.2,207.7z"/>
		</g>
	</g>
	<g>
		<g class="st0">
			<path class="st3" d="M684.8,329.5c1.5-0.1,2.9-0.2,4.8-0.2c5.9,0,8.6,4,8.6,8.9c0,4.8-2.7,8.9-8.9,8.9c-1.9,0-3.2-0.1-4.6-0.2
				v-17.4H684.8z M687.1,331.4v13.4c0.7,0.1,1.5,0.1,2.3,0.1c4.5,0,6.4-2.8,6.4-6.8c0-3.6-2-6.8-6.3-6.8
				C688.6,331.3,687.8,331.4,687.1,331.4z"/>
			<path class="st3" d="M704.8,341.3c0.3,2.4,1.7,3.8,4,3.8c1.5,0,2.6-0.3,3.7-0.8l0.5,1.9c-1.2,0.5-2.7,0.9-4.5,0.9
				c-3.7,0-6-2.5-6-6.7c0-3.9,2.4-6.7,5.8-6.7c3.7,0,5.6,2.7,5.6,6c0,0.6,0,1.1-0.1,1.7L704.8,341.3L704.8,341.3z M704.8,339.5h7.1
				c0-2.5-1.3-3.9-3.5-3.9C706.4,335.6,705,336.9,704.8,339.5z"/>
			<path class="st3" d="M727.1,336.3c-0.9-0.5-1.7-0.7-2.7-0.7c-2.3,0-4.1,1.8-4.1,4.7c0,2.7,1.6,4.8,3.9,4.8c1.2,0,2-0.3,3-0.8
				l0.7,1.9c-1,0.6-2.3,0.9-3.9,0.9c-3.7,0-6.1-2.8-6.1-6.7c0-3.7,2.4-6.7,6.2-6.7c1.5,0,2.5,0.3,3.5,0.8L727.1,336.3z"/>
			<path class="st3" d="M737.7,333.6c3.6,0,6.4,2.6,6.4,6.7s-2.8,6.8-6.4,6.8c-3.7,0-6.4-2.8-6.4-6.7
				C731.3,336.2,734.1,333.6,737.7,333.6z M737.7,335.6c-2.6,0-4.1,1.9-4.1,4.7c0,2.6,1.8,4.8,4.1,4.8c2.6,0,4.1-1.9,4.1-4.8
				C741.9,337.8,740.1,335.6,737.7,335.6z"/>
			<path class="st3" d="M756.1,336.1c-0.3-0.1-0.7-0.2-1.1-0.2c-1.8,0-3.6,1.5-3.6,4.9v6h-2.2v-12.9h2.2v2.8
				c0.6-1.6,1.9-3.1,4.1-3.1c0.5,0,1,0,1.4,0.1L756.1,336.1z"/>
			<path class="st3" d="M765.5,333.6c1.5,0,2.7,0.6,3.6,1.3v-1h2v9.8c0,1.3,0.7,1.5,1.5,1.5l-0.5,1.7c-1.6,0-2.6-0.7-2.9-1.9
				c-0.8,1.1-2,2.1-4,2.1c-3.2,0-5.8-2.6-5.8-6.7C759.4,336.6,761.9,333.6,765.5,333.6z M768.9,343.5v-6.9c-0.9-0.6-2-1-3.2-1
				c-2.4,0-4,1.9-4,4.8c0,2.8,1.7,4.8,4,4.8C766.9,345.2,768.1,344.5,768.9,343.5z"/>
			<path class="st3" d="M778.5,330.4h1.7v4.1h3.6v1.9h-3.6v6.2c0,1.9,0.9,2.6,2.1,2.6c0.8,0,1.6-0.3,2.2-0.7l0.6,1.8
				c-0.7,0.4-1.9,0.9-3.1,0.9c-2.5,0-4-1.7-4-4.7v-6h-2.2v-1.9h2.3L778.5,330.4z"/>
			<path class="st3" d="M788.9,330.2c0-0.9,0.6-1.6,1.6-1.6c0.9,0,1.6,0.7,1.6,1.6s-0.6,1.6-1.6,1.6
				C789.6,331.7,788.9,331,788.9,330.2z M791.6,346.8h-2.2v-12.9h2.2V346.8z"/>
			<path class="st3" d="M795.8,334.5l2-0.8l4.4,10.6l4.4-10.6l1.9,0.8l-5.2,12.3H801L795.8,334.5z"/>
			<path class="st3" d="M813.6,341.3c0.3,2.4,1.7,3.8,4,3.8c1.5,0,2.6-0.3,3.7-0.8l0.5,1.9c-1.2,0.5-2.7,0.9-4.5,0.9
				c-3.7,0-6-2.5-6-6.7c0-3.9,2.4-6.7,5.8-6.7c3.7,0,5.6,2.7,5.6,6c0,0.6,0,1.1-0.1,1.7L813.6,341.3L813.6,341.3z M813.6,339.5h7.1
				c0-2.5-1.3-3.9-3.5-3.9C815.2,335.6,813.9,336.9,813.6,339.5z"/>
		</g>
	</g>
	<g>
		<g class="st0">
			<path class="st3" d="M682.9,479.9l2.3-0.7l3.9,15l3.7-13h3l3.7,13l3.9-15l2.2,0.7l-4.7,16.8h-3l-3.7-13l-3.7,13h-2.9L682.9,479.9
				z"/>
			<path class="st3" d="M710.5,491.1c0.3,2.4,1.7,3.8,4,3.8c1.5,0,2.6-0.3,3.7-0.8l0.5,1.9c-1.2,0.5-2.7,0.9-4.5,0.9
				c-3.7,0-6-2.5-6-6.7c0-3.9,2.4-6.7,5.8-6.7c3.7,0,5.6,2.7,5.6,6c0,0.6,0,1.1-0.1,1.7L710.5,491.1L710.5,491.1z M710.5,489.3h7.1
				c0-2.5-1.3-3.9-3.5-3.9C712.1,485.4,710.8,486.8,710.5,489.3z"/>
			<path class="st3" d="M724.6,478.3h2.2v6.8c0.7-0.7,2-1.6,3.7-1.6c3,0,5.7,2.4,5.7,6.6c0,4.1-2.9,6.9-5.8,6.9
				c-1.5,0-2.9-0.6-3.7-1.4v1.1h-2.1L724.6,478.3L724.6,478.3z M730.1,485.4c-1.4,0-2.6,0.9-3.2,1.7v6.9c0.8,0.6,1.8,1,3,1
				c2.4,0,4.1-1.9,4.1-4.8C733.9,487.2,732.2,485.4,730.1,485.4z"/>
		</g>
	</g>
</g>
</svg>
