<?xml version="1.0" encoding="utf-8"?>
<!-- Generator: Adobe Illustrator 22.1.0, SVG Export Plug-In . SVG Version: 6.00 Build 0)  -->
<svg version="1.1" id="Camada_1" xmlns="http://www.w3.org/2000/svg" xmlns:xlink="http://www.w3.org/1999/xlink" x="0px" y="0px"
	 viewBox="0 0 1000 1000" style="enable-background:new 0 0 1000 1000;" xml:space="preserve">
<style type="text/css">
	.st0{fill:#2D3951;}
	.st1{fill:#CA3A44;}
	.st2{fill:#FFFFFF;}
</style>
<rect x="-2" y="333.3" class="st0" width="1000" height="333.3"/>
<rect x="-2" y="666.6" class="st1" width="1000" height="333.3"/>
<g>
	<g>
		<path class="st1" d="M414.7,466.6h0.6v7.3h-0.6c-0.2-0.8-0.5-1.6-0.9-2.2c-1.6,2.1-3.7,3.1-6.3,3.1c-2.7,0-4.9-0.9-6.6-2.8
			s-2.6-4.4-2.6-7.5c0-2,0.4-4,1.2-5.8c0.8-1.8,1.9-3.2,3.3-4c1.4-0.9,3-1.3,4.6-1.3c1.4,0,2.7,0.3,3.8,1s2,1.3,2.5,2.1
			c0.4-0.9,0.6-1.8,0.7-2.7h0.6l0.2,7.9h-0.6c-0.4-2.8-1.3-4.7-2.5-5.8c-1.3-1.1-2.7-1.6-4.3-1.6c-2,0-3.5,0.9-4.7,2.6
			c-1.2,1.8-1.7,4.3-1.7,7.6c0,3.1,0.6,5.5,1.9,7.1c1.3,1.7,2.8,2.5,4.7,2.5c1,0,2-0.3,3.1-0.8c1-0.5,1.9-1.5,2.5-2.7
			C414.2,469.1,414.6,467.8,414.7,466.6z"/>
		<path class="st1" d="M436.6,472.1h0.5c-0.1,1.7-0.9,2.6-2.3,2.6c-0.6,0-1.1-0.2-1.5-0.6s-0.6-0.9-0.7-1.6
			c-0.9,0.7-1.8,1.3-2.5,1.6c-0.8,0.4-1.4,0.6-2,0.6c-0.8,0-1.4-0.2-2-0.7c-0.5-0.5-0.8-1.1-0.8-1.9c0-1,0.5-2,1.4-2.8
			s2.2-1.5,3.8-2.3l2.1-1v-0.6c0-0.9,0-1.5-0.2-1.9c-0.1-0.4-0.4-0.7-0.8-1s-1-0.5-1.7-0.5c-1.4,0-2.1,0.5-2.3,1.5
			c-0.1,1-0.5,1.6-1.2,1.6c-0.6,0-0.8-0.3-0.8-0.9s0.4-1.2,1.1-1.9c0.7-0.7,1.9-1,3.5-1c1.2,0,2.1,0.2,2.7,0.6s1.1,0.9,1.3,1.4
			c0.2,0.5,0.3,1.3,0.3,2.4v5.1c0,1.2,0.1,1.9,0.2,2.3s0.3,0.5,0.7,0.5C436.1,473.6,436.5,473.1,436.6,472.1z M432.6,466.8l-1.5,0.7
			c-2.4,1.1-3.5,2.4-3.5,4c0,0.6,0.2,1.2,0.5,1.6s0.7,0.6,1.2,0.6c0.4,0,0.9-0.2,1.5-0.5s1.2-0.8,1.9-1.4v-5H432.6z"/>
		<path class="st1" d="M451.9,462.6h-3.4v7.6c0,1.2,0,1.9,0.1,2.3s0.3,0.7,0.6,1c0.3,0.2,0.6,0.4,1,0.4c0.7,0,1.2-0.4,1.7-1.3
			l0.4,0.3c-0.3,0.7-0.7,1.2-1.3,1.5c-0.6,0.3-1.1,0.5-1.7,0.5c-0.7,0-1.2-0.2-1.7-0.6s-0.8-0.9-0.9-1.5s-0.2-1.6-0.2-3.1v-7.1h-1.6
			v-0.7c0.8,0,1.4-0.4,2-1.1s1-1.6,1.1-2.9h0.4v3.9h3.4v0.8H451.9z"/>
		<path class="st1" d="M470.7,466.1h-7.9c0,0.6-0.1,1-0.1,1.3c0,2.2,0.3,3.9,0.9,5s1.5,1.7,2.8,1.7c1.7,0,2.9-0.8,3.5-2.5h0.7
			c-0.3,1-0.9,1.9-1.7,2.4s-1.8,0.9-2.8,0.9s-1.9-0.3-2.7-0.8c-0.8-0.5-1.5-1.3-2.1-2.3c-0.5-1-0.8-2.2-0.8-3.6c0-2,0.5-3.6,1.6-4.9
			c1-1.3,2.4-2,3.9-2s2.6,0.5,3.4,1.5C470.2,463.9,470.6,465,470.7,466.1z M468.3,465.5c0-0.2,0-0.4,0-0.6c0-0.9-0.2-1.6-0.7-2.1
			s-1.1-0.7-1.7-0.7c-1.7,0-2.7,1.2-3,3.5L468.3,465.5L468.3,465.5z"/>
		<path class="st1" d="M483.5,464.6c0.3-0.9,0.8-1.7,1.5-2.3c0.7-0.6,1.4-0.9,2.1-0.9c0.6,0,1.1,0.2,1.4,0.6s0.5,0.8,0.5,1.3
			c0,0.3-0.1,0.6-0.3,0.8c-0.2,0.2-0.4,0.3-0.7,0.3c-0.5,0-0.8-0.4-1-1.1c-0.2-0.5-0.4-0.8-0.7-0.8c-0.4,0-0.9,0.3-1.4,0.9
			c-0.6,0.6-0.9,1.2-1.1,1.9c-0.2,0.6-0.2,1.5-0.2,2.6v2.2c0,1.3,0,2.2,0,2.5s0.2,0.6,0.4,0.8c0.2,0.2,0.6,0.3,1.2,0.3h0.4v0.7h-6
			v-0.7h0.3c0.6,0,0.9-0.1,1.2-0.3c0.2-0.2,0.4-0.4,0.4-0.7s0.1-1.2,0.1-2.6v-3.5c0-1.3,0-2.2,0-2.5s-0.2-0.6-0.4-0.8
			c-0.2-0.2-0.6-0.3-1.2-0.3h-0.3v-0.7c0.9-0.1,2-0.4,3.4-0.9C483.3,462.2,483.5,463.3,483.5,464.6z"/>
		<path class="st1" d="M500.7,461.4v8.7c0,1.3,0,2.2,0.1,2.5c0,0.3,0.2,0.6,0.4,0.8c0.2,0.2,0.6,0.3,1.2,0.3h0.3v0.7h-6.1v-0.7h0.5
			c0.7,0,1.1-0.1,1.3-0.3c0.2-0.2,0.3-0.5,0.3-0.7c0-0.3,0-1.1,0-2.5v-3.8c0-1.5-0.1-2.4-0.2-2.7s-0.3-0.5-0.5-0.6s-0.6-0.1-1.1-0.1
			h-0.4v-0.7c1.6-0.2,2.9-0.5,3.8-0.8L500.7,461.4L500.7,461.4z M498,455c0-0.4,0.1-0.8,0.4-1.1c0.3-0.3,0.6-0.5,1-0.5
			s0.7,0.2,1,0.5s0.4,0.7,0.4,1.1s-0.1,0.8-0.4,1.1c-0.3,0.3-0.6,0.5-1,0.5s-0.7-0.2-1-0.5C498.1,455.8,498,455.4,498,455z"/>
		<path class="st1" d="M514.1,461.4h0.4c0.2,0.6,0.3,1.5,0.4,2.6c0.7-0.9,1.4-1.5,2.1-1.9s1.5-0.6,2.3-0.6c0.9,0,1.6,0.2,2.2,0.6
			s0.9,0.9,1.1,1.5s0.2,1.5,0.2,2.7v3.9c0,1.4,0,2.3,0.1,2.6c0,0.3,0.2,0.6,0.4,0.7c0.2,0.2,0.7,0.2,1.3,0.2v0.7h-5.8v-0.7h0.3
			c0.7,0,1.1-0.1,1.3-0.3c0.2-0.2,0.3-0.5,0.3-0.7s0-1.1,0-2.5v-4c0-1,0-1.7-0.1-2.1s-0.3-0.8-0.7-1.1c-0.4-0.3-0.9-0.5-1.5-0.5
			c-0.7,0-1.3,0.2-1.9,0.7c-0.6,0.4-1.2,1.1-1.7,2v5.1c0,1.4,0,2.3,0.1,2.6c0.1,0.3,0.2,0.6,0.4,0.7c0.2,0.2,0.7,0.2,1.4,0.2v0.7
			H511v-0.7c0.6,0,1.1-0.1,1.3-0.2c0.2-0.1,0.4-0.4,0.5-0.6c0.1-0.3,0.1-1.2,0.1-2.7v-3.7c0-1.5,0-2.3-0.1-2.7
			c0-0.3-0.2-0.5-0.4-0.7c-0.2-0.2-0.7-0.2-1.4-0.2v-0.7C512,462,513,461.7,514.1,461.4z"/>
		<path class="st1" d="M541.9,463c0.8-1,1.6-1.5,2.4-1.5c0.4,0,0.8,0.1,1,0.4c0.2,0.3,0.4,0.6,0.4,0.9c0,0.7-0.3,1-0.8,1
			c-0.3,0-0.6-0.2-0.8-0.6c-0.2-0.4-0.4-0.6-0.6-0.6c-0.3,0-0.7,0.3-1.2,0.8c0.5,0.8,0.7,1.7,0.7,2.7c0,1.2-0.4,2.3-1.2,3.2
			c-0.8,0.9-2.1,1.5-4,1.5c-1.9,0.1-2.9,0.5-2.9,1.3c0,0.4,0.2,0.6,0.7,0.8c0.4,0.2,1.3,0.3,2.7,0.4c1.5,0.1,2.7,0.2,3.5,0.5
			c0.8,0.2,1.5,0.7,2,1.4c0.5,0.7,0.7,1.5,0.7,2.5c0,1.3-0.5,2.4-1.5,3.3c-1,0.8-2.4,1.2-4.3,1.2c-1.7,0-3.1-0.4-4.1-1.1
			s-1.5-1.7-1.5-2.8c0-0.6,0.1-1.1,0.4-1.5s0.7-0.6,1.3-0.6c0.1,0,0.3,0,0.4,0.1c-0.6,0.7-0.9,1.4-0.9,2.2c0,0.9,0.4,1.6,1.1,2.2
			c0.8,0.6,1.9,0.9,3.4,0.9c1.3,0,2.4-0.3,3.1-0.9s1.1-1.4,1.1-2.3c0-1-0.3-1.7-1-2.2c-0.7-0.4-1.9-0.7-3.6-0.7
			c-2-0.1-3.3-0.4-3.8-0.8c-0.6-0.4-0.9-1-0.9-1.7c0-1.3,0.8-2.2,2.5-2.5c-0.9-0.6-1.5-1.2-2-2c-0.4-0.7-0.7-1.6-0.7-2.5
			c0-1.3,0.5-2.4,1.4-3.2c0.9-0.9,2-1.3,3.2-1.3C539.7,461.4,540.9,461.9,541.9,463z M535.7,466.3c0,1.3,0.2,2.3,0.7,2.9
			s1.1,0.9,1.9,0.9c0.7,0,1.3-0.3,1.8-0.9s0.7-1.7,0.7-3.2s-0.3-2.5-0.8-3.1s-1.1-0.9-1.8-0.9c-0.8,0-1.5,0.4-1.9,1.1
			S535.7,464.9,535.7,466.3z"/>
		<path class="st1" d="M567.2,453.9l3.1-0.2c2.6-0.1,4.3-0.2,5.2-0.2c2.8,0,4.9,0.5,6.5,1.4c1.5,0.9,2.7,2.2,3.5,3.8
			c0.8,1.6,1.1,3.5,1.1,5.6c0,1.5-0.2,2.9-0.6,4.2c-0.4,1.3-1,2.3-1.7,3.1c-0.7,0.8-1.6,1.5-2.5,1.9s-1.9,0.7-2.7,0.8
			c-0.9,0.1-2.1,0.2-3.6,0.2h-8.4v-0.7h0.8c0.8,0,1.3-0.1,1.7-0.3c0.3-0.2,0.5-0.6,0.6-1c0.1-0.5,0.1-1.6,0.1-3.3v-10
			c0-1.7,0-2.7-0.1-3.2s-0.3-0.8-0.6-1c-0.3-0.2-0.9-0.3-1.8-0.3h-0.6L567.2,453.9L567.2,453.9z M573,454.3v13.8c0,2,0,3.4,0.1,4
			s0.3,1,0.6,1.2c0.3,0.2,1.1,0.4,2.2,0.4c1.6,0,3-0.2,4-0.7s1.9-1.5,2.6-2.9s1.1-3.3,1.1-5.6c0-1.8-0.2-3.3-0.6-4.7
			c-0.4-1.4-1-2.5-1.8-3.4c-0.8-0.9-1.6-1.4-2.5-1.8c-0.9-0.3-2.1-0.5-3.6-0.5C574.4,454.2,573.7,454.2,573,454.3z"/>
		<path class="st1" d="M599.6,461.4v8.7c0,1.3,0,2.2,0.1,2.5c0,0.3,0.2,0.6,0.4,0.8c0.2,0.2,0.6,0.3,1.2,0.3h0.3v0.7h-6.1v-0.7h0.5
			c0.7,0,1.1-0.1,1.3-0.3c0.2-0.2,0.3-0.5,0.3-0.7c0-0.3,0-1.1,0-2.5v-3.8c0-1.5-0.1-2.4-0.2-2.7c-0.1-0.3-0.3-0.5-0.5-0.6
			c-0.2-0.1-0.6-0.1-1.1-0.1h-0.4v-0.7c1.6-0.2,2.9-0.5,3.8-0.8L599.6,461.4L599.6,461.4z M596.9,455c0-0.4,0.1-0.8,0.4-1.1
			c0.3-0.3,0.6-0.5,1-0.5s0.7,0.2,1,0.5c0.3,0.3,0.4,0.7,0.4,1.1s-0.1,0.8-0.4,1.1s-0.6,0.5-1,0.5s-0.7-0.2-1-0.5
			C597,455.8,596.9,455.4,596.9,455z"/>
	</g>
	<g>
		<g>
			<path class="st2" d="M362.2,536h-12.5v-0.8c3.2,0,1.7-4.4,1.1-5.9l-1.6-4.3h-12c-0.7,2.2-3.2,10.6,4,10.2v0.8h-11.4v-0.8
				c1.6-0.1,2.8,0,7.2-12.5l8.3-24.6h0.6c8.9,23.8,12.2,33,12.2,33c1.6,4.3,2.7,4,4,4.1L362.2,536L362.2,536z M349.1,524.1l-6-16.8
				l-5.6,16.8H349.1z"/>
			<path class="st2" d="M408.1,536H404c-7.5-0.1-6.4-0.1-9.5-11.7c-1.5-5.6-6.2-5.6-6.8-5.6h-2.3V530c0,3.7,1.4,5.3,3.4,5.3v0.8
				h-12.5v-0.8c2.1,0,3.2-1.5,3.2-5.6v-26.2c0-3.3-1.1-4.5-3.2-4.5v-0.8h10.6c9.6,0,15.8,1.3,15.8,10.3c0,6.9-3.8,9.3-9.3,9.8
				c3.2-0.1,6.8,1.2,9.2,12c1,4.1,4.2,4.9,5.5,5L408.1,536L408.1,536z M386.9,498.9h-1.5v19h1.5c5.1,0,9.1,0,9.1-9.5
				C396,498.8,391.8,498.9,386.9,498.9z"/>
			<path class="st2" d="M453.6,536h-12.5v-0.8c3.2,0,1.7-4.4,1.1-5.9l-1.6-4.3h-12c-0.7,2.2-3.2,10.6,4,10.2v0.8h-11.4v-0.8
				c1.6-0.1,2.8,0,7.2-12.5l8.3-24.6h0.6c8.9,23.8,12.2,33,12.2,33c1.6,4.3,2.7,4,4,4.1L453.6,536L453.6,536z M440.4,524.1l-6-16.8
				l-5.6,16.8H440.4z"/>
			<path class="st2" d="M479,536h-10.7v-0.5c2.1,0,2.8-2.7,2.8-6.4V505c0-3.3-0.7-6.5-2.8-6.5v-0.4H479c6.7,0,12.8,0.1,12.8,9.2
				c0,8.2-7.4,9.3-8.4,9.3c3.2,0,10.7,0.6,10.7,9.8C494,535.7,487.4,536,479,536z M477.1,498.9v17.5h2.4c2.8,0,6.3-1.1,6.3-9.2
				c0-8-4-8.3-6.6-8.3L477.1,498.9L477.1,498.9z M479.5,517.2h-2.4v18h2c4.4,0,8.6,0.1,8.6-9.1C487.7,517.5,483,517.2,479.5,517.2z"
				/>
			<path class="st2" d="M535.6,524.5V536h-25.8v-0.8c2,0,2.7-2.4,2.7-6v-24.5c0-3.3-0.6-5.8-2.7-5.8v-0.8H535v10h-0.7
				c-0.8-9.1-11.6-9.2-13.6-9.2h-2.2v17.6h2.4c0.7,0,6.9,0,7.3-5.5h0.7v11.8h-0.7c-0.4-5.5-6.7-5.5-7.3-5.5h-2.4v17.9h2
				c2.1,0,12.8,0.1,14.4-10.7H535.6z"/>
			<path class="st2" d="M578.8,524.3V536H553v-0.8c2.1,0,3.1-2.2,3.1-5.9v-25.7c0-3.3-1.4-4.7-3.4-4.7v-0.8h13.4v0.8
				c-2.1,0-4,0.9-4,4.8v31.5h1.7c2.6,0,13.1,0,14.4-10.9L578.8,524.3L578.8,524.3z"/>
			<path class="st2" d="M622,524.3V536h-25.9v-0.8c2.1,0,3.1-2.2,3.1-5.9v-25.7c0-3.3-1.4-4.7-3.4-4.7v-0.8h13.4v0.8
				c-2.1,0-4,0.9-4,4.8v31.5h1.7c2.6,0,13.1,0,14.4-10.9L622,524.3L622,524.3z"/>
			<path class="st2" d="M670.2,536h-12.5v-0.8c3.2,0,1.7-4.4,1.1-5.9l-1.6-4.3h-12c-0.7,2.2-3.2,10.6,4,10.2v0.8h-11.4v-0.8
				c1.6-0.1,2.8,0,7.2-12.5l8.3-24.6h0.6c8.9,23.8,12.2,33,12.2,33c1.6,4.3,2.7,4,4,4.1L670.2,536L670.2,536z M657,524.1l-6-16.8
				l-5.6,16.8H657z"/>
		</g>
	</g>
</g>
<g>
	<g>
		<path class="st1" d="M414.7,133.3h0.6v7.3h-0.6c-0.2-0.8-0.5-1.6-0.9-2.2c-1.6,2.1-3.7,3.1-6.3,3.1c-2.7,0-4.9-0.9-6.6-2.8
			c-1.7-1.9-2.6-4.4-2.6-7.5c0-2,0.4-4,1.2-5.8c0.8-1.8,1.9-3.2,3.3-4c1.4-0.9,3-1.3,4.6-1.3c1.4,0,2.7,0.3,3.8,1s2,1.3,2.5,2.1
			c0.4-0.9,0.6-1.8,0.7-2.7h0.6l0.2,7.9h-0.6c-0.4-2.8-1.3-4.7-2.5-5.8c-1.3-1.1-2.7-1.6-4.3-1.6c-2,0-3.5,0.9-4.7,2.6
			c-1.2,1.8-1.7,4.3-1.7,7.6c0,3.1,0.6,5.5,1.9,7.1c1.3,1.7,2.8,2.5,4.7,2.5c1,0,2-0.3,3.1-0.8c1-0.5,1.9-1.5,2.5-2.7
			C414.2,135.7,414.6,134.5,414.7,133.3z"/>
		<path class="st1" d="M436.6,138.8h0.5c-0.1,1.7-0.9,2.6-2.3,2.6c-0.6,0-1.1-0.2-1.5-0.6c-0.4-0.4-0.6-0.9-0.7-1.6
			c-0.9,0.7-1.8,1.3-2.5,1.6c-0.8,0.4-1.4,0.6-2,0.6c-0.8,0-1.4-0.2-2-0.7c-0.5-0.5-0.8-1.1-0.8-1.9c0-1,0.5-2,1.4-2.8
			s2.2-1.5,3.8-2.3l2.1-1v-0.6c0-0.9,0-1.5-0.2-1.9c-0.1-0.4-0.4-0.7-0.8-1s-1-0.5-1.7-0.5c-1.4,0-2.1,0.5-2.3,1.5
			c-0.1,1-0.5,1.6-1.2,1.6c-0.6,0-0.8-0.3-0.8-0.9c0-0.6,0.4-1.2,1.1-1.9s1.9-1,3.5-1c1.2,0,2.1,0.2,2.7,0.6
			c0.6,0.4,1.1,0.9,1.3,1.4c0.2,0.5,0.3,1.3,0.3,2.4v5.1c0,1.2,0.1,1.9,0.2,2.3s0.3,0.5,0.7,0.5
			C436.1,140.3,436.5,139.8,436.6,138.8z M432.6,133.4l-1.5,0.7c-2.4,1.1-3.5,2.4-3.5,4c0,0.6,0.2,1.2,0.5,1.6
			c0.3,0.4,0.7,0.6,1.2,0.6c0.4,0,0.9-0.2,1.5-0.5s1.2-0.8,1.9-1.4v-5H432.6z"/>
		<path class="st1" d="M451.9,129.3h-3.4v7.6c0,1.2,0,1.9,0.1,2.3c0.1,0.4,0.3,0.7,0.6,1c0.3,0.2,0.6,0.4,1,0.4
			c0.7,0,1.2-0.4,1.7-1.3l0.4,0.3c-0.3,0.7-0.7,1.2-1.3,1.5c-0.6,0.3-1.1,0.5-1.7,0.5c-0.7,0-1.2-0.2-1.7-0.6
			c-0.5-0.4-0.8-0.9-0.9-1.5s-0.2-1.6-0.2-3.1v-7.1h-1.6v-0.7c0.8,0,1.4-0.4,2-1.1c0.6-0.7,1-1.6,1.1-2.9h0.4v3.9h3.4v0.8H451.9z"/>
		<path class="st1" d="M470.7,132.8h-7.9c0,0.6-0.1,1-0.1,1.3c0,2.2,0.3,3.9,0.9,5s1.5,1.7,2.8,1.7c1.7,0,2.9-0.8,3.5-2.5h0.7
			c-0.3,1-0.9,1.9-1.7,2.4s-1.8,0.9-2.8,0.9s-1.9-0.3-2.7-0.8c-0.8-0.5-1.5-1.3-2.1-2.3c-0.5-1-0.8-2.2-0.8-3.6c0-2,0.5-3.6,1.6-4.9
			c1-1.3,2.4-2,3.9-2s2.6,0.5,3.4,1.5C470.2,130.6,470.6,131.6,470.7,132.8z M468.3,132.2c0-0.2,0-0.4,0-0.6c0-0.9-0.2-1.6-0.7-2.1
			s-1.1-0.7-1.7-0.7c-1.7,0-2.7,1.2-3,3.5L468.3,132.2L468.3,132.2z"/>
		<path class="st1" d="M483.5,131.2c0.3-0.9,0.8-1.7,1.5-2.3s1.4-0.9,2.1-0.9c0.6,0,1.1,0.2,1.4,0.6s0.5,0.8,0.5,1.3
			c0,0.3-0.1,0.6-0.3,0.8c-0.2,0.2-0.4,0.3-0.7,0.3c-0.5,0-0.8-0.4-1-1.1c-0.2-0.5-0.4-0.8-0.7-0.8c-0.4,0-0.9,0.3-1.4,0.9
			c-0.6,0.6-0.9,1.2-1.1,1.9c-0.2,0.6-0.2,1.5-0.2,2.6v2.2c0,1.3,0,2.2,0,2.5s0.2,0.6,0.4,0.8c0.2,0.2,0.6,0.3,1.2,0.3h0.4v0.7h-6
			v-0.7h0.3c0.6,0,0.9-0.1,1.2-0.3c0.2-0.2,0.4-0.4,0.4-0.7s0.1-1.2,0.1-2.6v-3.5c0-1.3,0-2.2,0-2.5s-0.2-0.6-0.4-0.8
			c-0.2-0.2-0.6-0.3-1.2-0.3h-0.3V129c0.9-0.1,2-0.4,3.4-0.9C483.3,128.9,483.5,129.9,483.5,131.2z"/>
		<path class="st1" d="M500.7,128.1v8.7c0,1.3,0,2.2,0.1,2.5c0,0.3,0.2,0.6,0.4,0.8c0.2,0.2,0.6,0.3,1.2,0.3h0.3v0.7h-6.1v-0.7h0.5
			c0.7,0,1.1-0.1,1.3-0.3c0.2-0.2,0.3-0.5,0.3-0.7c0-0.3,0-1.1,0-2.5V133c0-1.5-0.1-2.4-0.2-2.7s-0.3-0.5-0.5-0.6s-0.6-0.1-1.1-0.1
			h-0.4v-0.7c1.6-0.2,2.9-0.5,3.8-0.8L500.7,128.1L500.7,128.1z M498,121.7c0-0.4,0.1-0.8,0.4-1.1c0.3-0.3,0.6-0.5,1-0.5
			s0.7,0.2,1,0.5s0.4,0.7,0.4,1.1s-0.1,0.8-0.4,1.1c-0.3,0.3-0.6,0.5-1,0.5s-0.7-0.2-1-0.5C498.1,122.5,498,122.1,498,121.7z"/>
		<path class="st1" d="M514.1,128.1h0.4c0.2,0.6,0.3,1.5,0.4,2.6c0.7-0.9,1.4-1.5,2.1-1.9s1.5-0.6,2.3-0.6c0.9,0,1.6,0.2,2.2,0.6
			c0.6,0.4,0.9,0.9,1.1,1.5s0.2,1.5,0.2,2.7v3.9c0,1.4,0,2.3,0.1,2.6c0,0.3,0.2,0.6,0.4,0.7c0.2,0.2,0.7,0.2,1.3,0.2v0.7h-5.8v-0.7
			h0.3c0.7,0,1.1-0.1,1.3-0.3c0.2-0.2,0.3-0.5,0.3-0.7s0-1.1,0-2.5v-4c0-1,0-1.7-0.1-2.1c-0.1-0.4-0.3-0.8-0.7-1.1
			c-0.4-0.3-0.9-0.5-1.5-0.5c-0.7,0-1.3,0.2-1.9,0.7c-0.6,0.4-1.2,1.1-1.7,2v5.1c0,1.4,0,2.3,0.1,2.6c0.1,0.3,0.2,0.6,0.4,0.7
			c0.2,0.2,0.7,0.2,1.4,0.2v0.7H511v-0.7c0.6,0,1.1-0.1,1.3-0.2c0.2-0.1,0.4-0.4,0.5-0.6c0.1-0.3,0.1-1.2,0.1-2.7v-3.7
			c0-1.5,0-2.3-0.1-2.7c0-0.3-0.2-0.5-0.4-0.7c-0.2-0.2-0.7-0.2-1.4-0.2V129C512,128.6,513,128.4,514.1,128.1z"/>
		<path class="st1" d="M541.9,129.7c0.8-1,1.6-1.5,2.4-1.5c0.4,0,0.8,0.1,1,0.4c0.2,0.3,0.4,0.6,0.4,0.9c0,0.7-0.3,1-0.8,1
			c-0.3,0-0.6-0.2-0.8-0.6c-0.2-0.4-0.4-0.6-0.6-0.6c-0.3,0-0.7,0.3-1.2,0.8c0.5,0.8,0.7,1.7,0.7,2.7c0,1.2-0.4,2.3-1.2,3.2
			c-0.8,0.9-2.1,1.5-4,1.5c-1.9,0.1-2.9,0.5-2.9,1.3c0,0.4,0.2,0.6,0.7,0.8c0.4,0.2,1.3,0.3,2.7,0.4c1.5,0.1,2.7,0.2,3.5,0.5
			c0.8,0.2,1.5,0.7,2,1.4s0.7,1.5,0.7,2.5c0,1.3-0.5,2.4-1.5,3.3c-1,0.8-2.4,1.2-4.3,1.2c-1.7,0-3.1-0.4-4.1-1.1
			c-1-0.7-1.5-1.7-1.5-2.8c0-0.6,0.1-1.1,0.4-1.5s0.7-0.6,1.3-0.6c0.1,0,0.3,0,0.4,0.1c-0.6,0.7-0.9,1.4-0.9,2.2
			c0,0.9,0.4,1.6,1.1,2.2c0.8,0.6,1.9,0.9,3.4,0.9c1.3,0,2.4-0.3,3.1-0.9c0.7-0.6,1.1-1.4,1.1-2.3c0-1-0.3-1.7-1-2.2
			c-0.7-0.4-1.9-0.7-3.6-0.7c-2-0.1-3.3-0.4-3.8-0.8c-0.6-0.4-0.9-1-0.9-1.7c0-1.3,0.8-2.2,2.5-2.5c-0.9-0.6-1.5-1.2-2-2
			c-0.4-0.7-0.7-1.6-0.7-2.5c0-1.3,0.5-2.4,1.4-3.2c0.9-0.9,2-1.3,3.2-1.3C539.7,128.1,540.9,128.6,541.9,129.7z M535.7,133
			c0,1.3,0.2,2.3,0.7,2.9c0.5,0.6,1.1,0.9,1.9,0.9c0.7,0,1.3-0.3,1.8-0.9c0.5-0.6,0.7-1.7,0.7-3.2s-0.3-2.5-0.8-3.1
			s-1.1-0.9-1.8-0.9c-0.8,0-1.5,0.4-1.9,1.1S535.7,131.6,535.7,133z"/>
		<path class="st1" d="M567.2,120.5l3.1-0.2c2.6-0.1,4.3-0.2,5.2-0.2c2.8,0,4.9,0.5,6.5,1.4c1.5,0.9,2.7,2.2,3.5,3.8
			c0.8,1.6,1.1,3.5,1.1,5.6c0,1.5-0.2,2.9-0.6,4.2c-0.4,1.3-1,2.3-1.7,3.1c-0.7,0.8-1.6,1.5-2.5,1.9s-1.9,0.7-2.7,0.8
			c-0.9,0.1-2.1,0.2-3.6,0.2h-8.4v-0.7h0.8c0.8,0,1.3-0.1,1.7-0.3c0.3-0.2,0.5-0.6,0.6-1c0.1-0.5,0.1-1.6,0.1-3.3v-10
			c0-1.7,0-2.7-0.1-3.2s-0.3-0.8-0.6-1c-0.3-0.2-0.9-0.3-1.8-0.3h-0.6L567.2,120.5L567.2,120.5z M573,120.9v13.8c0,2,0,3.4,0.1,4
			s0.3,1,0.6,1.2c0.3,0.2,1.1,0.4,2.2,0.4c1.6,0,3-0.2,4-0.7s1.9-1.5,2.6-2.9s1.1-3.3,1.1-5.6c0-1.8-0.2-3.3-0.6-4.7
			c-0.4-1.4-1-2.5-1.8-3.4c-0.8-0.9-1.6-1.4-2.5-1.8c-0.9-0.3-2.1-0.5-3.6-0.5C574.4,120.9,573.7,120.9,573,120.9z"/>
		<path class="st1" d="M599.6,128.1v8.7c0,1.3,0,2.2,0.1,2.5c0,0.3,0.2,0.6,0.4,0.8c0.2,0.2,0.6,0.3,1.2,0.3h0.3v0.7h-6.1v-0.7h0.5
			c0.7,0,1.1-0.1,1.3-0.3c0.2-0.2,0.3-0.5,0.3-0.7c0-0.3,0-1.1,0-2.5V133c0-1.5-0.1-2.4-0.2-2.7s-0.3-0.5-0.5-0.6
			c-0.2-0.1-0.6-0.1-1.1-0.1h-0.4v-0.7c1.6-0.2,2.9-0.5,3.8-0.8L599.6,128.1L599.6,128.1z M596.9,121.7c0-0.4,0.1-0.8,0.4-1.1
			c0.3-0.3,0.6-0.5,1-0.5s0.7,0.2,1,0.5c0.3,0.3,0.4,0.7,0.4,1.1s-0.1,0.8-0.4,1.1s-0.6,0.5-1,0.5s-0.7-0.2-1-0.5
			C597,122.5,596.9,122.1,596.9,121.7z"/>
	</g>
	<g>
		<path class="st0" d="M362.2,202.7h-12.5v-0.8c3.2,0,1.7-4.4,1.1-5.9l-1.6-4.3h-12c-0.7,2.2-3.2,10.6,4,10.2v0.8h-11.4v-0.8
			c1.6-0.1,2.8,0,7.2-12.5l8.3-24.6h0.6c8.9,23.8,12.2,33,12.2,33c1.6,4.3,2.7,4,4,4.1L362.2,202.7L362.2,202.7z M349.1,190.8
			l-6-16.8l-5.6,16.8H349.1z"/>
		<path class="st0" d="M408.1,202.7H404c-7.5-0.1-6.4-0.1-9.5-11.7c-1.5-5.6-6.2-5.6-6.8-5.6h-2.3v11.3c0,3.7,1.4,5.3,3.4,5.3v0.8
			h-12.5V202c2.1,0,3.2-1.5,3.2-5.6V170c0-3.3-1.1-4.5-3.2-4.5v-0.8h10.6c9.6,0,15.8,1.3,15.8,10.3c0,6.9-3.8,9.3-9.3,9.8
			c3.2-0.1,6.8,1.2,9.2,12c1,4.1,4.2,4.9,5.5,5L408.1,202.7L408.1,202.7z M386.9,165.5h-1.5v19h1.5c5.1,0,9.1,0,9.1-9.5
			C396,165.4,391.8,165.5,386.9,165.5z"/>
		<path class="st0" d="M453.6,202.7h-12.5v-0.8c3.2,0,1.7-4.4,1.1-5.9l-1.6-4.3h-12c-0.7,2.2-3.2,10.6,4,10.2v0.8h-11.4v-0.8
			c1.6-0.1,2.8,0,7.2-12.5l8.3-24.6h0.6c8.9,23.8,12.2,33,12.2,33c1.6,4.3,2.7,4,4,4.1L453.6,202.7L453.6,202.7z M440.4,190.8
			l-6-16.8l-5.6,16.8H440.4z"/>
		<path class="st0" d="M479,202.7h-10.7v-0.5c2.1,0,2.8-2.7,2.8-6.4v-24.1c0-3.3-0.7-6.5-2.8-6.5v-0.4H479c6.7,0,12.8,0.1,12.8,9.2
			c0,8.2-7.4,9.3-8.4,9.3c3.2,0,10.7,0.6,10.7,9.8C494,202.4,487.4,202.7,479,202.7z M477.1,165.5V183h2.4c2.8,0,6.3-1.1,6.3-9.2
			c0-8-4-8.3-6.6-8.3H477.1z M479.5,183.9h-2.4v18h2c4.4,0,8.6,0.1,8.6-9.1C487.7,184.1,483,183.9,479.5,183.9z"/>
		<path class="st0" d="M535.6,191.2v11.5h-25.8v-0.8c2,0,2.7-2.4,2.7-6v-24.5c0-3.3-0.6-5.8-2.7-5.8v-0.8H535v10h-0.7
			c-0.8-9.1-11.6-9.2-13.6-9.2h-2.2v17.6h2.4c0.7,0,6.9,0,7.3-5.5h0.7v11.8h-0.7c-0.4-5.5-6.7-5.5-7.3-5.5h-2.4v17.9h2
			c2.1,0,12.8,0.1,14.4-10.7H535.6z"/>
		<path class="st0" d="M578.8,191v11.7H553v-0.8c2.1,0,3.1-2.2,3.1-5.9v-25.7c0-3.3-1.4-4.7-3.4-4.7v-0.8h13.4v0.8
			c-2.1,0-4,0.9-4,4.8v31.5h1.7c2.6,0,13.1,0,14.4-10.9L578.8,191L578.8,191z"/>
		<path class="st0" d="M622,191v11.7h-25.9v-0.8c2.1,0,3.1-2.2,3.1-5.9v-25.7c0-3.3-1.4-4.7-3.4-4.7v-0.8h13.4v0.8
			c-2.1,0-4,0.9-4,4.8v31.5h1.7c2.6,0,13.1,0,14.4-10.9L622,191L622,191z"/>
		<path class="st0" d="M670.2,202.7h-12.5v-0.8c3.2,0,1.7-4.4,1.1-5.9l-1.6-4.3h-12c-0.7,2.2-3.2,10.6,4,10.2v0.8h-11.4v-0.8
			c1.6-0.1,2.8,0,7.2-12.5l8.3-24.6h0.6c8.9,23.8,12.2,33,12.2,33c1.6,4.3,2.7,4,4,4.1L670.2,202.7L670.2,202.7z M657,190.8l-6-16.8
			l-5.6,16.8H657z"/>
	</g>
</g>
<g>
	<g>
		<path class="st2" d="M414.7,800h0.6v7.3h-0.6c-0.2-0.8-0.5-1.6-0.9-2.2c-1.6,2.1-3.7,3.1-6.3,3.1c-2.7,0-4.9-0.9-6.6-2.8
			c-1.7-1.9-2.6-4.4-2.6-7.5c0-2,0.4-4,1.2-5.8c0.8-1.8,1.9-3.2,3.3-4c1.4-0.9,3-1.3,4.6-1.3c1.4,0,2.7,0.3,3.8,1s2,1.3,2.5,2.1
			c0.4-0.9,0.6-1.8,0.7-2.7h0.6l0.2,7.9h-0.6c-0.4-2.8-1.3-4.7-2.5-5.8c-1.3-1.1-2.7-1.6-4.3-1.6c-2,0-3.5,0.9-4.7,2.6
			s-1.7,4.3-1.7,7.6c0,3.1,0.6,5.5,1.9,7.1c1.3,1.7,2.8,2.5,4.7,2.5c1,0,2-0.3,3.1-0.8c1-0.5,1.9-1.5,2.5-2.7
			C414.2,802.4,414.6,801.2,414.7,800z"/>
		<path class="st2" d="M436.6,805.5h0.5c-0.1,1.7-0.9,2.6-2.3,2.6c-0.6,0-1.1-0.2-1.5-0.5s-0.6-0.9-0.7-1.6
			c-0.9,0.7-1.8,1.3-2.5,1.6c-0.8,0.4-1.4,0.5-2,0.5c-0.8,0-1.4-0.2-2-0.7c-0.5-0.5-0.8-1.1-0.8-1.9c0-1,0.5-2,1.4-2.8
			s2.2-1.5,3.8-2.3l2.1-1v-0.6c0-0.9,0-1.5-0.2-1.9c-0.1-0.4-0.4-0.7-0.8-1s-1-0.5-1.7-0.5c-1.4,0-2.1,0.5-2.3,1.5
			c-0.1,1-0.5,1.6-1.2,1.6c-0.6,0-0.8-0.3-0.8-0.9c0-0.6,0.4-1.2,1.1-1.9s1.9-1,3.5-1c1.2,0,2.1,0.2,2.7,0.6
			c0.6,0.4,1.1,0.9,1.3,1.4c0.2,0.5,0.3,1.3,0.3,2.4v5.1c0,1.2,0.1,1.9,0.2,2.3c0.1,0.3,0.3,0.5,0.7,0.5
			C436.1,806.9,436.5,806.4,436.6,805.5z M432.6,800.1l-1.5,0.7c-2.4,1.1-3.5,2.4-3.5,4c0,0.6,0.2,1.2,0.5,1.6
			c0.3,0.4,0.7,0.6,1.2,0.6c0.4,0,0.9-0.2,1.5-0.5s1.2-0.8,1.9-1.4v-5H432.6z"/>
		<path class="st2" d="M451.9,795.9h-3.4v7.6c0,1.2,0,1.9,0.1,2.3s0.3,0.7,0.6,1s0.6,0.4,1,0.4c0.7,0,1.2-0.4,1.7-1.3l0.4,0.3
			c-0.3,0.7-0.7,1.2-1.3,1.5c-0.6,0.3-1.1,0.5-1.7,0.5c-0.7,0-1.2-0.2-1.7-0.6s-0.8-0.9-0.9-1.5s-0.2-1.6-0.2-3.1v-7.1h-1.6v-0.7
			c0.8,0,1.4-0.4,2-1.1c0.6-0.7,1-1.6,1.1-2.9h0.4v3.9h3.4v0.8H451.9z"/>
		<path class="st2" d="M470.7,799.5h-7.9c0,0.6-0.1,1-0.1,1.3c0,2.2,0.3,3.9,0.9,5s1.5,1.7,2.8,1.7c1.7,0,2.9-0.8,3.5-2.5h0.7
			c-0.3,1-0.9,1.9-1.7,2.4s-1.8,0.9-2.8,0.9s-1.9-0.3-2.7-0.8c-0.8-0.5-1.5-1.3-2.1-2.3s-0.8-2.2-0.8-3.6c0-2,0.5-3.6,1.6-4.9
			c1-1.3,2.4-2,3.9-2s2.6,0.5,3.4,1.5S470.6,798.3,470.7,799.5z M468.3,798.8c0-0.2,0-0.4,0-0.6c0-0.9-0.2-1.6-0.7-2.1
			s-1.1-0.7-1.7-0.7c-1.7,0-2.7,1.2-3,3.5h5.4V798.8z"/>
		<path class="st2" d="M483.5,797.9c0.3-0.9,0.8-1.7,1.5-2.3s1.4-0.9,2.1-0.9c0.6,0,1.1,0.2,1.4,0.6s0.5,0.8,0.5,1.3
			c0,0.3-0.1,0.6-0.3,0.8s-0.4,0.3-0.7,0.3c-0.5,0-0.8-0.4-1-1.1c-0.2-0.5-0.4-0.8-0.7-0.8c-0.4,0-0.9,0.3-1.4,0.9
			c-0.6,0.6-0.9,1.2-1.1,1.9c-0.2,0.6-0.2,1.5-0.2,2.6v2.2c0,1.3,0,2.2,0,2.5s0.2,0.6,0.4,0.8s0.6,0.3,1.2,0.3h0.4v0.7h-6V807h0.3
			c0.6,0,0.9-0.1,1.2-0.3c0.2-0.2,0.4-0.4,0.4-0.7s0.1-1.2,0.1-2.6v-3.5c0-1.3,0-2.2,0-2.5s-0.2-0.6-0.4-0.8
			c-0.2-0.2-0.6-0.3-1.2-0.3h-0.3v-0.7c0.9-0.1,2-0.4,3.4-0.9C483.3,795.5,483.5,796.6,483.5,797.9z"/>
		<path class="st2" d="M500.7,794.7v8.7c0,1.3,0,2.2,0.1,2.5s0.2,0.6,0.4,0.8c0.2,0.2,0.6,0.3,1.2,0.3h0.3v0.7h-6.1V807h0.5
			c0.7,0,1.1-0.1,1.3-0.3s0.3-0.5,0.3-0.7s0-1.1,0-2.5v-3.8c0-1.5-0.1-2.4-0.2-2.7s-0.3-0.5-0.5-0.6s-0.6-0.1-1.1-0.1h-0.4v-0.7
			c1.6-0.2,2.9-0.5,3.8-0.8h0.4V794.7z M498,788.3c0-0.4,0.1-0.8,0.4-1.1s0.6-0.5,1-0.5s0.7,0.2,1,0.5s0.4,0.7,0.4,1.1
			c0,0.4-0.1,0.8-0.4,1.1s-0.6,0.5-1,0.5s-0.7-0.2-1-0.5C498.1,789.2,498,788.8,498,788.3z"/>
		<path class="st2" d="M514.1,794.7h0.4c0.2,0.6,0.3,1.5,0.4,2.6c0.7-0.9,1.4-1.5,2.1-1.9s1.5-0.6,2.3-0.6c0.9,0,1.6,0.2,2.2,0.6
			c0.6,0.4,0.9,0.9,1.1,1.5s0.2,1.5,0.2,2.7v3.9c0,1.4,0,2.3,0.1,2.6c0,0.3,0.2,0.6,0.4,0.7c0.2,0.2,0.7,0.2,1.3,0.2v0.7h-5.8V807
			h0.3c0.7,0,1.1-0.1,1.3-0.3c0.2-0.2,0.3-0.5,0.3-0.7s0-1.1,0-2.5v-4c0-1,0-1.7-0.1-2.1c-0.1-0.4-0.3-0.8-0.7-1.1s-0.9-0.5-1.5-0.5
			c-0.7,0-1.3,0.2-1.9,0.7c-0.6,0.4-1.2,1.1-1.7,2v5.1c0,1.4,0,2.3,0.1,2.6c0.1,0.3,0.2,0.6,0.4,0.7c0.2,0.2,0.7,0.2,1.4,0.2v0.7
			H511V807c0.6,0,1.1-0.1,1.3-0.2c0.2-0.1,0.4-0.4,0.5-0.7c0.1-0.3,0.1-1.2,0.1-2.7v-3.7c0-1.5,0-2.3-0.1-2.7c0-0.3-0.2-0.5-0.4-0.7
			c-0.2-0.2-0.7-0.2-1.4-0.2v-0.7C512,795.3,513,795.1,514.1,794.7z"/>
		<path class="st2" d="M541.9,796.3c0.8-1,1.6-1.5,2.4-1.5c0.4,0,0.8,0.1,1,0.4c0.2,0.3,0.4,0.6,0.4,0.9c0,0.7-0.3,1-0.8,1
			c-0.3,0-0.6-0.2-0.8-0.6c-0.2-0.4-0.4-0.6-0.6-0.6c-0.3,0-0.7,0.3-1.2,0.8c0.5,0.8,0.7,1.7,0.7,2.7c0,1.2-0.4,2.3-1.2,3.2
			c-0.8,0.9-2.1,1.5-4,1.5c-1.9,0.1-2.9,0.5-2.9,1.3c0,0.4,0.2,0.6,0.7,0.8c0.4,0.2,1.3,0.3,2.7,0.4c1.5,0.1,2.7,0.2,3.5,0.5
			c0.8,0.2,1.5,0.7,2,1.4s0.7,1.5,0.7,2.5c0,1.3-0.5,2.4-1.5,3.3c-1,0.8-2.4,1.2-4.3,1.2c-1.7,0-3.1-0.4-4.1-1.1
			c-1-0.7-1.5-1.7-1.5-2.8c0-0.6,0.1-1.1,0.4-1.5s0.7-0.6,1.3-0.6c0.1,0,0.3,0,0.4,0.1c-0.6,0.7-0.9,1.4-0.9,2.2
			c0,0.9,0.4,1.6,1.1,2.2c0.8,0.6,1.9,0.9,3.4,0.9c1.3,0,2.4-0.3,3.1-0.9c0.7-0.6,1.1-1.4,1.1-2.3c0-1-0.3-1.7-1-2.2
			c-0.7-0.4-1.9-0.7-3.6-0.7c-2-0.1-3.3-0.4-3.8-0.8c-0.6-0.4-0.9-1-0.9-1.7c0-1.3,0.8-2.2,2.5-2.5c-0.9-0.6-1.5-1.2-2-2
			c-0.4-0.7-0.7-1.6-0.7-2.5c0-1.3,0.5-2.4,1.4-3.2c0.9-0.9,2-1.3,3.2-1.3C539.7,794.7,540.9,795.3,541.9,796.3z M535.7,799.7
			c0,1.3,0.2,2.3,0.7,2.9c0.5,0.6,1.1,0.9,1.9,0.9c0.7,0,1.3-0.3,1.8-0.9c0.5-0.6,0.7-1.7,0.7-3.2s-0.3-2.5-0.8-3.1
			s-1.1-0.9-1.8-0.9c-0.8,0-1.5,0.4-1.9,1.1S535.7,798.2,535.7,799.7z"/>
		<path class="st2" d="M567.2,787.2l3.1-0.2c2.6-0.1,4.3-0.2,5.2-0.2c2.8,0,4.9,0.5,6.5,1.4c1.5,0.9,2.7,2.2,3.5,3.8
			c0.8,1.6,1.1,3.5,1.1,5.6c0,1.5-0.2,2.9-0.6,4.2c-0.4,1.3-1,2.3-1.7,3.1c-0.7,0.8-1.6,1.5-2.5,1.9s-1.9,0.7-2.7,0.8
			c-0.9,0.1-2.1,0.2-3.6,0.2h-8.4V807h0.8c0.8,0,1.3-0.1,1.7-0.3c0.3-0.2,0.5-0.6,0.6-1s0.1-1.6,0.1-3.3v-10c0-1.7,0-2.7-0.1-3.2
			s-0.3-0.8-0.6-1c-0.3-0.2-0.9-0.3-1.8-0.3h-0.6L567.2,787.2L567.2,787.2z M573,787.6v13.8c0,2,0,3.4,0.1,4s0.3,1,0.6,1.2
			c0.3,0.2,1.1,0.4,2.2,0.4c1.6,0,3-0.2,4-0.7s1.9-1.5,2.6-2.9s1.1-3.3,1.1-5.6c0-1.8-0.2-3.3-0.6-4.7c-0.4-1.4-1-2.5-1.8-3.4
			c-0.8-0.9-1.6-1.4-2.5-1.8c-0.9-0.3-2.1-0.5-3.6-0.5C574.4,787.5,573.7,787.6,573,787.6z"/>
		<path class="st2" d="M599.6,794.7v8.7c0,1.3,0,2.2,0.1,2.5s0.2,0.6,0.4,0.8c0.2,0.2,0.6,0.3,1.2,0.3h0.3v0.7h-6.1V807h0.5
			c0.7,0,1.1-0.1,1.3-0.3c0.2-0.2,0.3-0.5,0.3-0.7c0-0.3,0-1.1,0-2.5v-3.8c0-1.5-0.1-2.4-0.2-2.7s-0.3-0.5-0.5-0.6
			c-0.2-0.1-0.6-0.1-1.1-0.1h-0.4v-0.7c1.6-0.2,2.9-0.5,3.8-0.8h0.4V794.7z M596.9,788.3c0-0.4,0.1-0.8,0.4-1.1
			c0.3-0.3,0.6-0.5,1-0.5s0.7,0.2,1,0.5c0.3,0.3,0.4,0.7,0.4,1.1c0,0.4-0.1,0.8-0.4,1.1s-0.6,0.5-1,0.5s-0.7-0.2-1-0.5
			C597,789.2,596.9,788.8,596.9,788.3z"/>
	</g>
	<g>
		<path class="st0" d="M362.2,869.3h-12.5v-0.8c3.2,0,1.7-4.4,1.1-5.9l-1.6-4.3h-12c-0.7,2.2-3.2,10.6,4,10.2v0.8h-11.4v-0.8
			c1.6-0.1,2.8,0,7.2-12.5l8.3-24.6h0.6c8.9,23.8,12.2,33,12.2,33c1.6,4.3,2.7,4,4,4.1L362.2,869.3L362.2,869.3z M349.1,857.5
			l-6-16.8l-5.6,16.8H349.1z"/>
		<path class="st0" d="M408.1,869.3H404c-7.5-0.1-6.4-0.1-9.5-11.7c-1.5-5.6-6.2-5.6-6.8-5.6h-2.3v11.3c0,3.7,1.4,5.3,3.4,5.3v0.8
			h-12.5v-0.8c2.1,0,3.2-1.5,3.2-5.6v-26.2c0-3.3-1.1-4.5-3.2-4.5v-0.8h10.6c9.6,0,15.8,1.3,15.8,10.3c0,6.9-3.8,9.3-9.3,9.8
			c3.2-0.1,6.8,1.2,9.2,12c1,4.1,4.2,4.9,5.5,5L408.1,869.3L408.1,869.3z M386.9,832.2h-1.5v19h1.5c5.1,0,9.1,0,9.1-9.5
			C396,832.1,391.8,832.2,386.9,832.2z"/>
		<path class="st0" d="M453.6,869.3h-12.5v-0.8c3.2,0,1.7-4.4,1.1-5.9l-1.6-4.3h-12c-0.7,2.2-3.2,10.6,4,10.2v0.8h-11.4v-0.8
			c1.6-0.1,2.8,0,7.2-12.5l8.3-24.6h0.6c8.9,23.8,12.2,33,12.2,33c1.6,4.3,2.7,4,4,4.1L453.6,869.3L453.6,869.3z M440.4,857.5
			l-6-16.8l-5.6,16.8H440.4z"/>
		<path class="st0" d="M479,869.3h-10.7v-0.5c2.1,0,2.8-2.7,2.8-6.4v-24.1c0-3.3-0.7-6.5-2.8-6.5v-0.4H479c6.7,0,12.8,0.1,12.8,9.2
			c0,8.2-7.4,9.3-8.4,9.3c3.2,0,10.7,0.6,10.7,9.8C494,869,487.4,869.3,479,869.3z M477.1,832.2v17.5h2.4c2.8,0,6.3-1.1,6.3-9.2
			c0-8-4-8.3-6.6-8.3H477.1z M479.5,850.5h-2.4v18h2c4.4,0,8.6,0.1,8.6-9.1C487.7,850.8,483,850.5,479.5,850.5z"/>
		<path class="st0" d="M535.6,857.8v11.5h-25.8v-0.8c2,0,2.7-2.4,2.7-6V838c0-3.3-0.6-5.8-2.7-5.8v-0.8H535v10h-0.7
			c-0.8-9.1-11.6-9.2-13.6-9.2h-2.2v17.6h2.4c0.7,0,6.9,0,7.3-5.5h0.7v11.8h-0.7c-0.4-5.5-6.7-5.5-7.3-5.5h-2.4v17.9h2
			c2.1,0,12.8,0.1,14.4-10.7H535.6z"/>
		<path class="st0" d="M578.8,857.6v11.7H553v-0.8c2.1,0,3.1-2.2,3.1-5.9v-25.7c0-3.3-1.4-4.7-3.4-4.7v-0.8h13.4v0.8
			c-2.1,0-4,0.9-4,4.8v31.5h1.7c2.6,0,13.1,0,14.4-10.9L578.8,857.6L578.8,857.6z"/>
		<path class="st0" d="M622,857.6v11.7h-25.9v-0.8c2.1,0,3.1-2.2,3.1-5.9v-25.7c0-3.3-1.4-4.7-3.4-4.7v-0.8h13.4v0.8
			c-2.1,0-4,0.9-4,4.8v31.5h1.7c2.6,0,13.1,0,14.4-10.9L622,857.6L622,857.6z"/>
		<path class="st0" d="M670.2,869.3h-12.5v-0.8c3.2,0,1.7-4.4,1.1-5.9l-1.6-4.3h-12c-0.7,2.2-3.2,10.6,4,10.2v0.8h-11.4v-0.8
			c1.6-0.1,2.8,0,7.2-12.5l8.3-24.6h0.6c8.9,23.8,12.2,33,12.2,33c1.6,4.3,2.7,4,4,4.1L670.2,869.3L670.2,869.3z M657,857.5l-6-16.8
			l-5.6,16.8H657z"/>
	</g>
</g>
</svg>
