<?xml version="1.0" encoding="utf-8"?>
<!-- Generator: Adobe Illustrator 22.1.0, SVG Export Plug-In . SVG Version: 6.00 Build 0)  -->
<svg version="1.1" id="Camada_1" xmlns="http://www.w3.org/2000/svg" xmlns:xlink="http://www.w3.org/1999/xlink" x="0px" y="0px"
	 viewBox="0 0 1000 1000" style="enable-background:new 0 0 1000 1000;" xml:space="preserve">
<style type="text/css">
	.st0{fill:#2D3951;}
	.st1{clip-path:url(#SVGID_2_);}
	.st2{fill:#FFFFFF;}
</style>
<g>
	<g>
		<rect x="346.8" y="693.5" class="st0" width="306.7" height="1.3"/>
	</g>
	<g>
		<g>
			<g>
				<g>
					<defs>
						<rect id="SVGID_1_" x="297" y="145.2" width="406.3" height="548.9"/>
					</defs>
					<clipPath id="SVGID_2_">
						<use xlink:href="#SVGID_1_"  style="overflow:visible;"/>
					</clipPath>
					<g class="st1">
						<g>
							<path id="XMLID_200_" class="st2" d="M494.2,280.8c0.3-12.5,0.7-23.3,0.9-28c0.1-1.4-1.1-2.6-2.5-2.5c-1.4,0-2.5,1.2-2.4,2.5
								c0.2,5.1,0.8,17.6,1.1,33.4L494.2,280.8z"/>
							<path id="XMLID_199_" class="st2" d="M488,293.2c-4.2-24.2-7.2-43.5-8.3-50.1c-0.2-1.4-1.5-2.3-2.9-2l0,0
								c-1.4,0.2-2.3,1.6-2,2.9c1.6,7.2,6.7,30,11.4,53.2L488,293.2z"/>
							<path id="XMLID_198_" class="st2" d="M505.7,293.6c6.3-20.3,12.5-38.8,14.6-45.2c0.4-1.3-0.3-2.7-1.7-3.1l0,0
								c-1.3-0.4-2.7,0.4-3,1.7c-1.5,5.9-5.8,22.3-11.6,43.1L505.7,293.6z"/>
						</g>
						<g id="XMLID_195_">
							<path id="XMLID_197_" class="st0" d="M504,290.2c-2.1-4.2-4-7.5-5.3-9.8c-1-1.6-3.3-1.6-4.3,0.1c-0.1,0.1-0.2,0.3-0.2,0.4
								l-2.8,5.4c-1,2-2.1,4.4-3.3,6.9l-1.7,4c-1.9,4.4-3.9,9.5-5.8,15.1l-0.9-8.8c-0.2-2.2-3.1-3-4.4-1.2
								c-9.7,13-34.5,50.5-30.6,89.8c2.4,24,15,44.2,27.2,58.6c2.8,6.9,6.1,12.7,9.8,17.1c-1.4-0.8-2.9-1.6-2.9-1.6
								C496.4,481.3,484,579,484,579c-0.2-1.5-0.4-3-0.7-4.5c-5.3-30.7-12.1-61.2-19.6-91.6c-23.2-94.4-59-185.8-99.6-276.1
								c-1.7-3.7-3.8-7.3-8-10.3c8.7,22.3,17.2,44.7,26.2,66.9c38.8,94.6,72.7,190.3,88.4,289.4c4.4,27.9,6.9,56.1,8.5,84.3
								c-3.4-7.5-5.7-15.5-7.3-22.8c-0.7-3.3-7.2-3.1-7.5,0.2c-1.4,13.9-2,31.9,0.4,50.4c1.1,8.2,2.3,16,3.7,23.2
								c-0.5,12.7,2.1,24.3,5.2,29.9l-5.9,81.9c-0.7-0.3-1.3-0.7-2-1.1c-0.1,1.7-0.5,2.7,0,3.7c0.5,1.7,1,3.3,1.5,4.9l-2.5,34.4
								c-19.6,9.5-43.7,57.4-37.9,73.1c4.5,12.2,19.4,17.7,29.2,26.7c-1,1.3-2.1,2.8-4.1,5.4c3.1-0.9,4.5-1.2,6.1-1.7l-0.2,2.7
								c3.3-2.2,6.6-4.5,11.7-7.9c0.4,4.8,0.7,7.8,0.9,10.7c1.2-3.2,2.3-6.3,3.9-10.5c2.6,2.7,4.3,4.4,6,6.1c1.6-2.5,3-4.8,5-8
								c2.3,3.2,3.5,4.9,5.5,7.7c-0.2-2.8-0.4-4.1-0.6-6.5c3.6,2.4,6.2,4.1,9.2,6.1c-0.5-2.3-1-4.2-1.4-6c0.6-0.3,1.3-0.6,1.9-0.9
								c1.7,2,3.3,3.9,4.8,5.6c2.3-0.9,4.1-1.6,5.9-2.2c-1.3-1.2-2.6-2.3-4.5-4l6.2,0.3c2.6-1.9,4.2-3.2,6-4.4
								c13.8-9.3,20-20.5,17.5-34.6c-1.8-10.4-36.7-47.9-49.2-56.6l2.1-23.7c0.2-0.6,0.4-1.1,0.6-1.7c0.8-1,0.5-2,0.6-3.7
								c-0.3,0.1-0.5,0.2-0.8,0.3l9.3-106.5c1-4.6,1.8-9.5,2.2-14.6c5.2-10,10.5-22,15.3-35.2c6.9-18.7,9.5-36.9,10.5-50.5
								c0.2-3.3-6-4.3-7.4-1.1c-3.3,7.5-7.8,16-13.9,23.9l0.3-3.7c0-0.1,0-0.2,0.1-0.3c4.6-19.2,9.8-38.3,15.9-57.2
								c31.6-97.1,82.2-189.1,137.8-279.6c13-21.2,25.4-42.7,38.1-64c-4.9,2.6-7.7,6-10.1,9.5c-56.9,86-108.8,173.6-147.7,265.3
								c-6.8,16-13.4,32.2-19.6,48.4c-0.7,1.9-12,33.3-13.9,32.7c-1.4-0.4,7.3-42.8,7.3-42.8c0-0.1,0-0.2,0.1-0.4
								c4.1-16.5,8.7-32.9,14-49.2c31.6-97.1,82.2-189.1,137.8-279.6c13-21.2,25.4-42.7,38.1-64c-4.9,2.6-7.7,6-10.1,9.5
								c-56.9,86-108.8,173.6-147.7,265.3c-9.9,23.2-29.6,91.4-38.2,114.9c0,0-3.5-50.4,17.5-78.3c0.1-0.1-0.5-0.4-0.9,0
								c-1.2,1-2.3,2.1-3.5,3.1c1.5-2.8,2.9-5.8,4.1-9.1c12-14.8,24.4-35.6,26.1-60.1c2.8-39.5-23.1-76.2-33.2-88.9
								c-1.4-1.8-4.2-0.9-4.4,1.4l-0.5,6.6c-2.3-6-4.7-11.4-6.9-15.9L504,290.2z"/>
							<path id="XMLID_196_" class="st0" d="M476.9,241.1"/>
						</g>
					</g>
				</g>
			</g>
		</g>
	</g>
	<g>
		<g>
			<path class="st2" d="M371.1,749.7h0.9v11h-0.9c-0.2-1.2-0.7-2.3-1.4-3.3c-2.5,3.1-5.6,4.7-9.5,4.7c-4.1,0-7.4-1.4-10-4.3
				c-2.6-2.9-3.9-6.7-3.9-11.4c0-3.1,0.6-6,1.8-8.7s2.9-4.8,5-6.1c2.1-1.3,4.5-2,7-2c2.1,0,4,0.5,5.7,1.4c1.7,1,3,2,3.8,3.2
				c0.6-1.3,1-2.7,1.1-4.1h0.9L372,742h-0.9c-0.6-4.2-1.9-7.2-3.8-8.8c-1.9-1.6-4.1-2.5-6.5-2.5c-3,0-5.3,1.3-7,4
				c-1.7,2.7-2.6,6.5-2.6,11.4c0,4.7,0.9,8.3,2.8,10.8c1.9,2.5,4.3,3.8,7.1,3.8c1.5,0,3.1-0.4,4.6-1.2c1.6-0.8,2.8-2.2,3.8-4.1
				C370.4,753.4,370.9,751.5,371.1,749.7z"/>
			<path class="st2" d="M404.2,758h0.8c-0.1,2.6-1.3,3.9-3.5,3.9c-0.9,0-1.7-0.3-2.2-0.8c-0.5-0.6-0.9-1.4-1.1-2.5
				c-1.4,1.1-2.7,1.9-3.8,2.5c-1.1,0.6-2.2,0.8-3.1,0.8c-1.2,0-2.1-0.4-3-1.1s-1.2-1.7-1.2-2.9c0-1.6,0.7-3,2.1-4.2s3.3-2.3,5.8-3.5
				l3.2-1.5v-0.9c0-1.3-0.1-2.3-0.2-2.8s-0.5-1.1-1.2-1.6c-0.6-0.5-1.5-0.7-2.5-0.7c-2.1,0-3.2,0.8-3.5,2.3
				c-0.2,1.6-0.8,2.4-1.7,2.4c-0.8,0-1.3-0.4-1.3-1.3c0-0.9,0.6-1.8,1.7-2.8c1.1-1,2.9-1.5,5.2-1.5c1.8,0,3.1,0.3,4.1,0.9
				c1,0.6,1.6,1.3,1.9,2.1c0.3,0.8,0.5,2,0.5,3.6v7.6c0,1.8,0.1,2.9,0.2,3.4c0.2,0.5,0.5,0.8,1.1,0.8
				C403.4,760.3,404,759.5,404.2,758z M398.1,749.9l-2.3,1c-3.6,1.6-5.4,3.6-5.4,6.1c0,1,0.2,1.8,0.7,2.3c0.5,0.6,1.1,0.9,1.8,0.9
				c0.7,0,1.4-0.2,2.3-0.7c0.9-0.5,1.8-1.2,2.9-2.1V749.9z"/>
			<path class="st2" d="M427.3,743.6h-5.1V755c0,1.8,0.1,2.9,0.2,3.5c0.1,0.6,0.4,1.1,0.9,1.5c0.5,0.4,0.9,0.6,1.4,0.6
				c1,0,1.9-0.6,2.6-1.9l0.7,0.4c-0.4,1-1.1,1.8-1.9,2.3s-1.7,0.8-2.5,0.8c-1,0-1.9-0.3-2.6-1c-0.8-0.7-1.2-1.4-1.4-2.3
				c-0.2-0.9-0.3-2.4-0.3-4.6v-10.7h-2.5v-1.1c1.1,0,2.2-0.6,3.1-1.6c0.9-1,1.5-2.5,1.7-4.3h0.7v5.9h5.1V743.6z"/>
			<path class="st2" d="M455.7,749h-11.9c-0.1,0.9-0.1,1.6-0.1,2c0,3.3,0.5,5.8,1.4,7.5c0.9,1.7,2.3,2.5,4.2,2.5
				c2.5,0,4.3-1.3,5.4-3.8h1c-0.4,1.6-1.3,2.8-2.6,3.7c-1.3,0.9-2.8,1.3-4.3,1.3c-1.4,0-2.8-0.4-4.1-1.2s-2.3-2-3.1-3.4
				c-0.8-1.5-1.2-3.3-1.2-5.4c0-3,0.8-5.5,2.4-7.4c1.6-2,3.6-3,5.9-3c2.2,0,4,0.8,5.2,2.3C454.9,745.6,455.6,747.2,455.7,749z
				 M452,748c0-0.4,0.1-0.7,0.1-0.9c0-1.4-0.4-2.4-1.1-3.2c-0.7-0.7-1.6-1.1-2.6-1.1c-2.5,0-4,1.7-4.5,5.2H452z"/>
			<path class="st2" d="M475,746.6c0.5-1.4,1.2-2.5,2.3-3.4c1.1-0.9,2.1-1.4,3.1-1.4c0.9,0,1.6,0.3,2.2,0.9c0.5,0.6,0.8,1.3,0.8,1.9
				c0,0.4-0.1,0.8-0.4,1.2s-0.6,0.5-1,0.5c-0.7,0-1.2-0.6-1.6-1.7c-0.2-0.8-0.6-1.2-1.1-1.2c-0.6,0-1.3,0.4-2.1,1.4
				c-0.8,0.9-1.4,1.8-1.6,2.8c-0.2,1-0.4,2.3-0.4,4v3.4c0,2,0,3.3,0.1,3.8c0,0.5,0.2,0.9,0.6,1.2s1,0.4,1.9,0.4h0.6v1.1h-9v-1.1h0.4
				c0.8,0,1.4-0.1,1.8-0.4c0.4-0.3,0.6-0.6,0.6-1.1c0.1-0.5,0.1-1.8,0.1-4v-5.3c0-2,0-3.3-0.1-3.8c0-0.5-0.2-0.9-0.6-1.2
				s-1-0.4-1.8-0.4h-0.4v-1c1.3-0.2,3-0.6,5.1-1.4C474.7,743,475,744.6,475,746.6z"/>
			<path class="st2" d="M500.9,741.8V755c0,2,0,3.3,0.1,3.8c0.1,0.5,0.3,0.9,0.6,1.2s1,0.4,1.8,0.4h0.4v1.1h-9.2v-1.1h0.7
				c1,0,1.6-0.2,1.9-0.5c0.3-0.3,0.5-0.7,0.5-1.1c0-0.4,0.1-1.7,0.1-3.8v-5.7c0-2.2-0.1-3.6-0.3-4.1c-0.2-0.5-0.4-0.8-0.7-0.9
				c-0.3-0.1-0.9-0.2-1.6-0.2h-0.6V743c2.5-0.3,4.4-0.7,5.7-1.2H500.9z M496.9,732.1c0-0.7,0.2-1.2,0.6-1.7c0.4-0.5,0.9-0.7,1.5-0.7
				c0.6,0,1.1,0.2,1.5,0.7c0.4,0.5,0.6,1,0.6,1.7c0,0.7-0.2,1.3-0.6,1.7c-0.4,0.5-0.9,0.7-1.5,0.7c-0.6,0-1.1-0.2-1.5-0.7
				C497.1,733.4,496.9,732.8,496.9,732.1z"/>
			<path class="st2" d="M521.2,741.8h0.6c0.3,1,0.5,2.3,0.5,3.9c1-1.3,2-2.3,3.1-2.9s2.2-1,3.4-1c1.4,0,2.5,0.3,3.3,0.9
				c0.9,0.6,1.4,1.4,1.7,2.3c0.2,0.9,0.4,2.3,0.4,4v5.9c0,2.2,0,3.5,0.1,4c0.1,0.5,0.3,0.8,0.7,1.1c0.4,0.2,1,0.4,2,0.4v1.1h-8.7
				v-1.1h0.4c1,0,1.6-0.2,2-0.5c0.3-0.3,0.5-0.7,0.5-1.1c0-0.4,0.1-1.7,0.1-3.8v-6.1c0-1.5-0.1-2.6-0.2-3.2s-0.5-1.2-1.1-1.7
				c-0.6-0.5-1.3-0.7-2.2-0.7c-1,0-2,0.3-2.9,1c-0.9,0.7-1.8,1.7-2.6,3v7.7c0,2.2,0,3.5,0.1,4c0.1,0.5,0.3,0.8,0.7,1.1
				c0.4,0.2,1,0.4,2,0.4v1.1h-8.6v-1.1c1,0,1.6-0.1,2-0.3c0.4-0.2,0.6-0.5,0.7-1c0.1-0.4,0.1-1.8,0.1-4.1v-5.6c0-2.2,0-3.5-0.1-4
				c-0.1-0.5-0.3-0.8-0.7-1.1c-0.4-0.2-1-0.4-2-0.4v-1.1C518.1,742.7,519.6,742.3,521.2,741.8z"/>
			<path class="st2" d="M563.2,744.2c1.2-1.5,2.4-2.2,3.6-2.2c0.7,0,1.2,0.2,1.5,0.6s0.6,0.8,0.6,1.3c0,1-0.4,1.5-1.2,1.5
				c-0.5,0-0.9-0.3-1.2-0.9c-0.3-0.6-0.6-0.9-1-0.9c-0.5,0-1.1,0.4-1.7,1.2c0.7,1.3,1.1,2.6,1.1,4c0,1.8-0.6,3.5-1.8,4.9
				c-1.2,1.4-3.2,2.2-6,2.3c-2.9,0.1-4.4,0.8-4.4,2c0,0.6,0.3,1,1,1.2c0.7,0.2,2,0.4,4.1,0.6c2.3,0.1,4,0.4,5.3,0.7
				c1.2,0.3,2.2,1,3,2.1s1.1,2.3,1.1,3.7c0,2-0.7,3.7-2.2,4.9c-1.5,1.2-3.7,1.9-6.5,1.9c-2.6,0-4.6-0.6-6.2-1.7
				c-1.6-1.1-2.3-2.5-2.3-4.2c0-0.9,0.2-1.7,0.7-2.3c0.4-0.6,1.1-0.9,1.9-0.9c0.2,0,0.4,0,0.6,0.1c-0.9,1-1.3,2.2-1.3,3.3
				c0,1.4,0.6,2.5,1.7,3.4s2.9,1.3,5.1,1.3c2,0,3.6-0.5,4.7-1.4c1.1-0.9,1.7-2.1,1.7-3.5c0-1.5-0.5-2.6-1.5-3.3
				c-1-0.6-2.8-1-5.4-1.1c-3-0.1-4.9-0.5-5.8-1.2c-0.9-0.7-1.3-1.5-1.3-2.6c0-2,1.3-3.3,3.8-3.8c-1.3-0.9-2.3-1.8-3-3s-1-2.3-1-3.7
				c0-1.9,0.7-3.6,2-4.9c1.4-1.3,3-2,4.9-2C560,741.8,561.8,742.6,563.2,744.2z M553.9,749.3c0,2,0.4,3.4,1.1,4.4
				c0.7,0.9,1.7,1.4,2.8,1.4c1.1,0,2-0.5,2.7-1.4c0.8-0.9,1.1-2.5,1.1-4.8c0-2.3-0.4-3.8-1.2-4.7s-1.7-1.3-2.7-1.3
				c-1.3,0-2.2,0.5-2.9,1.6C554.2,745.5,553.9,747.1,553.9,749.3z"/>
			<path class="st2" d="M601.5,730.4l4.6-0.3c3.9-0.2,6.5-0.3,7.8-0.3c4.2,0,7.4,0.7,9.8,2.1c2.3,1.4,4.1,3.3,5.2,5.8
				c1.1,2.4,1.7,5.2,1.7,8.4c0,2.3-0.3,4.4-0.9,6.3c-0.6,1.9-1.5,3.5-2.6,4.7c-1.1,1.3-2.3,2.2-3.8,2.9c-1.4,0.7-2.8,1.1-4.1,1.2
				s-3.1,0.2-5.4,0.2h-12.5v-1.1h1.2c1.2,0,2-0.2,2.5-0.5c0.5-0.3,0.8-0.9,0.9-1.6c0.1-0.7,0.2-2.4,0.2-5v-15.1
				c0-2.5-0.1-4.1-0.2-4.8c-0.1-0.7-0.4-1.2-0.8-1.5s-1.3-0.4-2.8-0.4h-0.8V730.4z M610.2,731.1V752c0,3.1,0.1,5.1,0.2,6
				s0.4,1.5,0.9,1.9c0.5,0.4,1.6,0.5,3.3,0.5c2.5,0,4.5-0.4,6-1.1s2.9-2.2,4-4.4c1.1-2.2,1.6-5,1.6-8.4c0-2.6-0.3-5-0.9-7.1
				c-0.6-2.1-1.5-3.8-2.7-5.1c-1.2-1.3-2.4-2.2-3.8-2.7c-1.4-0.5-3.2-0.7-5.4-0.7C612.3,730.9,611.3,731,610.2,731.1z"/>
			<path class="st2" d="M650.4,741.8V755c0,2,0,3.3,0.1,3.8c0.1,0.5,0.3,0.9,0.6,1.2s1,0.4,1.8,0.4h0.4v1.1h-9.2v-1.1h0.7
				c1,0,1.6-0.2,1.9-0.5c0.3-0.3,0.5-0.7,0.5-1.1c0-0.4,0.1-1.7,0.1-3.8v-5.7c0-2.2-0.1-3.6-0.3-4.1c-0.2-0.5-0.4-0.8-0.7-0.9
				c-0.3-0.1-0.9-0.2-1.6-0.2h-0.6V743c2.5-0.3,4.4-0.7,5.7-1.2H650.4z M646.4,732.1c0-0.7,0.2-1.2,0.6-1.7c0.4-0.5,0.9-0.7,1.5-0.7
				s1.1,0.2,1.5,0.7c0.4,0.5,0.6,1,0.6,1.7c0,0.7-0.2,1.3-0.6,1.7c-0.4,0.5-0.9,0.7-1.5,0.7s-1.1-0.2-1.5-0.7
				S646.4,732.8,646.4,732.1z"/>
		</g>
		<g>
			<path class="st0" d="M291.8,854.5H273v-1.2c4.8,0,2.6-6.7,1.7-9l-2.3-6.5h-18.2c-1,3.3-4.9,16,6,15.5v1.2H243v-1.2
				c2.3-0.1,4.2,0,10.9-19l12.5-37.1h1c13.5,35.9,18.4,49.8,18.4,49.8c2.4,6.5,4.1,6.1,6.1,6.3V854.5z M271.9,836.6l-9.1-25.4
				l-8.4,25.4H271.9z"/>
			<path class="st0" d="M361,854.5h-6.2c-11.3-0.1-9.7-0.1-14.4-17.7c-2.2-8.5-9.3-8.5-10.3-8.5h-3.4v17c0,5.6,2.1,8,5.1,8v1.2H313
				v-1.2c3.1,0,4.9-2.3,4.9-8.5v-39.6c0-5-1.7-6.8-4.9-6.8v-1.2h16c14.6,0,23.8,2,23.8,15.5c0,10.5-5.7,14-14,14.8
				c4.8-0.2,10.3,1.9,13.9,18.2c1.5,6.2,6.4,7.4,8.3,7.6V854.5z M329,798.4h-2.3v28.7h2.3c7.8,0,13.8,0,13.8-14.3
				C342.8,798.3,336.5,798.4,329,798.4z"/>
			<path class="st0" d="M429.9,854.5h-18.8v-1.2c4.8,0,2.6-6.7,1.7-9l-2.3-6.5h-18.2c-1,3.3-4.9,16,6,15.5v1.2H381v-1.2
				c2.3-0.1,4.2,0,10.9-19l12.5-37.1h1c13.5,35.9,18.4,49.8,18.4,49.8c2.4,6.5,4.1,6.1,6.1,6.3V854.5z M410,836.6l-9.1-25.4
				l-8.4,25.4H410z"/>
			<path class="st0" d="M468.2,854.5H452v-0.7c3.1,0,4.2-4.2,4.2-9.7v-36.5c0-5-1-9.8-4.2-9.8v-0.7h16.2c10.2,0,19.3,0.1,19.3,13.9
				c0,12.4-11.2,14-12.7,14c4.8,0,16.1,1,16.1,14.8C490.9,854.1,480.9,854.5,468.2,854.5z M465.3,798.4v26.5h3.7
				c4.2,0,9.4-1.7,9.4-13.9c0-12-6.1-12.5-10-12.5H465.3z M469,826.1h-3.7v27.2h3.1c6.7,0,13,0.2,13-13.8
				C481.4,826.5,474.2,826.1,469,826.1z"/>
			<path class="st0" d="M553.8,837.2v17.3h-39v-1.2c3.1,0,4.1-3.6,4.1-9.1v-37c0-5-0.9-8.7-4.1-8.7v-1.2h38.1v15.1h-1.1
				c-1.2-13.8-17.5-13.8-20.5-13.8H528V825h3.7c1,0,10.5,0,11.1-8.3h1.1v17.9h-1.1c-0.6-8.4-10.1-8.4-11.1-8.4H528v27.1h3
				c3.2,0,19.4,0.2,21.8-16.1H553.8z"/>
			<path class="st0" d="M619.1,836.8v17.7h-39v-1.2c3.1,0,4.6-3.3,4.6-8.9v-38.9c0-5-2.1-7.1-5.2-7.1v-1.2h20.3v1.2
				c-3.1,0-6.1,1.4-6.1,7.2v47.6h2.6c4,0,19.8,0,21.8-16.4H619.1z"/>
			<path class="st0" d="M684.3,836.8v17.7h-39v-1.2c3.1,0,4.6-3.3,4.6-8.9v-38.9c0-5-2.1-7.1-5.2-7.1v-1.2h20.3v1.2
				c-3.1,0-6.1,1.4-6.1,7.2v47.6h2.6c4,0,19.8,0,21.8-16.4H684.3z"/>
			<path class="st0" d="M757.1,854.5h-18.8v-1.2c4.8,0,2.6-6.7,1.7-9l-2.3-6.5h-18.2c-1,3.3-4.9,16,6,15.5v1.2h-17.2v-1.2
				c2.3-0.1,4.2,0,10.9-19l12.5-37.1h1c13.5,35.9,18.4,49.8,18.4,49.8c2.4,6.5,4.1,6.1,6.1,6.3V854.5z M737.2,836.6l-9.1-25.4
				l-8.4,25.4H737.2z"/>
		</g>
	</g>
</g>
</svg>
