<?xml version="1.0" encoding="utf-8"?>
<!-- Generator: Adobe Illustrator 22.1.0, SVG Export Plug-In . SVG Version: 6.00 Build 0)  -->
<svg version="1.1" id="Camada_1" xmlns="http://www.w3.org/2000/svg" xmlns:xlink="http://www.w3.org/1999/xlink" x="0px" y="0px"
	 viewBox="0 0 1000 1000" style="enable-background:new 0 0 1000 1000;" xml:space="preserve">
<style type="text/css">
	.st0{fill:#CA3A44;}
	.st1{fill:#2D3951;}
	.st2{fill:#FFFFFF;}
</style>
<rect x="331.3" y="333.3" transform="matrix(-1.836970e-16 1 -1 -1.836970e-16 1331.3334 335.3333)" class="st0" width="333.3" height="1000"/>
<g>
	<g>
		<g>
			<path class="st0" d="M457.7,160h0.5v6.3h-0.5c-0.1-0.7-0.4-1.4-0.8-1.9c-1.4,1.8-3.3,2.7-5.5,2.7c-2.4,0-4.3-0.8-5.8-2.5
				c-1.5-1.7-2.2-3.8-2.2-6.6c0-1.8,0.3-3.5,1-5.1s1.7-2.8,2.9-3.5c1.2-0.8,2.6-1.1,4.1-1.1c1.2,0,2.3,0.3,3.3,0.8
				c1,0.6,1.7,1.2,2.2,1.8c0.3-0.8,0.6-1.5,0.6-2.4h0.5l0.1,6.9h-0.5c-0.4-2.4-1.1-4.1-2.2-5.1c-1.1-1-2.4-1.4-3.8-1.4
				c-1.7,0-3.1,0.8-4.1,2.3c-1,1.5-1.5,3.7-1.5,6.6c0,2.7,0.5,4.8,1.6,6.2c1.1,1.4,2.5,2.2,4.1,2.2c0.9,0,1.8-0.2,2.7-0.7
				c0.9-0.5,1.6-1.3,2.2-2.4C457.3,162.2,457.6,161.1,457.7,160z"/>
			<path class="st0" d="M476.8,164.8h0.4c-0.1,1.5-0.7,2.3-2,2.3c-0.5,0-1-0.2-1.3-0.5c-0.3-0.3-0.5-0.8-0.6-1.4
				c-0.8,0.6-1.5,1.1-2.2,1.4c-0.7,0.3-1.3,0.5-1.8,0.5c-0.7,0-1.2-0.2-1.7-0.6c-0.5-0.4-0.7-1-0.7-1.7c0-0.9,0.4-1.7,1.2-2.4
				c0.8-0.7,1.9-1.4,3.3-2l1.9-0.8V159c0-0.8,0-1.3-0.1-1.6c-0.1-0.3-0.3-0.6-0.7-0.9c-0.4-0.3-0.9-0.4-1.5-0.4
				c-1.2,0-1.9,0.4-2,1.3c-0.1,0.9-0.5,1.4-1,1.4c-0.5,0-0.7-0.3-0.7-0.8c0-0.5,0.3-1.1,1-1.6c0.6-0.6,1.7-0.9,3-0.9
				c1,0,1.8,0.2,2.4,0.5c0.6,0.4,0.9,0.8,1.1,1.2c0.2,0.5,0.3,1.1,0.3,2.1v4.4c0,1,0,1.7,0.1,2c0.1,0.3,0.3,0.4,0.6,0.4
				C476.3,166.1,476.7,165.7,476.8,164.8z M473.3,160.2l-1.3,0.6c-2.1,0.9-3.1,2.1-3.1,3.5c0,0.6,0.1,1,0.4,1.4
				c0.3,0.3,0.6,0.5,1,0.5c0.4,0,0.8-0.1,1.3-0.4c0.5-0.3,1.1-0.7,1.7-1.2V160.2z"/>
			<path class="st0" d="M490.2,156.5h-3v6.6c0,1,0,1.7,0.1,2.1c0.1,0.4,0.2,0.6,0.5,0.8c0.3,0.2,0.5,0.3,0.8,0.3
				c0.6,0,1.1-0.4,1.5-1.1l0.4,0.3c-0.2,0.6-0.6,1-1.1,1.3c-0.5,0.3-1,0.4-1.5,0.4c-0.6,0-1.1-0.2-1.5-0.6c-0.4-0.4-0.7-0.8-0.8-1.3
				c-0.1-0.5-0.2-1.4-0.2-2.7v-6.2h-1.4v-0.6c0.7,0,1.2-0.3,1.8-0.9c0.5-0.6,0.9-1.4,1-2.5h0.4v3.4h3V156.5z"/>
			<path class="st0" d="M506.6,159.6h-6.9c0,0.5,0,0.9,0,1.2c0,1.9,0.3,3.4,0.8,4.3c0.5,1,1.3,1.4,2.4,1.4c1.5,0,2.5-0.7,3.1-2.2
				h0.6c-0.3,0.9-0.8,1.6-1.5,2.1c-0.8,0.5-1.6,0.8-2.5,0.8c-0.8,0-1.6-0.2-2.4-0.7c-0.7-0.5-1.3-1.1-1.8-2s-0.7-1.9-0.7-3.1
				c0-1.7,0.5-3.2,1.4-4.3c0.9-1.1,2.1-1.7,3.4-1.7c1.3,0,2.3,0.4,3,1.3C506.2,157.6,506.5,158.6,506.6,159.6z M504.5,159.1
				c0-0.2,0-0.4,0-0.5c0-0.8-0.2-1.4-0.6-1.8c-0.4-0.4-0.9-0.6-1.5-0.6c-1.5,0-2.3,1-2.6,3H504.5z"/>
			<path class="st0" d="M517.8,158.3c0.3-0.8,0.7-1.5,1.3-2c0.6-0.5,1.2-0.8,1.8-0.8c0.5,0,0.9,0.2,1.2,0.5s0.5,0.7,0.5,1.1
				c0,0.3-0.1,0.5-0.2,0.7s-0.3,0.3-0.6,0.3c-0.4,0-0.7-0.3-0.9-1c-0.1-0.4-0.4-0.7-0.6-0.7c-0.3,0-0.8,0.3-1.2,0.8
				c-0.5,0.5-0.8,1.1-0.9,1.6c-0.1,0.6-0.2,1.3-0.2,2.3v2c0,1.2,0,1.9,0,2.2c0,0.3,0.1,0.5,0.3,0.7s0.6,0.2,1.1,0.2h0.3v0.6h-5.2
				v-0.6h0.3c0.5,0,0.8-0.1,1-0.2c0.2-0.1,0.3-0.4,0.4-0.6s0.1-1,0.1-2.3V160c0-1.2,0-1.9,0-2.2c0-0.3-0.1-0.5-0.3-0.7
				c-0.2-0.2-0.6-0.2-1.1-0.2h-0.3v-0.6c0.8-0.1,1.7-0.4,3-0.8C517.6,156.2,517.8,157.1,517.8,158.3z"/>
			<path class="st0" d="M532.8,155.5v7.6c0,1.2,0,1.9,0,2.2c0,0.3,0.1,0.5,0.3,0.7c0.2,0.2,0.6,0.2,1.1,0.2h0.3v0.6h-5.3v-0.6h0.4
				c0.6,0,0.9-0.1,1.1-0.3c0.2-0.2,0.3-0.4,0.3-0.7c0-0.3,0-1,0-2.2v-3.3c0-1.3-0.1-2.1-0.2-2.4s-0.3-0.5-0.4-0.5
				c-0.2-0.1-0.5-0.1-0.9-0.1h-0.3v-0.6c1.4-0.2,2.5-0.4,3.3-0.7H532.8z M530.5,149.9c0-0.4,0.1-0.7,0.4-1s0.5-0.4,0.9-0.4
				s0.6,0.1,0.9,0.4c0.2,0.3,0.4,0.6,0.4,1c0,0.4-0.1,0.7-0.4,1c-0.2,0.3-0.5,0.4-0.9,0.4s-0.6-0.1-0.9-0.4
				C530.6,150.6,530.5,150.3,530.5,149.9z"/>
			<path class="st0" d="M544.5,155.5h0.3c0.2,0.6,0.3,1.3,0.3,2.3c0.6-0.8,1.2-1.3,1.8-1.7c0.6-0.4,1.3-0.6,2-0.6
				c0.8,0,1.4,0.2,1.9,0.5s0.8,0.8,1,1.3c0.1,0.5,0.2,1.3,0.2,2.3v3.4c0,1.3,0,2,0.1,2.3c0,0.3,0.2,0.5,0.4,0.6
				c0.2,0.1,0.6,0.2,1.2,0.2v0.6h-5v-0.6h0.2c0.6,0,1-0.1,1.1-0.3c0.2-0.2,0.3-0.4,0.3-0.7c0-0.2,0-1,0-2.2v-3.5
				c0-0.9,0-1.5-0.1-1.9s-0.3-0.7-0.6-1c-0.3-0.3-0.8-0.4-1.3-0.4c-0.6,0-1.1,0.2-1.7,0.6c-0.5,0.4-1,1-1.5,1.7v4.5
				c0,1.3,0,2,0.1,2.3c0,0.3,0.2,0.5,0.4,0.6c0.2,0.1,0.6,0.2,1.2,0.2v0.6h-5v-0.6c0.6,0,0.9-0.1,1.2-0.2c0.2-0.1,0.4-0.3,0.4-0.6
				c0.1-0.3,0.1-1,0.1-2.4v-3.3c0-1.3,0-2-0.1-2.3c0-0.3-0.2-0.5-0.4-0.6c-0.2-0.1-0.6-0.2-1.2-0.2v-0.6
				C542.7,156,543.6,155.8,544.5,155.5z"/>
			<path class="st0" d="M568.8,156.9c0.7-0.9,1.4-1.3,2.1-1.3c0.4,0,0.7,0.1,0.9,0.3c0.2,0.2,0.3,0.5,0.3,0.8c0,0.6-0.2,0.9-0.7,0.9
				c-0.3,0-0.5-0.2-0.7-0.5c-0.2-0.3-0.4-0.5-0.6-0.5c-0.3,0-0.6,0.2-1,0.7c0.4,0.7,0.6,1.5,0.6,2.3c0,1.1-0.3,2-1,2.8
				c-0.7,0.8-1.9,1.3-3.5,1.3c-1.7,0.1-2.5,0.4-2.5,1.1c0,0.3,0.2,0.6,0.6,0.7c0.4,0.1,1.2,0.2,2.4,0.3c1.3,0.1,2.3,0.2,3.1,0.4
				c0.7,0.2,1.3,0.6,1.7,1.2s0.6,1.3,0.6,2.2c0,1.2-0.4,2.1-1.3,2.8c-0.9,0.7-2.1,1.1-3.7,1.1c-1.5,0-2.7-0.3-3.6-1
				s-1.3-1.5-1.3-2.4c0-0.5,0.1-1,0.4-1.3c0.3-0.3,0.6-0.5,1.1-0.5c0.1,0,0.2,0,0.3,0.1c-0.5,0.6-0.7,1.2-0.7,1.9
				c0,0.8,0.3,1.4,1,1.9c0.7,0.5,1.6,0.8,3,0.8c1.2,0,2.1-0.3,2.7-0.8c0.7-0.5,1-1.2,1-2c0-0.9-0.3-1.5-0.9-1.9
				c-0.6-0.4-1.6-0.6-3.1-0.6c-1.7-0.1-2.8-0.3-3.4-0.7c-0.5-0.4-0.8-0.9-0.8-1.5c0-1.2,0.7-1.9,2.2-2.2c-0.8-0.5-1.3-1.1-1.7-1.7
				c-0.4-0.6-0.6-1.4-0.6-2.2c0-1.1,0.4-2.1,1.2-2.8s1.7-1.2,2.8-1.2C566.9,155.5,568,155.9,568.8,156.9z M563.4,159.8
				c0,1.1,0.2,2,0.6,2.5s1,0.8,1.6,0.8c0.6,0,1.1-0.3,1.6-0.8c0.4-0.5,0.7-1.4,0.7-2.8c0-1.3-0.2-2.2-0.7-2.7s-1-0.7-1.6-0.7
				c-0.7,0-1.3,0.3-1.7,0.9C563.6,157.6,563.4,158.5,563.4,159.8z"/>
			<path class="st0" d="M590.9,148.9l2.7-0.1c2.2-0.1,3.7-0.2,4.5-0.2c2.4,0,4.3,0.4,5.7,1.2c1.4,0.8,2.4,1.9,3,3.3
				c0.7,1.4,1,3,1,4.9c0,1.3-0.2,2.5-0.5,3.6c-0.4,1.1-0.9,2-1.5,2.7c-0.6,0.7-1.4,1.3-2.2,1.7c-0.8,0.4-1.6,0.6-2.4,0.7
				c-0.7,0.1-1.8,0.1-3.1,0.1h-7.2v-0.6h0.7c0.7,0,1.2-0.1,1.4-0.3s0.4-0.5,0.5-0.9s0.1-1.4,0.1-2.9v-8.7c0-1.4,0-2.4-0.1-2.8
				s-0.2-0.7-0.5-0.9c-0.2-0.2-0.8-0.2-1.6-0.2h-0.5V148.9z M596,149.3v12.1c0,1.8,0,2.9,0.1,3.5s0.2,0.9,0.5,1.1
				c0.3,0.2,0.9,0.3,1.9,0.3c1.4,0,2.6-0.2,3.5-0.6c0.9-0.4,1.7-1.3,2.3-2.6c0.6-1.3,0.9-2.9,0.9-4.9c0-1.5-0.2-2.9-0.5-4.1
				c-0.4-1.2-0.9-2.2-1.5-2.9c-0.7-0.8-1.4-1.3-2.2-1.5c-0.8-0.3-1.8-0.4-3.1-0.4C597.2,149.2,596.6,149.2,596,149.3z"/>
			<path class="st0" d="M619.2,155.5v7.6c0,1.2,0,1.9,0,2.2c0,0.3,0.1,0.5,0.3,0.7c0.2,0.2,0.6,0.2,1.1,0.2h0.3v0.6h-5.3v-0.6h0.4
				c0.6,0,0.9-0.1,1.1-0.3c0.2-0.2,0.3-0.4,0.3-0.7c0-0.3,0-1,0-2.2v-3.3c0-1.3-0.1-2.1-0.2-2.4s-0.3-0.5-0.4-0.5
				c-0.2-0.1-0.5-0.1-0.9-0.1h-0.3v-0.6c1.4-0.2,2.5-0.4,3.3-0.7H619.2z M616.9,149.9c0-0.4,0.1-0.7,0.4-1s0.5-0.4,0.9-0.4
				s0.6,0.1,0.9,0.4c0.2,0.3,0.4,0.6,0.4,1c0,0.4-0.1,0.7-0.4,1c-0.2,0.3-0.5,0.4-0.9,0.4s-0.6-0.1-0.9-0.4
				C617,150.6,616.9,150.3,616.9,149.9z"/>
		</g>
		<g>
			<path class="st1" d="M411.8,220.7h-10.9v-0.7c2.8,0,1.5-3.9,1-5.2l-1.4-3.8H390c-0.6,1.9-2.8,9.2,3.5,8.9v0.7h-10v-0.7
				c1.4,0,2.4,0,6.3-11l7.2-21.5h0.6c7.8,20.8,10.6,28.8,10.6,28.8c1.4,3.8,2.4,3.5,3.5,3.6V220.7z M400.3,210.3l-5.3-14.7
				l-4.9,14.7H400.3z"/>
			<path class="st1" d="M451.8,220.7h-3.6c-6.5,0-5.6,0-8.3-10.3c-1.3-4.9-5.4-4.9-5.9-4.9h-2v9.8c0,3.2,1.2,4.6,3,4.6v0.7h-10.9
				v-0.7c1.8,0,2.8-1.3,2.8-4.9v-22.9c0-2.9-1-3.9-2.8-3.9v-0.7h9.3c8.4,0,13.8,1.1,13.8,9c0,6.1-3.3,8.1-8.1,8.6
				c2.8-0.1,5.9,1.1,8,10.5c0.8,3.6,3.7,4.3,4.8,4.4V220.7z M433.3,188.2H432v16.6h1.3c4.5,0,8,0,8-8.3
				C441.3,188.1,437.7,188.2,433.3,188.2z"/>
			<path class="st1" d="M491.7,220.7h-10.9v-0.7c2.8,0,1.5-3.9,1-5.2l-1.4-3.8h-10.5c-0.6,1.9-2.8,9.2,3.5,8.9v0.7h-10v-0.7
				c1.4,0,2.4,0,6.3-11l7.2-21.5h0.6c7.8,20.8,10.6,28.8,10.6,28.8c1.4,3.8,2.4,3.5,3.5,3.6V220.7z M480.1,210.3l-5.3-14.7
				l-4.9,14.7H480.1z"/>
			<path class="st1" d="M513.8,220.7h-9.4v-0.4c1.8,0,2.5-2.4,2.5-5.6v-21.1c0-2.9-0.6-5.6-2.5-5.6v-0.4h9.4c5.9,0,11.1,0,11.1,8
				c0,7.2-6.5,8.1-7.3,8.1c2.8,0,9.3,0.6,9.3,8.6C527,220.4,521.2,220.7,513.8,220.7z M512.2,188.2v15.3h2.1c2.5,0,5.5-1,5.5-8
				c0-7-3.5-7.2-5.8-7.2H512.2z M514.3,204.2h-2.1v15.7h1.8c3.9,0,7.5,0.1,7.5-8C521.5,204.5,517.3,204.2,514.3,204.2z"/>
			<path class="st1" d="M563.3,210.6v10h-22.6v-0.7c1.8,0,2.4-2.1,2.4-5.3v-21.4c0-2.9-0.5-5-2.4-5v-0.7h22v8.7h-0.6
				c-0.7-8-10.1-8-11.9-8h-1.9v15.3h2.1c0.6,0,6.1,0,6.4-4.8h0.6v10.4h-0.6c-0.3-4.8-5.8-4.8-6.4-4.8h-2.1v15.7h1.7
				c1.9,0,11.2,0.1,12.6-9.3H563.3z"/>
			<path class="st1" d="M601.1,210.4v10.2h-22.6v-0.7c1.8,0,2.7-1.9,2.7-5.1v-22.5c0-2.9-1.2-4.1-3-4.1v-0.7h11.7v0.7
				c-1.8,0-3.5,0.8-3.5,4.2v27.5h1.5c2.3,0,11.5,0,12.6-9.5H601.1z"/>
			<path class="st1" d="M638.8,210.4v10.2h-22.6v-0.7c1.8,0,2.7-1.9,2.7-5.1v-22.5c0-2.9-1.2-4.1-3-4.1v-0.7h11.7v0.7
				c-1.8,0-3.5,0.8-3.5,4.2v27.5h1.5c2.3,0,11.5,0,12.6-9.5H638.8z"/>
			<path class="st1" d="M680.9,220.7h-10.9v-0.7c2.8,0,1.5-3.9,1-5.2l-1.4-3.8h-10.5c-0.6,1.9-2.8,9.2,3.5,8.9v0.7h-10v-0.7
				c1.4,0,2.4,0,6.3-11l7.2-21.5h0.6c7.8,20.8,10.6,28.8,10.6,28.8c1.4,3.8,2.4,3.5,3.5,3.6V220.7z M669.4,210.3l-5.3-14.7
				l-4.9,14.7H669.4z"/>
		</g>
	</g>
	<g>
		<g>
			<path id="XMLID_43_" class="st0" d="M353.3,100.3c0.1-3.1,0.2-5.8,0.2-7c0-0.3-0.3-0.6-0.6-0.6c-0.3,0-0.6,0.3-0.6,0.6
				c0,1.3,0.2,4.4,0.3,8.3L353.3,100.3z"/>
			<path id="XMLID_42_" class="st0" d="M351.8,103.4c-1-6-1.8-10.8-2.1-12.4c0-0.3-0.4-0.6-0.7-0.5l0,0c-0.3,0-0.6,0.4-0.5,0.7
				c0.4,1.8,1.7,7.4,2.8,13.2L351.8,103.4z"/>
			<path id="XMLID_41_" class="st0" d="M356.2,103.5c1.6-5,3.1-9.6,3.6-11.2c0.1-0.3-0.1-0.7-0.4-0.8l0,0c-0.3-0.1-0.7,0.1-0.7,0.4
				c-0.4,1.5-1.4,5.5-2.9,10.7L356.2,103.5z"/>
		</g>
		<g id="XMLID_8_">
			<path id="XMLID_40_" class="st1" d="M355.8,102.7c-0.5-1-1-1.9-1.3-2.4c-0.2-0.4-0.8-0.4-1.1,0c0,0,0,0.1,0,0.1l-0.7,1.3
				c-0.2,0.5-0.5,1.1-0.8,1.7l-0.4,1c-0.5,1.1-1,2.4-1.4,3.7l-0.2-2.2c0-0.5-0.8-0.7-1.1-0.3c-2.4,3.2-8.6,12.5-7.6,22.3
				c0.6,6,3.7,11,6.8,14.5c0.7,1.7,1.5,3.2,2.4,4.2c-0.3-0.2-0.7-0.4-0.7-0.4c4.4,3.7,1.3,28,1.3,28c0-0.4-0.1-0.7-0.2-1.1
				c-1.3-7.6-3-15.2-4.9-22.7C340,127.1,331.1,104.4,321,82c-0.4-0.9-0.9-1.8-2-2.6c2.2,5.5,4.3,11.1,6.5,16.6
				c9.6,23.5,18,47.2,21.9,71.8c1.1,6.9,1.7,13.9,2.1,20.9c-0.8-1.9-1.4-3.8-1.8-5.7c-0.2-0.8-1.8-0.8-1.9,0
				c-0.3,3.5-0.5,7.9,0.1,12.5c0.3,2,0.6,4,0.9,5.8c-0.1,3.2,0.5,6,1.3,7.4l-1.5,20.3c-0.2-0.1-0.3-0.2-0.5-0.3c0,0.4-0.1,0.7,0,0.9
				c0.1,0.4,0.2,0.8,0.4,1.2l-0.6,8.5c-4.9,2.4-10.8,14.2-9.4,18.1c1.1,3,4.8,4.4,7.2,6.6c-0.2,0.3-0.5,0.7-1,1.3
				c0.8-0.2,1.1-0.3,1.5-0.4l0,0.7c0.8-0.5,1.6-1.1,2.9-2c0.1,1.2,0.2,1.9,0.2,2.7c0.3-0.8,0.6-1.6,1-2.6c0.6,0.7,1.1,1.1,1.5,1.5
				c0.4-0.6,0.7-1.2,1.2-2c0.6,0.8,0.9,1.2,1.4,1.9c0-0.7-0.1-1-0.1-1.6c0.9,0.6,1.5,1,2.3,1.5c-0.1-0.6-0.2-1-0.3-1.5
				c0.1-0.1,0.3-0.1,0.5-0.2c0.4,0.5,0.8,1,1.2,1.4c0.6-0.2,1-0.4,1.5-0.5c-0.3-0.3-0.6-0.6-1.1-1l1.5,0.1c0.6-0.5,1-0.8,1.5-1.1
				c3.4-2.3,5-5.1,4.3-8.6c-0.4-2.6-9.1-11.9-12.2-14.1l0.5-5.9c0-0.1,0.1-0.3,0.1-0.4c0.2-0.2,0.1-0.5,0.1-0.9
				c-0.1,0-0.1,0-0.2,0.1l2.3-26.4c0.2-1.1,0.4-2.4,0.5-3.6c1.3-2.5,2.6-5.5,3.8-8.7c1.7-4.6,2.4-9.2,2.6-12.5
				c0-0.8-1.5-1.1-1.8-0.3c-0.8,1.9-1.9,4-3.5,5.9l0.1-0.9c0,0,0,0,0-0.1c1.1-4.8,2.4-9.5,3.9-14.2c7.8-24.1,20.4-46.9,34.2-69.4
				c3.2-5.3,6.3-10.6,9.5-15.9c-1.2,0.6-1.9,1.5-2.5,2.4c-14.1,21.3-27,43.1-36.7,65.9c-1.7,4-3.3,8-4.9,12c-0.2,0.5-3,8.3-3.5,8.1
				c-0.3-0.1,1.8-10.6,1.8-10.6c0,0,0,0,0-0.1c1-4.1,2.2-8.2,3.5-12.2c7.8-24.1,20.4-46.9,34.2-69.4c3.2-5.3,6.3-10.6,9.5-15.9
				c-1.2,0.6-1.9,1.5-2.5,2.4c-14.1,21.3-27,43.1-36.7,65.9c-2.5,5.8-7.3,22.7-9.5,28.5c0,0-0.9-12.5,4.3-19.4c0,0-0.1-0.1-0.2,0
				c-0.3,0.2-0.6,0.5-0.9,0.8c0.4-0.7,0.7-1.4,1-2.3c3-3.7,6.1-8.8,6.5-14.9c0.7-9.8-5.7-18.9-8.2-22.1c-0.3-0.4-1-0.2-1.1,0.3
				l-0.1,1.6c-0.6-1.5-1.2-2.8-1.7-3.9L355.8,102.7z"/>
			<path id="XMLID_39_" class="st1" d="M349,90.5"/>
		</g>
	</g>
</g>
<g>
	<g>
		<g>
			<path class="st2" d="M457.7,826.7h0.5v6.3h-0.5c-0.1-0.7-0.4-1.4-0.8-1.9c-1.4,1.8-3.3,2.7-5.5,2.7c-2.4,0-4.3-0.8-5.8-2.5
				c-1.5-1.7-2.2-3.8-2.2-6.6c0-1.8,0.3-3.5,1-5.1s1.7-2.8,2.9-3.5c1.2-0.8,2.6-1.1,4.1-1.1c1.2,0,2.3,0.3,3.3,0.8
				c1,0.6,1.7,1.2,2.2,1.8c0.3-0.8,0.6-1.5,0.6-2.4h0.5l0.1,6.9h-0.5c-0.4-2.4-1.1-4.1-2.2-5.1c-1.1-1-2.4-1.4-3.8-1.4
				c-1.7,0-3.1,0.8-4.1,2.3c-1,1.5-1.5,3.7-1.5,6.6c0,2.7,0.5,4.8,1.6,6.2s2.5,2.2,4.1,2.2c0.9,0,1.8-0.2,2.7-0.7
				c0.9-0.5,1.6-1.3,2.2-2.4S457.6,827.8,457.7,826.7z"/>
			<path class="st2" d="M476.8,831.5h0.4c-0.1,1.5-0.7,2.3-2,2.3c-0.5,0-1-0.2-1.3-0.5c-0.3-0.3-0.5-0.8-0.6-1.4
				c-0.8,0.6-1.5,1.1-2.2,1.4c-0.7,0.3-1.3,0.5-1.8,0.5c-0.7,0-1.2-0.2-1.7-0.6c-0.5-0.4-0.7-1-0.7-1.7c0-0.9,0.4-1.7,1.2-2.4
				s1.9-1.4,3.3-2l1.9-0.8v-0.5c0-0.8,0-1.3-0.1-1.6c-0.1-0.3-0.3-0.6-0.7-0.9c-0.4-0.3-0.9-0.4-1.5-0.4c-1.2,0-1.9,0.4-2,1.3
				c-0.1,0.9-0.5,1.4-1,1.4c-0.5,0-0.7-0.3-0.7-0.8c0-0.5,0.3-1.1,1-1.6c0.6-0.6,1.7-0.9,3-0.9c1,0,1.8,0.2,2.4,0.5
				c0.6,0.4,0.9,0.8,1.1,1.2c0.2,0.5,0.3,1.1,0.3,2.1v4.4c0,1,0,1.7,0.1,2c0.1,0.3,0.3,0.4,0.6,0.4
				C476.3,832.8,476.7,832.4,476.8,831.5z M473.3,826.8l-1.3,0.6c-2.1,0.9-3.1,2.1-3.1,3.5c0,0.6,0.1,1,0.4,1.4
				c0.3,0.3,0.6,0.5,1,0.5c0.4,0,0.8-0.1,1.3-0.4c0.5-0.3,1.1-0.7,1.7-1.2V826.8z"/>
			<path class="st2" d="M490.2,823.2h-3v6.6c0,1,0,1.7,0.1,2c0.1,0.4,0.2,0.6,0.5,0.8c0.3,0.2,0.5,0.3,0.8,0.3
				c0.6,0,1.1-0.4,1.5-1.1l0.4,0.3c-0.2,0.6-0.6,1-1.1,1.3c-0.5,0.3-1,0.4-1.5,0.4c-0.6,0-1.1-0.2-1.5-0.6c-0.4-0.4-0.7-0.8-0.8-1.3
				c-0.1-0.5-0.2-1.4-0.2-2.7v-6.2h-1.4v-0.6c0.7,0,1.2-0.3,1.8-0.9s0.9-1.4,1-2.5h0.4v3.4h3V823.2z"/>
			<path class="st2" d="M506.6,826.3h-6.9c0,0.5,0,0.9,0,1.2c0,1.9,0.3,3.4,0.8,4.3c0.5,1,1.3,1.5,2.4,1.5c1.5,0,2.5-0.7,3.1-2.2
				h0.6c-0.3,0.9-0.8,1.6-1.5,2.1c-0.8,0.5-1.6,0.8-2.5,0.8c-0.8,0-1.6-0.2-2.4-0.7c-0.7-0.5-1.3-1.1-1.8-2s-0.7-1.9-0.7-3.1
				c0-1.7,0.5-3.2,1.4-4.3c0.9-1.1,2.1-1.7,3.4-1.7c1.3,0,2.3,0.4,3,1.3C506.2,824.3,506.5,825.3,506.6,826.3z M504.5,825.7
				c0-0.2,0-0.4,0-0.5c0-0.8-0.2-1.4-0.6-1.8c-0.4-0.4-0.9-0.6-1.5-0.6c-1.5,0-2.3,1-2.6,3H504.5z"/>
			<path class="st2" d="M517.8,824.9c0.3-0.8,0.7-1.5,1.3-2s1.2-0.8,1.8-0.8c0.5,0,0.9,0.2,1.2,0.5s0.5,0.7,0.5,1.1
				c0,0.3-0.1,0.5-0.2,0.7s-0.3,0.3-0.6,0.3c-0.4,0-0.7-0.3-0.9-1c-0.1-0.4-0.4-0.7-0.6-0.7c-0.3,0-0.8,0.3-1.2,0.8
				c-0.5,0.5-0.8,1.1-0.9,1.6c-0.1,0.6-0.2,1.3-0.2,2.3v1.9c0,1.2,0,1.9,0,2.2c0,0.3,0.1,0.5,0.3,0.7s0.6,0.2,1.1,0.2h0.3v0.6h-5.2
				v-0.6h0.3c0.5,0,0.8-0.1,1-0.2c0.2-0.1,0.3-0.4,0.4-0.6s0.1-1,0.1-2.3v-3.1c0-1.2,0-1.9,0-2.2c0-0.3-0.1-0.5-0.3-0.7
				c-0.2-0.2-0.6-0.2-1.1-0.2h-0.3v-0.6c0.8-0.1,1.7-0.4,3-0.8C517.6,822.8,517.8,823.8,517.8,824.9z"/>
			<path class="st2" d="M532.8,822.1v7.6c0,1.2,0,1.9,0,2.2c0,0.3,0.1,0.5,0.3,0.7c0.2,0.2,0.6,0.2,1.1,0.2h0.3v0.6h-5.3v-0.6h0.4
				c0.6,0,0.9-0.1,1.1-0.3c0.2-0.2,0.3-0.4,0.3-0.7s0-1,0-2.2v-3.3c0-1.3-0.1-2.1-0.2-2.4s-0.3-0.5-0.4-0.5
				c-0.2-0.1-0.5-0.1-0.9-0.1h-0.3v-0.6c1.4-0.2,2.5-0.4,3.3-0.7H532.8z M530.5,816.5c0-0.4,0.1-0.7,0.4-1c0.2-0.3,0.5-0.4,0.9-0.4
				s0.6,0.1,0.9,0.4c0.2,0.3,0.4,0.6,0.4,1c0,0.4-0.1,0.7-0.4,1c-0.2,0.3-0.5,0.4-0.9,0.4s-0.6-0.1-0.9-0.4
				C530.6,817.3,530.5,816.9,530.5,816.5z"/>
			<path class="st2" d="M544.5,822.1h0.3c0.2,0.6,0.3,1.3,0.3,2.3c0.6-0.8,1.2-1.3,1.8-1.7c0.6-0.4,1.3-0.6,2-0.6
				c0.8,0,1.4,0.2,1.9,0.5s0.8,0.8,1,1.3c0.1,0.5,0.2,1.3,0.2,2.3v3.4c0,1.3,0,2,0.1,2.3s0.2,0.5,0.4,0.6c0.2,0.1,0.6,0.2,1.2,0.2
				v0.6h-5v-0.6h0.2c0.6,0,1-0.1,1.1-0.3c0.2-0.2,0.3-0.4,0.3-0.7c0-0.2,0-1,0-2.2v-3.5c0-0.9,0-1.5-0.1-1.9s-0.3-0.7-0.6-1
				c-0.3-0.3-0.8-0.4-1.3-0.4c-0.6,0-1.1,0.2-1.7,0.6s-1,1-1.5,1.7v4.5c0,1.3,0,2,0.1,2.3c0,0.3,0.2,0.5,0.4,0.6
				c0.2,0.1,0.6,0.2,1.2,0.2v0.6h-5v-0.6c0.6,0,0.9-0.1,1.2-0.2c0.2-0.1,0.4-0.3,0.4-0.6c0.1-0.3,0.1-1,0.1-2.4v-3.3
				c0-1.3,0-2-0.1-2.3s-0.2-0.5-0.4-0.6c-0.2-0.1-0.6-0.2-1.2-0.2v-0.6C542.7,822.6,543.6,822.4,544.5,822.1z"/>
			<path class="st2" d="M568.8,823.5c0.7-0.9,1.4-1.3,2.1-1.3c0.4,0,0.7,0.1,0.9,0.3c0.2,0.2,0.3,0.5,0.3,0.8c0,0.6-0.2,0.9-0.7,0.9
				c-0.3,0-0.5-0.2-0.7-0.5c-0.2-0.3-0.4-0.5-0.6-0.5c-0.3,0-0.6,0.2-1,0.7c0.4,0.7,0.6,1.5,0.6,2.3c0,1.1-0.3,2-1,2.8
				c-0.7,0.8-1.9,1.3-3.5,1.3c-1.7,0.1-2.5,0.4-2.5,1.1c0,0.3,0.2,0.6,0.6,0.7c0.4,0.1,1.2,0.2,2.4,0.3c1.3,0.1,2.3,0.2,3.1,0.4
				c0.7,0.2,1.3,0.6,1.7,1.2s0.6,1.3,0.6,2.2c0,1.2-0.4,2.1-1.3,2.8c-0.9,0.7-2.1,1.1-3.7,1.1c-1.5,0-2.7-0.3-3.6-1
				s-1.3-1.5-1.3-2.4c0-0.5,0.1-1,0.4-1.3c0.3-0.3,0.6-0.5,1.1-0.5c0.1,0,0.2,0,0.3,0.1c-0.5,0.6-0.7,1.2-0.7,1.9
				c0,0.8,0.3,1.4,1,1.9c0.7,0.5,1.6,0.8,3,0.8c1.2,0,2.1-0.3,2.7-0.8c0.7-0.5,1-1.2,1-2c0-0.9-0.3-1.5-0.9-1.9
				c-0.6-0.4-1.6-0.6-3.1-0.6c-1.7-0.1-2.8-0.3-3.4-0.7c-0.5-0.4-0.8-0.9-0.8-1.5c0-1.2,0.7-1.9,2.2-2.2c-0.8-0.5-1.3-1.1-1.7-1.7
				c-0.4-0.6-0.6-1.4-0.6-2.2c0-1.1,0.4-2.1,1.2-2.8s1.7-1.2,2.8-1.2C566.9,822.1,568,822.6,568.8,823.5z M563.4,826.4
				c0,1.1,0.2,2,0.6,2.5c0.4,0.5,1,0.8,1.6,0.8c0.6,0,1.1-0.3,1.6-0.8c0.4-0.5,0.7-1.4,0.7-2.8c0-1.3-0.2-2.2-0.7-2.7
				c-0.5-0.5-1-0.7-1.6-0.7c-0.7,0-1.3,0.3-1.7,0.9C563.6,824.3,563.4,825.2,563.4,826.4z"/>
			<path class="st2" d="M590.9,815.5l2.7-0.1c2.2-0.1,3.7-0.2,4.5-0.2c2.4,0,4.3,0.4,5.7,1.2s2.4,1.9,3,3.3s1,3,1,4.9
				c0,1.3-0.2,2.5-0.5,3.6c-0.4,1.1-0.9,2-1.5,2.7c-0.6,0.7-1.4,1.3-2.2,1.7c-0.8,0.4-1.6,0.6-2.4,0.7s-1.8,0.1-3.1,0.1h-7.2v-0.6
				h0.7c0.7,0,1.2-0.1,1.4-0.3s0.4-0.5,0.5-0.9s0.1-1.4,0.1-2.9v-8.7c0-1.4,0-2.4-0.1-2.8c-0.1-0.4-0.2-0.7-0.5-0.9
				c-0.2-0.2-0.8-0.2-1.6-0.2h-0.5V815.5z M596,815.9V828c0,1.8,0,2.9,0.1,3.5s0.2,0.9,0.5,1.1s0.9,0.3,1.9,0.3
				c1.4,0,2.6-0.2,3.5-0.6c0.9-0.4,1.7-1.3,2.3-2.6c0.6-1.3,0.9-2.9,0.9-4.9c0-1.5-0.2-2.9-0.5-4.1c-0.4-1.2-0.9-2.2-1.5-2.9
				c-0.7-0.8-1.4-1.3-2.2-1.5c-0.8-0.3-1.8-0.4-3.1-0.4C597.2,815.9,596.6,815.9,596,815.9z"/>
			<path class="st2" d="M619.2,822.1v7.6c0,1.2,0,1.9,0,2.2c0,0.3,0.1,0.5,0.3,0.7c0.2,0.2,0.6,0.2,1.1,0.2h0.3v0.6h-5.3v-0.6h0.4
				c0.6,0,0.9-0.1,1.1-0.3c0.2-0.2,0.3-0.4,0.3-0.7s0-1,0-2.2v-3.3c0-1.3-0.1-2.1-0.2-2.4s-0.3-0.5-0.4-0.5
				c-0.2-0.1-0.5-0.1-0.9-0.1h-0.3v-0.6c1.4-0.2,2.5-0.4,3.3-0.7H619.2z M616.9,816.5c0-0.4,0.1-0.7,0.4-1c0.2-0.3,0.5-0.4,0.9-0.4
				s0.6,0.1,0.9,0.4c0.2,0.3,0.4,0.6,0.4,1c0,0.4-0.1,0.7-0.4,1c-0.2,0.3-0.5,0.4-0.9,0.4s-0.6-0.1-0.9-0.4
				C617,817.3,616.9,816.9,616.9,816.5z"/>
		</g>
		<g>
			<path class="st1" d="M411.8,887.3h-10.9v-0.7c2.8,0,1.5-3.9,1-5.2l-1.4-3.8H390c-0.6,1.9-2.8,9.2,3.5,8.9v0.7h-10v-0.7
				c1.4,0,2.4,0,6.3-11l7.2-21.5h0.6c7.8,20.8,10.6,28.8,10.6,28.8c1.4,3.8,2.4,3.5,3.5,3.6V887.3z M400.3,877l-5.3-14.7l-4.9,14.7
				H400.3z"/>
			<path class="st1" d="M451.8,887.3h-3.6c-6.5,0-5.6,0-8.3-10.3c-1.3-4.9-5.4-4.9-5.9-4.9h-2v9.8c0,3.2,1.2,4.6,3,4.6v0.7h-10.9
				v-0.7c1.8,0,2.8-1.3,2.8-4.9v-22.9c0-2.9-1-3.9-2.8-3.9v-0.7h9.3c8.4,0,13.8,1.1,13.8,9c0,6.1-3.3,8.1-8.1,8.6
				c2.8-0.1,5.9,1.1,8,10.5c0.8,3.6,3.7,4.3,4.8,4.4V887.3z M433.3,854.9H432v16.6h1.3c4.5,0,8,0,8-8.3
				C441.3,854.8,437.7,854.9,433.3,854.9z"/>
			<path class="st1" d="M491.7,887.3h-10.9v-0.7c2.8,0,1.5-3.9,1-5.2l-1.4-3.8h-10.5c-0.6,1.9-2.8,9.2,3.5,8.9v0.7h-10v-0.7
				c1.4,0,2.4,0,6.3-11l7.2-21.5h0.6c7.8,20.8,10.6,28.8,10.6,28.8c1.4,3.8,2.4,3.5,3.5,3.6V887.3z M480.1,877l-5.3-14.7L470,877
				H480.1z"/>
			<path class="st1" d="M513.8,887.3h-9.4v-0.4c1.8,0,2.5-2.4,2.5-5.6v-21.1c0-2.9-0.6-5.6-2.5-5.6v-0.4h9.4c5.9,0,11.1,0,11.1,8
				c0,7.2-6.5,8.1-7.3,8.1c2.8,0,9.3,0.6,9.3,8.6C527,887.1,521.2,887.3,513.8,887.3z M512.2,854.9v15.3h2.1c2.5,0,5.5-1,5.5-8
				c0-7-3.5-7.2-5.8-7.2H512.2z M514.3,870.9h-2.1v15.7h1.8c3.9,0,7.5,0.1,7.5-8C521.5,871.1,517.3,870.9,514.3,870.9z"/>
			<path class="st1" d="M563.3,877.3v10h-22.6v-0.7c1.8,0,2.4-2.1,2.4-5.3v-21.4c0-2.9-0.5-5-2.4-5v-0.7h22v8.7h-0.6
				c-0.7-8-10.1-8-11.9-8h-1.9v15.3h2.1c0.6,0,6.1,0,6.4-4.8h0.6v10.4h-0.6c-0.3-4.8-5.8-4.8-6.4-4.8h-2.1v15.7h1.7
				c1.9,0,11.2,0.1,12.6-9.3H563.3z"/>
			<path class="st1" d="M601.1,877.1v10.2h-22.6v-0.7c1.8,0,2.7-1.9,2.7-5.1V859c0-2.9-1.2-4.1-3-4.1v-0.7h11.7v0.7
				c-1.8,0-3.5,0.8-3.5,4.2v27.5h1.5c2.3,0,11.5,0,12.6-9.5H601.1z"/>
			<path class="st1" d="M638.8,877.1v10.2h-22.6v-0.7c1.8,0,2.7-1.9,2.7-5.1V859c0-2.9-1.2-4.1-3-4.1v-0.7h11.7v0.7
				c-1.8,0-3.5,0.8-3.5,4.2v27.5h1.5c2.3,0,11.5,0,12.6-9.5H638.8z"/>
			<path class="st1" d="M680.9,887.3h-10.9v-0.7c2.8,0,1.5-3.9,1-5.2l-1.4-3.8h-10.5c-0.6,1.9-2.8,9.2,3.5,8.9v0.7h-10v-0.7
				c1.4,0,2.4,0,6.3-11l7.2-21.5h0.6c7.8,20.8,10.6,28.8,10.6,28.8c1.4,3.8,2.4,3.5,3.5,3.6V887.3z M669.4,877l-5.3-14.7l-4.9,14.7
				H669.4z"/>
		</g>
	</g>
	<g>
		<g>
			<path id="XMLID_239_" class="st2" d="M353.3,767c0.1-3.1,0.2-5.8,0.2-7c0-0.3-0.3-0.6-0.6-0.6c-0.3,0-0.6,0.3-0.6,0.6
				c0,1.3,0.2,4.4,0.3,8.3L353.3,767z"/>
			<path id="XMLID_237_" class="st2" d="M351.8,770.1c-1-6-1.8-10.8-2.1-12.4c0-0.3-0.4-0.6-0.7-0.5l0,0c-0.3,0-0.6,0.4-0.5,0.7
				c0.4,1.8,1.7,7.4,2.8,13.2L351.8,770.1z"/>
			<path id="XMLID_234_" class="st2" d="M356.2,770.2c1.6-5,3.1-9.6,3.6-11.2c0.1-0.3-0.1-0.7-0.4-0.8l0,0c-0.3-0.1-0.7,0.1-0.7,0.4
				c-0.4,1.5-1.4,5.5-2.9,10.7L356.2,770.2z"/>
		</g>
		<g id="XMLID_201_">
			<path id="XMLID_222_" class="st1" d="M355.8,769.3c-0.5-1-1-1.9-1.3-2.4c-0.2-0.4-0.8-0.4-1.1,0c0,0,0,0.1,0,0.1l-0.7,1.3
				c-0.2,0.5-0.5,1.1-0.8,1.7l-0.4,1c-0.5,1.1-1,2.4-1.4,3.7l-0.2-2.2c0-0.5-0.8-0.7-1.1-0.3c-2.4,3.2-8.6,12.5-7.6,22.3
				c0.6,6,3.7,11,6.8,14.5c0.7,1.7,1.5,3.2,2.4,4.2c-0.3-0.2-0.7-0.4-0.7-0.4c4.4,3.7,1.3,28,1.3,28c0-0.4-0.1-0.7-0.2-1.1
				c-1.3-7.6-3-15.2-4.9-22.7c-5.8-23.4-14.6-46.1-24.7-68.5c-0.4-0.9-0.9-1.8-2-2.6c2.2,5.5,4.3,11.1,6.5,16.6
				c9.6,23.5,18,47.2,21.9,71.8c1.1,6.9,1.7,13.9,2.1,20.9c-0.8-1.9-1.4-3.8-1.8-5.7c-0.2-0.8-1.8-0.8-1.9,0
				c-0.3,3.5-0.5,7.9,0.1,12.5c0.3,2,0.6,4,0.9,5.8c-0.1,3.2,0.5,6,1.3,7.4l-1.5,20.3c-0.2-0.1-0.3-0.2-0.5-0.3c0,0.4-0.1,0.7,0,0.9
				c0.1,0.4,0.2,0.8,0.4,1.2l-0.6,8.5c-4.9,2.4-10.8,14.2-9.4,18.1c1.1,3,4.8,4.4,7.2,6.6c-0.2,0.3-0.5,0.7-1,1.3
				c0.8-0.2,1.1-0.3,1.5-0.4l0,0.7c0.8-0.5,1.6-1.1,2.9-2c0.1,1.2,0.2,1.9,0.2,2.7c0.3-0.8,0.6-1.6,1-2.6c0.6,0.7,1.1,1.1,1.5,1.5
				c0.4-0.6,0.7-1.2,1.2-2c0.6,0.8,0.9,1.2,1.4,1.9c0-0.7-0.1-1-0.1-1.6c0.9,0.6,1.5,1,2.3,1.5c-0.1-0.6-0.2-1-0.3-1.5
				c0.1-0.1,0.3-0.1,0.5-0.2c0.4,0.5,0.8,1,1.2,1.4c0.6-0.2,1-0.4,1.5-0.5c-0.3-0.3-0.6-0.6-1.1-1l1.5,0.1c0.6-0.5,1-0.8,1.5-1.1
				c3.4-2.3,5-5.1,4.3-8.6c-0.4-2.6-9.1-11.9-12.2-14.1l0.5-5.9c0-0.1,0.1-0.3,0.1-0.4c0.2-0.2,0.1-0.5,0.1-0.9
				c-0.1,0-0.1,0-0.2,0.1l2.3-26.4c0.2-1.1,0.4-2.4,0.5-3.6c1.3-2.5,2.6-5.5,3.8-8.7c1.7-4.6,2.4-9.2,2.6-12.5
				c0-0.8-1.5-1.1-1.8-0.3c-0.8,1.9-1.9,4-3.5,5.9l0.1-0.9c0,0,0,0,0-0.1c1.1-4.8,2.4-9.5,3.9-14.2c7.8-24.1,20.4-46.9,34.2-69.4
				c3.2-5.3,6.3-10.6,9.5-15.9c-1.2,0.6-1.9,1.5-2.5,2.4c-14.1,21.3-27,43.1-36.7,65.9c-1.7,4-3.3,8-4.9,12c-0.2,0.5-3,8.3-3.5,8.1
				c-0.3-0.1,1.8-10.6,1.8-10.6c0,0,0,0,0-0.1c1-4.1,2.2-8.2,3.5-12.2c7.8-24.1,20.4-46.9,34.2-69.4c3.2-5.3,6.3-10.6,9.5-15.9
				c-1.2,0.6-1.9,1.5-2.5,2.4c-14.1,21.3-27,43.1-36.7,65.9c-2.5,5.8-7.3,22.7-9.5,28.5c0,0-0.9-12.5,4.3-19.4c0,0-0.1-0.1-0.2,0
				c-0.3,0.2-0.6,0.5-0.9,0.8c0.4-0.7,0.7-1.4,1-2.3c3-3.7,6.1-8.8,6.5-14.9c0.7-9.8-5.7-18.9-8.2-22.1c-0.3-0.4-1-0.2-1.1,0.3
				l-0.1,1.6c-0.6-1.5-1.2-2.8-1.7-3.9L355.8,769.3z"/>
			<path id="XMLID_221_" class="st1" d="M349,757.1"/>
		</g>
	</g>
</g>
<rect x="331.3" y="0" transform="matrix(-1.836970e-16 1 -1 -1.836970e-16 998 2)" class="st1" width="333.3" height="1000"/>
<g>
	<g>
		<g>
			<path class="st0" d="M457.7,493.4h0.5v6.3h-0.5c-0.1-0.7-0.4-1.4-0.8-1.9c-1.4,1.8-3.3,2.7-5.5,2.7c-2.4,0-4.3-0.8-5.8-2.5
				c-1.5-1.7-2.2-3.8-2.2-6.6c0-1.8,0.3-3.5,1-5.1s1.7-2.8,2.9-3.5c1.2-0.8,2.6-1.1,4.1-1.1c1.2,0,2.3,0.3,3.3,0.8
				c1,0.6,1.7,1.2,2.2,1.8c0.3-0.8,0.6-1.5,0.6-2.4h0.5l0.1,6.9h-0.5c-0.4-2.4-1.1-4.1-2.2-5.1c-1.1-1-2.4-1.4-3.8-1.4
				c-1.7,0-3.1,0.8-4.1,2.3c-1,1.5-1.5,3.7-1.5,6.6c0,2.7,0.5,4.8,1.6,6.2c1.1,1.4,2.5,2.2,4.1,2.2c0.9,0,1.8-0.2,2.7-0.7
				c0.9-0.5,1.6-1.3,2.2-2.4C457.3,495.5,457.6,494.4,457.7,493.4z"/>
			<path class="st0" d="M476.8,498.2h0.4c-0.1,1.5-0.7,2.3-2,2.3c-0.5,0-1-0.2-1.3-0.5s-0.5-0.8-0.6-1.4c-0.8,0.6-1.5,1.1-2.2,1.4
				s-1.3,0.5-1.8,0.5c-0.7,0-1.2-0.2-1.7-0.6c-0.5-0.4-0.7-1-0.7-1.7c0-0.9,0.4-1.7,1.2-2.4c0.8-0.7,1.9-1.4,3.3-2l1.9-0.8v-0.5
				c0-0.8,0-1.3-0.1-1.6c-0.1-0.3-0.3-0.6-0.7-0.9c-0.4-0.3-0.9-0.4-1.5-0.4c-1.2,0-1.9,0.4-2,1.3c-0.1,0.9-0.5,1.4-1,1.4
				c-0.5,0-0.7-0.3-0.7-0.8c0-0.5,0.3-1.1,1-1.6c0.6-0.6,1.7-0.9,3-0.9c1,0,1.8,0.2,2.4,0.5c0.6,0.4,0.9,0.8,1.1,1.2
				c0.2,0.5,0.3,1.1,0.3,2.1v4.4c0,1,0,1.7,0.1,2c0.1,0.3,0.3,0.4,0.6,0.4C476.3,499.5,476.7,499,476.8,498.2z M473.3,493.5
				l-1.3,0.6c-2.1,0.9-3.1,2.1-3.1,3.5c0,0.6,0.1,1,0.4,1.4c0.3,0.3,0.6,0.5,1,0.5c0.4,0,0.8-0.1,1.3-0.4c0.5-0.3,1.1-0.7,1.7-1.2
				V493.5z"/>
			<path class="st0" d="M490.2,489.9h-3v6.6c0,1,0,1.7,0.1,2.1c0.1,0.4,0.2,0.6,0.5,0.8c0.3,0.2,0.5,0.3,0.8,0.3
				c0.6,0,1.1-0.4,1.5-1.1l0.4,0.3c-0.2,0.6-0.6,1-1.1,1.3c-0.5,0.3-1,0.4-1.5,0.4c-0.6,0-1.1-0.2-1.5-0.6c-0.4-0.4-0.7-0.8-0.8-1.3
				c-0.1-0.5-0.2-1.4-0.2-2.7v-6.2h-1.4v-0.6c0.7,0,1.2-0.3,1.8-0.9c0.5-0.6,0.9-1.4,1-2.5h0.4v3.4h3V489.9z"/>
			<path class="st0" d="M506.6,492.9h-6.9c0,0.5,0,0.9,0,1.2c0,1.9,0.3,3.4,0.8,4.3c0.5,1,1.3,1.4,2.4,1.4c1.5,0,2.5-0.7,3.1-2.2
				h0.6c-0.3,0.9-0.8,1.6-1.5,2.1c-0.8,0.5-1.6,0.8-2.5,0.8c-0.8,0-1.6-0.2-2.4-0.7c-0.7-0.5-1.3-1.1-1.8-2s-0.7-1.9-0.7-3.1
				c0-1.7,0.5-3.2,1.4-4.3c0.9-1.1,2.1-1.7,3.4-1.7c1.3,0,2.3,0.4,3,1.3C506.2,491,506.5,491.9,506.6,492.9z M504.5,492.4
				c0-0.2,0-0.4,0-0.5c0-0.8-0.2-1.4-0.6-1.8c-0.4-0.4-0.9-0.6-1.5-0.6c-1.5,0-2.3,1-2.6,3H504.5z"/>
			<path class="st0" d="M517.8,491.6c0.3-0.8,0.7-1.5,1.3-2c0.6-0.5,1.2-0.8,1.8-0.8c0.5,0,0.9,0.2,1.2,0.5s0.5,0.7,0.5,1.1
				c0,0.3-0.1,0.5-0.2,0.7s-0.3,0.3-0.6,0.3c-0.4,0-0.7-0.3-0.9-1c-0.1-0.4-0.4-0.7-0.6-0.7c-0.3,0-0.8,0.3-1.2,0.8
				c-0.5,0.5-0.8,1.1-0.9,1.6c-0.1,0.6-0.2,1.3-0.2,2.3v2c0,1.2,0,1.9,0,2.2c0,0.3,0.1,0.5,0.3,0.7s0.6,0.2,1.1,0.2h0.3v0.6h-5.2
				v-0.6h0.3c0.5,0,0.8-0.1,1-0.2c0.2-0.1,0.3-0.4,0.4-0.6s0.1-1,0.1-2.3v-3.1c0-1.2,0-1.9,0-2.2c0-0.3-0.1-0.5-0.3-0.7
				c-0.2-0.2-0.6-0.2-1.1-0.2h-0.3v-0.6c0.8-0.1,1.7-0.4,3-0.8C517.6,489.5,517.8,490.4,517.8,491.6z"/>
			<path class="st0" d="M532.8,488.8v7.6c0,1.2,0,1.9,0,2.2c0,0.3,0.1,0.5,0.3,0.7c0.2,0.2,0.6,0.2,1.1,0.2h0.3v0.6h-5.3v-0.6h0.4
				c0.6,0,0.9-0.1,1.1-0.3c0.2-0.2,0.3-0.4,0.3-0.7c0-0.3,0-1,0-2.2v-3.3c0-1.3-0.1-2.1-0.2-2.4s-0.3-0.5-0.4-0.5
				c-0.2-0.1-0.5-0.1-0.9-0.1h-0.3v-0.6c1.4-0.2,2.5-0.4,3.3-0.7H532.8z M530.5,483.2c0-0.4,0.1-0.7,0.4-1s0.5-0.4,0.9-0.4
				s0.6,0.1,0.9,0.4c0.2,0.3,0.4,0.6,0.4,1c0,0.4-0.1,0.7-0.4,1c-0.2,0.3-0.5,0.4-0.9,0.4s-0.6-0.1-0.9-0.4
				C530.6,483.9,530.5,483.6,530.5,483.2z"/>
			<path class="st0" d="M544.5,488.8h0.3c0.2,0.6,0.3,1.3,0.3,2.3c0.6-0.8,1.2-1.3,1.8-1.7c0.6-0.4,1.3-0.6,2-0.6
				c0.8,0,1.4,0.2,1.9,0.5s0.8,0.8,1,1.3c0.1,0.5,0.2,1.3,0.2,2.3v3.4c0,1.3,0,2,0.1,2.3c0,0.3,0.2,0.5,0.4,0.6
				c0.2,0.1,0.6,0.2,1.2,0.2v0.6h-5v-0.6h0.2c0.6,0,1-0.1,1.1-0.3c0.2-0.2,0.3-0.4,0.3-0.7c0-0.2,0-1,0-2.2v-3.5
				c0-0.9,0-1.5-0.1-1.9s-0.3-0.7-0.6-1c-0.3-0.3-0.8-0.4-1.3-0.4c-0.6,0-1.1,0.2-1.7,0.6c-0.5,0.4-1,1-1.5,1.7v4.5
				c0,1.3,0,2,0.1,2.3c0,0.3,0.2,0.5,0.4,0.6c0.2,0.1,0.6,0.2,1.2,0.2v0.6h-5v-0.6c0.6,0,0.9-0.1,1.2-0.2c0.2-0.1,0.4-0.3,0.4-0.6
				c0.1-0.3,0.1-1,0.1-2.4v-3.3c0-1.3,0-2-0.1-2.3c0-0.3-0.2-0.5-0.4-0.6c-0.2-0.1-0.6-0.2-1.2-0.2v-0.6
				C542.7,489.3,543.6,489.1,544.5,488.8z"/>
			<path class="st0" d="M568.8,490.2c0.7-0.9,1.4-1.3,2.1-1.3c0.4,0,0.7,0.1,0.9,0.3c0.2,0.2,0.3,0.5,0.3,0.8c0,0.6-0.2,0.9-0.7,0.9
				c-0.3,0-0.5-0.2-0.7-0.5c-0.2-0.3-0.4-0.5-0.6-0.5c-0.3,0-0.6,0.2-1,0.7c0.4,0.7,0.6,1.5,0.6,2.3c0,1.1-0.3,2-1,2.8
				c-0.7,0.8-1.9,1.3-3.5,1.3c-1.7,0.1-2.5,0.4-2.5,1.1c0,0.3,0.2,0.6,0.6,0.7c0.4,0.1,1.2,0.2,2.4,0.3c1.3,0.1,2.3,0.2,3.1,0.4
				c0.7,0.2,1.3,0.6,1.7,1.2s0.6,1.3,0.6,2.2c0,1.2-0.4,2.1-1.3,2.8c-0.9,0.7-2.1,1.1-3.7,1.1c-1.5,0-2.7-0.3-3.6-1
				c-0.9-0.6-1.3-1.5-1.3-2.4c0-0.5,0.1-1,0.4-1.3c0.3-0.3,0.6-0.5,1.1-0.5c0.1,0,0.2,0,0.3,0.1c-0.5,0.6-0.7,1.2-0.7,1.9
				c0,0.8,0.3,1.4,1,1.9c0.7,0.5,1.6,0.8,3,0.8c1.2,0,2.1-0.3,2.7-0.8c0.7-0.5,1-1.2,1-2c0-0.9-0.3-1.5-0.9-1.9
				c-0.6-0.4-1.6-0.6-3.1-0.6c-1.7-0.1-2.8-0.3-3.4-0.7c-0.5-0.4-0.8-0.9-0.8-1.5c0-1.2,0.7-1.9,2.2-2.2c-0.8-0.5-1.3-1.1-1.7-1.7
				c-0.4-0.6-0.6-1.4-0.6-2.2c0-1.1,0.4-2.1,1.2-2.8s1.7-1.2,2.8-1.2C566.9,488.8,568,489.3,568.8,490.2z M563.4,493.1
				c0,1.1,0.2,2,0.6,2.5s1,0.8,1.6,0.8c0.6,0,1.1-0.3,1.6-0.8c0.4-0.5,0.7-1.4,0.7-2.8c0-1.3-0.2-2.2-0.7-2.7s-1-0.7-1.6-0.7
				c-0.7,0-1.3,0.3-1.7,0.9C563.6,490.9,563.4,491.9,563.4,493.1z"/>
			<path class="st0" d="M590.9,482.2l2.7-0.1c2.2-0.1,3.7-0.2,4.5-0.2c2.4,0,4.3,0.4,5.7,1.2c1.4,0.8,2.4,1.9,3,3.3
				c0.7,1.4,1,3,1,4.9c0,1.3-0.2,2.5-0.5,3.6c-0.4,1.1-0.9,2-1.5,2.7c-0.6,0.7-1.4,1.3-2.2,1.7c-0.8,0.4-1.6,0.6-2.4,0.7
				c-0.7,0.1-1.8,0.1-3.1,0.1h-7.2v-0.6h0.7c0.7,0,1.2-0.1,1.4-0.3s0.4-0.5,0.5-0.9s0.1-1.4,0.1-2.9v-8.7c0-1.4,0-2.4-0.1-2.8
				s-0.2-0.7-0.5-0.9c-0.2-0.2-0.8-0.2-1.6-0.2h-0.5V482.2z M596,482.6v12.1c0,1.8,0,2.9,0.1,3.5s0.2,0.9,0.5,1.1
				c0.3,0.2,0.9,0.3,1.9,0.3c1.4,0,2.6-0.2,3.5-0.6c0.9-0.4,1.7-1.3,2.3-2.6c0.6-1.3,0.9-2.9,0.9-4.9c0-1.5-0.2-2.9-0.5-4.1
				c-0.4-1.2-0.9-2.2-1.5-2.9c-0.7-0.8-1.4-1.3-2.2-1.5c-0.8-0.3-1.8-0.4-3.1-0.4C597.2,482.5,596.6,482.5,596,482.6z"/>
			<path class="st0" d="M619.2,488.8v7.6c0,1.2,0,1.9,0,2.2c0,0.3,0.1,0.5,0.3,0.7c0.2,0.2,0.6,0.2,1.1,0.2h0.3v0.6h-5.3v-0.6h0.4
				c0.6,0,0.9-0.1,1.1-0.3c0.2-0.2,0.3-0.4,0.3-0.7c0-0.3,0-1,0-2.2v-3.3c0-1.3-0.1-2.1-0.2-2.4s-0.3-0.5-0.4-0.5
				c-0.2-0.1-0.5-0.1-0.9-0.1h-0.3v-0.6c1.4-0.2,2.5-0.4,3.3-0.7H619.2z M616.9,483.2c0-0.4,0.1-0.7,0.4-1s0.5-0.4,0.9-0.4
				s0.6,0.1,0.9,0.4c0.2,0.3,0.4,0.6,0.4,1c0,0.4-0.1,0.7-0.4,1c-0.2,0.3-0.5,0.4-0.9,0.4s-0.6-0.1-0.9-0.4
				C617,483.9,616.9,483.6,616.9,483.2z"/>
		</g>
		<g>
			<path class="st2" d="M411.8,554h-10.9v-0.7c2.8,0,1.5-3.9,1-5.2l-1.4-3.8H390c-0.6,1.9-2.8,9.2,3.5,8.9v0.7h-10v-0.7
				c1.4,0,2.4,0,6.3-11l7.2-21.5h0.6c7.8,20.8,10.6,28.8,10.6,28.8c1.4,3.8,2.4,3.5,3.5,3.6V554z M400.3,543.6l-5.3-14.7l-4.9,14.7
				H400.3z"/>
			<path class="st2" d="M451.8,554h-3.6c-6.5,0-5.6,0-8.3-10.3c-1.3-4.9-5.4-4.9-5.9-4.9h-2v9.8c0,3.2,1.2,4.6,3,4.6v0.7h-10.9v-0.7
				c1.8,0,2.8-1.3,2.8-4.9v-22.9c0-2.9-1-3.9-2.8-3.9v-0.7h9.3c8.4,0,13.8,1.1,13.8,9c0,6.1-3.3,8.1-8.1,8.6c2.8-0.1,5.9,1.1,8,10.5
				c0.8,3.6,3.7,4.3,4.8,4.4V554z M433.3,521.6H432v16.6h1.3c4.5,0,8,0,8-8.3C441.3,521.5,437.7,521.6,433.3,521.6z"/>
			<path class="st2" d="M491.7,554h-10.9v-0.7c2.8,0,1.5-3.9,1-5.2l-1.4-3.8h-10.5c-0.6,1.9-2.8,9.2,3.5,8.9v0.7h-10v-0.7
				c1.4,0,2.4,0,6.3-11l7.2-21.5h0.6c7.8,20.8,10.6,28.8,10.6,28.8c1.4,3.8,2.4,3.5,3.5,3.6V554z M480.1,543.6l-5.3-14.7l-4.9,14.7
				H480.1z"/>
			<path class="st2" d="M513.8,554h-9.4v-0.4c1.8,0,2.5-2.4,2.5-5.6v-21.1c0-2.9-0.6-5.6-2.5-5.6v-0.4h9.4c5.9,0,11.1,0,11.1,8
				c0,7.2-6.5,8.1-7.3,8.1c2.8,0,9.3,0.6,9.3,8.6C527,553.8,521.2,554,513.8,554z M512.2,521.6v15.3h2.1c2.5,0,5.5-1,5.5-8
				c0-7-3.5-7.2-5.8-7.2H512.2z M514.3,537.6h-2.1v15.7h1.8c3.9,0,7.5,0.1,7.5-8C521.5,537.8,517.3,537.6,514.3,537.6z"/>
			<path class="st2" d="M563.3,544v10h-22.6v-0.7c1.8,0,2.4-2.1,2.4-5.3v-21.4c0-2.9-0.5-5-2.4-5v-0.7h22v8.7h-0.6
				c-0.7-8-10.1-8-11.9-8h-1.9v15.3h2.1c0.6,0,6.1,0,6.4-4.8h0.6v10.4h-0.6c-0.3-4.8-5.8-4.8-6.4-4.8h-2.1v15.7h1.7
				c1.9,0,11.2,0.1,12.6-9.3H563.3z"/>
			<path class="st2" d="M601.1,543.8V554h-22.6v-0.7c1.8,0,2.7-1.9,2.7-5.1v-22.5c0-2.9-1.2-4.1-3-4.1v-0.7h11.7v0.7
				c-1.8,0-3.5,0.8-3.5,4.2v27.5h1.5c2.3,0,11.5,0,12.6-9.5H601.1z"/>
			<path class="st2" d="M638.8,543.8V554h-22.6v-0.7c1.8,0,2.7-1.9,2.7-5.1v-22.5c0-2.9-1.2-4.1-3-4.1v-0.7h11.7v0.7
				c-1.8,0-3.5,0.8-3.5,4.2v27.5h1.5c2.3,0,11.5,0,12.6-9.5H638.8z"/>
			<path class="st2" d="M680.9,554h-10.9v-0.7c2.8,0,1.5-3.9,1-5.2l-1.4-3.8h-10.5c-0.6,1.9-2.8,9.2,3.5,8.9v0.7h-10v-0.7
				c1.4,0,2.4,0,6.3-11l7.2-21.5h0.6c7.8,20.8,10.6,28.8,10.6,28.8c1.4,3.8,2.4,3.5,3.5,3.6V554z M669.4,543.6l-5.3-14.7l-4.9,14.7
				H669.4z"/>
		</g>
	</g>
	<g>
		<g>
			<path id="XMLID_108_" class="st0" d="M353.3,433.7c0.1-3.1,0.2-5.8,0.2-7c0-0.3-0.3-0.6-0.6-0.6c-0.3,0-0.6,0.3-0.6,0.6
				c0,1.3,0.2,4.4,0.3,8.3L353.3,433.7z"/>
			<path id="XMLID_93_" class="st0" d="M351.8,436.7c-1-6-1.8-10.8-2.1-12.4c0-0.3-0.4-0.6-0.7-0.5l0,0c-0.3,0-0.6,0.4-0.5,0.7
				c0.4,1.8,1.7,7.4,2.8,13.2L351.8,436.7z"/>
			<path id="XMLID_80_" class="st0" d="M356.2,436.8c1.6-5,3.1-9.6,3.6-11.2c0.1-0.3-0.1-0.7-0.4-0.8l0,0c-0.3-0.1-0.7,0.1-0.7,0.4
				c-0.4,1.5-1.4,5.5-2.9,10.7L356.2,436.8z"/>
		</g>
		<g id="XMLID_61_">
			<path id="XMLID_77_" class="st2" d="M355.8,436c-0.5-1-1-1.9-1.3-2.4c-0.2-0.4-0.8-0.4-1.1,0c0,0,0,0.1,0,0.1l-0.7,1.3
				c-0.2,0.5-0.5,1.1-0.8,1.7l-0.4,1c-0.5,1.1-1,2.4-1.4,3.7l-0.2-2.2c0-0.5-0.8-0.7-1.1-0.3c-2.4,3.2-8.6,12.5-7.6,22.3
				c0.6,6,3.7,11,6.8,14.5c0.7,1.7,1.5,3.2,2.4,4.2c-0.3-0.2-0.7-0.4-0.7-0.4c4.4,3.7,1.3,28,1.3,28c0-0.4-0.1-0.7-0.2-1.1
				c-1.3-7.6-3-15.2-4.9-22.7c-5.8-23.4-14.6-46.1-24.7-68.5c-0.4-0.9-0.9-1.8-2-2.6c2.2,5.5,4.3,11.1,6.5,16.6
				c9.6,23.5,18,47.2,21.9,71.8c1.1,6.9,1.7,13.9,2.1,20.9c-0.8-1.9-1.4-3.8-1.8-5.7c-0.2-0.8-1.8-0.8-1.9,0
				c-0.3,3.5-0.5,7.9,0.1,12.5c0.3,2,0.6,4,0.9,5.8c-0.1,3.2,0.5,6,1.3,7.4l-1.5,20.3c-0.2-0.1-0.3-0.2-0.5-0.3c0,0.4-0.1,0.7,0,0.9
				c0.1,0.4,0.2,0.8,0.4,1.2l-0.6,8.5c-4.9,2.4-10.8,14.2-9.4,18.1c1.1,3,4.8,4.4,7.2,6.6c-0.2,0.3-0.5,0.7-1,1.3
				c0.8-0.2,1.1-0.3,1.5-0.4l0,0.7c0.8-0.5,1.6-1.1,2.9-2c0.1,1.2,0.2,1.9,0.2,2.7c0.3-0.8,0.6-1.6,1-2.6c0.6,0.7,1.1,1.1,1.5,1.5
				c0.4-0.6,0.7-1.2,1.2-2c0.6,0.8,0.9,1.2,1.4,1.9c0-0.7-0.1-1-0.1-1.6c0.9,0.6,1.5,1,2.3,1.5c-0.1-0.6-0.2-1-0.3-1.5
				c0.1-0.1,0.3-0.1,0.5-0.2c0.4,0.5,0.8,1,1.2,1.4c0.6-0.2,1-0.4,1.5-0.5c-0.3-0.3-0.6-0.6-1.1-1l1.5,0.1c0.6-0.5,1-0.8,1.5-1.1
				c3.4-2.3,5-5.1,4.3-8.6c-0.4-2.6-9.1-11.9-12.2-14.1l0.5-5.9c0-0.1,0.1-0.3,0.1-0.4c0.2-0.2,0.1-0.5,0.1-0.9
				c-0.1,0-0.1,0-0.2,0.1l2.3-26.4c0.2-1.1,0.4-2.4,0.5-3.6c1.3-2.5,2.6-5.5,3.8-8.7c1.7-4.6,2.4-9.2,2.6-12.5
				c0-0.8-1.5-1.1-1.8-0.3c-0.8,1.9-1.9,4-3.5,5.9l0.1-0.9c0,0,0,0,0-0.1c1.1-4.8,2.4-9.5,3.9-14.2c7.8-24.1,20.4-46.9,34.2-69.4
				c3.2-5.3,6.3-10.6,9.5-15.9c-1.2,0.6-1.9,1.5-2.5,2.4c-14.1,21.3-27,43.1-36.7,65.9c-1.7,4-3.3,8-4.9,12c-0.2,0.5-3,8.3-3.5,8.1
				c-0.3-0.1,1.8-10.6,1.8-10.6c0,0,0,0,0-0.1c1-4.1,2.2-8.2,3.5-12.2c7.8-24.1,20.4-46.9,34.2-69.4c3.2-5.3,6.3-10.6,9.5-15.9
				c-1.2,0.6-1.9,1.5-2.5,2.4c-14.1,21.3-27,43.1-36.7,65.9c-2.5,5.8-7.3,22.7-9.5,28.5c0,0-0.9-12.5,4.3-19.4c0,0-0.1-0.1-0.2,0
				c-0.3,0.2-0.6,0.5-0.9,0.8c0.4-0.7,0.7-1.4,1-2.3c3-3.7,6.1-8.8,6.5-14.9c0.7-9.8-5.7-18.9-8.2-22.1c-0.3-0.4-1-0.2-1.1,0.3
				l-0.1,1.6c-0.6-1.5-1.2-2.8-1.7-3.9L355.8,436z"/>
			<path id="XMLID_62_" class="st1" d="M349,423.8"/>
		</g>
	</g>
</g>
</svg>
