<?xml version="1.0" encoding="utf-8"?>
<!-- Generator: Adobe Illustrator 22.1.0, SVG Export Plug-In . SVG Version: 6.00 Build 0)  -->
<svg version="1.1" id="Camada_1" xmlns="http://www.w3.org/2000/svg" xmlns:xlink="http://www.w3.org/1999/xlink" x="0px" y="0px"
	 viewBox="0 0 1000 1000" style="enable-background:new 0 0 1000 1000;" xml:space="preserve">
<style type="text/css">
	.st0{fill:#2D3951;}
	.st1{fill:#CA3A44;}
	.st2{fill:#FFFFFF;}
</style>
<g>
	<rect x="333.3" class="st0" width="333.3" height="1000"/>
	<rect x="666.7" class="st1" width="333.3" height="1000"/>
	<g>
		<g>
			<path id="XMLID_53_" class="st1" d="M154.4,407.9c0.1-4.3,0.2-8,0.3-9.6c0-0.5-0.4-0.9-0.9-0.9c-0.5,0-0.9,0.4-0.8,0.9
				c0.1,1.8,0.3,6.1,0.4,11.5L154.4,407.9z"/>
			<path id="XMLID_52_" class="st1" d="M152.3,412.2c-1.4-8.3-2.5-15-2.8-17.3c-0.1-0.5-0.5-0.8-1-0.7l0,0c-0.5,0.1-0.8,0.5-0.7,1
				c0.6,2.5,2.3,10.3,3.9,18.3L152.3,412.2z"/>
			<path id="XMLID_51_" class="st1" d="M158.4,412.3c2.2-7,4.3-13.4,5-15.6c0.2-0.5-0.1-0.9-0.6-1.1l0,0c-0.5-0.1-0.9,0.1-1,0.6
				c-0.5,2-2,7.7-4,14.9L158.4,412.3z"/>
		</g>
		<g id="XMLID_47_">
			<path id="XMLID_49_" class="st0" d="M157.8,411.1c-0.7-1.4-1.4-2.6-1.8-3.4c-0.3-0.6-1.2-0.6-1.5,0c0,0-0.1,0.1-0.1,0.1l-1,1.9
				c-0.3,0.7-0.7,1.5-1.1,2.4l-0.6,1.4c-0.7,1.5-1.3,3.3-2,5.2l-0.3-3c-0.1-0.8-1.1-1-1.5-0.4c-3.4,4.5-11.9,17.4-10.5,31
				c0.8,8.3,5.2,15.2,9.4,20.2c1,2.4,2.1,4.4,3.4,5.9c-0.5-0.3-1-0.5-1-0.5c6.1,5.2,1.8,38.9,1.8,38.9c-0.1-0.5-0.1-1-0.2-1.6
				c-1.8-10.6-4.2-21.1-6.7-31.6c-8-32.5-20.3-64-34.3-95.1c-0.6-1.3-1.3-2.5-2.7-3.6c3,7.7,5.9,15.4,9,23
				c13.4,32.6,25,65.6,30.5,99.7c1.5,9.6,2.4,19.3,2.9,29.1c-1.2-2.6-2-5.3-2.5-7.8c-0.2-1.1-2.5-1.1-2.6,0.1
				c-0.5,4.8-0.7,11,0.1,17.4c0.4,2.8,0.8,5.5,1.3,8c-0.2,4.4,0.7,8.4,1.8,10.3l-2,28.2c-0.2-0.1-0.5-0.2-0.7-0.4
				c0,0.6-0.2,0.9,0,1.3c0.2,0.6,0.3,1.1,0.5,1.7l-0.9,11.9c-6.8,3.3-15.1,19.8-13.1,25.2c1.5,4.2,6.7,6.1,10,9.2
				c-0.3,0.5-0.7,1-1.4,1.9c1.1-0.3,1.6-0.4,2.1-0.6l-0.1,0.9c1.1-0.8,2.3-1.5,4-2.7c0.1,1.6,0.2,2.7,0.3,3.7
				c0.4-1.1,0.8-2.2,1.3-3.6c0.9,0.9,1.5,1.5,2.1,2.1c0.5-0.9,1-1.7,1.7-2.8c0.8,1.1,1.2,1.7,1.9,2.7c-0.1-1-0.1-1.4-0.2-2.2
				c1.2,0.8,2.1,1.4,3.2,2.1c-0.2-0.8-0.3-1.4-0.5-2.1c0.2-0.1,0.4-0.2,0.7-0.3c0.6,0.7,1.1,1.3,1.6,1.9c0.8-0.3,1.4-0.5,2-0.8
				c-0.5-0.4-0.9-0.8-1.5-1.4l2.1,0.1c0.9-0.7,1.4-1.1,2.1-1.5c4.8-3.2,6.9-7.1,6-11.9c-0.6-3.6-12.6-16.5-16.9-19.5l0.7-8.2
				c0.1-0.2,0.1-0.4,0.2-0.6c0.3-0.3,0.2-0.7,0.2-1.3c-0.1,0-0.2,0.1-0.3,0.1L156,555c0.4-1.6,0.6-3.3,0.8-5
				c1.8-3.4,3.6-7.6,5.3-12.1c2.4-6.4,3.3-12.7,3.6-17.4c0.1-1.1-2.1-1.5-2.5-0.4c-1.1,2.6-2.7,5.5-4.8,8.2l0.1-1.3c0,0,0-0.1,0-0.1
				c1.6-6.6,3.4-13.2,5.5-19.7c10.9-33.4,28.3-65.1,47.5-96.3c4.5-7.3,8.7-14.7,13.1-22.1c-1.7,0.9-2.7,2.1-3.5,3.3
				c-19.6,29.6-37.5,59.8-50.9,91.4c-2.3,5.5-4.6,11.1-6.8,16.7c-0.3,0.7-4.1,11.5-4.8,11.3c-0.5-0.1,2.5-14.8,2.5-14.8
				c0,0,0-0.1,0-0.1c1.4-5.7,3-11.4,4.8-17c10.9-33.4,28.3-65.1,47.5-96.3c4.5-7.3,8.7-14.7,13.1-22.1c-1.7,0.9-2.7,2.1-3.5,3.3
				c-19.6,29.6-37.5,59.8-50.9,91.4c-3.4,8-10.2,31.5-13.2,39.6c0,0-1.2-17.4,6-27c0,0-0.2-0.1-0.3,0c-0.4,0.4-0.8,0.7-1.2,1.1
				c0.5-1,1-2,1.4-3.2c4.1-5.1,8.4-12.3,9-20.7c1-13.6-7.9-26.2-11.4-30.6c-0.5-0.6-1.5-0.3-1.5,0.5l-0.2,2.3
				c-0.8-2.1-1.6-3.9-2.4-5.5L157.8,411.1z"/>
			<path id="XMLID_48_" class="st0" d="M148.5,394.2"/>
		</g>
	</g>
	<g>
		<g>
			<path id="XMLID_45_" class="st1" d="M487.8,407.9c0.1-4.3,0.2-8,0.3-9.6c0-0.5-0.4-0.9-0.9-0.9c-0.5,0-0.9,0.4-0.8,0.9
				c0.1,1.8,0.3,6.1,0.4,11.5L487.8,407.9z"/>
			<path id="XMLID_44_" class="st1" d="M485.7,412.2c-1.4-8.3-2.5-15-2.8-17.3c-0.1-0.5-0.5-0.8-1-0.7l0,0c-0.5,0.1-0.8,0.5-0.7,1
				c0.6,2.5,2.3,10.3,3.9,18.3L485.7,412.2z"/>
			<path id="XMLID_37_" class="st1" d="M491.8,412.3c2.2-7,4.3-13.4,5-15.6c0.2-0.5-0.1-0.9-0.6-1.1l0,0c-0.5-0.1-0.9,0.1-1,0.6
				c-0.5,2-2,7.7-4,14.9L491.8,412.3z"/>
		</g>
		<g id="XMLID_33_">
			<path id="XMLID_35_" class="st2" d="M491.2,411.1c-0.7-1.4-1.4-2.6-1.8-3.4c-0.3-0.6-1.2-0.6-1.5,0c0,0-0.1,0.1-0.1,0.1l-1,1.9
				c-0.3,0.7-0.7,1.5-1.1,2.4l-0.6,1.4c-0.7,1.5-1.3,3.3-2,5.2l-0.3-3c-0.1-0.8-1.1-1-1.5-0.4c-3.4,4.5-11.9,17.4-10.5,31
				c0.8,8.3,5.2,15.2,9.4,20.2c1,2.4,2.1,4.4,3.4,5.9c-0.5-0.3-1-0.5-1-0.5c6.1,5.2,1.8,38.9,1.8,38.9c-0.1-0.5-0.1-1-0.2-1.6
				c-1.8-10.6-4.2-21.1-6.7-31.6c-8-32.5-20.3-64-34.3-95.1c-0.6-1.3-1.3-2.5-2.7-3.6c3,7.7,5.9,15.4,9,23
				c13.4,32.6,25,65.6,30.5,99.7c1.5,9.6,2.4,19.3,2.9,29.1c-1.2-2.6-2-5.3-2.5-7.8c-0.2-1.1-2.5-1.1-2.6,0.1
				c-0.5,4.8-0.7,11,0.1,17.4c0.4,2.8,0.8,5.5,1.3,8c-0.2,4.4,0.7,8.4,1.8,10.3l-2,28.2c-0.2-0.1-0.5-0.2-0.7-0.4
				c0,0.6-0.2,0.9,0,1.3c0.2,0.6,0.3,1.1,0.5,1.7l-0.9,11.9c-6.8,3.3-15.1,19.8-13.1,25.2c1.5,4.2,6.7,6.1,10,9.2
				c-0.3,0.5-0.7,1-1.4,1.9c1.1-0.3,1.6-0.4,2.1-0.6l-0.1,0.9c1.1-0.8,2.3-1.5,4-2.7c0.1,1.6,0.2,2.7,0.3,3.7
				c0.4-1.1,0.8-2.2,1.3-3.6c0.9,0.9,1.5,1.5,2.1,2.1c0.5-0.9,1-1.7,1.7-2.8c0.8,1.1,1.2,1.7,1.9,2.7c-0.1-1-0.1-1.4-0.2-2.2
				c1.2,0.8,2.1,1.4,3.2,2.1c-0.2-0.8-0.3-1.4-0.5-2.1c0.2-0.1,0.4-0.2,0.7-0.3c0.6,0.7,1.1,1.3,1.6,1.9c0.8-0.3,1.4-0.5,2-0.8
				c-0.5-0.4-0.9-0.8-1.5-1.4l2.1,0.1c0.9-0.7,1.4-1.1,2.1-1.5c4.8-3.2,6.9-7.1,6-11.9c-0.6-3.6-12.6-16.5-16.9-19.5l0.7-8.2
				c0.1-0.2,0.1-0.4,0.2-0.6c0.3-0.3,0.2-0.7,0.2-1.3c-0.1,0-0.2,0.1-0.3,0.1l3.2-36.7c0.4-1.6,0.6-3.3,0.8-5
				c1.8-3.4,3.6-7.6,5.3-12.1c2.4-6.4,3.3-12.7,3.6-17.4c0.1-1.1-2.1-1.5-2.5-0.4c-1.1,2.6-2.7,5.5-4.8,8.2l0.1-1.3c0,0,0-0.1,0-0.1
				c1.6-6.6,3.4-13.2,5.5-19.7c10.9-33.4,28.3-65.1,47.5-96.3c4.5-7.3,8.7-14.7,13.1-22.1c-1.7,0.9-2.7,2.1-3.5,3.3
				c-19.6,29.6-37.5,59.8-50.9,91.4c-2.3,5.5-4.6,11.1-6.8,16.7c-0.3,0.7-4.1,11.5-4.8,11.3c-0.5-0.1,2.5-14.8,2.5-14.8
				c0,0,0-0.1,0-0.1c1.4-5.7,3-11.4,4.8-17c10.9-33.4,28.3-65.1,47.5-96.3c4.5-7.3,8.7-14.7,13.1-22.1c-1.7,0.9-2.7,2.1-3.5,3.3
				c-19.6,29.6-37.5,59.8-50.9,91.4c-3.4,8-10.2,31.5-13.2,39.6c0,0-1.2-17.4,6-27c0,0-0.2-0.1-0.3,0c-0.4,0.4-0.8,0.7-1.2,1.1
				c0.5-1,1-2,1.4-3.2c4.1-5.1,8.4-12.3,9-20.7c1-13.6-7.9-26.2-11.4-30.6c-0.5-0.6-1.5-0.3-1.5,0.5l-0.2,2.3
				c-0.8-2.1-1.6-3.9-2.4-5.5L491.2,411.1z"/>
			<path id="XMLID_34_" class="st0" d="M481.8,394.2"/>
		</g>
	</g>
	<g>
		<g>
			<path id="XMLID_32_" class="st2" d="M821.1,407.9c0.1-4.3,0.2-8,0.3-9.6c0-0.5-0.4-0.9-0.9-0.9c-0.5,0-0.9,0.4-0.8,0.9
				c0.1,1.8,0.3,6.1,0.4,11.5L821.1,407.9z"/>
			<path id="XMLID_31_" class="st2" d="M819,412.2c-1.4-8.3-2.5-15-2.8-17.3c-0.1-0.5-0.5-0.8-1-0.7l0,0c-0.5,0.1-0.8,0.5-0.7,1
				c0.6,2.5,2.3,10.3,3.9,18.3L819,412.2z"/>
			<path id="XMLID_30_" class="st2" d="M825.1,412.3c2.2-7,4.3-13.4,5-15.6c0.2-0.5-0.1-0.9-0.6-1.1l0,0c-0.5-0.1-0.9,0.1-1,0.6
				c-0.5,2-2,7.7-4,14.9L825.1,412.3z"/>
		</g>
		<g id="XMLID_12_">
			<path id="XMLID_29_" class="st0" d="M824.5,411.1c-0.7-1.4-1.4-2.6-1.8-3.4c-0.3-0.6-1.2-0.6-1.5,0c0,0-0.1,0.1-0.1,0.1l-1,1.9
				c-0.3,0.7-0.7,1.5-1.1,2.4l-0.6,1.4c-0.7,1.5-1.3,3.3-2,5.2l-0.3-3c-0.1-0.8-1.1-1-1.5-0.4c-3.4,4.5-11.9,17.4-10.5,31
				c0.8,8.3,5.2,15.2,9.4,20.2c1,2.4,2.1,4.4,3.4,5.9c-0.5-0.3-1-0.5-1-0.5c6.1,5.2,1.8,38.9,1.8,38.9c-0.1-0.5-0.1-1-0.2-1.6
				c-1.8-10.6-4.2-21.1-6.7-31.6c-8-32.5-20.3-64-34.3-95.1c-0.6-1.3-1.3-2.5-2.7-3.6c3,7.7,5.9,15.4,9,23
				c13.4,32.6,25,65.6,30.5,99.7c1.5,9.6,2.4,19.3,2.9,29.1c-1.2-2.6-2-5.3-2.5-7.8c-0.2-1.1-2.5-1.1-2.6,0.1
				c-0.5,4.8-0.7,11,0.1,17.4c0.4,2.8,0.8,5.5,1.3,8c-0.2,4.4,0.7,8.4,1.8,10.3l-2,28.2c-0.2-0.1-0.5-0.2-0.7-0.4
				c0,0.6-0.2,0.9,0,1.3c0.2,0.6,0.3,1.1,0.5,1.7l-0.9,11.9c-6.8,3.3-15.1,19.8-13.1,25.2c1.5,4.2,6.7,6.1,10,9.2
				c-0.3,0.5-0.7,1-1.4,1.9c1.1-0.3,1.6-0.4,2.1-0.6l-0.1,0.9c1.1-0.8,2.3-1.5,4-2.7c0.1,1.6,0.2,2.7,0.3,3.7
				c0.4-1.1,0.8-2.2,1.3-3.6c0.9,0.9,1.5,1.5,2.1,2.1c0.5-0.9,1-1.7,1.7-2.8c0.8,1.1,1.2,1.7,1.9,2.7c-0.1-1-0.1-1.4-0.2-2.2
				c1.2,0.8,2.1,1.4,3.2,2.1c-0.2-0.8-0.3-1.4-0.5-2.1c0.2-0.1,0.4-0.2,0.7-0.3c0.6,0.7,1.1,1.3,1.6,1.9c0.8-0.3,1.4-0.5,2-0.8
				c-0.5-0.4-0.9-0.8-1.5-1.4l2.1,0.1c0.9-0.7,1.4-1.1,2.1-1.5c4.8-3.2,6.9-7.1,6-11.9c-0.6-3.6-12.6-16.5-16.9-19.5l0.7-8.2
				c0.1-0.2,0.1-0.4,0.2-0.6c0.3-0.3,0.2-0.7,0.2-1.3c-0.1,0-0.2,0.1-0.3,0.1l3.2-36.7c0.4-1.6,0.6-3.3,0.8-5
				c1.8-3.4,3.6-7.6,5.3-12.1c2.4-6.4,3.3-12.7,3.6-17.4c0.1-1.1-2.1-1.5-2.5-0.4c-1.1,2.6-2.7,5.5-4.8,8.2l0.1-1.3c0,0,0-0.1,0-0.1
				c1.6-6.6,3.4-13.2,5.5-19.7c10.9-33.4,28.3-65.1,47.5-96.3c4.5-7.3,8.7-14.7,13.1-22.1c-1.7,0.9-2.7,2.1-3.5,3.3
				c-19.6,29.6-37.5,59.8-50.9,91.4c-2.3,5.5-4.6,11.1-6.8,16.7c-0.3,0.7-4.1,11.5-4.8,11.3c-0.5-0.1,2.5-14.8,2.5-14.8
				c0,0,0-0.1,0-0.1c1.4-5.7,3-11.4,4.8-17c10.9-33.4,28.3-65.1,47.5-96.3c4.5-7.3,8.7-14.7,13.1-22.1c-1.7,0.9-2.7,2.1-3.5,3.3
				c-19.6,29.6-37.5,59.8-50.9,91.4c-3.4,8-10.2,31.5-13.2,39.6c0,0-1.2-17.4,6-27c0,0-0.2-0.1-0.3,0c-0.4,0.4-0.8,0.7-1.2,1.1
				c0.5-1,1-2,1.4-3.2c4.1-5.1,8.4-12.3,9-20.7c1-13.6-7.9-26.2-11.4-30.6c-0.5-0.6-1.5-0.3-1.5,0.5l-0.2,2.3
				c-0.8-2.1-1.6-3.9-2.4-5.5L824.5,411.1z"/>
			<path id="XMLID_23_" class="st0" d="M815.1,394.2"/>
		</g>
	</g>
</g>
</svg>
