<?xml version="1.0" encoding="utf-8"?>
<!-- Generator: Adobe Illustrator 16.0.0, SVG Export Plug-In . SVG Version: 6.00 Build 0)  -->
<!DOCTYPE svg PUBLIC "-//W3C//DTD SVG 1.1//EN" "http://www.w3.org/Graphics/SVG/1.1/DTD/svg11.dtd">
<svg version="1.1" id="Layer_1" xmlns="http://www.w3.org/2000/svg" xmlns:xlink="http://www.w3.org/1999/xlink" x="0px" y="0px"
	 width="300px" height="90px" viewBox="0 0 300 90" enable-background="new 0 0 300 90" xml:space="preserve">
<g>
	<path fill="#FFFFFF" d="M95.39,11.673c3.743,2.213,2.903,3.97,3.665,6.335v2.751c-0.227,1.374,0.23,1.757-0.839,10.078
		c0,1.604-0.917,1.909-0.917,6.717l-0.075,0.078c-0.078,0.153-0.153,0.458-0.23,0.992c0.077,0.078,0.077,0.152,0.077,0.23
		c0,0.075-0.077,0.23-0.152,0.456l-0.155,0.461c0,0.304,0.842,0.991,0.842,1.296c-0.078,0.23-0.078,0.383-0.078,0.46
		c0.078,0,0.078,0,0.078,0.074c-0.078,0.461-0.46,0.993-0.765,1.299c0.078,0.38,0.078,0.609,0.078,0.839
		c-0.078,0.075-0.078,0.231-0.155,0.384c0,0.227,0,0.381,0.077,0.608c-0.077,0.304,0.078,1.223-0.304,1.604
		c0.074,0.457,0,0.991,0.227,1.451c-0.075,0.229-0.075,0.457-0.075,0.761c0.075,0.152,0.075,0.384,0.152,0.613
		c-0.077,0.075-0.077,0.152-0.077,0.229c0,0.153,0,0.306,0.077,0.532c-0.077,0.23-0.077,0.46-0.077,0.842
		c0.077,1.145,0.46,2.748,0.46,4.353v0.38c0.075,0.381,0.075,0.842,0.152,1.298c0,0.079,0,0.306-0.078,0.536v0.456
		c0,0.383-0.153,1.604-0.153,1.987c0.078,0.152,0.078,0.382,0.078,0.608c0.382-0.379-1.374,2.291-1.374,2.826
		c0,0-0.079,0.078-0.152,0.078c-0.156,0-0.23-0.078-0.382-0.23l-0.078,0.384l0.152,0.764c-0.075,0.074-0.152,0.152-0.227,0.152
		c-0.23,0-0.843-2.673-1.222-4.277v-0.228c-0.612-2.673-1.299-5.804-1.756-9.241l-0.687-0.457c-0.765-1.296-1.909-2.444-3.821-4.123
		c0.382-0.151-2.443,0.535-2.443,0.535H85.16c-1.222,0.074-2.673,0.305-4.352,0.535c-1.069,2.29-1.679,4.656-2.521,7.178
		l-0.227,0.688c-0.078,0.073-0.078,0.227-0.156,0.456L77.6,56.414c-0.074,0.23-0.152,0.535-0.382,1.07l-0.531,1.3
		c-0.23,0.533-0.46,1.296-0.69,2.364c-1.222,1.222-1.832,1.604-2.596,1.604c-1.222,0-2.596-1.986-2.596-3.208
		c0-1.604,0.765-3.283,2.139-7.635l1.299-4.047c0.153-0.458,0.762-1.526,0.914-2.519c-0.075-0.382-0.152-0.839-0.227-1.374
		c0.152-0.843,0.227-0.69,0.839-2.599v-0.075c0.762-0.612,1.222-0.838,1.983-2.595c0.078-0.383,0.687-2.217,2.521-6.034
		c1.986-4.274,4.352-8.551,5.651-12.369l0.305-0.687c0.152-0.304,0.762-1.526,1.756-3.739c0.074-0.23,0.227-0.46,0.457-0.687
		c0.535-1.147,2.139-4.355,3.435-4.355C93.099,10.831,93.711,11.291,95.39,11.673z M86.534,31.294
		c-0.152,0.23-2.213,4.125-3.052,8.477h1.678c1.144,0,3.053-0.23,5.804-0.382c0.535-0.535,0.609-11.76,0.609-12.677
		c0-0.228,0-1.066-0.075-2.518c0-0.46-0.535-2.826-0.535-2.826c0-0.078,0-0.078,0-0.078C90.503,21.291,89.359,23.89,86.534,31.294z"
		/>
	<path fill="#FFFFFF" d="M133.51,41.146c0.23,0.227,0.383,0.534,0.383,0.917c0-0.079-0.078-0.156-0.23-0.308v0.84
		c0,0.229-0.078,0.307-0.23,0.307c-0.152-0.078-0.305-0.078-0.457-0.078l0.23-0.229c0,0-0.078,0.077-0.308,0.229l-0.839,0.613
		c0.229-0.078,0.535-0.155,1.069-0.155c-0.612,0.229-0.917,1.451-1.069,1.451c-0.074,0-0.153-0.152-0.23-0.152
		c0,0-0.074,0.152-0.074,0.305c0.382,0,0.609,0,0.609,0c0,0.078,0,0.078-0.075,0.078c0.228,0.074,0.305,0.23,0.305,0.457
		c0,0.077-0.078,0.229-0.152,0.304c0-0.074-0.079-0.152-0.23-0.304c-0.075,0.077-0.227,0.382-0.535,0.917l-0.228-0.382l0.305-0.306
		l-0.535,0.152c0,0.229,0.305,0.611,0.305,0.765c0,0.074-0.075,0.152-0.152,0.228c0.077,0,0.077,0.077,0.077,0.155
		c0,0.379-0.917,1.145-0.917,1.526c-0.152,0.073-3.283,3.282-6.338,6.335c-1.296,0.765-2.518,1.682-3.666,2.674
		c0.079,0.229,0.079,0.611,0.079,1.068c-0.382,0.231-1.834,1.223-4.505,3.057c-0.842,0.379-2.368,1.679-4.507,1.982
		c-0.227,0.23-0.992,0.766-1.526,0.766c-0.305,0-0.762-0.078-1.452-0.152l-1.753-0.231c-0.078,0-1.452-1.985-2.291-2.061
		c-0.23-0.535-0.612-1.221-1.147-1.985c0.382,0,1.756,0.765,2.213,0.765c0.535,0,1.07-0.688,1.682-0.688
		c2.366,0,4.961-0.995,7.634-3.056c1.222-0.918,3.895-2.978,6.491-6.413c2.9-2.596,7.787-7.329,8.626-11.682
		c0.382-0.382,0.535-0.535,0.535-0.612c0-0.152-0.075-0.38-0.152-0.61l-0.305-0.687c-0.078-0.078-0.23-0.152-0.457-0.152
		l0.152-0.309c0.075-0.152,0.152-0.304,0.152-0.379c0-0.078,0-0.155,0-0.155c-0.078,0-0.152,0.23-0.23,0.23
		c0.078,0-0.075-0.23-0.305-0.23c-0.152,0-0.229,0-0.382,0.078l0.382,0.229c-0.078,0-0.078,0-0.078,0.075
		c0,0.078,0,0.23,0.078,0.309c-0.229,0-0.84,0.227-1.144,0.227c-0.308,0-1.223-0.458-1.53-0.458c-1.832,0-3.665,0.535-6.491,1.604
		c-6.487,4.657-6.413,1.679-9.466,9.391c0,0,0.075,0.075,0.075,0.152c0,0.152-0.075,0.306-0.152,0.61
		c-2.444,3.512-4.657,5.804-6.413,9.086c0.077,0.155,0.077,0.46,0.077,0.842c-0.534,0.762-0.994,1.144-1.376,1.144
		c-0.536,0-1.601-0.607-3.13-1.83c0.077-0.229,0.152-0.382,0.229-0.382c-0.687-0.535-0.991-1.069-0.991-1.452v-2.062
		c0-1.604,4.044-6.72,4.044-7.712c0-1.831,0.078-2.9,0.23-3.282l0.46-0.457c0.075-0.691,0.609-1.757,1.448-3.133
		c2.674-4.275,4.278-16.339,4.887-18.17c0-0.23,0.687-0.612,0.687-1.147c0-0.23-0.075-0.383-0.227-0.534
		c0.075-0.305,0.762-1.375,0.762-1.909c0-0.23-0.075-0.382-0.227-0.609c0.074-0.229,1.296-1.374,1.296-1.909
		c0-0.155-0.075-0.308-0.153-0.46c1.452-0.992,2.674-2.978,4.583-6.795V6.174c0.075-0.917,0.609-2.673,1.756-5.343l-0.152,18.173
		c0,0.226-0.535,0.687-0.535,0.991c0,0.23,0,0.457,0,0.765c0,2.366-1.147,9.926-1.909,12.826c-0.078,0.305-0.917,1.909-0.917,2.213
		c0,0.383,0.227,0.765,0.687,1.07c4.199-3.74,8.017-5.574,11.604-5.574c4.2,0,4.047,0.687,6.795,6.26l0.078,0.765
		c0.152,0.153,0.534-0.077,0.534,1.144C134.884,40.611,134.884,40.763,133.51,41.146z M127.707,35.419
		c-0.23,0-0.383,0.152-0.383,0.457c0.153,0,0.383-0.152,0.765-0.383C127.937,35.419,127.784,35.419,127.707,35.419z M132.593,44.276
		c0-0.383,0.23-0.536,0.687-0.536c0.152,0.153,0.229,0.305,0.229,0.384C133.28,44.124,132.823,44.276,132.593,44.276z"/>
	<path fill="#FFFFFF" d="M166.128,46.641c-1.299,5.957-4.581,8.478-15.654,14.126c-0.152,0.077-0.839,0.153-2.135,0.308
		c-1.452,1.679-3.438,2.518-6.109,2.518c-1.299,0-2.139-0.15-2.443-0.382l-2.826-2.366c-0.078,0-0.152,0-0.229,0
		c-3.13,0-2.978-4.965-3.361-5.498c0.23-0.379,0.383-0.688,0.383-0.914c0-0.309-0.458-0.766-0.458-0.995
		c0-0.914,0.458-3.282,0.458-4.199c0.382-0.075,1.908-0.609,1.908-1.601c0-0.309-0.382-1.682-0.382-1.913
		c1.987-1.678,1.987-2.365,4.66-6.639c1.222-1.909,11.147-11.76,12.217-11.76c0.305,0,0.992,0.23,1.296,0.23
		c0.383,0,1.068-0.688,2.061-2.139c0.23,0.075,0.765,0.535,1.604,1.222l2.292,0.535c0.613,0.305,1.526,0.687,2.749,1.144
		c5.042,0,5.65,6.186,5.65,11.303C167.807,42.137,167.272,44.428,166.128,46.641z M159.255,37.785
		c-0.305-0.078-0.608-0.305-0.839-0.535c0.152-0.229,0.23-0.456,0.23-0.839c0-0.917-0.613-2.442-1.452-2.442
		c-0.688,0-2.29,1.069-4.812,3.282c-6.03,5.27-8.396,8.781-11.147,12.295c-0.305,0.305-1.601,4.198-1.601,4.734
		c0,0.839,1.144,2.061,1.983,2.061c2.826,0,6.033-1.222,9.543-3.59c0.843-0.228,1.757-0.61,2.904-1.223
		c0.383-0.382,1.144-1.83,2.365-4.199c0.307-0.609,1.221-5.421,1.908-5.8c0-1.756,0.309-2.673,0.917-2.904V37.785z"/>
	<path fill="#FFFFFF" d="M195.771,54.123c-0.762,0-2.136-0.227-4.044-0.761c-0.765-0.151-2.292-3.13-2.752-3.13
		c-0.226,0-0.456,0.151-0.686,0.456c-2.444,4.582-4.428,7.56-5.878,8.856c-0.154,0.078-5.192,1.986-5.345,1.986
		c-0.688,0-1.908-0.305-3.665-0.918c-0.917-1.756-5.038-5.19-5.038-6.412c0-2.14-0.31-5.878,1.296-10.077
		c1.069-0.843,1.604-1.453,2.825-5.422c0.687-0.309,0.534-1.834,3.131-5.574c0-0.612,2.364-6.721,3.435-6.721
		c0.994,0,1.986,2.138,1.986,3.36c0,0.382-0.688,2.061-0.688,2.443c0,0.23-0.077,0.992-0.152,2.366
		c0.228,0.382,0.458,0.995,0.535,1.833c-0.613,1.222-1.377,3.131-2.291,5.652c-0.152,0.074-0.382,0.152-0.612,0.304
		c0.077,0.228,0.151,0.457,0.151,0.687c0,0.917-3.357,6.413-3.357,10.459c0,0.305,1.757,0.918,1.832,1.145h0.456
		c0.384-0.457,1.148-0.84,2.292-1.447c2.903-1.684,3.438-3.438,4.43-5.73l5.421-12.747c0.305,0,0.991-0.231,1.299-0.231
		c0.306,0,2.749,2.139,3.436,2.139c0.305,0,0.535-0.078,0.609-0.156c0.308,0.309,0.995,2.444,0.995,2.978
		c0,0.46-0.231,1.987-0.688,4.508l-0.765,4.352c0,0.839,0.383,1.222,1.221,1.222c0-0.078,1.071-0.461,3.36-1.222
		c0.229,0.914,0.379,1.756,0.379,2.442C198.9,50.306,197.988,54.123,195.771,54.123z"/>
	<path fill="#FFFFFF" d="M228.471,30.225c0.075,0.23,0.304,0.307,0.609,0.307h0.46c0.227-0.077,0.379-0.077,0.456-0.077
		c-0.382,0.765-3.97,2.061-4.275,2.291c-0.688,0-0.38,1.222-3.055,1.831c-0.383,1.069-3.359,0.688-8.094,3.285
		c-0.609,1.601-0.917,2.518-3.13,6.643c0,0.531-0.382,1.45-1.223,2.749l-0.534,1.526c0,0.229-0.075,0.611-0.229,0.992
		c-0.689,1.146-2.137,5.346-2.597,5.65c-0.381,0.839-0.609,1.526-0.609,2.139c0.074,0.534,0.074,0.914,0.074,1.223
		c0,0.305,0,0.533-0.074,0.686c-0.383,0.383-1.223,4.2-3.132,6.413c-0.229-1.604-0.304-3.208-0.304-4.809
		c0.074-0.534,0.153-1.299,0.304-2.29c-0.15-0.152-0.304-0.384-0.456-0.766c0-0.609,0.38-1.987,0.38-2.596
		c-0.074-0.152-0.153-0.383-0.228-0.612c0-0.456,0.304-6.109,2.9-11.683c0.077-0.533,0.456-2.135,1.908-5.038
		c0-0.609-1.756-2.366-5.496-6.718c0.841-0.383,0.762-0.687,1.908-0.687c1.297,0,3.284,0.075,6.109,0.304
		c0.536-0.534,0.608-0.917,1.757-3.282c0-1.374,0.761-1.986,2.596-8.095c1.068-1.069,1.678-4.048,2.29-7.1h0.61h0.077
		c0.305,0,2.136-1.834,2.748-1.299c0.306,0,1.909,1.069,2.213,1.069c0.46,0,1.373,1.909,1.604,2.291l-0.533,0.765
		c-0.079,0.535-0.306,1.144-0.61,1.908c-2.139,4.044-3.056,7.712-4.965,12.064c0-0.078,0.08-0.078,0.08-0.078
		c0.072,0,0.15,0.229,0.304,0.687c1.068,0.152,2.061,0.229,3.053,0.229c3.36,0,4.811-0.382,9.39-1.604h0.535
		C231.22,28.776,228.774,29.92,228.471,30.225z"/>
</g>
</svg>
