<?xml version="1.0" encoding="utf-8"?>
<!-- Generator: Adobe Illustrator 16.0.0, SVG Export Plug-In . SVG Version: 6.00 Build 0)  -->
<!DOCTYPE svg PUBLIC "-//W3C//DTD SVG 1.1//EN" "http://www.w3.org/Graphics/SVG/1.1/DTD/svg11.dtd">
<svg version="1.1" id="Layer_1" xmlns="http://www.w3.org/2000/svg" xmlns:xlink="http://www.w3.org/1999/xlink" x="0px" y="0px"
	 width="300px" height="90px" viewBox="0 0 300 90" enable-background="new 0 0 300 90" xml:space="preserve">
<g>
	<path fill="#F9F9F9" d="M68.263,15.792l-0.778-0.433L67.4,16.831l-0.177-0.088l0.088,0.694l-0.95-0.951l-0.089,0.519l-1.556-0.952
		c-0.085,0.084-0.261,0.084-0.345,0.084c0,0.088-0.089,0.088-0.089,0.088h-0.345c-0.433,0.173-0.862,0.173-0.862,0.173h-0.606
		l-0.522-0.433c0-0.085-0.345-0.434-0.69-0.863l-0.261-0.434c-0.088-0.088-0.172-0.26-0.172-0.26l-0.173-0.085h-0.087l-0.433,0.345
		v0.257l-0.779,0.089h-0.084c-0.087,0-0.087,0-0.172,0.172c-0.349,0.261-0.955,0.433-1.734,0.779l-1.211,0.951l-1.38,0.954
		c-0.955,0.863-1.906,1.902-2.686,2.681l-1.472,1.385l-2.074,2.681l-1.296,2.856l-1.733,2.941l-0.692,0.694l-0.866,2.509
		l-0.863,1.469l-1.039,2.339l-1.039,3.026l-0.867,2.512l-0.517,3.113v2.252l0.433,1.729l1.039,1.47l1.642,0.865l1.818,0.261h2.335
		l5.365-0.953l0.261,0.349h0.345l-0.261,0.433l0.606,0.258l-0.257,0.26l0.173,0.347h-0.345l-0.261,0.344l0.345,0.089l0.172,0.517
		l-0.345,0.089l-0.778,0.434l-2.597,1.212l-0.172-0.089l-2.682,1.123l-6.32,0.522l-3.114-0.778l-2.596-1.212l-2.163-1.558
		l-1.47-1.733l-1.472-3.113l-0.434-2.425l0.173-3.025l0.349-0.95l-0.087-0.955l0.172-0.346l0.173-1.729l0.521-1.039l0.69-2.247
		l2.686-5.887l0.256-0.257l0.694-1.039l0.085-0.434l0.866-1.296c0.173-0.176,0.345-0.349,0.434-0.521
		c0.862-2.074,1.99-3.114,2.94-4.41l0.951-1.3l0.694-0.867v-0.172l2.77-3.375l0.606-0.173l0.084-0.606l2.423-2.942l1.039-0.778
		l0.606-0.606l2.075-2.423h0.434l0.172-0.431l1.384-0.954l0.695-0.779l0.517-0.173v0.173c0.261-0.173,0.433-0.173,0.433-0.173
		L53.64,6.967l2.078-0.866l4.411-0.69h0.866l1.039,0.345l1.041,0.518l0.429,0.434h0.088c0,0.088,0.084,0.172,0.173,0.172
		c0.088,0.088,0.172,0.172,0.345,0.261l0.952,0.433l0.521,0.257l0.084,0.088l0.522,0.606l0.519,0.779l0.433,0.779l0.69,1.296
		l-0.257,0.175l0.173,0.69L68.263,15.792z"/>
	<path fill="#F9F9F9" d="M98.482,41.663c-1.473,6.749-5.193,9.606-17.741,16.007c-0.173,0.089-0.951,0.173-2.42,0.349
		c-1.645,1.902-3.896,2.854-6.922,2.854c-1.473,0-2.424-0.172-2.77-0.433l-3.201-2.681c-0.089,0-0.173,0-0.261,0
		c-3.547,0-3.375-5.626-3.809-6.231c0.261-0.431,0.434-0.779,0.434-1.036c0-0.349-0.518-0.867-0.518-1.128
		c0-1.035,0.518-3.72,0.518-4.759c0.433-0.084,2.163-0.69,2.163-1.813c0-0.349-0.433-1.906-0.433-2.167
		c2.251-1.903,2.251-2.681,5.281-7.525c1.384-2.163,12.632-13.327,13.845-13.327c0.345,0,1.123,0.261,1.468,0.261
		c0.433,0,1.212-0.779,2.335-2.424c0.261,0.084,0.867,0.605,1.818,1.385l2.597,0.605c0.694,0.345,1.729,0.779,3.113,1.296
		c5.714,0,6.404,7.011,6.404,12.809C100.383,36.559,99.777,39.154,98.482,41.663z M90.692,31.627
		c-0.345-0.088-0.69-0.345-0.951-0.606c0.173-0.261,0.261-0.519,0.261-0.952c0-1.039-0.694-2.768-1.645-2.768
		c-0.778,0-2.597,1.212-5.454,3.72c-6.833,5.971-9.514,9.952-12.632,13.932c-0.345,0.345-1.813,4.76-1.813,5.365
		c0,0.951,1.296,2.335,2.248,2.335c3.202,0,6.837-1.384,10.814-4.068c0.955-0.257,1.991-0.69,3.291-1.384
		c0.434-0.435,1.296-2.075,2.681-4.759c0.349-0.692,1.385-6.145,2.164-6.574c0-1.992,0.349-3.031,1.039-3.291V31.627z"/>
	<path fill="#F9F9F9" d="M141.071,53.95c-0.088,0.519,0,1.212-0.518,1.818c-0.521,0.604-0.867,1.123-1.818,1.901
		c-1.039,0.779-0.867,0.955-1.906,1.734c-1.036,0.777-1.036,0.69-2.075,1.468c-0.606,0.435-0.694,0.088-1.384,0.435
		c-0.694,0.26-0.951,0.518-1.818,0.778c-0.95,0.261-1.817,0.517-2.507,0.69c-0.694,0.088-1.3,0.261-1.646,0.261
		c-0.867,0-1.818-0.519-2.596-1.212c-0.864-0.606-1.384-1.729-2.164-3.026c-0.862-1.3-1.556-2.513-1.901-3.724
		c-0.261-1.296-0.694-2.593-0.606-3.805c0-0.261,0-0.433,0.084-0.694l-0.345-1.039l0.173-0.429l-0.173-1.213v-4.76l-0.433-0.26
		l0.693-1.729l-0.087-0.695l0.26-0.344v-2.598l0.085,1.212c0-0.69,0.088-1.468,0.088-2.595c0.087-0.953,0.867-1.73,0.778-2.164
		c-0.084-0.518-0.606-0.434-0.866-0.434c-0.431,0-1.036,0.261-1.815,1.212c-0.433,0.606-0.955,1.3-1.558,2.164l-2.339,4.585
		l-0.172,0.779l-1.036,1.906v0.69l-0.522,0.694l-1.211,2.593l-0.951,1.299l-0.69,0.173c-0.089,0.089-0.089,0.089-0.177,0.174v0.26
		h-0.257c-0.172,0.173-0.349,0.346-0.349,0.434c-1.381,2.075-2.42,3.632-3.459,4.671c-1.125,1.039-1.99,1.297-2.77,1.297
		c-0.433,0-0.433-0.346-0.605-1.036c-0.173-0.694-0.951-1.557-0.779-2.251c0.261-1.296,0.779-2.681,1.212-4.499
		c0.345-1.817,0.69-3.98,1.212-6.404c0-0.173-0.089-0.779,0-1.645c0.172-0.864,1.124-1.903,1.384-3.459
		c0.084-1.039,0.345-1.992,0.517-2.857c0.173-0.863-0.26-1.729-0.084-2.42c0.257-1.128,1.208-1.991,1.642-3.118
		c0.522-1.123,1.039-2.162,1.729-3.371c0.783-1.388,1.3-2.684,1.99-3.375c0.694-0.694,1.3-1.3,1.906-1.3
		c0.433,0,0.433,0.606,0.518,1.3c0.088,0.778,0.345,1.813,0.172,3.199c-0.43,1.989-0.518,1.989-0.952,3.896
		c-0.433,1.99-0.778,1.903-1.123,3.893c-0.345,1.384,0.257,2.596,0.257,3.287c0,0.694-0.085,1.039,0.26,1.039
		c0.173,0,0.779-0.345,1.558-1.123c0.693-0.779,1.732-1.99,3.029-3.548c1.729-2.335,2.77-4.499,3.98-5.971
		c1.212-1.472,2.335-2.335,2.942-3.029c1.473-1.557,2.596-2.941,3.635-3.72c1.036-0.779,1.99-1.212,2.769-1.212
		c0.257,0,0.257,0.694,0.431,1.127c0.175,0.43,0.606,0.864,0.521,1.296c-0.778,3.03-0.605,3.03-1.384,6.145
		c-0.778,3.029-0.694,3.029-1.384,6.143c-0.261,1.124-0.694,2.335-0.606,3.632c0,1.3,0.606,2.596,0.951,3.98
		c0.433,1.818,0.952,4.326,1.472,6.405c0.431,2.162,0.431,3.892,0.519,4.065c0.433,0.865,0.867,1.732,1.472,2.162
		c0.606,0.434,0.257,1.212,1.037,1.212c0.433,0,0.95-0.518,1.556-0.606c0.606-0.172,1.474-0.084,2.251-0.345
		c0.867-0.261,0.951-0.604,1.558-0.778c0.606-0.173,1.123,0.346,1.557,0.346c0.349,0,0.778-0.519,0.954-0.43
		C141.332,53.26,140.983,53.689,141.071,53.95z"/>
	<path fill="#F9F9F9" d="M170.25,23.06c0.084,0.261,0.345,0.349,0.69,0.349h0.521c0.254-0.088,0.43-0.088,0.521-0.088
		c-0.437,0.866-4.501,2.335-4.847,2.596c-0.782,0-0.437,1.385-3.467,2.075c-0.429,1.212-3.804,0.778-9.172,3.724
		c-0.69,1.813-1.036,2.854-3.545,7.528c0,0.602-0.433,1.642-1.384,3.114l-0.606,1.73c0,0.26-0.084,0.693-0.258,1.123
		c-0.781,1.3-2.423,6.059-2.945,6.404c-0.43,0.952-0.69,1.731-0.69,2.424c0.084,0.605,0.084,1.036,0.084,1.385
		c0,0.346,0,0.606-0.084,0.778c-0.433,0.434-1.384,4.759-3.548,7.268c-0.26-1.818-0.345-3.636-0.345-5.45
		c0.085-0.604,0.173-1.472,0.345-2.596c-0.172-0.173-0.345-0.434-0.517-0.866c0-0.69,0.429-2.252,0.429-2.942
		c-0.084-0.172-0.172-0.433-0.257-0.693c0-0.518,0.345-6.922,3.287-13.239c0.089-0.606,0.519-2.419,2.164-5.71
		c0-0.69-1.99-2.681-6.228-7.613c0.951-0.434,0.863-0.779,2.163-0.779c1.469,0,3.72,0.085,6.922,0.345
		c0.605-0.605,0.69-1.039,1.991-3.72c0-1.557,0.862-2.25,2.937-9.173c1.213-1.212,1.902-4.586,2.601-8.046h0.689h0.093
		c0.338,0,2.416-2.078,3.114-1.472c0.338,0,2.156,1.211,2.508,1.211c0.521,0,1.55,2.163,1.817,2.596l-0.605,0.867
		c-0.092,0.606-0.353,1.296-0.69,2.163c-2.424,4.583-3.466,8.74-5.63,13.672c0-0.088,0.092-0.088,0.092-0.088
		c0.085,0,0.169,0.26,0.338,0.779c1.212,0.172,2.34,0.261,3.467,0.261c3.804,0,5.453-0.434,10.639-1.818h0.606
		C173.364,21.418,170.595,22.714,170.25,23.06z"/>
	<path fill="#F9F9F9" d="M202.716,29.809c-0.085,0.606-0.169,1.473-0.346,2.77c-1.388,1.384-2.6,7.528-4.417,11.942
		c-0.606,1.384-1.12,3.72-1.642,7.007l-1.12,7.182c-0.092,0.434-0.092,0.867-0.092,1.386c0,0.605,0,1.3,0.177,2.078
		c-0.262-0.434-0.867-1.127-1.818-2.078c-1.817-1.818-2.078-2.942-2.078-5.8c0-2.507,0.261-4.152,0.605-5.104
		c-0.261-0.346-0.515-0.519-0.781-0.519c-0.944,0-1.987,1.73-7.609,6.489c-0.606,1.817-2.171,2.769-8.047,5.798
		c-1.127,1.297-2.255,1.992-3.55,1.992c-0.17,0-2.679-1.128-3.376-3.376c-0.951-3.291-3.205-4.153-3.205-7.443
		c0-0.951,0.267-2.42,0.873-4.583c0.69-0.261,1.466-0.867,2.425-1.817c0.338-2.164,0.514-1.991,5.361-9.606
		c1.994-1.47,1.472-2.854,4.84-5.795c4.763-6.405,8.482-10.646,11.512-10.646c0.952,0,2.071,0.694,3.552,2.162
		c2.071,0,1.212,1.128,5.622,2.339c-0.084-0.088,3.805,1.469,3.805,3.721C203.406,28.167,202.716,29.375,202.716,29.809z
		 M191.38,29.896c-0.43,0-1.388,0.606-2.685,1.73c-1.987,1.211-4.41,3.98-11.245,11.942c-0.69,1.036-5.622,8.131-5.622,9.603
		c0,0.518,0.17,0.694,0.606,0.694c1.296,0,3.804-3.291,7.524-6.232c0.605-1.039,1.557-1.646,6.144-6.229
		c0-0.866,2.945-5.453,4.41-6.576c1.044-2.597,1.648-3.893,1.733-3.893C192.246,30.243,191.985,29.896,191.38,29.896z
		 M192.852,29.548c0.085,0.089,0.254,0.261,0.521,0.349c0.085-0.088,0.17-0.349,0.254-0.605
		C193.543,29.292,192.937,29.548,192.852,29.548z"/>
	<path fill="#F9F9F9" d="M235.442,49.451c-0.606,0.434-2.332,1.646-5.108,3.721c-3.029,2.251-12.372,7.355-14.796,7.355
		c-2.163,0-3.029,0.084-5.538-4.326c-2.07-2.423-6.312-7.183-5.452-15.316c0.176-1.99,0.521-3.548,0.958-4.844
		c0-0.088,1.987-1.384,2.678-3.896c1.472-1.295,2.684-3.375,2.945-6.228c1.38-1.212,0,1.73,5.974-7.444
		c3.114-0.172,3.284-0.345,3.889-1.208c2.072,0.863,5.277,2.769,8.913,7.006l-0.176,1.473c-0.346,0-1.467,0.345-1.902,0.345
		c-0.606,0-2.163-0.778-2.769-0.778c-2.332,0-5.109,3.287-8.393,9.863c-2.859,5.626-4.325,9.347-4.494,11.165
		c-0.697,6.401-0.091,8.306,5.101,8.306c4.495,0,11.421-3.547,15.402-6.231c0.774-0.605,3.029-1.729,4.671-5.97l0.865,3.98
		l-1.556,2.596L235.442,49.451z"/>
	<path fill="#F9F9F9" d="M267.907,23.06c0.085,0.261,0.346,0.349,0.69,0.349h0.522c0.261-0.088,0.429-0.088,0.514-0.088
		c-0.43,0.866-4.495,2.335-4.847,2.596c-0.776,0-0.424,1.385-3.453,2.075c-0.437,1.212-3.812,0.778-9.173,3.724
		c-0.691,1.813-1.043,2.854-3.551,7.528c0,0.602-0.437,1.642-1.381,3.114l-0.606,1.73c0,0.26-0.084,0.693-0.261,1.123
		c-0.781,1.3-2.423,6.059-2.945,6.404c-0.429,0.952-0.69,1.731-0.69,2.424c0.085,0.605,0.085,1.036,0.085,1.385
		c0,0.346,0,0.606-0.085,0.778c-0.429,0.434-1.388,4.759-3.544,7.268c-0.267-1.818-0.353-3.636-0.353-5.45
		c0.086-0.604,0.177-1.472,0.353-2.596c-0.176-0.173-0.353-0.434-0.521-0.866c0-0.69,0.43-2.252,0.43-2.942
		c-0.085-0.172-0.176-0.433-0.262-0.693c0-0.518,0.353-6.922,3.291-13.239c0.092-0.606,0.515-2.419,2.163-5.71
		c0-0.69-1.986-2.681-6.229-7.613c0.951-0.434,0.86-0.779,2.164-0.779c1.472,0,3.72,0.085,6.925,0.345
		c0.605-0.605,0.691-1.039,1.986-3.72c0-1.557,0.86-2.25,2.945-9.173c1.212-1.212,1.902-4.586,2.593-8.046h0.69h0.084
		c0.354,0,2.425-2.078,3.115-1.472c0.352,0,2.169,1.211,2.508,1.211c0.521,0,1.564,2.163,1.818,2.596l-0.606,0.867
		c-0.084,0.606-0.338,1.296-0.69,2.163c-2.424,4.583-3.459,8.74-5.622,13.672c0-0.088,0.084-0.088,0.084-0.088
		c0.085,0,0.177,0.26,0.353,0.779c1.212,0.172,2.332,0.261,3.452,0.261c3.812,0,5.453-0.434,10.646-1.818h0.606
		C271.022,21.418,268.253,22.714,267.907,23.06z"/>
</g>
</svg>
