<?xml version="1.0" encoding="utf-8"?>
<!-- Generator: Adobe Illustrator 16.0.0, SVG Export Plug-In . SVG Version: 6.00 Build 0)  -->
<!DOCTYPE svg PUBLIC "-//W3C//DTD SVG 1.1//EN" "http://www.w3.org/Graphics/SVG/1.1/DTD/svg11.dtd">
<svg version="1.1" id="Layer_1" xmlns="http://www.w3.org/2000/svg" xmlns:xlink="http://www.w3.org/1999/xlink" x="0px" y="0px"
	 width="600px" height="100px" viewBox="0 0 600 100" enable-background="new 0 0 600 100" xml:space="preserve">
<g>
	<path fill="#2E394C" d="M46.454,81.153l0.923,11.843c-5.691,3.769-10.305,4.769-18.534,4.769
		c-15.919,0-26.686-10.613-26.686-27.763c0-17.304,10.767-27.763,26.686-27.763c7.921,0,13.689,0.77,18.534,4.691l-0.923,11.92h-1
		c-2.153-12.689-10.382-15.611-16.611-15.611c-7.998,0-16.842,3.538-16.842,26.763c0,23.609,9.075,26.763,16.842,26.763
		c6.229,0,15.612-3.922,16.611-15.611H46.454z"/>
	<path fill="#2E394C" d="M71.524,97.765c-11.689,0-17.765-8.383-17.765-18.457c0-10.151,6.075-18.457,17.765-18.457
		c11.767,0,17.688,8.306,17.688,18.457C89.213,89.382,83.291,97.765,71.524,97.765z M71.524,61.85c-5.921,0-9.92,3.538-9.92,17.458
		c0,13.919,3.999,17.457,9.92,17.457c5.845,0,9.767-3.538,9.767-17.457C81.292,65.388,77.369,61.85,71.524,61.85z"/>
	<path fill="#2E394C" d="M109.516,97.765c-9.306,0-13.458-3.076-13.458-3.076V84.229h1c0.539,5.075,2.461,12.535,12.459,12.535
		c8.151,0,7.152-8.151,1.307-11.997l-7.767-4.691c-7.383-4.922-9.075-9.536-5.999-14.842c0,0,2.308-4.384,10.151-4.384
		c8.844,0,12.536,2.461,12.536,2.461v9.382h-0.923c-0.539-4.537-2.692-10.844-11.613-10.844c-7.306,0-7.844,7.229-1.153,11.459
		l7.768,4.846c6.921,4.307,9.151,10.535,5.46,15.842C119.282,93.996,116.667,97.765,109.516,97.765z"/>
	<path fill="#2E394C" d="M159.964,92.15l0.923,0.385c-0.461,2.307-3.076,5.229-7.075,5.229c0,0-6.076,0.153-6.537-6.46
		c-1.077,3.691-5.537,6.46-10.921,6.46c0,0-8.767,0-8.767-7.921c0-7.691,6.537-9.383,19.688-12.767v-4.46
		c0-7.922-3.999-12.382-10.151-9.537c-3,1.462-3.461,2.923-3,3c0.923,0.153,1.769,0.538,2.384,1.384
		c1.153,1.538,0.846,3.846-0.77,4.999c-1.538,1.23-3.768,0.923-4.922-0.692c-0.846-1.153-1-2.691-0.384-3.769
		c0.539-1.153,1.846-3.46,5.999-5.69c3.307-1.692,7.075-1.461,7.075-1.461c8.383,0,10.689,6.229,10.689,15.381v13.073
		c0,0-0.077,4.846,3.461,4.846C157.657,94.15,159.426,94.15,159.964,92.15z M134.432,88.229c0,2.23,1.384,6.075,6.076,6.075
		c4.076,0,5.998-2.923,6.768-4.769c0-0.076,0-11.458,0-11.458C138.354,80.23,134.432,83.614,134.432,88.229z"/>
	<path fill="#2E394C" d="M221.872,96.303l-8.382,1.385c-2.153,0.385-2.153-1.385-2.153-1.385v-4.229
		c-2.384,3.923-7.537,5.691-11.305,5.691c-10.305,0-16.227-8.152-16.227-18.919c0-11.92,7.768-17.995,18.073-17.995
		c3.768,0,6.921,1.076,9.459,2.845V47.7c0-2.692-0.77-3.691-3.922-4.307v-1l10.536-2.077v50.757c0,3.768,0.846,4.229,3.922,4.229
		V96.303z M211.336,73.001c0-7.46-4.614-11.151-9.306-11.151c-5.076,0-10.229,3.615-10.229,15.92
		c0,12.228,3.922,17.765,10.613,17.765c5.075,0,8.921-3.691,8.921-9.075V73.001z"/>
	<path fill="#2E394C" d="M238.791,97.072h-12.92v-1c2.922-0.846,3.076-2.23,3.076-6.152V68.617c0-2.691-0.615-3.768-3.846-4.613
		V63.08l10.536-2.229V89.92c0,4.307,0.385,5.461,3.153,6.152V97.072z M227.64,50.545c0-2.23,1.692-3.922,3.922-3.922
		c2.153,0,3.922,1.692,3.922,3.922c0,2.153-1.769,3.922-3.922,3.922C229.332,54.467,227.64,52.698,227.64,50.545z"/>
	<path fill="#2E394C" d="M276.167,87.613c-0.846,3.845-4.768,10.151-14.227,10.151c-8.613,0-16.766-7.075-16.766-18.38
		c0-9.46,6.922-18.534,18.688-18.534c7.537,0,9.844,3.46,10.536,4.69c0.615,1.077,0.77,2.538,0.077,3.769
		c-1,1.615-3.307,2.308-4.922,1.308c-1.769-1-2.307-3.23-1.308-4.845c0.539-0.923,1.385-1.538,2.153-1.615
		c0.692-0.153-1.384-2.308-6.537-2.308c-3.076,0-11.536,2.308-11.536,16.688c0,10.229,5.768,14.458,11.228,14.997
		c5.614,0.461,10.382-3.153,11.766-6.307L276.167,87.613z"/>
	<path fill="#2E394C" d="M299.545,97.765c-11.689,0-17.765-8.383-17.765-18.457c0-10.151,6.076-18.457,17.765-18.457
		c11.766,0,17.688,8.306,17.688,18.457C317.232,89.382,311.311,97.765,299.545,97.765z M299.545,61.85
		c-5.922,0-9.921,3.538-9.921,17.458c0,13.919,3.999,17.457,9.921,17.457c5.845,0,9.767-3.538,9.767-17.457
		C309.312,65.388,305.39,61.85,299.545,61.85z"/>
	<path fill="#2E394C" d="M357.3,97.072h-12.92v-0.923c2.923-0.846,3.076-2.308,3.076-6.229V73.386c0-5.229-2.769-8.69-7.845-8.69
		c-3.998,0-7.229,3.846-7.844,6.614v18.688c0,4.229,0.385,5.384,3.153,6.075v1h-12.92v-1c2.922-0.846,2.999-2.153,2.999-6.075
		V68.541c0-2.691-0.615-3.691-3.846-4.537V63.08l10.613-2.229v8.075c1.615-4.461,6.922-8.075,11.767-8.075
		c6.229,0,10.612,2.999,10.612,12.305V89.92c0,4.23,0.462,5.537,3.153,6.229V97.072z"/>
	<path fill="#2E394C" d="M380.141,97.765c-11.689,0-17.765-8.383-17.765-18.457c0-10.151,6.075-18.457,17.765-18.457
		c11.767,0,17.688,8.306,17.688,18.457C397.829,89.382,391.907,97.765,380.141,97.765z M380.141,61.85
		c-5.922,0-9.92,3.538-9.92,17.458c0,13.919,3.998,17.457,9.92,17.457c5.845,0,9.768-3.538,9.768-17.457
		C389.908,65.388,385.985,61.85,380.141,61.85z"/>
	<path fill="#2E394C" d="M461.121,96.303l-8.383,1.385c-2.153,0.385-2.153-1.385-2.153-1.385v-4.229
		c-2.384,3.923-7.536,5.691-11.305,5.691c-10.306,0-16.227-8.152-16.227-18.919c0-11.92,7.767-17.995,18.072-17.995
		c3.769,0,6.921,1.076,9.459,2.845V47.7c0-2.692-0.769-3.691-3.922-4.307v-1l10.536-2.077v50.757c0,3.768,0.846,4.229,3.922,4.229
		V96.303z M450.585,73.001c0-7.46-4.614-11.151-9.306-11.151c-5.075,0-10.228,3.615-10.228,15.92
		c0,12.228,3.922,17.765,10.612,17.765c5.076,0,8.921-3.691,8.921-9.075V73.001z"/>
	<path fill="#2E394C" d="M478.04,97.072h-12.92v-1c2.923-0.846,3.076-2.23,3.076-6.152V68.617c0-2.691-0.615-3.768-3.845-4.613
		V63.08l10.535-2.229V89.92c0,4.307,0.385,5.461,3.153,6.152V97.072z M466.889,50.545c0-2.23,1.692-3.922,3.923-3.922
		c2.153,0,3.922,1.692,3.922,3.922c0,2.153-1.769,3.922-3.922,3.922C468.581,54.467,466.889,52.698,466.889,50.545z"/>
	<path fill="#2E394C" d="M537.103,97.072h-12.92v-0.923c2.923-0.846,3.076-2.308,3.076-6.229V73.386c0-5.229-2.769-8.69-7.845-8.69
		c-3.998,0-7.229,3.846-7.844,6.614v18.688c0,4.229,0.385,5.384,3.153,6.075v1h-12.92v-1c2.922-0.846,2.999-2.153,2.999-6.075
		V68.541c0-2.691-0.615-3.691-3.846-4.537V63.08l10.613-2.229v8.075c1.615-4.461,6.922-8.075,11.767-8.075
		c6.229,0,10.612,2.999,10.612,12.305V89.92c0,4.23,0.462,5.537,3.153,6.229V97.072z"/>
	<path fill="#2E394C" d="M559.943,97.765c-11.689,0-17.765-8.383-17.765-18.457c0-10.151,6.075-18.457,17.765-18.457
		c11.767,0,17.688,8.306,17.688,18.457C577.632,89.382,571.71,97.765,559.943,97.765z M559.943,61.85
		c-5.922,0-9.92,3.538-9.92,17.458c0,13.919,3.998,17.457,9.92,17.457c5.845,0,9.768-3.538,9.768-17.457
		C569.711,65.388,565.788,61.85,559.943,61.85z"/>
	<path fill="#2E394C" d="M596.703,97.072h-12.92v-1c2.923-0.846,3.076-2.23,3.076-6.152V68.617c0-2.691-0.615-3.768-3.845-4.613
		V63.08l10.536-2.229V89.92c0,4.307,0.384,5.461,3.152,6.152V97.072z M585.553,50.545c0-2.23,1.691-3.922,3.922-3.922
		c2.153,0,3.922,1.692,3.922,3.922c0,2.153-1.769,3.922-3.922,3.922C587.244,54.467,585.553,52.698,585.553,50.545z"/>
</g>
</svg>
