<?xml version="1.0" encoding="utf-8"?>
<!-- Generator: Adobe Illustrator 16.0.0, SVG Export Plug-In . SVG Version: 6.00 Build 0)  -->
<!DOCTYPE svg PUBLIC "-//W3C//DTD SVG 1.1//EN" "http://www.w3.org/Graphics/SVG/1.1/DTD/svg11.dtd">
<svg version="1.1" id="Layer_1" xmlns="http://www.w3.org/2000/svg" xmlns:xlink="http://www.w3.org/1999/xlink" x="0px" y="0px"
	 width="300px" height="300px" viewBox="0 0 300 300" enable-background="new 0 0 300 300" xml:space="preserve">
<g>
	<defs>
		<rect id="SVGID_1_" x="4.653" width="295.347" height="300"/>
	</defs>
	<clipPath id="SVGID_2_">
		<use xlink:href="#SVGID_1_"  overflow="visible"/>
	</clipPath>
	<g clip-path="url(#SVGID_2_)">
		<g>
			<path fill="#A06599" d="M262.785,78.514c-41.813,74.833-80.041,151.138-108.977,231.166c-5.066,14.01-9.958,28.085-14.61,42.227
				c-0.544,1.659-8.976,29.097-10.336,28.577c-0.989-0.377,5.67-37.515,5.67-37.515c0.01-0.104,0.023-0.209,0.045-0.311
				c3.123-14.453,6.583-28.829,10.562-43.062c23.723-84.858,61.037-165.035,101.945-243.821C256.682,37.297,265.783,18.599,275.11,0
				c-3.545,2.222-5.602,5.151-7.329,8.243c-41.811,74.831-80.039,151.135-108.974,231.162
				c-7.338,20.294-22.225,79.913-28.64,100.481c0,0-2.006-44.343,13.395-68.544c0.06-0.092-0.322-0.353-0.649,0
				c-0.843,0.899-1.691,1.792-2.539,2.676c1.104-2.411,2.128-5.08,3.067-7.979c8.753-12.823,17.879-30.992,19.376-52.455
				c2.408-34.629-15.791-67.211-22.923-78.525c-0.982-1.556-3.022-0.813-3.158,1.143l-0.402,5.751
				c-1.625-5.311-3.286-10.048-4.822-14.06c4.767-17.807,9.342-33.899,10.948-39.511c0.333-1.159-0.202-2.407-1.168-2.756
				l-0.035-0.011c-0.954-0.347-1.944,0.313-2.207,1.479c-1.161,5.189-4.389,19.499-8.748,37.724
				c-1.489-3.714-2.802-6.675-3.739-8.687c-0.675-1.448-2.387-1.448-3.065,0c-0.049,0.104-0.112,0.248-0.165,0.36
				c0.355-11.006,0.779-20.395,0.975-24.533c0.058-1.234-0.75-2.268-1.765-2.268c-1,0-1.798,0.988-1.769,2.199
				c0.112,4.482,0.354,15.44,0.458,29.349c-0.75,1.764-1.578,3.799-2.451,6.057c-2.763-21.273-4.731-38.289-5.392-44.112
				c-0.135-1.195-1.054-2.005-2.035-1.812l-0.036,0.008c-0.995,0.195-1.655,1.354-1.451,2.551c1.112,6.44,4.476,26.174,7.615,46.836
				c-1.42,3.88-2.902,8.31-4.348,13.197l-0.539-7.764c-0.137-1.956-2.177-2.699-3.158-1.143
				c-7.133,11.313-25.335,43.896-22.922,78.525c1.468,21.1,10.315,39.003,18.935,51.786c1.956,6.089,4.269,11.225,6.838,15.128
				c-1.021-0.737-2.093-1.399-2.093-1.399c12.514,13.524,2.577,99.113,2.577,99.113c-0.145-1.331-0.277-2.664-0.451-3.988
				c-3.517-27.013-8.051-53.928-13.106-80.711C83.522,210.309,58.763,129.526,30.511,49.71c-1.168-3.293-2.661-6.477-5.621-9.161
				c6.044,19.692,11.865,39.452,18.17,59.062c26.888,83.606,50.272,168.099,60.516,255.375c2.886,24.59,4.396,49.389,5.253,74.195
				c-2.357-6.638-3.931-13.659-4.983-20.078c-0.479-2.926-5.152-2.832-5.422,0.104c-1.137,12.222-1.778,27.981-0.243,44.312
				c0.681,7.222,1.515,14.08,2.456,20.418c-0.484,11.126,1.269,21.415,3.459,26.293l-5.113,71.898
				c-0.474-0.314-0.947-0.625-1.446-0.958c-0.11,1.534-0.413,2.377-0.025,3.262c0.339,1.474,0.661,2.868,0.998,4.342l-2.147,30.197
				c-14.191,8.113-32.001,49.838-28.036,63.699c3.079,10.757,13.776,15.822,20.681,23.785c-0.735,1.161-1.547,2.447-2.987,4.728
				c2.266-0.715,3.256-1.026,4.396-1.39l-0.167,2.368c2.415-1.917,4.813-3.825,8.524-6.772c0.239,4.205,0.388,6.833,0.54,9.455
				c0.879-2.779,1.733-5.484,2.908-9.193c1.87,2.416,3.048,3.938,4.238,5.478c1.149-2.167,2.216-4.184,3.697-6.977
				c1.619,2.844,2.454,4.313,3.894,6.851c-0.146-2.448-0.217-3.644-0.338-5.694c2.56,2.122,4.441,3.681,6.573,5.446
				c-0.36-2.039-0.646-3.674-0.934-5.305c0.458-0.26,0.917-0.516,1.376-0.776c1.168,1.736,2.334,3.479,3.362,5.005
				c1.65-0.729,2.969-1.312,4.247-1.879c-0.937-1.041-1.812-2.012-3.186-3.531l4.465,0.315c1.87-1.646,3.046-2.783,4.337-3.803
				c10.045-7.952,14.609-17.785,12.961-30.187c-1.217-9.159-25.871-42.547-34.759-50.372l1.74-20.761
				c0.151-0.503,0.297-0.996,0.451-1.503c0.576-0.832,0.369-1.714,0.482-3.272c-0.191,0.083-0.371,0.163-0.555,0.24l7.827-93.456
				c0.796-4.038,1.416-8.366,1.757-12.757c3.838-8.696,7.776-19.212,11.389-30.755c5.119-16.351,7.235-32.311,8.065-44.257
				c0.203-2.91-4.271-3.812-5.303-1.061c-2.457,6.537-5.802,13.937-10.213,20.818l0.275-3.277c0.008-0.099,0.022-0.194,0.043-0.288
				c3.494-16.8,7.416-33.51,12.033-50.024c23.721-84.86,61.033-165.036,101.944-243.819c9.598-18.479,18.697-37.18,28.024-55.778
				C266.563,72.495,264.511,75.427,262.785,78.514"/>
		</g>
	</g>
</g>
</svg>
