<?xml version="1.0" encoding="utf-8"?>
<!-- Generator: Adobe Illustrator 16.0.0, SVG Export Plug-In . SVG Version: 6.00 Build 0)  -->
<!DOCTYPE svg PUBLIC "-//W3C//DTD SVG 1.1//EN" "http://www.w3.org/Graphics/SVG/1.1/DTD/svg11.dtd">
<svg version="1.1" id="Layer_1" xmlns="http://www.w3.org/2000/svg" xmlns:xlink="http://www.w3.org/1999/xlink" x="0px" y="0px"
	 width="300px" height="300px" viewBox="0 0 300 300" enable-background="new 0 0 300 300" xml:space="preserve">
<g>
	<g>
		<path fill="#A06599" d="M201.658,32.933c-17.539,31.388-33.573,63.394-45.71,96.962c-2.125,5.876-4.177,11.78-6.128,17.712
			c-0.228,0.696-3.765,12.204-4.335,11.986c-0.415-0.158,2.379-15.735,2.379-15.735c0.004-0.044,0.01-0.087,0.019-0.131
			c1.31-6.062,2.761-12.092,4.431-18.062c9.95-35.593,25.602-69.223,42.761-102.27c4.024-7.751,7.842-15.594,11.755-23.395
			c-1.487,0.932-2.351,2.161-3.074,3.458c-17.538,31.388-33.573,63.393-45.709,96.96c-3.078,8.512-9.322,33.52-12.013,42.146
			c0,0-0.842-18.6,5.618-28.751c0.025-0.038-0.135-0.147-0.271,0c-0.354,0.378-0.71,0.752-1.065,1.123
			c0.463-1.012,0.893-2.131,1.286-3.347c3.672-5.378,7.499-13,8.128-22.002c1.01-14.525-6.624-28.191-9.615-32.937
			c-0.412-0.653-1.268-0.341-1.325,0.479l-0.168,2.413c-0.681-2.228-1.378-4.215-2.022-5.897c2-7.47,3.918-14.22,4.593-16.574
			c0.139-0.486-0.085-1.009-0.49-1.156l-0.015-0.004c-0.4-0.146-0.815,0.131-0.925,0.62c-0.487,2.176-1.841,8.179-3.669,15.823
			c-0.625-1.558-1.176-2.8-1.568-3.644c-0.283-0.607-1.001-0.607-1.286,0c-0.021,0.044-0.047,0.104-0.069,0.151
			c0.149-4.616,0.327-8.555,0.409-10.29c0.024-0.518-0.314-0.952-0.74-0.952c-0.419,0-0.754,0.415-0.742,0.923
			c0.047,1.88,0.148,6.476,0.192,12.311c-0.314,0.74-0.662,1.594-1.028,2.541c-1.159-8.923-1.985-16.06-2.262-18.502
			c-0.057-0.501-0.442-0.841-0.854-0.76l-0.015,0.003c-0.417,0.082-0.694,0.568-0.608,1.07c0.467,2.702,1.878,10.979,3.194,19.646
			c-0.596,1.627-1.217,3.485-1.824,5.535l-0.226-3.256c-0.058-0.82-0.913-1.132-1.325-0.479
			c-2.992,4.745-10.626,18.412-9.614,32.937c0.615,8.851,4.326,16.36,7.941,21.722c0.821,2.554,1.791,4.708,2.868,6.346
			c-0.428-0.31-0.878-0.587-0.878-0.587c5.249,5.673,1.081,41.574,1.081,41.574c-0.061-0.559-0.116-1.118-0.189-1.674
			c-1.475-11.33-3.377-22.62-5.498-33.854c-6.584-34.899-16.969-68.783-28.82-102.262c-0.49-1.381-1.116-2.716-2.357-3.842
			c2.535,8.259,4.977,16.547,7.621,24.773c11.278,35.068,21.087,70.509,25.383,107.117c1.21,10.314,1.844,20.715,2.203,31.121
			c-0.989-2.783-1.649-5.729-2.09-8.422c-0.202-1.227-2.161-1.188-2.274,0.044c-0.477,5.126-0.746,11.736-0.102,18.587
			c0.286,3.028,0.635,5.906,1.03,8.563c-0.204,4.667,0.532,8.983,1.45,11.029l-2.145,30.158c-0.198-0.133-0.397-0.263-0.606-0.402
			c-0.045,0.644-0.173,0.997-0.011,1.368c0.143,0.618,0.278,1.203,0.419,1.821l-0.901,12.666
			c-5.952,3.403-13.422,20.904-11.759,26.718c1.291,4.514,5.778,6.638,8.674,9.978c-0.308,0.487-0.649,1.026-1.253,1.983
			c0.951-0.301,1.366-0.431,1.844-0.584l-0.07,0.993c1.012-0.804,2.019-1.604,3.576-2.841c0.1,1.766,0.162,2.867,0.226,3.967
			c0.369-1.165,0.727-2.301,1.219-3.856c0.785,1.014,1.279,1.651,1.778,2.298c0.482-0.909,0.93-1.755,1.551-2.927
			c0.679,1.193,1.029,1.81,1.633,2.873c-0.061-1.026-0.091-1.527-0.142-2.388c1.073,0.891,1.863,1.545,2.757,2.285
			c-0.151-0.855-0.271-1.541-0.392-2.226c0.192-0.108,0.384-0.217,0.577-0.326c0.49,0.729,0.979,1.459,1.41,2.1
			c0.692-0.306,1.245-0.55,1.782-0.788c-0.394-0.437-0.76-0.844-1.336-1.481l1.873,0.132c0.785-0.689,1.277-1.167,1.819-1.594
			c4.213-3.336,6.127-7.461,5.436-12.662c-0.51-3.842-10.851-17.847-14.58-21.129l0.73-8.708c0.064-0.211,0.125-0.418,0.189-0.631
			c0.242-0.349,0.155-0.719,0.203-1.372c-0.081,0.035-0.156,0.068-0.233,0.101l3.283-39.199c0.334-1.694,0.594-3.509,0.737-5.352
			c1.609-3.647,3.261-8.059,4.777-12.899c2.147-6.858,3.035-13.553,3.383-18.564c0.085-1.22-1.792-1.599-2.225-0.444
			c-1.031,2.742-2.434,5.846-4.284,8.732l0.116-1.375c0.003-0.041,0.009-0.081,0.018-0.121c1.466-7.046,3.111-14.055,5.047-20.982
			c9.95-35.594,25.601-69.224,42.76-102.27c4.026-7.75,7.844-15.595,11.755-23.396C203.242,30.408,202.382,31.638,201.658,32.933"/>
	</g>
</g>
<rect x="90.385" fill="none" width="123.882" height="125.835"/>
</svg>
