<?xml version="1.0" encoding="utf-8"?>
<!-- Generator: Adobe Illustrator 16.0.0, SVG Export Plug-In . SVG Version: 6.00 Build 0)  -->
<!DOCTYPE svg PUBLIC "-//W3C//DTD SVG 1.1//EN" "http://www.w3.org/Graphics/SVG/1.1/DTD/svg11.dtd">
<svg version="1.1" id="Layer_1" xmlns="http://www.w3.org/2000/svg" xmlns:xlink="http://www.w3.org/1999/xlink" x="0px" y="0px"
	 width="500px" height="600px" viewBox="0 0 500 600" enable-background="new 0 0 500 600" xml:space="preserve">
<g>
	<path fill="#A2392B" d="M243.781,164.374c0.084-0.17,0.191-0.332,0.285-0.498c0.7-1.717,1.626-3.329,2.865-4.707
		c0.011-0.396,0.009-0.807-0.025-1.257c-0.011,0.02-0.03,0.032-0.039,0.052c-0.076,0.136-0.175,0.323-0.253,0.467
		c0.349-14.181,0.844-26.281,1.074-31.619c0.07-1.588-1.222-2.9-2.821-2.877c-1.572,0.024-2.811,1.314-2.742,2.873
		c0.259,5.768,0.847,19.875,1.27,37.784C243.517,164.505,243.649,164.442,243.781,164.374"/>
	<path fill="#A2392B" d="M241.027,170.747c-0.211,0.499-0.427,0.991-0.643,1.506c-5.468-27.2-9.459-48.971-10.806-56.421
		c-0.277-1.531-1.758-2.513-3.294-2.199l-0.057,0.01c-1.554,0.317-2.53,1.844-2.144,3.378c2.063,8.124,8.275,32.835,14.237,58.901
		c0.592-1.438,1.512-2.715,2.708-3.748C241.01,171.699,241.009,171.224,241.027,170.747"/>
	<path fill="#A2392B" d="M274.294,118.27l-0.055-0.015c-1.506-0.421-3.058,0.45-3.446,1.957
		c-1.728,6.709-6.547,25.214-13.059,48.785c-0.175-0.345-0.334-0.646-0.505-0.979c0.078,0.319,0.111,0.633,0.085,0.934
		c1.092,1.06,1.913,2.353,2.442,3.77c7.146-22.954,14.007-43.684,16.43-50.931C276.683,120.293,275.821,118.697,274.294,118.27"/>
	<path fill="#FFFFFF" d="M465.299,106.778c-64.394,97.324-123.125,196.464-167.164,300.191c-7.712,18.157-15.144,36.398-22.2,54.714
		c-0.826,2.14-13.585,37.681-15.73,37.039c-1.565-0.463,8.221-48.452,8.221-48.452c0.013-0.13,0.033-0.258,0.065-0.39
		c4.643-18.685,9.821-37.282,15.813-55.698c35.749-109.83,92.967-213.935,155.874-316.33c14.753-24.013,28.722-48.306,43.055-72.471
		c-5.54,2.945-8.725,6.764-11.379,10.781c-64.396,97.327-123.123,196.465-167.166,300.189
		c-11.169,26.302-33.481,103.427-43.19,130.056c0,0-3.984-57.06,19.798-88.575c0.093-0.124-0.511-0.45-1.021,0.013
		c-1.309,1.175-2.628,2.344-3.942,3.504c1.687-3.132,3.25-6.592,4.675-10.347c13.538-16.716,27.559-40.323,29.511-67.998
		c3.147-44.652-26.1-86.199-37.537-100.604c-1.573-1.982-4.77-0.978-4.949,1.54l-0.521,7.42c-2.656-6.804-5.356-12.867-7.848-17.998
		c0.054-0.172,0.106-0.339,0.16-0.511c-0.636-1.382-1.339-2.686-1.958-4.009c-0.055,0.197-0.107,0.388-0.162,0.585
		c-2.413-4.746-4.534-8.53-6.047-11.098c-1.091-1.852-3.786-1.812-4.821,0.069c-0.077,0.135-0.175,0.326-0.253,0.466
		c0.001-0.022,0.001-0.044,0.001-0.067c-0.169,0.311-0.367,0.603-0.593,0.876c-0.014,0.02-0.024,0.041-0.038,0.061
		c-0.145,0.341-0.315,0.671-0.521,0.978c-0.053,0.136-0.093,0.277-0.154,0.408c-0.012,0.036-0.02,0.072-0.033,0.107
		c-0.005,0.014-0.01,0.026-0.015,0.039c-0.112,0.281-0.244,0.555-0.398,0.815c-0.001,0.001-0.001,0.003-0.002,0.004
		c-0.207,0.903-0.612,1.748-1.2,2.455c-0.197,0.626-0.493,1.215-0.885,1.737c-0.969,1.971-2.008,4.155-3.091,6.546
		c-0.227,0.548-0.556,1.042-0.942,1.494c-0.11,0.382-0.257,0.751-0.438,1.103c-0.116,0.66-0.328,1.298-0.647,1.879
		c0.005,0.029,0.011,0.058,0.017,0.086c-2.162,5.031-4.411,10.768-6.594,17.098l-0.998-9.991c-0.25-2.512-3.474-3.424-4.99-1.396
		c-11.015,14.73-39.045,57.109-34.604,101.654c2.708,27.141,16.959,49.992,30.761,66.256c3.192,7.793,6.93,14.354,11.045,19.329
		c-1.622-0.933-3.321-1.755-3.321-1.755c19.941,17.133,5.906,127.581,5.906,127.581c-0.253-1.715-0.488-3.423-0.782-5.126
		c-6.037-34.707-13.678-69.265-22.129-103.646C185.676,280.599,145.212,177.127,99.258,74.982c-1.896-4.216-4.304-8.282-9.014-11.67
		c9.88,25.221,19.406,50.536,29.699,75.647c43.869,107.058,82.246,215.337,99.993,327.506c5.003,31.604,7.838,63.497,9.649,95.428
		c-3.83-8.499-6.44-17.498-8.218-25.743c-0.808-3.761-8.154-3.533-8.53,0.255c-1.556,15.767-2.272,36.08,0.449,57.079
		c1.207,9.283,2.646,18.101,4.242,26.238c-0.553,14.335,2.402,27.553,5.937,33.779l-6.702,92.713
		c-0.751-0.393-1.504-0.782-2.293-1.205c-0.145,1.979-0.604,3.067,0.019,4.202c0.563,1.895,1.092,3.677,1.654,5.571l-2.815,38.938
		c-22.182,10.774-49.426,64.911-42.926,82.676c5.041,13.789,21.971,20.059,32.983,30.156c-1.134,1.518-2.388,3.188-4.611,6.165
		c3.553-0.979,5.104-1.407,6.891-1.896l-0.22,3.052c3.763-2.518,7.504-5.028,13.287-8.916c0.456,5.405,0.744,8.79,1.026,12.165
		c1.331-3.596,2.628-7.106,4.406-11.9c2.984,3.065,4.864,4.992,6.771,6.954c1.765-2.818,3.41-5.437,5.686-9.069
		c2.601,3.626,3.939,5.496,6.256,8.729c-0.275-3.147-0.408-4.683-0.638-7.32c4.064,2.668,7.052,4.632,10.443,6.862
		c-0.605-2.623-1.086-4.713-1.567-6.811c0.719-0.339,1.433-0.685,2.149-1.028c1.87,2.208,3.74,4.427,5.382,6.364
		c2.584-0.976,4.648-1.757,6.654-2.516c-1.495-1.316-2.894-2.551-5.078-4.474l7.028,0.309c2.911-2.166,4.745-3.654,6.751-5.001
		c15.659-10.473,22.662-23.238,19.835-39.169c-2.089-11.772-41.507-54.206-55.639-64.083l2.35-26.771
		c0.229-0.656,0.453-1.295,0.681-1.95c0.893-1.081,0.549-2.217,0.695-4.226c-0.297,0.114-0.579,0.22-0.864,0.327l10.569-120.541
		c1.177-5.21,2.071-10.803,2.525-16.466c5.875-11.291,11.878-24.92,17.348-39.866c7.752-21.177,10.779-41.78,11.865-57.184
		c0.263-3.753-6.791-4.812-8.368-1.241c-3.739,8.474-8.867,18.082-15.677,27.044l0.369-4.232c0.012-0.12,0.029-0.241,0.06-0.367
		c5.188-21.715,11.045-43.327,18.003-64.704C313.5,374.97,370.716,270.865,433.621,168.468
		c14.759-24.017,28.726-48.306,43.062-72.472C471.137,98.94,467.961,102.761,465.299,106.778z"/>
</g>
</svg>
