<?xml version="1.0" encoding="utf-8"?>
<!-- Generator: Adobe Illustrator 16.0.0, SVG Export Plug-In . SVG Version: 6.00 Build 0)  -->
<!DOCTYPE svg PUBLIC "-//W3C//DTD SVG 1.1//EN" "http://www.w3.org/Graphics/SVG/1.1/DTD/svg11.dtd">
<svg version="1.1" id="Layer_1" xmlns="http://www.w3.org/2000/svg" xmlns:xlink="http://www.w3.org/1999/xlink" x="0px" y="0px"
	 width="600px" height="600px" viewBox="0 0 600 600" enable-background="new 0 0 600 600" xml:space="preserve">
<g>
	<g>
		<path fill="#2E394C" d="M249.301,483.62C146.187,458.315,82.884,353.839,108.189,250.725
			c25.305-103.114,129.782-166.417,232.896-141.112c103.114,25.305,166.415,129.782,141.11,232.896
			C456.891,445.623,352.415,508.925,249.301,483.62z M339.655,115.44c-99.902-24.517-201.123,36.813-225.639,136.715
			c-24.516,99.9,36.813,201.121,136.715,225.638c99.9,24.517,201.121-36.813,225.637-136.714
			C500.885,241.178,439.556,139.957,339.655,115.44z"/>
	</g>
</g>
<g>
	<g>
		<path fill="#2E394C" d="M233.043,549.871c-68.477-16.805-126.311-59.27-162.848-119.572
			c-36.538-60.302-47.405-131.223-30.601-199.7c16.804-68.476,59.27-126.31,119.572-162.848
			c60.303-36.537,131.225-47.405,199.702-30.6s126.31,59.27,162.847,119.572s47.404,131.224,30.6,199.7
			c-16.805,68.478-59.269,126.311-119.571,162.848C372.441,555.809,301.52,566.676,233.043,549.871z M357.438,42.979
			c-66.919-16.423-136.229-5.802-195.162,29.905C103.344,108.59,61.844,165.109,45.421,232.029
			c-16.423,66.92-5.802,136.23,29.905,195.162c35.708,58.932,92.227,100.431,159.146,116.854s136.229,5.803,195.162-29.903
			c58.931-35.707,100.43-92.226,116.853-159.146c16.423-66.919,5.803-136.229-29.903-195.161
			C480.877,100.901,424.358,59.401,357.438,42.979z"/>
	</g>
</g>
<g>
	<g>
		<g>
			
				<rect x="15.714" y="236.792" transform="matrix(0.9712 0.2383 -0.2383 0.9712 77.0865 -62.7076)" fill="#A2392B" width="564.289" height="101.26"/>
		</g>
	</g>
	<g>
		<g>
			<path fill="#9A392B" d="M562.458,408.094L7.456,271.892l25.802-105.141l555.002,136.202L562.458,408.094z M16.099,266.805
				l541.053,132.778l22.466-91.544L38.564,175.261L16.099,266.805z"/>
		</g>
	</g>
</g>
<g>
</g>
<g>
</g>
<g>
	<defs>
		<circle id="SVGID_1_" cx="293.914" cy="284.118" r="200.908"/>
	</defs>
	<clipPath id="SVGID_2_">
		<use xlink:href="#SVGID_1_"  overflow="visible"/>
	</clipPath>
	<g clip-path="url(#SVGID_2_)">
		<g>
			<path fill="#303B4E" d="M350.323,405.331c-30.629,28.285-59.448,57.683-83.561,89.92c-4.222,5.645-8.353,11.342-12.361,17.095
				c-0.47,0.674-7.921,11.917-8.611,11.512c-0.504-0.294,6.978-16.11,6.978-16.11c0.015-0.043,0.033-0.089,0.057-0.132
				c3.202-6.086,6.58-12.097,10.228-17.977c21.756-35.064,50.471-66.313,81.017-96.482c7.164-7.075,14.079-14.315,21.108-21.479
				c-2.173,0.549-3.602,1.604-4.865,2.771c-30.629,28.286-59.449,57.683-83.558,89.919c-6.117,8.176-20.426,33.034-26.061,41.448
				c0,0,3.475-20.137,14.411-29.047c0.041-0.035-0.14-0.199-0.359-0.082c-0.552,0.295-1.108,0.59-1.664,0.879
				c0.854-0.941,1.688-2.009,2.501-3.19c6.122-4.647,12.997-11.645,16.03-21.079c4.896-15.226-1.716-32.132-4.456-38.104
				c-0.378-0.824-1.572-0.745-1.849,0.114l-0.812,2.529c-0.342-2.587-0.766-4.919-1.191-6.912
				c4.451-7.385,8.614-14.024,10.075-16.339c0.303-0.478,0.138-1.105-0.355-1.383l-0.019-0.01c-0.486-0.276-1.099-0.104-1.362,0.386
				c-1.171,2.18-4.417,8.191-8.684,15.812c-0.433-1.851-0.848-3.345-1.155-4.365c-0.219-0.734-1.158-0.95-1.677-0.386
				c-0.038,0.04-0.09,0.097-0.128,0.141c1.329-4.891,2.529-9.049,3.064-10.879c0.161-0.546-0.176-1.11-0.734-1.239
				c-0.545-0.126-1.086,0.217-1.195,0.763c-0.4,2.024-1.399,6.968-2.778,13.218c-0.592,0.696-1.255,1.507-1.966,2.409
				c0.68-9.889,1.357-17.768,1.596-20.461c0.048-0.554-0.371-1.031-0.927-1.068l-0.021-0.003c-0.565-0.037-1.046,0.4-1.057,0.963
				c-0.055,3.027-0.248,12.299-0.66,21.963c-1.179,1.561-2.448,3.359-3.743,5.369l0.505-3.552c0.124-0.892-0.916-1.481-1.615-0.907
				c-5.075,4.173-18.408,16.488-20.661,32.324c-1.371,9.644,1.629,18.785,5.032,25.606c0.444,2.976,1.182,5.57,2.186,7.645
				c-0.484-0.457-1.003-0.892-1.003-0.892c5.461,7.644-8.813,44.77-8.813,44.77c0.058-0.614,0.122-1.229,0.164-1.845
				c0.862-12.555,1.154-25.196,1.148-37.844c-0.018-39.289-5.248-78.636-12.494-117.988c-0.299-1.626-0.789-3.241-2.134-4.817
				c1.28,9.593,2.43,19.188,3.863,28.775c6.105,40.88,10.201,81.716,6.81,122.146c-0.958,11.391-2.689,22.698-4.78,33.932
				c-0.606-3.273-0.745-6.619-0.658-9.631c0.038-1.373-2.529-1.921-2.982-0.638c-1.883,5.34-3.861,12.325-4.706,19.842
				c-0.371,3.325-0.623,6.506-0.762,9.467c-1.413,4.926-1.512,9.763-0.815,12.225l-10.22,31.599
				c-0.229-0.202-0.456-0.402-0.693-0.612c-0.219,0.672-0.472,1.013-0.35,1.458c0.033,0.705,0.064,1.369,0.096,2.074l-4.291,13.269
				c-8.613,1.851-22.675,18.313-21.934,25.03c0.576,5.214,5.916,8.832,8.877,13.271c-0.523,0.431-1.101,0.906-2.125,1.745
				c1.316-0.034,1.89-0.05,2.552-0.069l-0.335,1.041c1.52-0.555,3.032-1.108,5.37-1.961c-0.304,1.913-0.492,3.113-0.68,4.306
				c0.768-1.132,1.515-2.239,2.541-3.753c0.775,1.315,1.262,2.147,1.756,2.988c0.854-0.827,1.648-1.596,2.749-2.661
				c0.59,1.479,0.898,2.242,1.425,3.562c0.172-1.117,0.257-1.661,0.402-2.594c1.182,1.271,2.053,2.208,3.04,3.269
				c0.012-0.959,0.023-1.729,0.036-2.496c0.275-0.058,0.556-0.116,0.834-0.174c0.459,0.927,0.92,1.853,1.323,2.666
				c0.98-0.117,1.765-0.213,2.524-0.306c-0.406-0.584-0.788-1.133-1.382-1.984l2.413,0.704c1.194-0.502,1.956-0.865,2.768-1.16
				c6.327-2.297,9.842-6.133,10.218-11.9c0.279-4.263-9.785-22.341-13.848-26.973l3.094-9.089c0.136-0.206,0.268-0.409,0.403-0.615
				c0.402-0.301,0.378-0.724,0.599-1.408c-0.111,0.013-0.217,0.025-0.328,0.037l13.931-40.922c0.854-1.708,1.641-3.572,2.28-5.498
				c3-3.416,6.241-7.635,9.413-12.355c4.492-6.688,7.298-13.578,8.984-18.83c0.412-1.279-1.944-2.247-2.795-1.145
				c-2.02,2.623-4.618,5.52-7.743,8.051l0.488-1.437c0.013-0.042,0.032-0.083,0.051-0.125c3.651-7.093,7.522-14.091,11.758-20.914
				c21.754-35.062,50.469-66.312,81.016-96.481c7.163-7.077,14.077-14.315,21.108-21.479
				C353.017,403.109,351.588,404.163,350.323,405.331"/>
		</g>
	</g>
</g>
<g>
	<defs>
		
			<rect id="SVGID_3_" x="206.748" y="376.986" transform="matrix(-0.9712 -0.2383 0.2383 -0.9712 498.2504 923.3206)" width="196.393" height="109.105"/>
	</defs>
	<clipPath id="SVGID_4_">
		<use xlink:href="#SVGID_3_"  overflow="visible"/>
	</clipPath>
	<g clip-path="url(#SVGID_4_)">
		<g>
			<path fill="#A2392B" d="M268.742,405.705c0.045-0.053,0.096-0.099,0.144-0.148c0.389-0.536,0.847-1.017,1.394-1.391
				c0.039-0.135,0.071-0.278,0.099-0.437c-0.005,0.006-0.014,0.008-0.019,0.014c-0.037,0.042-0.087,0.097-0.126,0.143
				c1.328-4.892,2.53-9.048,3.065-10.88c0.158-0.547-0.177-1.112-0.734-1.24c-0.546-0.123-1.089,0.217-1.196,0.764
				c-0.401,2.024-1.398,6.968-2.776,13.217C268.64,405.729,268.692,405.718,268.742,405.705"/>
		</g>
	</g>
	<g clip-path="url(#SVGID_4_)">
		<g>
			<path fill="#A2392B" d="M266.989,407.698c-0.12,0.151-0.241,0.301-0.364,0.458c0.68-9.889,1.358-17.769,1.596-20.462
				c0.047-0.552-0.371-1.032-0.928-1.067l-0.021-0.002c-0.565-0.038-1.046,0.397-1.057,0.962
				c-0.056,2.994-0.246,12.094-0.647,21.638c0.34-0.438,0.776-0.795,1.286-1.035C266.893,408.024,266.937,407.859,266.989,407.698"
				/>
		</g>
	</g>
	<g clip-path="url(#SVGID_4_)">
		<g>
			<path fill="#A2392B" d="M283.255,392.308l-0.015-0.011c-0.487-0.273-1.101-0.104-1.363,0.386
				c-1.173,2.182-4.419,8.19-8.686,15.814c-0.03-0.135-0.062-0.253-0.092-0.383c0.001,0.117-0.016,0.229-0.051,0.331
				c0.289,0.461,0.462,0.979,0.529,1.517c4.433-7.358,8.578-13.966,10.034-16.271C283.913,393.213,283.75,392.586,283.255,392.308"
				/>
		</g>
	</g>
</g>
<g>
	<g>
		<path fill="#303B4E" d="M134.476,154.21c-6.855,7.11-15.017,5.791-21.213-0.184c-6.166-5.943-8.125-14.38-1.269-21.491
			c6.856-7.111,15.359-5.462,21.524,0.483C139.716,138.992,141.332,147.099,134.476,154.21z M112.399,132.925
			c-3.708,3.846-4.084,9.159,4.447,17.384c8.563,8.257,13.517,7.356,17.225,3.51c3.678-3.813,4.396-8.796-4.167-17.052
			C121.373,128.541,116.077,129.11,112.399,132.925z M144.196,151.545c3.115-1.674,3.459-4.025,3.678-5.373l0.592,0.009
			l-0.407,4.285c-0.531,4.29-3.211,5.886-10.408,8.988l-3.458,1.468c-2.805,1.288-3.678,4.312-3.896,5.537l-0.654-0.006
			c0.782-8.353,8.197-11.619,8.197-11.619L144.196,151.545z"/>
		<path fill="#2E394C" d="M130.715,166.962l-1.621-0.016l0.05-0.541c0.801-8.546,8.417-11.996,8.494-12.03l6.328-3.275
			c2.853-1.533,3.186-3.595,3.406-4.958l0.069-0.427l0.44-0.043l1.133,0.018l-0.458,4.824c-0.569,4.599-3.543,6.312-10.708,9.399
			l-3.46,1.469c-2.707,1.243-3.44,4.267-3.6,5.164L130.715,166.962z M147.733,148.607c-0.51,1.146-1.451,2.384-3.3,3.378
			l-6.363,3.292c-0.087,0.04-5.539,2.522-7.387,8.486c0.62-1.221,1.639-2.532,3.302-3.296l3.471-1.474
			c7.4-3.189,9.625-4.704,10.107-8.589L147.733,148.607z M124.25,159.541c-3.918,0-7.837-1.783-11.334-5.155
			c-3.302-3.183-5.262-6.854-5.667-10.614c-0.446-4.139,1.07-8.145,4.386-11.584c3.053-3.166,6.674-4.839,10.473-4.839
			c4.032,0,8.208,1.885,11.759,5.31c3.29,3.172,5.2,6.798,5.524,10.486c0.352,4.011-1.223,7.958-4.555,11.413
			C131.692,157.817,128.032,159.541,124.25,159.541z M109.669,136.527c-1.203,2.265-1.692,4.679-1.427,7.137
			c0.375,3.474,2.281,7.026,5.368,10.001c3.307,3.189,6.986,4.875,10.64,4.875c2.161,0,4.235-0.582,6.203-1.736
			c-0.734,0.235-1.49,0.352-2.273,0.352h0c-3.333,0-7.154-2.123-11.681-6.488C110.832,145.205,108.567,140.537,109.669,136.527z
			 M118.166,130.746c-2,0-3.768,0.826-5.407,2.526c-5.554,5.761-0.129,12.277,4.434,16.677c4.331,4.177,7.925,6.207,10.986,6.208h0
			c1.98,0,3.789-0.878,5.531-2.685c1.984-2.057,2.738-4.102,2.373-6.436c-0.448-2.866-2.583-6.107-6.526-9.909
			C125.166,132.893,121.333,130.746,118.166,130.746z M118.166,129.746c3.483,0,7.437,2.179,12.085,6.662
			c4.106,3.958,6.337,7.385,6.82,10.474c0.174,1.113,0.12,2.182-0.166,3.215c1.184-2.208,1.693-4.529,1.488-6.865
			c-0.302-3.444-2.108-6.852-5.222-9.854c-3.363-3.243-7.293-5.029-11.064-5.029c-2.233,0-4.353,0.596-6.337,1.779
			C116.541,129.874,117.341,129.746,118.166,129.746z"/>
	</g>
	<g>
		<path fill="#303B4E" d="M145.253,129.13l-9.382-12.639c-1.752-2.362-3.216-2.299-4.802-1.122l-0.335-0.452l8.978-6.662
			l0.335,0.452c-1.551,1.15-2.616,2.426-0.58,5.168l9.588,12.919c3.196,4.305,7.693,4.791,11.588,1.9
			c3.677-2.729,4.695-7.308,1.37-11.788l-7.01-9.445c-2.423-3.263-4.789-6.3-9.007-3.169l-0.335-0.453l9.374-6.957l0.335,0.453
			c-4.723,3.504-2.321,6.514,0.102,9.779l7.011,9.444c4.613,6.215,1.989,11.718-2.446,15.008
			C155.348,135.047,149.454,134.79,145.253,129.13z"/>
		<path fill="#2E394C" d="M153.624,134.351c-3.349,0-6.382-1.702-8.772-4.923l-9.382-12.639c-0.857-1.155-1.649-1.716-2.423-1.716
			c-0.498,0-1.047,0.229-1.68,0.698l-0.401,0.298l-0.931-1.255l9.781-7.258l0.93,1.256l-0.401,0.298
			c-0.648,0.48-1.273,1.021-1.449,1.709c-0.185,0.726,0.133,1.628,0.972,2.759l9.588,12.92c1.71,2.303,3.834,3.521,6.142,3.521
			c1.585,0,3.227-0.596,4.747-1.724c1.759-1.306,2.836-3.002,3.114-4.908c0.294-2.018-0.345-4.155-1.848-6.18l-7.01-9.445
			c-1.562-2.104-3.178-4.28-5.297-4.28c-0.924,0-1.909,0.397-3.011,1.214l-0.402,0.298l-0.93-1.256l10.177-7.552l0.93,1.256
			l-0.401,0.297c-2.547,1.891-2.62,3.41-2.453,4.389c0.247,1.447,1.341,2.918,2.499,4.476l7.17,9.659
			c2.232,3.007,2.99,6.041,2.254,9.019c-0.782,3.163-3.043,5.383-4.803,6.688C158.234,133.528,155.914,134.351,153.624,134.351z
			 M133.046,114.072c1.112,0,2.167,0.694,3.226,2.121l9.382,12.639c2.194,2.957,4.95,4.519,7.97,4.519
			c2.074,0,4.188-0.755,6.113-2.185c1.628-1.208,3.718-3.251,4.428-6.125c0.076-0.308,0.134-0.617,0.174-0.927
			c-0.435,1.935-1.601,3.648-3.4,4.982c-1.693,1.257-3.541,1.921-5.342,1.921c-2.637,0-5.039-1.357-6.945-3.925l-9.588-12.919
			c-1.031-1.387-1.403-2.566-1.138-3.603c0.045-0.178,0.108-0.346,0.186-0.507l-5.436,4.034
			C132.8,114.081,132.924,114.072,133.046,114.072z M149.303,102.48c1.375,0,2.536,0.684,3.565,1.65
			c-0.307-0.603-0.534-1.211-0.641-1.836c-0.195-1.142,0.047-2.22,0.736-3.252l-4.852,3.601
			C148.514,102.534,148.911,102.48,149.303,102.48z"/>
	</g>
	<g>
		<path fill="#303B4E" d="M200.761,106.358l-9.015,4.848l-0.266-0.494c2.134-1.148,0.572-3.108-1.484-4.751l-3.166-2.569
			l-10.241,5.506c0.571,3.622,1.37,9.281,6.784,6.173l0.267,0.495l-8.817,4.741l-0.267-0.495c1.482-0.846,2.389-1.53,1.098-12.178
			l-2.715-20.881l0.435-0.234c10.845,8.604,22.219,18.003,22.219,18.003c2.943,2.345,3.754,1.86,4.902,1.341L200.761,106.358z
			 M186.407,102.98l-11.979-9.858l2.014,15.217L186.407,102.98z"/>
		<path fill="#2E394C" d="M174.62,120.983l-0.735-1.364l0.424-0.242c1.23-0.702,2.119-1.209,0.849-11.684L172.4,86.476l1.028-0.554
			l0.258,0.205c10.725,8.509,22.113,17.916,22.227,18.01c1.416,1.127,2.415,1.655,3.137,1.655c0.396,0,0.722-0.149,1.135-0.337
			l0.531-0.241l0.723,1.348l-9.896,5.321l-0.739-1.375l0.44-0.237c0.709-0.381,0.743-0.758,0.754-0.882
			c0.038-0.414-0.213-1.36-2.314-3.039l-2.91-2.361l-9.635,5.18c0.429,2.718,1.047,6.3,3.478,6.3c0.702,0,1.546-0.28,2.509-0.833
			l0.445-0.256l0.748,1.387L174.62,120.983z M176.585,111.681c0.371,4.363,0.158,6.294-0.438,7.345l4.778-2.569
			C178.293,116.659,177.162,114.197,176.585,111.681z M187.254,103.092l3.057,2.48c1.905,1.522,2.783,2.801,2.683,3.908
			c-0.018,0.199-0.067,0.388-0.146,0.566l6.06-3.258c-0.954-0.052-2.051-0.621-3.625-1.875c-0.119-0.098-11.188-9.241-21.771-17.648
			l0.649,4.99l13.14,10.813L187.254,103.092z M175.089,94.314l1.753,13.242l8.671-4.664L175.089,94.314z"/>
	</g>
	<g>
		<path fill="#303B4E" d="M224.834,87.46l3.179,8.829l-21.076,7.585l-0.191-0.528c1.817-0.654,1.767-2.383,0.771-5.15l-7.148-19.854
			c-0.894-2.481-2.076-3.113-3.891-2.46l-0.191-0.529l10.052-3.616l0.191,0.528c-1.816,0.653-2.877,1.816-1.822,4.746l8.627,23.964
			l1.521-0.546c4.534-1.586,11.699-4.21,9.429-12.769L224.834,87.46z"/>
		<path fill="#2E394C" d="M206.636,104.514l-0.532-1.469l0.471-0.169c1.144-0.412,1.622-1.311,0.47-4.511l-7.147-19.854
			c-0.757-2.101-1.58-2.37-2.212-2.37c-0.305,0-0.645,0.069-1.039,0.21l-0.47,0.169l-0.53-1.47l10.993-3.955l0.531,1.469
			l-0.471,0.17c-0.901,0.324-1.444,0.727-1.708,1.268c-0.323,0.663-0.262,1.591,0.187,2.837l8.458,23.494l1.051-0.377
			c4.227-1.479,11.295-3.951,9.115-12.17l-0.118-0.443l1.452-0.522l3.517,9.77L206.636,104.514z M198.212,75.19
			c1.486,0.292,2.206,1.81,2.627,2.981l7.148,19.854c0.639,1.777,1.102,3.65,0.25,4.849l4.648-1.673l-0.021-0.059l-8.627-23.964
			c-0.545-1.514-0.593-2.697-0.145-3.615c0.114-0.234,0.258-0.449,0.434-0.646L198.212,75.19z M225.186,89.913
			c0.329,4.25-1.907,6.833-4.588,8.514l6.776-2.438L225.186,89.913z"/>
	</g>
	<g>
		<path fill="#303B4E" d="M239.976,61.98l0.13,0.547c-1.877,0.445-2.887,1.442-2.267,4.051l5.051,21.25
			c0.68,2.861,2.162,3.665,3.997,3.229l0.13,0.547l-10.613,2.521l-0.13-0.548c1.878-0.445,2.797-1.821,2.117-4.681l-5.049-21.25
			c-0.621-2.61-1.927-3.055-3.848-2.599l-0.131-0.547L239.976,61.98z"/>
		<path fill="#2E394C" d="M236.033,94.728l-0.362-1.521l0.487-0.115c0.839-0.199,1.39-0.582,1.686-1.172
			c0.338-0.674,0.358-1.652,0.06-2.906l-5.049-21.25c-0.497-2.089-1.384-2.371-2.187-2.371c-0.307,0-0.653,0.047-1.059,0.143
			l-0.486,0.116l-0.364-1.52l11.587-2.752l0.361,1.52l-0.487,0.115c-0.9,0.214-1.462,0.532-1.766,1
			c-0.351,0.54-0.394,1.341-0.13,2.449l5.051,21.25c0.561,2.357,1.657,3.275,3.395,2.859l0.486-0.116l0.362,1.52L236.033,94.728z
			 M231.525,64.501c1.138,0.316,1.895,1.316,2.302,3.03l5.049,21.25c0.359,1.51,0.313,2.683-0.139,3.586
			c-0.161,0.32-0.371,0.6-0.63,0.84l6.997-1.662c-1.04-0.301-2.138-1.228-2.701-3.602l-5.051-21.25
			c-0.33-1.388-0.243-2.443,0.264-3.225c0.124-0.191,0.271-0.364,0.441-0.52L231.525,64.501z"/>
	</g>
	<g>
		<path fill="#303B4E" d="M277.225,56.489l0.901,7.557l-0.58,0.069c-1.001-6.893-8.456-6.091-9.081-6.016l-2.629,0.312l3.038,25.506
			c0.337,2.834,1.812,3.442,3.684,3.22l0.066,0.558l-10.876,1.296l-0.067-0.559c1.873-0.223,3.118-1.154,2.78-3.988l-3.039-25.506
			l-2.629,0.312c-1.382,0.165-8.014,1.042-7.369,7.977l-0.58,0.068l-0.9-7.557L277.225,56.489z"/>
		<path fill="#2E394C" d="M261.312,89.546l-0.187-1.551l0.497-0.06c0.9-0.107,1.519-0.38,1.891-0.835
			c0.447-0.546,0.595-1.396,0.452-2.598l-2.979-25.009l-2.133,0.253c-2.815,0.336-7.459,1.749-6.93,7.434l0.045,0.486l-1.56,0.184
			l-1.018-8.549l28.273-3.368l1.019,8.55l-1.561,0.187l-0.07-0.482c-0.715-4.919-4.928-5.653-7.376-5.653
			c-0.572,0-0.995,0.043-1.15,0.062l-2.133,0.253l2.979,25.009c0.297,2.5,1.505,2.821,2.523,2.821c0.195,0,0.397-0.014,0.604-0.039
			l0.497-0.059l0.185,1.551L261.312,89.546z M261.912,58.816l3.046,25.568c0.177,1.485-0.042,2.581-0.67,3.349
			c-0.161,0.196-0.347,0.368-0.559,0.517l6.787-0.809c-1.202-0.468-1.919-1.628-2.138-3.466l-3.045-25.567L261.912,58.816z
			 M250.5,60.176l0.536,4.503c0.464-2.34,1.959-4.085,4.349-5.085L250.5,60.176z M271.503,57.674
			c1.999,0.311,4.545,1.26,5.832,3.961l-0.547-4.59L271.503,57.674z"/>
	</g>
	<g>
		<path fill="#303B4E" d="M316.542,56.889l-0.018,0.562c-1.929-0.06-4.263-0.133-9.538,9.222l-3.621,6.68l-0.271,8.733
			c-0.108,3.501,1.348,4.324,3.232,4.384l-0.017,0.561l-10.949-0.339l0.017-0.562c1.884,0.059,3.389-0.674,3.498-4.175l0.236-7.607
			c-6.247-11.443-7.998-14.354-7.998-14.354c-1.917-3.348-3.129-3.385-4.607-3.518l0.016-0.519l11.532,0.357l-0.016,0.521
			c-1.256-0.04-4.081-0.214-1.184,4.852l6.261,10.968l3.62-6.637c1.618-2.936,4.312-8.736-1.744-8.924l0.018-0.562L316.542,56.889z"
			/>
		<path fill="#2E394C" d="M306.795,87.547l-11.949-0.37l0.048-1.562l0.684,0.018c1.394,0,2.698-0.447,2.799-3.693l0.232-7.472
			c-6.112-11.194-7.905-14.188-7.923-14.216c-1.751-3.059-2.748-3.147-4.126-3.27l-0.47-0.042l-0.082-0.48l0.032-1.018l12.531,0.388
			l-0.045,1.521l-0.5-0.016c-0.187-0.006-0.323-0.01-0.466-0.01c-0.749,0-1.179,0.139-1.352,0.438
			c-0.192,0.33-0.306,1.247,1.084,3.677l5.817,10.19l3.191-5.851c1.824-3.312,2.378-5.641,1.646-6.926
			c-0.449-0.789-1.448-1.212-2.968-1.259l-0.5-0.016l0.049-1.561l12.531,0.388l-0.049,1.562l-0.5-0.015
			c-1.81-0.06-3.989-0.072-9.087,8.968l-3.561,6.569l-0.268,8.614c-0.104,3.32,1.26,3.821,2.748,3.869l0.499,0.016L306.795,87.547z
			 M297.421,86.256l6.865,0.213c-1.217-0.7-1.762-2.141-1.692-4.398l0.275-8.843l-6.447-11.293
			c-1.285-2.246-1.628-3.731-1.081-4.675c0.126-0.218,0.288-0.386,0.471-0.515l-7.047-0.218c0.837,0.466,1.727,1.374,2.784,3.218
			c0.012,0.02,1.822,3.042,8.003,14.363l0.065,0.12l-0.24,7.743C299.305,84.231,298.675,85.634,297.421,86.256z M307.439,57.107
			c0.607,0.293,1.067,0.71,1.374,1.25c0.604,1.058,0.589,2.516-0.049,4.417c2.285-3.461,3.936-4.888,5.294-5.462L307.439,57.107z"/>
	</g>
	<g>
		<path fill="#303B4E" d="M344.694,86.551c-1.261,5.035,0.266,5.595,3.009,6.282l-0.136,0.546l-11.498-2.877l0.137-0.545
			c2.134,0.534,3.147-0.373,4.145-4.358l4.861-19.426c0.725-2.896,0.377-4.098-1.801-4.643l0.138-0.545l7.882,1.973
			c8.667,2.169,14.164,4.614,12.296,12.083c-1.859,7.426-7.859,6.995-16.526,4.826l-0.784-0.195L344.694,86.551z M347.336,79.321
			c5.313,1.33,9.7,2.294,11.643-5.469c1.994-7.973-2.589-9.075-7.684-10.35l-0.785-0.196l-3.958,15.818L347.336,79.321z"/>
		<path fill="#2E394C" d="M347.932,93.986l-12.469-3.12l0.38-1.516l0.484,0.122c0.335,0.083,0.62,0.125,0.871,0.125
			c1.036,0,1.806-0.674,2.667-4.12l4.861-19.426c0.356-1.425,0.42-2.322,0.204-2.909c-0.144-0.391-0.45-0.83-1.641-1.127
			l-0.486-0.122l0.383-1.515l8.365,2.094c7.853,1.965,14.729,4.414,12.66,12.689c-1.126,4.495-3.812,6.589-8.452,6.589
			c-2.165,0-4.762-0.418-8.681-1.399l-0.299-0.074l-1.601,6.396c-1.182,4.717,0.098,5.037,2.645,5.676l0.484,0.121L347.932,93.986z
			 M338.021,90.475l6.789,1.699c-1.081-0.9-1.421-2.472-0.602-5.745l1.737-6.942l-0.001,0l4.095-16.363l-4.712-1.18
			c0.242,0.242,0.421,0.525,0.541,0.852c0.293,0.797,0.241,1.843-0.172,3.497l-4.861,19.426
			C340.194,88.283,339.467,90.017,338.021,90.475z M353.79,80.641c0.71,0.074,1.358,0.109,1.97,0.109
			c4.164,0,6.472-1.798,7.481-5.832c1.244-4.973-0.803-7.59-5.655-9.548c2.004,1.495,3.037,3.966,1.878,8.603
			C358.431,78.103,356.657,80.209,353.79,80.641z M347.158,78.761l0.3,0.075c2.012,0.503,3.669,0.889,5.151,0.889h0.001
			c2.168,0,4.562-0.712,5.883-5.994c1.863-7.446-2.154-8.451-7.24-9.724l-0.38-0.095L347.158,78.761z"/>
	</g>
	<g>
		<path fill="#303B4E" d="M389.793,108.257l-3.16-1.287c-5.322-2.168-4.682-1.955-3.512-11.61c0.548-4.679-3.651-6.389-4.732-6.829
			l-1.954-0.797l-3.573,8.771c-1.126,2.763-0.57,4.017,1.177,4.727l-0.213,0.521l-9.313-3.793l0.212-0.521
			c1.788,0.729,2.905,0.25,4.274-3.114l8.125-19.942c1.011-2.482,0.49-3.349-1.339-4.094l0.213-0.521l7.941,3.236
			c8.274,3.371,12.457,6.195,9.732,12.882c-2.219,5.446-6.115,5.727-10.719,4.178c2.695,1.238,5.449,2.687,4.039,12.338
			c-0.492,3.347,1.965,4.816,3.014,5.336L389.793,108.257z M383.727,73.523l-1.289-0.525l-5.791,14.215l1.289,0.525
			c4.698,1.915,8.258,3.411,11.161-3.717C392.066,76.732,388.175,75.334,383.727,73.523z"/>
		<path fill="#2E394C" d="M390.067,108.909l-3.623-1.476c-5.112-2.083-5.059-2.494-4.169-9.372c0.106-0.818,0.225-1.734,0.35-2.761
			c0.334-2.853-1.154-4.975-4.425-6.306l-1.491-0.608l-3.385,8.308c-0.505,1.24-0.659,2.158-0.472,2.806
			c0.161,0.558,0.585,0.949,1.374,1.27l0.464,0.189l-0.592,1.446l-10.238-4.17l0.589-1.448l0.463,0.189
			c0.425,0.173,0.774,0.257,1.069,0.257c0.64,0,1.442-0.368,2.554-3.096l8.125-19.942c0.951-2.336,0.406-2.843-1.064-3.442
			l-0.464-0.188l0.592-1.447l8.403,3.424c4.185,1.705,7.347,3.263,9.177,5.329c1.95,2.202,2.214,4.809,0.83,8.205
			c-1.658,4.07-4.338,5.757-8.349,5.203c1.729,1.68,2.66,4.632,1.701,11.197c-0.392,2.662,1.274,4.088,2.741,4.816l0.415,0.206
			L390.067,108.909z M381.025,89.42c2.443,1.838,2.806,4.179,2.593,5.998c-0.126,1.033-0.244,1.951-0.351,2.771
			c-0.845,6.525-0.845,6.525,3.554,8.317l1.245,0.507c-1.292-1.216-1.843-2.828-1.57-4.687c1.382-9.453-1.229-10.651-3.753-11.811
			l0.281-0.708C382.379,89.763,381.712,89.622,381.025,89.42z M366.415,98.194l5.88,2.395c-0.183-0.244-0.316-0.514-0.403-0.812
			c-0.256-0.885-0.095-1.984,0.507-3.461l9.6-23.565l-4.276-1.742c0.607,0.818,0.533,1.918-0.136,3.561l-8.125,19.942
			C368.5,96.873,367.593,97.984,366.415,98.194z M383.818,89.813c1.276,0.38,2.388,0.565,3.38,0.565c2.799,0,4.708-1.488,6.01-4.683
			c1.24-3.045,1.039-5.254-0.653-7.165c-0.807-0.911-1.954-1.735-3.289-2.497c0.4,0.426,0.729,0.909,0.965,1.469
			c0.706,1.673,0.486,3.866-0.671,6.706C388.052,87.913,386.27,89.66,383.818,89.813z M377.298,86.939l0.826,0.336
			c2.074,0.845,3.8,1.548,5.333,1.548h0.001c1.463,0,3.374-0.567,5.176-4.991c1.052-2.582,1.272-4.524,0.676-5.94
			c-0.794-1.883-2.971-2.768-5.49-3.792l-1.107-0.451L377.298,86.939z"/>
	</g>
	<g>
		<path fill="#303B4E" d="M406.299,118.173c-8.462-5.094-8.998-13.342-4.558-20.715c4.418-7.336,12.205-11.128,20.668-6.034
			c8.461,5.095,8.751,13.75,4.333,21.087C422.302,119.882,414.76,123.268,406.299,118.173z M422.119,91.906
			c-4.578-2.755-9.84-1.936-15.954,8.215c-6.137,10.188-4.153,14.814,0.423,17.572c4.539,2.732,9.557,2.319,15.692-7.869
			C428.395,99.672,426.657,94.638,422.119,91.906z"/>
		<path fill="#2E394C" d="M414.275,121.108c-2.702,0-5.473-0.843-8.234-2.507c-4.112-2.476-6.654-5.88-7.352-9.845
			c-0.642-3.646,0.266-7.642,2.623-11.556c3.296-5.473,8.159-8.612,13.343-8.612c2.662,0,5.357,0.81,8.012,2.408
			c7.854,4.729,9.621,13.275,4.504,21.773C423.932,118.146,419.352,121.108,414.275,121.108z M410.824,119.624
			c5.983,1.658,11.703-1.085,15.489-7.371c4.548-7.552,3.019-13.597-0.643-17.559c0.578,1.002,0.92,2.119,1.021,3.347
			c0.266,3.21-1.037,7.148-3.983,12.04c-3.871,6.427-7.645,9.551-11.539,9.551l0,0C411.055,119.632,410.939,119.629,410.824,119.624
			z M417.68,91.045c-3.677,0-7.304,3.053-11.086,9.333c-6.555,10.882-3.309,14.74,0.252,16.886c1.529,0.92,2.943,1.368,4.324,1.368
			c3.514,0,7.008-2.965,10.682-9.066c2.795-4.641,4.089-8.49,3.845-11.442c-0.204-2.465-1.459-4.358-3.835-5.79
			C420.421,91.467,419.053,91.045,417.68,91.045z M414.655,89.588c-4.824,0-9.375,2.962-12.485,8.128
			c-2.231,3.705-3.095,7.463-2.496,10.867c0.407,2.316,1.506,4.432,3.229,6.262c-2.083-3.512-1.135-8.393,2.834-14.982
			c4.098-6.801,8.096-10.009,12.306-9.808C416.908,89.744,415.777,89.588,414.655,89.588z"/>
	</g>
	<g>
		<path fill="#303B4E" d="M432.293,136.021l-7.313-6.298l0.367-0.427c1.462,1.26,3.385,0.746,5.304-1.483l13.178-15.311
			c1.75-2.033,2.146-4.145,0.65-5.434l0.366-0.428l7.314,6.298c6.77,5.828,11.784,13.628,3.517,23.235
			C447.153,146.075,439.063,141.848,432.293,136.021z M451.792,113.366l-1.497-1.29l-19.131,22.229l1.496,1.288
			c3.675,3.165,9.564,7.95,18.933-2.934C460.708,122.07,455.535,116.587,451.792,113.366z"/>
		<path fill="#2E394C" d="M444.899,142.606c-5.129,0-9.837-3.542-12.933-6.207l-7.692-6.625l1.02-1.185l0.379,0.327
			c1.256,1.083,2.909,0.532,4.599-1.43l13.178-15.311c1.651-1.918,1.914-3.686,0.703-4.729l-0.378-0.325l1.017-1.188l7.694,6.625
			c9.343,8.044,10.511,15.875,3.569,23.94C452.567,140.552,448.814,142.606,444.899,142.606z M437.914,139.493
			c2.141,1.218,4.525,2.113,6.985,2.113c3.661,0,7.062-1.884,10.397-5.758c5.308-6.167,5.629-12.01,0.878-18.077
			c0.369,0.732,0.657,1.522,0.83,2.38c0.754,3.76-0.938,8.078-5.033,12.834c-4.015,4.664-7.737,6.932-11.381,6.932l0,0
			C439.637,139.917,438.744,139.757,437.914,139.493z M431.869,134.252l1.117,0.962c1.712,1.474,4.299,3.702,7.604,3.703
			c3.288,0,6.862-2.215,10.623-6.584c3.883-4.511,5.501-8.543,4.811-11.985c-0.573-2.855-2.626-4.94-4.559-6.603l-1.118-0.963
			L431.869,134.252z M426.564,130.427l4.18,3.6l0.041-0.048l19.172-22.276l-4.201-3.617c0.439,1.35-0.088,3.045-1.549,4.743
			l-13.178,15.311C429.541,129.869,427.959,130.665,426.564,130.427z"/>
	</g>
	<g>
		<path fill="#303B4E" d="M460.754,148.274l12.14-10.024c2.269-1.872,2.13-3.33,0.872-4.854l0.434-0.357l7.118,8.62l-0.435,0.359
			c-1.229-1.489-2.558-2.488-5.193-0.313l-12.406,10.244c-4.135,3.415-4.388,7.933-1.3,11.67c2.915,3.532,7.541,4.312,11.844,0.76
			l9.071-7.489c3.135-2.589,6.046-5.108,2.701-9.159l0.434-0.358l7.433,9.001l-0.434,0.358c-3.745-4.536-6.627-1.981-9.763,0.607
			l-9.071,7.49c-5.971,4.93-11.602,2.59-15.116-1.668C455.364,158.662,455.317,152.762,460.754,148.274z"/>
		<path fill="#2E394C" d="M467.356,168.099c-3.126,0-6.202-1.64-8.66-4.619c-1.984-2.402-2.921-5.101-2.71-7.806
			c0.226-2.876,1.764-5.569,4.449-7.786l12.14-10.024c0.983-0.811,1.5-1.541,1.58-2.229c0.068-0.586-0.178-1.197-0.775-1.92
			l-0.318-0.386l1.205-0.994l7.755,9.391l-1.206,0.996l-0.318-0.386c-0.688-0.835-1.312-1.391-2.111-1.391
			c-0.666,0-1.444,0.375-2.378,1.146l-12.406,10.244c-1.893,1.562-2.991,3.421-3.179,5.376c-0.183,1.896,0.491,3.829,1.946,5.59
			c1.536,1.861,3.555,2.886,5.685,2.886c1.831,0,3.717-0.759,5.455-2.194l9.071-7.489c3.558-2.938,5.51-4.973,2.634-8.455
			l-0.318-0.386l1.205-0.994l8.069,9.772l-1.205,0.996l-0.318-0.386c-1.283-1.554-2.512-2.31-3.757-2.31
			c-1.692,0-3.345,1.366-5.094,2.812l-9.279,7.662C472.199,167.129,469.79,168.099,467.356,168.099z M475.121,134.941
			c0.051,0.27,0.059,0.538,0.027,0.809c-0.111,0.958-0.745,1.902-1.937,2.886l-12.14,10.024c-2.472,2.04-3.886,4.492-4.089,7.092
			c-0.19,2.441,0.668,4.893,2.484,7.091c2.104,2.548,4.669,4.033,7.285,4.232c-1.941-0.335-3.737-1.421-5.155-3.138
			c-1.628-1.97-2.378-4.157-2.171-6.323c0.214-2.224,1.437-4.316,3.538-6.052l12.406-10.244c1.588-1.311,2.979-1.613,4.055-1.166
			L475.121,134.941z M487.344,149.746c0.62,1.89-0.083,3.473-1.244,4.85c1.618-0.937,3.402-1.19,5.098-0.184L487.344,149.746z"/>
	</g>
	<g>
		<path fill="#303B4E" d="M493.985,198.83l-5.508,3.784c-3.492-1.828-5.321-3.882-7.714-8.049
			c-4.628-8.061-2.582-16.481,5.782-21.284c8.439-4.844,16.669-2.322,21.298,5.737c2.303,4.012,3.604,7.148,3.1,10.697l-6.081,2.871
			l-0.291-0.505c5.562-4.643,4.596-9.627,2.784-12.782c-2.324-4.048-6.621-7.535-17.948-1.034
			c-11.515,6.61-10.414,12.088-8.155,16.021c1.81,3.152,6.451,6.806,12.442,4.039L493.985,198.83z"/>
		<path fill="#2E394C" d="M488.513,203.196l-0.267-0.14c-3.444-1.802-5.368-3.806-7.916-8.243c-2.357-4.105-3.06-8.338-2.031-12.24
			c1.043-3.958,3.809-7.321,7.998-9.726c2.919-1.675,5.857-2.525,8.733-2.525c5.414,0,10.118,3,13.247,8.447
			c2.339,4.076,3.684,7.34,3.161,11.017l-0.038,0.267l-6.741,3.183l-0.73-1.269l0.322-0.269c5.674-4.736,4.109-9.645,2.671-12.149
			c-1.083-1.886-2.98-4.394-6.943-4.394c-2.752,0-6.225,1.192-10.322,3.544c-5.027,2.886-8.062,5.826-9.017,8.737
			c-0.895,2.727,0.168,5.074,1.046,6.602c1.263,2.199,4.065,4.767,7.81,4.767c1.306,0,2.648-0.314,3.989-0.934l0.415-0.191
			l0.749,1.302L488.513,203.196z M483.05,197.246c1.595,2.229,3.153,3.574,5.395,4.784l3.845-2.641
			c-0.937,0.276-1.872,0.415-2.794,0.415C486.873,199.804,484.671,198.682,483.05,197.246z M509.06,182.388
			c0.51,2.529,0.18,5.867-3.142,9.146l4.564-2.155C510.759,187.021,510.21,184.854,509.06,182.388z M495.03,171.322
			c-2.699,0-5.47,0.805-8.235,2.392c-3.952,2.269-6.556,5.42-7.528,9.114c-0.582,2.208-0.566,4.537,0.032,6.891
			c-0.019-0.815,0.092-1.685,0.391-2.596c1.049-3.197,4.146-6.237,9.469-9.292c4.251-2.44,7.892-3.677,10.82-3.677
			c1.868,0,3.326,0.485,4.479,1.204C501.826,172.729,498.589,171.322,495.03,171.322z"/>
	</g>
	<g>
		<path fill="#303B4E" d="M527.262,224.376l-7.132,2.658l-0.204-0.547c6.462-2.599,3.923-9.655,3.704-10.245l-0.926-2.481
			l-24.069,8.97c-2.675,0.996-2.918,2.572-2.26,4.338l-0.526,0.197l-3.826-10.265l0.525-0.196c0.659,1.767,1.859,2.757,4.534,1.759
			l24.07-8.969l-0.926-2.482c-0.486-1.304-2.904-7.542-9.49-5.279l-0.204-0.547l7.132-2.657L527.262,224.376z"/>
		<path fill="#2E394C" d="M495.555,227.91l-4.176-11.202l1.463-0.545l0.175,0.468c0.693,1.859,1.851,2.227,3.891,1.466l23.602-8.794
			l-0.751-2.014c-0.758-2.033-2.586-5.444-6.312-5.444c-0.796,0-1.652,0.155-2.547,0.462l-0.46,0.159l-0.55-1.472l8.069-3.006
			l9.947,26.682l-8.069,3.007l-0.549-1.472l0.452-0.182c5.785-2.327,3.865-8.411,3.422-9.607l-0.751-2.012L498.81,223.2
			c-1.114,0.415-1.818,0.955-2.094,1.606c-0.233,0.55-0.191,1.233,0.128,2.089l0.174,0.468L495.555,227.91z M524.755,219.083
			c0.18,2.066-0.156,4.739-2.461,6.611l4.324-1.612L524.755,219.083z M493.21,218.757l2.385,6.396
			c0.034-0.257,0.101-0.502,0.2-0.736c0.393-0.928,1.265-1.632,2.665-2.154l24.128-8.992l-1.203-3.228l-0.058,0.022l-24.07,8.969
			C495.485,219.695,494.165,219.597,493.21,218.757z M513.445,200.845c2.248,0,4.186,1.062,5.647,3.049l-1.723-4.621l-4.234,1.578
			C513.239,200.847,513.343,200.845,513.445,200.845z"/>
	</g>
	<g>
		<path fill="#303B4E" d="M502.031,251.64c-1.484-7.166,0.203-10.955,0.203-10.955l8.131-1.685l0.11,0.527
			c-5.066,1.556-9.442,4.526-7.894,12c1.384,6.684,8.723,6.08,11.173,0.207l3.019-8.238c1.804-4.73,4.829-9.53,10.526-7.179
			c0,0,3.75,1.47,5.016,7.581c1.32,6.375,0.096,10.481,0.096,10.481l-7.115,1.475l-0.128-0.615
			c4.068-1.257,8.118-3.884,6.597-11.226c-0.982-4.748-7.616-7.133-10.392,0.365l-3.113,8.211
			c-2.507,6.664-7.006,8.604-10.953,7.038C507.307,259.625,503.442,258.455,502.031,251.64z"/>
		<path fill="#2E394C" d="M509.908,260.637c-0.934,0-1.871-0.184-2.786-0.547c-0.13-0.038-4.126-1.324-5.58-8.349
			c-1.5-7.241,0.164-11.099,0.235-11.26l0.104-0.234l8.87-1.838l0.307,1.462l-0.437,0.134c-6.448,1.98-8.776,5.502-7.551,11.42
			c0.572,2.765,2.288,4.415,4.588,4.415c2.333,0,4.545-1.688,5.634-4.299l3.011-8.217c2.086-5.468,4.753-8.124,8.158-8.124
			c0.957,0,1.977,0.22,3.028,0.654c0.155,0.061,4.009,1.639,5.314,7.941c1.331,6.425,0.137,10.553,0.086,10.726l-0.086,0.286
			l-7.896,1.636l-0.322-1.549l0.435-0.134c3.413-1.055,7.775-3.307,6.255-10.647c-0.478-2.305-2.434-4.042-4.552-4.042
			c-2.049,0-3.828,1.632-4.882,4.479l-3.114,8.215C516.846,257.767,513.631,260.637,509.908,260.637z M503.59,254.91
			c1.594,3.506,3.833,4.228,3.861,4.237c4.242,1.673,8.188-1.015,10.341-6.735l3.113-8.212c1.206-3.258,3.327-5.128,5.818-5.128
			c1.625,0,3.169,0.824,4.232,2.123c-1.478-3.421-3.725-4.366-3.841-4.412c-4.271-1.763-7.419,0.451-9.875,6.893l-3.016,8.231
			c-1.254,3.005-3.827,4.935-6.565,4.935C506.024,256.84,504.61,256.143,503.59,254.91z M532.414,248.924
			c-0.521,2.666-2.169,4.644-4.97,5.972l4.559-0.944C532.154,253.292,532.488,251.513,532.414,248.924z M502.605,241.119
			c-0.217,0.628-0.758,2.525-0.672,5.584c0.648-3.469,3.048-5.411,5.617-6.609L502.605,241.119z"/>
	</g>
</g>
<g>
	<g>
		<path fill="#FFFFFF" d="M100.404,232.715l14.358,3.523l-5.563,22.667l-5.132-1.259l1.05-4.277
			c-1.736,0.913-3.749,1.639-6.041,2.177c-2.292,0.539-4.68,0.503-7.164-0.106c-2.485-0.61-4.646-1.658-6.484-3.146
			c-1.837-1.487-3.285-3.332-4.342-5.535c-1.058-2.203-1.696-4.702-1.917-7.499c-0.221-2.796,0.064-5.803,0.854-9.021
			c0.84-3.422,2.044-6.44,3.615-9.057c1.57-2.616,3.442-4.747,5.618-6.395c2.174-1.647,4.613-2.744,7.317-3.289
			c2.703-0.545,5.603-0.439,8.699,0.321c2.688,0.66,4.98,1.568,6.878,2.724c1.896,1.157,3.637,2.47,5.22,3.937l-3.323,4.302
			c-1.481-1.356-3.022-2.556-4.624-3.596c-1.602-1.041-3.502-1.832-5.702-2.371c-1.915-0.47-3.782-0.518-5.601-0.144
			c-1.82,0.375-3.505,1.17-5.056,2.387c-1.552,1.218-2.935,2.854-4.152,4.909c-1.217,2.056-2.175,4.508-2.875,7.359
			c-0.629,2.566-0.887,4.933-0.77,7.099c0.116,2.167,0.552,4.087,1.306,5.762c0.755,1.675,1.807,3.067,3.154,4.175
			c1.347,1.108,2.938,1.887,4.771,2.336c1.14,0.28,2.252,0.413,3.335,0.398c1.083-0.015,2.105-0.131,3.066-0.349
			s1.858-0.493,2.697-0.828c0.837-0.334,1.586-0.701,2.246-1.101l2.294-9.348l-8.859-2.174L100.404,232.715z"/>
		<path fill="#FFFFFF" d="M109.565,259.511l-6.104-1.498l0.914-3.721c-1.54,0.709-3.279,1.294-5.185,1.742
			c-2.358,0.554-4.849,0.518-7.397-0.107c-2.545-0.625-4.792-1.716-6.679-3.243c-1.888-1.528-3.395-3.449-4.478-5.708
			c-1.079-2.248-1.74-4.831-1.965-7.676c-0.224-2.836,0.068-5.925,0.866-9.18c0.849-3.456,2.084-6.55,3.672-9.195
			c1.596-2.658,3.528-4.857,5.745-6.536c2.225-1.686,4.755-2.823,7.521-3.381c2.762-0.557,5.764-0.449,8.917,0.326
			c2.723,0.668,5.084,1.604,7.02,2.782c1.917,1.17,3.7,2.515,5.3,3.998l0.335,0.311l-3.935,5.094l-0.401-0.367
			c-1.455-1.333-2.988-2.525-4.558-3.545c-1.547-1.006-3.414-1.781-5.548-2.305c-1.834-0.451-3.643-0.498-5.381-0.14
			c-1.734,0.357-3.365,1.127-4.848,2.291c-1.494,1.172-2.85,2.777-4.03,4.77c-1.187,2.004-2.135,4.435-2.82,7.224
			c-0.615,2.508-0.87,4.848-0.756,6.953c0.111,2.093,0.537,3.971,1.263,5.584c0.719,1.596,1.734,2.94,3.016,3.994
			c1.283,1.055,2.821,1.808,4.572,2.237c1.04,0.255,2.066,0.385,3.05,0.385l0.159-0.001c1.042-0.014,2.039-0.127,2.962-0.337
			c0.932-0.211,1.814-0.482,2.622-0.805c0.736-0.293,1.406-0.615,1.996-0.959l2.125-8.659l-8.859-2.174l1.363-5.553l15.329,3.762
			L109.565,259.511z M104.672,257.281l4.161,1.021l5.324-21.696l-13.387-3.285l-0.886,3.611l8.859,2.174l-2.463,10.035l-0.177,0.107
			c-0.679,0.411-1.459,0.794-2.32,1.137c-0.856,0.342-1.788,0.628-2.771,0.852c-0.991,0.225-2.058,0.346-3.169,0.361l-0.173,0.001
			c-1.064,0-2.171-0.139-3.289-0.414c-1.898-0.465-3.57-1.285-4.969-2.436c-1.401-1.152-2.509-2.618-3.293-4.355
			c-0.777-1.726-1.231-3.725-1.35-5.941c-0.119-2.203,0.145-4.641,0.784-7.245c0.708-2.884,1.694-5.406,2.931-7.495
			c1.243-2.1,2.681-3.797,4.273-5.047c1.605-1.259,3.376-2.095,5.264-2.483c1.883-0.387,3.842-0.337,5.82,0.147
			c2.244,0.551,4.213,1.371,5.855,2.438c1.471,0.957,2.911,2.059,4.286,3.283l2.711-3.511c-1.463-1.316-3.077-2.515-4.803-3.569
			c-1.848-1.125-4.114-2.021-6.737-2.665c-3.009-0.74-5.863-0.846-8.48-0.316c-2.617,0.528-5.01,1.604-7.115,3.197
			c-2.114,1.601-3.962,3.705-5.491,6.253c-1.537,2.56-2.734,5.56-3.559,8.918c-0.773,3.152-1.056,6.134-0.84,8.863
			c0.215,2.722,0.844,5.186,1.869,7.322c1.019,2.125,2.434,3.929,4.206,5.363s3.887,2.46,6.289,3.049
			c2.395,0.587,4.725,0.622,6.931,0.104c2.237-0.526,4.229-1.243,5.922-2.133l0.983-0.517L104.672,257.281z"/>
	</g>
	<g>
		<path fill="#FFFFFF" d="M157.393,271.057c-1.955-0.48-3.409-1.247-4.359-2.3c-0.951-1.053-1.47-2.369-1.558-3.945
			c-1.786,1.116-3.717,1.905-5.796,2.368c-2.079,0.461-4.217,0.422-6.417-0.118c-1.385-0.34-2.667-0.88-3.844-1.623
			c-1.178-0.743-2.152-1.705-2.919-2.888c-0.769-1.181-1.263-2.598-1.483-4.25c-0.222-1.651-0.067-3.557,0.463-5.717l5.068-20.651
			l5.499,1.35l-4.888,19.918c-0.61,2.485-0.558,4.517,0.156,6.095c0.713,1.579,2.109,2.623,4.187,3.133
			c1.711,0.42,3.422,0.483,5.135,0.191c1.712-0.292,3.32-0.858,4.822-1.699l5.863-23.89l5.499,1.35l-5.773,23.523
			c-0.22,0.896-0.295,1.644-0.227,2.244c0.068,0.6,0.228,1.093,0.479,1.478c0.25,0.386,0.584,0.694,1.003,0.927
			c0.418,0.232,0.851,0.403,1.299,0.513L157.393,271.057z"/>
		<path fill="#FFFFFF" d="M157.645,271.634l-0.371-0.091c-2.046-0.502-3.597-1.327-4.611-2.451c-0.858-0.95-1.396-2.108-1.603-3.45
			c-1.639,0.931-3.409,1.611-5.271,2.026c-2.142,0.476-4.38,0.437-6.644-0.121c-1.432-0.351-2.775-0.918-3.992-1.686
			c-1.236-0.779-2.27-1.801-3.072-3.039c-0.806-1.238-1.331-2.737-1.559-4.456c-0.229-1.704-0.07-3.69,0.473-5.902l5.188-21.137
			l6.47,1.588l-5.007,20.404c-0.58,2.363-0.537,4.304,0.126,5.77c0.653,1.444,1.912,2.377,3.85,2.854
			c1.637,0.401,3.294,0.463,4.932,0.184c1.578-0.27,3.081-0.787,4.473-1.539l5.93-24.163l6.47,1.588l-5.893,24.008
			c-0.204,0.835-0.277,1.531-0.215,2.068c0.06,0.52,0.194,0.944,0.402,1.262c0.208,0.32,0.478,0.569,0.827,0.763
			c0.377,0.209,0.773,0.366,1.176,0.464l0.635,0.156L157.645,271.634z M151.928,263.939l0.047,0.844
			c0.081,1.453,0.562,2.677,1.43,3.638c0.818,0.907,2.074,1.597,3.738,2.054l1.725-3.115c-0.275-0.102-0.545-0.226-0.807-0.372
			c-0.489-0.271-0.886-0.638-1.18-1.091c-0.292-0.448-0.48-1.018-0.557-1.694c-0.077-0.665,0.001-1.456,0.237-2.42l5.654-23.038
			l-4.528-1.111l-5.795,23.615l-0.189,0.106c-1.543,0.864-3.22,1.455-4.982,1.755c-1.772,0.302-3.57,0.237-5.338-0.199
			c-2.225-0.546-3.747-1.694-4.523-3.412c-0.758-1.675-0.821-3.835-0.186-6.42l4.768-19.433l-4.527-1.111l-4.949,20.166
			c-0.512,2.09-0.665,3.951-0.453,5.531c0.209,1.57,0.682,2.931,1.406,4.043c0.724,1.116,1.655,2.036,2.767,2.738
			c1.125,0.709,2.369,1.235,3.697,1.56c2.115,0.52,4.194,0.559,6.189,0.115c2.012-0.447,3.91-1.223,5.639-2.303L151.928,263.939z"/>
	</g>
	<g>
		<path fill="#FFFFFF" d="M178.062,259.158c0.58-2.362,1.489-4.482,2.727-6.36c1.238-1.876,2.704-3.406,4.397-4.588
			c1.693-1.182,3.572-1.974,5.636-2.374c2.062-0.401,4.194-0.332,6.394,0.208c1.833,0.45,3.415,1.173,4.747,2.169
			c1.332,0.997,2.433,2.098,3.303,3.305l0.63-2.566l5.01,1.229l-5.908,24.073c-0.38,1.548-0.251,2.649,0.388,3.302
			c0.638,0.654,1.406,1.09,2.302,1.31l-2.21,3.992c-3.911-0.959-5.884-3.128-5.918-6.505c-0.649,0.532-1.367,1.036-2.152,1.512
			c-0.788,0.478-1.647,0.86-2.582,1.148c-0.935,0.289-1.947,0.45-3.035,0.486c-1.088,0.034-2.244-0.097-3.465-0.397
			c-1.997-0.49-3.765-1.335-5.306-2.533c-1.542-1.198-2.778-2.667-3.711-4.408c-0.934-1.741-1.53-3.712-1.788-5.913
			C177.261,264.046,177.442,261.684,178.062,259.158z M190.747,274.514c1.548,0.38,3.104,0.373,4.669-0.021
			c1.564-0.394,2.959-1.065,4.187-2.017l4.184-17.047c-0.91-1.042-1.97-1.962-3.178-2.755c-1.209-0.792-2.546-1.37-4.013-1.729
			s-2.881-0.404-4.242-0.134c-1.362,0.271-2.609,0.817-3.739,1.641c-1.131,0.823-2.12,1.909-2.969,3.255s-1.488,2.896-1.918,4.647
			c-0.419,1.71-0.563,3.35-0.429,4.915c0.134,1.566,0.521,2.978,1.163,4.236c0.641,1.259,1.492,2.321,2.554,3.186
			C188.077,273.557,189.321,274.164,190.747,274.514z"/>
		<path fill="#FFFFFF" d="M205.729,283.434l-0.371-0.091c-3.762-0.923-5.855-2.946-6.236-6.021c-0.458,0.336-0.946,0.66-1.457,0.969
			c-0.817,0.496-1.724,0.899-2.693,1.198c-0.971,0.3-2.036,0.471-3.166,0.508c-1.139,0.039-2.345-0.103-3.601-0.411
			c-2.054-0.504-3.903-1.387-5.494-2.624c-1.589-1.234-2.883-2.771-3.846-4.567c-0.959-1.789-1.579-3.838-1.844-6.091
			c-0.265-2.25-0.079-4.695,0.553-7.267c0.59-2.406,1.53-4.598,2.794-6.516c1.268-1.922,2.792-3.511,4.529-4.723
			c1.745-1.218,3.705-2.043,5.827-2.455c2.123-0.414,4.349-0.342,6.608,0.214c1.889,0.463,3.546,1.222,4.927,2.254
			c1.058,0.792,1.984,1.659,2.764,2.585l0.503-2.052l5.981,1.468l-6.027,24.559c-0.334,1.363-0.247,2.315,0.26,2.833
			c0.577,0.591,1.252,0.975,2.064,1.175l0.635,0.156L205.729,283.434z M200.049,275.305l0.011,1.042
			c0.031,3.041,1.723,4.983,5.168,5.928l1.725-3.114c-0.729-0.272-1.375-0.693-1.925-1.257c-0.764-0.78-0.938-2.049-0.516-3.77
			l5.789-23.588l-4.039-0.991l-0.769,3.132l-0.633-0.878c-0.835-1.159-1.911-2.234-3.197-3.197
			c-1.272-0.952-2.809-1.652-4.566-2.083c-2.119-0.522-4.198-0.589-6.18-0.204c-1.983,0.384-3.815,1.156-5.445,2.293
			c-1.633,1.14-3.068,2.638-4.266,4.454c-1.201,1.822-2.096,3.909-2.658,6.204c-0.603,2.456-0.782,4.782-0.531,6.912
			c0.25,2.128,0.833,4.058,1.732,5.735c0.896,1.672,2.1,3.102,3.578,4.25c1.48,1.15,3.202,1.972,5.119,2.443
			c1.168,0.287,2.288,0.409,3.33,0.383c1.04-0.035,2.017-0.191,2.903-0.464c0.891-0.275,1.722-0.645,2.47-1.099
			c0.761-0.46,1.466-0.956,2.095-1.471L200.049,275.305z M193.034,275.294C193.034,275.294,193.034,275.294,193.034,275.294
			c-0.801,0-1.611-0.099-2.406-0.294c-1.494-0.367-2.815-1.013-3.928-1.921c-1.111-0.904-2.014-2.03-2.684-3.347
			c-0.667-1.309-1.076-2.796-1.215-4.42c-0.138-1.611,0.01-3.319,0.441-5.077c0.442-1.797,1.108-3.41,1.981-4.794
			c0.88-1.396,1.922-2.538,3.098-3.393c1.183-0.862,2.508-1.444,3.936-1.727c1.426-0.284,2.929-0.237,4.458,0.139
			c1.513,0.371,2.915,0.976,4.167,1.797c1.24,0.814,2.344,1.771,3.281,2.845l0.171,0.195l-4.287,17.469l-0.137,0.106
			c-1.275,0.989-2.746,1.698-4.372,2.107C194.706,275.188,193.863,275.294,193.034,275.294z M194.136,251.137
			c-0.568,0-1.135,0.055-1.685,0.164c-1.285,0.255-2.476,0.778-3.542,1.555c-1.072,0.78-2.028,1.829-2.84,3.118
			c-0.815,1.293-1.439,2.808-1.855,4.5c-0.405,1.651-0.545,3.251-0.416,4.753c0.128,1.495,0.501,2.858,1.11,4.052
			c0.606,1.191,1.422,2.209,2.425,3.025c0.997,0.813,2.186,1.394,3.534,1.725c1.461,0.358,2.948,0.353,4.428-0.02
			c1.433-0.36,2.732-0.974,3.866-1.823l4.079-16.621c-0.839-0.927-1.815-1.758-2.904-2.473c-1.157-0.758-2.455-1.318-3.857-1.662
			C195.683,251.235,194.895,251.137,194.136,251.137z"/>
	</g>
	<g>
		<path fill="#FFFFFF" d="M248.765,265.107c-0.695-0.516-1.571-0.903-2.63-1.163c-1.141-0.28-2.312-0.309-3.51-0.084
			c-1.2,0.224-2.337,0.722-3.412,1.494c-1.075,0.773-2.055,1.86-2.938,3.263c-0.885,1.402-1.581,3.143-2.09,5.22l-3.644,14.847
			l-5.499-1.35l7.797-31.771l5.315,1.305l-1.694,6.904c0.606-0.887,1.33-1.724,2.171-2.511c0.841-0.787,1.764-1.424,2.769-1.912
			c1.004-0.487,2.11-0.81,3.314-0.968s2.479-0.072,3.824,0.258c0.61,0.15,1.204,0.328,1.78,0.534
			c0.575,0.206,1.072,0.425,1.49,0.657L248.765,265.107z"/>
		<path fill="#FFFFFF" d="M230.908,289.29l-6.47-1.588l8.036-32.743l6.287,1.543l-1.277,5.202c0.257-0.275,0.526-0.545,0.807-0.808
			c0.875-0.818,1.848-1.49,2.893-1.997c1.048-0.509,2.215-0.85,3.468-1.014c1.261-0.167,2.608-0.075,4.008,0.268
			c0.625,0.154,1.24,0.338,1.829,0.549c0.6,0.215,1.126,0.448,1.564,0.691l0.444,0.247l-3.578,6.204l-0.451-0.334
			c-0.638-0.473-1.463-0.836-2.451-1.079c-1.068-0.261-2.176-0.288-3.298-0.078c-1.123,0.209-2.203,0.684-3.212,1.409
			c-1.018,0.732-1.962,1.783-2.808,3.124c-0.85,1.348-1.532,3.054-2.028,5.072L230.908,289.29z M225.647,286.969l4.528,1.111
			l3.524-14.361c0.521-2.123,1.245-3.929,2.153-5.367c0.914-1.45,1.946-2.595,3.069-3.402c1.129-0.812,2.344-1.344,3.612-1.58
			c1.26-0.237,2.514-0.207,3.721,0.09c0.898,0.22,1.684,0.534,2.345,0.936l2.513-4.358c-0.289-0.135-0.611-0.267-0.963-0.393
			c-0.557-0.199-1.139-0.374-1.73-0.52c-1.278-0.312-2.502-0.396-3.64-0.248c-1.146,0.15-2.209,0.46-3.161,0.922
			c-0.955,0.464-1.845,1.079-2.646,1.828c-0.811,0.76-1.518,1.577-2.1,2.428l-1.555,2.275l2.232-9.095l-4.344-1.066L225.647,286.969
			z"/>
	</g>
	<g>
		<path fill="#FFFFFF" d="M260.3,279.339c0.58-2.362,1.489-4.482,2.727-6.359c1.238-1.876,2.704-3.407,4.397-4.589
			c1.693-1.182,3.571-1.974,5.635-2.374c2.063-0.401,4.194-0.331,6.395,0.208c1.833,0.45,3.415,1.173,4.747,2.169
			c1.332,0.997,2.433,2.099,3.303,3.305l0.63-2.566l5.01,1.229l-5.908,24.073c-0.38,1.548-0.251,2.648,0.389,3.301
			c0.638,0.654,1.406,1.09,2.302,1.31l-2.21,3.992c-3.91-0.959-5.883-3.128-5.918-6.505c-0.649,0.532-1.366,1.036-2.152,1.512
			c-0.787,0.478-1.647,0.859-2.582,1.148c-0.935,0.289-1.946,0.451-3.034,0.486c-1.088,0.035-2.244-0.097-3.465-0.397
			c-1.997-0.49-3.765-1.335-5.306-2.533c-1.542-1.198-2.778-2.668-3.711-4.409c-0.933-1.74-1.529-3.712-1.788-5.913
			C259.499,284.228,259.68,281.866,260.3,279.339z M272.985,294.696c1.548,0.38,3.104,0.373,4.669-0.021
			c1.564-0.394,2.96-1.065,4.188-2.017l4.183-17.047c-0.91-1.043-1.97-1.962-3.178-2.756c-1.209-0.792-2.547-1.37-4.013-1.729
			s-2.881-0.404-4.242-0.134c-1.362,0.271-2.609,0.817-3.739,1.641c-1.131,0.824-2.12,1.909-2.969,3.255
			c-0.849,1.346-1.488,2.896-1.917,4.647c-0.42,1.71-0.563,3.349-0.429,4.915c0.134,1.566,0.521,2.978,1.162,4.237
			s1.493,2.321,2.555,3.186C270.315,293.739,271.559,294.346,272.985,294.696z"/>
		<path fill="#FFFFFF" d="M287.968,303.616l-0.372-0.092c-3.762-0.922-5.855-2.945-6.236-6.02c-0.458,0.335-0.945,0.66-1.457,0.969
			c-0.815,0.495-1.722,0.898-2.693,1.198c-0.973,0.301-2.038,0.472-3.165,0.508c-1.142,0.039-2.343-0.102-3.601-0.411
			c-2.053-0.503-3.901-1.386-5.494-2.623c-1.588-1.234-2.882-2.771-3.845-4.567c-0.959-1.788-1.579-3.837-1.844-6.091
			c-0.265-2.247-0.08-4.692,0.552-7.267c0.592-2.408,1.532-4.6,2.795-6.516c1.268-1.922,2.792-3.511,4.529-4.724
			c1.745-1.218,3.705-2.044,5.826-2.455c2.123-0.413,4.347-0.341,6.609,0.213c1.89,0.464,3.547,1.223,4.927,2.254
			c1.059,0.792,1.984,1.659,2.764,2.585l0.503-2.051l5.981,1.468l-6.028,24.559c-0.334,1.362-0.247,2.315,0.26,2.832
			c0.569,0.583,1.263,0.978,2.064,1.174l0.635,0.156L287.968,303.616z M282.287,295.486l0.011,1.042
			c0.031,3.042,1.723,4.984,5.168,5.929l1.725-3.114c-0.729-0.272-1.374-0.693-1.924-1.257c-0.765-0.78-0.938-2.049-0.517-3.77
			l5.789-23.588l-4.039-0.991l-0.769,3.132l-0.633-0.878c-0.835-1.159-1.91-2.234-3.197-3.197c-1.271-0.951-2.807-1.652-4.566-2.084
			c-2.121-0.52-4.199-0.587-6.18-0.203c-1.983,0.384-3.815,1.156-5.444,2.293c-1.633,1.14-3.068,2.638-4.266,4.454
			c-1.2,1.82-2.095,3.907-2.659,6.203c-0.603,2.458-0.781,4.784-0.53,6.912c0.25,2.129,0.833,4.058,1.731,5.735
			c0.897,1.673,2.101,3.103,3.578,4.25c1.481,1.15,3.203,1.972,5.119,2.442c1.171,0.288,2.291,0.416,3.33,0.383
			c1.038-0.034,2.015-0.19,2.903-0.464c0.893-0.276,1.724-0.646,2.47-1.098c0.763-0.462,1.467-0.957,2.095-1.472L282.287,295.486z
			 M275.272,295.476L275.272,295.476c-0.801,0-1.611-0.099-2.406-0.294c-1.494-0.367-2.815-1.013-3.928-1.92
			c-1.111-0.905-2.015-2.031-2.684-3.346c-0.667-1.311-1.076-2.798-1.215-4.421c-0.139-1.612,0.01-3.32,0.441-5.076
			c0.44-1.797,1.107-3.41,1.98-4.795c0.88-1.396,1.922-2.537,3.098-3.393c1.182-0.862,2.506-1.443,3.936-1.727
			c1.426-0.284,2.929-0.237,4.459,0.139c1.513,0.371,2.915,0.976,4.168,1.796c1.241,0.815,2.345,1.772,3.281,2.846l0.17,0.196
			l-4.287,17.468l-0.138,0.106c-1.275,0.989-2.746,1.697-4.372,2.106C276.944,295.37,276.102,295.476,275.272,295.476z
			 M276.375,271.318c-0.568,0-1.136,0.056-1.685,0.165c-1.286,0.255-2.478,0.778-3.542,1.554c-1.073,0.781-2.028,1.83-2.841,3.118
			c-0.815,1.294-1.439,2.808-1.854,4.5c-0.405,1.65-0.545,3.249-0.417,4.752c0.128,1.495,0.501,2.858,1.109,4.053
			c0.606,1.19,1.422,2.208,2.425,3.025c0.997,0.813,2.186,1.394,3.534,1.725c1.463,0.359,2.951,0.353,4.428-0.02
			c1.433-0.361,2.733-0.973,3.866-1.822l4.078-16.621c-0.838-0.927-1.814-1.758-2.904-2.474c-1.158-0.758-2.456-1.318-3.858-1.662
			C277.921,271.417,277.134,271.318,276.375,271.318z"/>
	</g>
	<g>
		<path fill="#FFFFFF" d="M319.089,282.365c1.56-1.431,3.368-2.509,5.426-3.235c2.057-0.726,4.307-0.79,6.751-0.19
			c3.584,0.88,5.998,2.617,7.24,5.21c1.241,2.594,1.428,5.662,0.558,9.206l-5.083,20.712l-5.498-1.35l4.933-20.102
			c0.569-2.322,0.493-4.294-0.231-5.919c-0.725-1.625-2.063-2.676-4.02-3.156c-0.937-0.23-1.896-0.282-2.876-0.156
			c-0.981,0.127-1.965,0.393-2.949,0.799c-0.985,0.406-1.935,0.929-2.847,1.568c-0.913,0.64-1.765,1.338-2.555,2.094l-5.157,21.018
			l-5.499-1.349l7.797-31.772l5.314,1.304L319.089,282.365z"/>
		<path fill="#FFFFFF" d="M334.347,314.674l-6.469-1.588l5.052-20.587c0.54-2.201,0.472-4.084-0.203-5.596
			c-0.664-1.489-1.868-2.429-3.682-2.875c-0.873-0.214-1.776-0.263-2.693-0.145c-0.936,0.121-1.885,0.378-2.822,0.765
			c-0.945,0.389-1.871,0.899-2.75,1.516c-0.848,0.594-1.651,1.248-2.392,1.946l-5.241,21.36l-6.47-1.587l8.035-32.743l6.285,1.543
			l-1.062,4.328c1.322-0.996,2.802-1.784,4.413-2.353c2.139-0.755,4.511-0.823,7.036-0.204c3.72,0.914,6.268,2.757,7.572,5.48
			c1.287,2.69,1.486,5.9,0.592,9.541L334.347,314.674z M329.087,312.354l4.527,1.111l4.964-20.227
			c0.837-3.411,0.661-6.396-0.523-8.871c-1.169-2.44-3.493-4.102-6.908-4.941c-2.338-0.573-4.509-0.514-6.466,0.176
			c-1.983,0.699-3.751,1.753-5.254,3.132l-1.217,1.116l1.578-6.434l-4.344-1.065l-7.559,30.801l4.528,1.11l5.072-20.674l0.105-0.101
			c0.806-0.771,1.685-1.491,2.613-2.142c0.939-0.659,1.93-1.204,2.943-1.622c1.018-0.42,2.053-0.7,3.075-0.833
			c1.038-0.132,2.068-0.077,3.06,0.167c2.104,0.516,3.569,1.673,4.357,3.438c0.767,1.719,0.854,3.819,0.26,6.242L329.087,312.354z"
			/>
	</g>
	<g>
		<path fill="#FFFFFF" d="M366.925,279.076l4.216,1.035l-2.459,10.02l8.798,2.159l-1.169,4.766l-8.799-2.16l-3.764,15.336
			c-0.29,1.182-0.402,2.212-0.337,3.092c0.064,0.88,0.261,1.618,0.589,2.217c0.328,0.6,0.779,1.089,1.357,1.467
			c0.576,0.38,1.209,0.653,1.902,0.824c1.018,0.249,2.016,0.321,2.992,0.216c0.976-0.106,1.926-0.283,2.852-0.531l0.447,4.773
			c-0.935,0.289-2.152,0.498-3.651,0.626c-1.5,0.128-3.004,0.008-4.511-0.361c-3.056-0.75-5.224-2.34-6.505-4.771
			c-1.283-2.43-1.459-5.54-0.529-9.328l3.658-14.908l-5.499-1.35l1.17-4.766l5.621,1.379L366.925,279.076z"/>
		<path fill="#FFFFFF" d="M368.739,323.466c-1.15,0-2.318-0.144-3.47-0.426c-3.187-0.782-5.483-2.472-6.828-5.023
			c-1.336-2.529-1.528-5.786-0.572-9.681l3.539-14.422l-5.499-1.35l1.408-5.737l5.674,1.393l3.62-9.735l5.134,1.26l-2.459,10.02
			l8.798,2.159l-1.407,5.737l-8.799-2.16l-3.645,14.85c-0.275,1.125-0.385,2.112-0.323,2.936c0.059,0.804,0.236,1.48,0.528,2.014
			s0.682,0.955,1.192,1.288c0.525,0.347,1.113,0.601,1.749,0.758c0.958,0.233,1.903,0.302,2.818,0.204
			c0.946-0.104,1.881-0.277,2.775-0.518l0.572-0.152l0.541,5.767l-0.389,0.12c-0.965,0.299-2.229,0.517-3.756,0.646
			C369.541,323.448,369.14,323.466,368.739,323.466z M357.118,291.832l5.499,1.35l-3.777,15.393
			c-0.896,3.649-0.732,6.669,0.486,8.976c1.205,2.288,3.285,3.809,6.182,4.52c1.446,0.354,2.905,0.47,4.349,0.349
			c1.255-0.107,2.314-0.273,3.158-0.495l-0.354-3.779c-0.767,0.18-1.557,0.314-2.354,0.401c-1.03,0.111-2.092,0.036-3.166-0.228
			c-0.747-0.184-1.439-0.484-2.059-0.893c-0.641-0.419-1.153-0.973-1.521-1.644c-0.361-0.659-0.58-1.474-0.649-2.421
			c-0.068-0.927,0.049-2.02,0.351-3.247l3.883-15.822l8.799,2.16l0.931-3.795l-8.798-2.159l2.459-10.02l-3.298-0.809l-3.62,9.735
			l-5.568-1.366L357.118,291.832z"/>
	</g>
	<g>
		<path fill="#FFFFFF" d="M395.308,314.674c-0.364,3.063,0.105,5.641,1.406,7.729c1.301,2.091,3.356,3.48,6.167,4.17
			c1.833,0.45,3.53,0.661,5.091,0.634c1.562-0.026,3.09-0.182,4.585-0.462l0.127,5.019c-1.636,0.334-3.42,0.479-5.354,0.436
			c-1.932-0.042-4.04-0.344-6.32-0.903c-2.282-0.56-4.245-1.441-5.894-2.645s-2.941-2.665-3.88-4.385
			c-0.938-1.721-1.501-3.694-1.688-5.921c-0.189-2.227,0.043-4.664,0.692-7.312c0.58-2.362,1.465-4.478,2.658-6.345
			c1.192-1.866,2.603-3.388,4.229-4.565c1.627-1.176,3.42-1.967,5.377-2.373c1.955-0.404,4.013-0.343,6.173,0.187
			c2.28,0.56,4.182,1.438,5.703,2.63c1.52,1.194,2.686,2.603,3.497,4.227c0.81,1.624,1.28,3.402,1.411,5.335
			c0.13,1.933-0.049,3.896-0.539,5.892c-0.35,1.427-0.751,2.796-1.203,4.11L395.308,314.674z M407.386,302.674
			c-2.403-0.59-4.569-0.257-6.495,0.997c-1.928,1.255-3.444,3.431-4.551,6.527l17.414,4.273c0.76-3.095,0.569-5.668-0.567-7.719
			C412.048,304.703,410.114,303.344,407.386,302.674z"/>
		<path fill="#FFFFFF" d="M407.988,332.707c-0.221,0-0.444-0.003-0.669-0.008c-1.958-0.043-4.121-0.352-6.429-0.918
			c-2.332-0.571-4.374-1.489-6.069-2.726c-1.7-1.241-3.054-2.771-4.023-4.55c-0.968-1.775-1.556-3.834-1.748-6.118
			c-0.193-2.266,0.044-4.779,0.705-7.473c0.591-2.408,1.507-4.594,2.723-6.495c1.22-1.909,2.686-3.491,4.357-4.701
			c1.677-1.212,3.55-2.04,5.568-2.458c2.019-0.417,4.172-0.354,6.394,0.191c2.338,0.575,4.321,1.491,5.893,2.723
			c1.572,1.236,2.796,2.715,3.636,4.396c0.836,1.677,1.328,3.536,1.463,5.524c0.133,1.979-0.053,4.013-0.553,6.045
			c-0.35,1.428-0.759,2.825-1.216,4.154l-0.148,0.432l-22.125-5.431c-0.229,2.689,0.238,4.989,1.393,6.843
			c1.223,1.967,3.195,3.295,5.861,3.949c1.68,0.412,3.262,0.621,4.702,0.621l0.261-0.002c1.519-0.025,3.033-0.178,4.502-0.453
			l0.577-0.108l0.152,6.024l-0.411,0.084C411.312,332.554,409.698,332.707,407.988,332.707z M405.105,297.988
			c-0.848,0-1.688,0.085-2.499,0.253c-1.879,0.39-3.624,1.16-5.186,2.289c-1.569,1.136-2.949,2.626-4.102,4.43
			c-1.155,1.809-2.028,3.893-2.594,6.194c-0.635,2.587-0.863,4.993-0.68,7.15c0.181,2.146,0.729,4.071,1.63,5.724
			c0.898,1.647,2.155,3.067,3.735,4.22c1.589,1.16,3.513,2.022,5.718,2.563c2.237,0.549,4.327,0.848,6.212,0.889
			c1.729,0.038,3.351-0.078,4.832-0.347l-0.102-4.015c-1.341,0.222-2.715,0.346-4.091,0.369l-0.278,0.002
			c-1.521,0-3.183-0.219-4.94-0.65c-2.929-0.718-5.106-2.195-6.473-4.392c-1.356-2.179-1.854-4.888-1.478-8.052l0.066-0.562
			l22.343,5.483c0.388-1.17,0.738-2.39,1.044-3.635c0.475-1.933,0.651-3.863,0.525-5.739c-0.126-1.856-0.583-3.587-1.359-5.146
			c-0.773-1.548-1.903-2.912-3.358-4.056c-1.459-1.144-3.314-1.998-5.514-2.538C407.38,298.135,406.218,297.988,405.105,297.988z
			 M414.12,315.076l-18.438-4.524l0.187-0.521c1.139-3.188,2.736-5.469,4.749-6.778c2.033-1.325,4.359-1.684,6.887-1.063
			c2.856,0.701,4.915,2.155,6.119,4.321c1.195,2.157,1.402,4.876,0.615,8.081L414.12,315.076z M397.004,309.847l16.377,4.019
			c0.59-2.738,0.378-5.048-0.632-6.87c-1.062-1.913-2.907-3.203-5.482-3.836c-2.255-0.553-4.302-0.243-6.104,0.931
			C399.447,305.207,398.049,307.143,397.004,309.847z"/>
	</g>
	<g>
		<path fill="#FFFFFF" d="M439.543,325.529c-0.364,3.063,0.105,5.641,1.406,7.729c1.301,2.091,3.356,3.48,6.167,4.17
			c1.833,0.45,3.53,0.662,5.091,0.634c1.562-0.026,3.09-0.181,4.584-0.462l0.128,5.019c-1.636,0.334-3.42,0.479-5.354,0.437
			c-1.933-0.043-4.04-0.345-6.32-0.904c-2.282-0.56-4.245-1.441-5.894-2.645s-2.941-2.664-3.88-4.385
			c-0.938-1.721-1.501-3.694-1.688-5.921c-0.189-2.227,0.043-4.664,0.692-7.312c0.58-2.362,1.465-4.477,2.658-6.345
			c1.192-1.866,2.603-3.388,4.229-4.565c1.627-1.176,3.42-1.967,5.377-2.373c1.955-0.404,4.013-0.343,6.172,0.188
			c2.281,0.56,4.183,1.437,5.704,2.63c1.52,1.194,2.686,2.603,3.496,4.228c0.811,1.623,1.281,3.402,1.412,5.334
			c0.13,1.933-0.049,3.896-0.539,5.892c-0.35,1.427-0.751,2.796-1.203,4.11L439.543,325.529z M451.621,313.529
			c-2.403-0.59-4.568-0.257-6.496,0.998c-1.928,1.254-3.443,3.43-4.55,6.526l17.414,4.273c0.76-3.095,0.569-5.668-0.567-7.718
			C456.283,315.56,454.35,314.199,451.621,313.529z"/>
		<path fill="#FFFFFF" d="M452.221,343.563c-0.22,0-0.442-0.003-0.666-0.008c-1.96-0.044-4.122-0.353-6.429-0.919
			c-2.332-0.571-4.374-1.489-6.069-2.726c-1.701-1.242-3.055-2.772-4.023-4.55c-0.968-1.775-1.556-3.834-1.748-6.118
			c-0.193-2.266,0.044-4.779,0.705-7.473c0.591-2.407,1.507-4.592,2.723-6.495c1.22-1.909,2.686-3.491,4.357-4.701
			c1.677-1.212,3.55-2.038,5.568-2.457c2.021-0.419,4.174-0.354,6.393,0.191c2.34,0.573,4.322,1.489,5.894,2.722
			c1.573,1.236,2.796,2.716,3.635,4.397c0.836,1.675,1.329,3.533,1.464,5.523c0.133,1.979-0.053,4.013-0.553,6.045
			c-0.35,1.428-0.759,2.825-1.216,4.154l-0.148,0.432l-22.125-5.431c-0.229,2.689,0.238,4.989,1.393,6.843
			c1.223,1.967,3.195,3.295,5.861,3.949c1.681,0.412,3.26,0.622,4.694,0.622l0.269-0.003c1.524-0.025,3.039-0.178,4.5-0.453
			l0.578-0.108l0.153,6.024l-0.411,0.084C455.544,343.41,453.93,343.563,452.221,343.563z M449.34,308.844
			c-0.848,0-1.688,0.085-2.498,0.252c-1.879,0.391-3.624,1.16-5.186,2.289c-1.569,1.136-2.949,2.626-4.102,4.43
			c-1.156,1.81-2.028,3.895-2.594,6.194c-0.635,2.587-0.863,4.993-0.68,7.15c0.181,2.146,0.729,4.071,1.63,5.724
			c0.897,1.646,2.154,3.066,3.735,4.22c1.589,1.16,3.513,2.022,5.718,2.563c2.235,0.549,4.326,0.848,6.212,0.89
			c1.728,0.037,3.348-0.079,4.832-0.348l-0.103-4.014c-1.336,0.221-2.709,0.345-4.09,0.368l-0.286,0.003
			c-1.515,0-3.175-0.22-4.933-0.651c-2.929-0.718-5.106-2.195-6.473-4.392c-1.356-2.179-1.854-4.888-1.478-8.052l0.066-0.562
			l22.343,5.483c0.388-1.17,0.738-2.39,1.044-3.635c0.475-1.933,0.651-3.863,0.525-5.739c-0.126-1.857-0.583-3.588-1.36-5.144
			c-0.772-1.549-1.902-2.914-3.357-4.058c-1.459-1.145-3.314-1.998-5.515-2.538C451.615,308.99,450.453,308.844,449.34,308.844z
			 M458.355,325.932l-18.438-4.524l0.187-0.521c1.14-3.189,2.736-5.47,4.748-6.777c2.034-1.324,4.359-1.685,6.888-1.064
			c2.856,0.701,4.915,2.155,6.119,4.322c1.195,2.156,1.402,4.875,0.615,8.08L458.355,325.932z M441.239,320.702l16.377,4.019
			c0.59-2.738,0.379-5.048-0.632-6.869c-1.062-1.913-2.907-3.204-5.482-3.837c-2.257-0.553-4.301-0.241-6.104,0.932
			C443.683,316.062,442.285,317.997,441.239,320.702z"/>
	</g>
	<g>
		<path fill="#FFFFFF" d="M488.808,352.843c-1.955-0.48-3.703-1.32-5.244-2.519c-1.542-1.197-2.779-2.668-3.712-4.408
			s-1.519-3.709-1.757-5.905s-0.048-4.557,0.571-7.083c0.59-2.402,1.514-4.54,2.772-6.412c1.258-1.872,2.711-3.394,4.359-4.566
			c1.648-1.171,3.433-1.976,5.354-2.411s3.837-0.419,5.752,0.052c2.118,0.52,3.837,1.395,5.153,2.625
			c1.318,1.229,2.294,2.398,2.93,3.504l4.079-16.619l5.499,1.35l-9.207,37.516c-0.38,1.548-0.251,2.648,0.389,3.301
			c0.638,0.654,1.405,1.091,2.302,1.311l-2.21,3.992c-3.871-0.95-5.853-3.077-5.948-6.383c-1.258,1.073-2.807,1.935-4.65,2.583
			C493.396,353.417,491.252,353.442,488.808,352.843z M491.229,348.255c1.507,0.369,3.03,0.366,4.569-0.013
			c1.54-0.377,2.917-1.022,4.135-1.933l3.868-15.764c-0.533-1.168-1.381-2.336-2.54-3.506c-1.161-1.17-2.595-1.965-4.306-2.385
			c-1.466-0.359-2.876-0.382-4.228-0.066c-1.352,0.316-2.584,0.899-3.699,1.748c-1.116,0.851-2.075,1.942-2.878,3.278
			c-0.804,1.336-1.409,2.839-1.818,4.51c-0.42,1.71-0.561,3.339-0.422,4.884c0.139,1.546,0.519,2.945,1.14,4.199
			c0.62,1.253,1.459,2.323,2.517,3.208C488.623,347.303,489.845,347.915,491.229,348.255z"/>
		<path fill="#FFFFFF" d="M506.09,357.146l-0.371-0.092c-3.718-0.912-5.814-2.896-6.248-5.901c-1.157,0.844-2.521,1.544-4.065,2.088
			c-1.928,0.679-4.187,0.708-6.717,0.088c-2.015-0.495-3.842-1.373-5.432-2.609c-1.589-1.233-2.883-2.771-3.846-4.566
			c-0.959-1.79-1.569-3.838-1.813-6.088c-0.243-2.243-0.048-4.685,0.583-7.256c0.602-2.449,1.558-4.661,2.843-6.572
			c1.285-1.912,2.794-3.491,4.484-4.694c1.697-1.206,3.559-2.044,5.533-2.491c1.987-0.45,4.001-0.434,5.981,0.054
			c2.193,0.538,4.002,1.462,5.376,2.745c0.965,0.899,1.761,1.781,2.377,2.631l3.924-15.985l6.47,1.588l-9.326,38.001
			c-0.334,1.362-0.246,2.314,0.261,2.832c0.568,0.583,1.263,0.979,2.063,1.175l0.635,0.155L506.09,357.146z M500.359,349.128
			l0.03,1.043c0.086,2.976,1.787,4.881,5.198,5.816l1.725-3.115c-0.729-0.271-1.374-0.693-1.925-1.258
			c-0.765-0.779-0.938-2.048-0.516-3.769l9.088-37.03l-4.528-1.111l-4.257,17.345l-0.622-1.081c-0.61-1.061-1.564-2.2-2.837-3.388
			c-1.247-1.165-2.906-2.008-4.932-2.505c-1.831-0.45-3.685-0.467-5.522-0.05c-1.845,0.419-3.586,1.203-5.175,2.331
			c-1.592,1.133-3.016,2.626-4.233,4.438c-1.22,1.813-2.129,3.917-2.702,6.252c-0.602,2.458-0.79,4.782-0.56,6.91
			c0.23,2.121,0.803,4.047,1.7,5.723c0.896,1.672,2.101,3.103,3.578,4.25c1.479,1.149,3.18,1.967,5.057,2.428
			c2.337,0.572,4.404,0.552,6.146-0.061c1.774-0.624,3.285-1.462,4.492-2.491L500.359,349.128z M493.479,349.029L493.479,349.029
			c-0.79,0-1.587-0.098-2.368-0.289c-1.456-0.357-2.756-1.011-3.864-1.941c-1.104-0.924-1.994-2.058-2.644-3.369
			c-0.646-1.304-1.046-2.776-1.189-4.376c-0.143-1.594,0.003-3.292,0.435-5.048c0.419-1.713,1.05-3.277,1.875-4.648
			c0.831-1.383,1.842-2.532,3.004-3.418c1.167-0.889,2.476-1.507,3.888-1.838c1.424-0.332,2.927-0.307,4.461,0.068
			c1.791,0.439,3.319,1.287,4.541,2.518c1.198,1.209,2.087,2.438,2.641,3.65l0.072,0.158l-3.952,16.106l-0.144,0.107
			c-1.27,0.949-2.722,1.628-4.315,2.018C495.106,348.928,494.285,349.029,493.479,349.029z M494.66,324.868
			c-0.615,0-1.227,0.069-1.818,0.208c-1.274,0.298-2.455,0.856-3.51,1.658c-1.061,0.809-1.986,1.864-2.752,3.139
			c-0.773,1.285-1.366,2.756-1.762,4.371c-0.404,1.648-0.542,3.236-0.409,4.72c0.133,1.477,0.499,2.83,1.09,4.022
			c0.587,1.187,1.391,2.211,2.39,3.046c0.99,0.832,2.154,1.417,3.46,1.737c1.421,0.348,2.877,0.344,4.331-0.013
			c1.403-0.344,2.685-0.93,3.812-1.743l3.783-15.415c-0.51-1.057-1.306-2.135-2.368-3.207c-1.09-1.098-2.459-1.855-4.069-2.251
			C496.099,324.96,495.366,324.868,494.66,324.868z"/>
	</g>
</g>
<g>
	<path fill="#303B4E" d="M121.373,453.265c-2.205,1.801-4.569,0.988-5.843-0.285c0,0-2.396-2.367-1.643-4.987l1.142-3.913
		c-4.28,1.814-12.01-1.928-10.644-8.425c1.362-6.44,8.08-5.719,11.46-4.484l2.42,0.819l0.955-3.35
		c1.517-6.316,6.488-7.795,9.895-4.953c1.959,1.665,2.651,3.579,2.388,5.327c-0.384,2.514-3.103,6.733-10.071,4.745l-2.55,8.967
		c3.76-1.224,5.676-0.033,6.508,0.593c0.621,0.497,1.218,1.268,1.227,2.127c0.028,0.943-0.78,1.979-1.994,1.93
		c-1.079-0.01-1.971-0.891-1.985-1.998c-0.002-0.609,0.195-0.979,0.589-1.361c0.657-0.552-1.376-2.001-4.472-0.775l-1.421,5.219
		c-0.571,2.108,0.603,3.566,0.603,3.566c0.777,0.926,1.939,1.58,3.109,0.852L121.373,453.265z M115.137,443.479l3.001-10.977
		l-2.449-0.793c-2.649-0.728-7.303,0.279-8.191,5.405C106.843,440.823,110.365,444.893,115.137,443.479z M122.885,428.516
		l-1.294,4.702c5.844,1.864,8.752-1.343,9.344-4.336c0.168-1.618-0.568-3.343-2.02-4.16
		C126.698,423.477,123.801,425.301,122.885,428.516z"/>
	<path fill="#303B4E" d="M165.769,485.374l-4.783,6.553l-15.848-11.566l0.299-0.41c1.323,0.967,2.528,0.108,4.093-2.035
		l11.038-15.122c1.426-1.954,1.847-3.192,0.46-4.204l0.299-0.41l15.438,11.269l-4.139,5.672l-0.411-0.299
		c3.417-5.475-1.987-9.517-4.54-11.379l-1.701-1.242l-7.566,10.366l2.048,1.494c0.851,0.621,4.19,3.06,6.67-0.009l0.41,0.3
		l-4.944,6.773l-0.41-0.299c2.142-3.266-1.238-5.78-2.025-6.356l-2.048-1.493l-7.727,10.585l1.449,1.059
		c2.804,2.046,8.266,6.274,13.527,0.456L165.769,485.374z"/>
	<path fill="#303B4E" d="M190.827,508.602l-0.24,0.447l-6.937-3.737l0.241-0.446c1.785,0.962,1.295-2.403,1.295-2.403l-0.524-5.111
		l-2.198,1.12c-2.731,1.452-5.164,2.843-1.766,4.675l-0.24,0.446l-6.97-3.755l0.24-0.446c0.996,0.535,2.518,1.577,8.577-1.448
		l2.285-1.117l-0.973-9.295c-0.436-2.317-0.966-2.647-1.841-3.163l0.223-0.411l6.97,3.755l-0.222,0.411
		c-0.824-0.443-1.857-0.335-1.57,2.256l0.498,4.831l1.931-0.953c2.095-1.175,5.286-2.822,1.647-4.783l0.222-0.411l7.313,3.939
		l-0.221,0.412c-1.221-0.613-2.689-1.67-8.836,1.353l-2.037,0.985l0.918,9.398C188.87,507.548,190.262,508.253,190.827,508.602z"/>
	<path fill="#303B4E" d="M211.625,518.321c-1.86-0.704-3.199-1.795-4.035-3.111l-2.829,7.477c-0.773,2.042-0.707,2.525,0.445,3.338
		l-0.179,0.474l-6.127-2.319l0.179-0.475c1.538,0.125,1.804-0.359,2.508-2.219l7.633-20.169c0.47-1.239,0.294-1.765-1.091-2.623
		l0.165-0.437l5.397,0.832l-1.076,2.846c1.862-1.505,4.65-1.492,6.511-0.789c4.851,1.837,6.196,6.766,4.291,11.799
		C221.264,518.633,216.476,520.157,211.625,518.321z M217.472,501.771c-2.444-0.924-4.638,0.246-5.809,2.68l-2.595,6.856
		c-1.01,3.329,0.33,5.63,2.628,6.498c2.407,0.911,5.477,0.072,7.698-5.8C221.574,506.243,220.608,502.958,217.472,501.771z"/>
	<path fill="#303B4E" d="M250.823,524.685c-0.842,1.685-3.651,4.223-8.127,3.156c-4.742-1.127-7.179-5.877-5.986-10.884
		c1.336-5.614,5.768-8.407,10.473-7.288c4.4,1.048,6.767,4.576,5.349,10.533l-12.139-2.89c-1.067,5.157,0.722,7.747,3.646,8.764
		c2.223,0.771,5.25,0.007,6.375-1.688L250.823,524.685z M249.386,518.933c1.318-5.539-0.615-8.365-2.436-8.798
		c-2.163-0.515-5.303,1.905-6.441,6.685L249.386,518.933z"/>
	<path fill="#303B4E" d="M278.655,515.816c0.661,1.023,0.384,2.325-0.64,2.986c-0.98,0.627-2.286,0.389-2.986-0.64
		c-0.297-0.469-0.424-1.033-0.246-1.523c0.195-0.643-2.511-0.03-4.027,2.417l-1.175,9.639c-0.265,2.167-0.141,2.772,1.21,3.29
		l-0.062,0.504l-6.542-0.797l0.062-0.504c1.522-0.247,1.681-0.896,1.926-2.908l1.308-10.723c0.165-1.355-0.117-1.939-1.652-2.559
		l0.056-0.465l5.479-0.472l-0.495,4.065c1.753-2.458,4.097-3.312,5.668-3.316C277.244,514.819,278.188,515.131,278.655,515.816z"/>
	<path fill="#303B4E" d="M296.553,534.259l-6.55-0.188l0.015-0.507c1.494-0.388,1.592-1.086,1.648-3.074l0.31-10.799
		c0.039-1.365-0.257-1.92-1.882-2.396l0.013-0.468l5.374-0.978l-0.423,14.736c-0.062,2.184,0.116,2.774,1.509,3.166L296.553,534.259
		z M291.577,510.51c0.032-1.131,0.914-1.964,2.045-1.931c1.092,0.031,1.964,0.914,1.932,2.045c-0.032,1.092-0.954,1.963-2.046,1.932
		C292.377,512.522,291.545,511.602,291.577,510.51z"/>
	<path fill="#303B4E" d="M325.91,528.415c-0.29,1.86-2.193,5.133-6.783,5.48c-4.861,0.368-8.629-3.415-9.017-8.549
		c-0.437-5.756,2.938-9.767,7.761-10.131c4.511-0.342,7.84,2.301,8.303,8.408l-12.446,0.941c0.554,5.237,3.045,7.161,6.142,7.24
		c2.351,0.057,5.003-1.591,5.559-3.55L325.91,528.415z M322.79,523.37c-0.43-5.678-3.132-7.781-4.998-7.641
		c-2.217,0.168-4.474,3.429-4.104,8.329L322.79,523.37z"/>
	<path fill="#303B4E" d="M358.391,527.493l-6.419,1.312l-0.094-0.458c1.366-0.717,1.294-1.459,0.896-3.407l-1.679-8.214
		c-0.53-2.598-2.256-4.036-4.777-3.521c-1.987,0.406-3.202,2.644-3.227,4.081l1.896,9.284c0.43,2.102,0.737,2.637,2.184,2.699
		l0.101,0.496l-6.418,1.312l-0.102-0.497c1.366-0.717,1.271-1.374,0.873-3.322l-2.177-10.66c-0.273-1.336-0.681-1.77-2.371-1.863
		l-0.094-0.458l5.046-2.185l0.82,4.011c0.349-2.38,2.618-4.714,5.024-5.205c3.096-0.632,5.578,0.413,6.521,5.035l1.701,8.329
		c0.43,2.101,0.792,2.703,2.199,2.774L358.391,527.493z"/>
	<path fill="#303B4E" d="M385.699,514.069c0.218,1.984-0.644,5.651-5.188,7.187c-4.139,1.398-9.203-0.677-11.039-6.108
		c-1.534-4.545,0.316-10.027,5.971-11.938c3.62-1.225,5.29,0.064,5.822,0.543c0.471,0.417,0.781,1.095,0.648,1.798
		c-0.218,0.938-1.213,1.646-2.152,1.428c-1.012-0.194-1.632-1.179-1.414-2.116c0.109-0.531,0.416-0.964,0.772-1.125
		c0.308-0.186-1.039-0.885-3.516-0.048c-1.478,0.499-5.167,2.981-2.832,9.891c1.66,4.914,5.117,6.009,7.827,5.382
		c2.772-0.689,4.477-3.201,4.631-4.939L385.699,514.069z"/>
	<path fill="#303B4E" d="M412.507,502.318c0.408,1.837-0.171,5.578-4.317,7.574c-4.393,2.114-9.277-0.035-11.511-4.674
		c-2.503-5.199-0.823-10.162,3.533-12.26c4.076-1.962,8.138-0.715,10.794,4.802l-11.244,5.413c2.424,4.675,5.445,5.558,8.356,4.502
		c2.21-0.804,4.079-3.304,3.882-5.331L412.507,502.318z M407.764,498.759c-2.469-5.13-5.751-6.104-7.438-5.292
		c-2.002,0.964-2.915,4.822-0.785,9.249L407.764,498.759z"/>
</g>
</svg>
