<?xml version="1.0" encoding="utf-8"?>
<!-- Generator: Adobe Illustrator 16.0.0, SVG Export Plug-In . SVG Version: 6.00 Build 0)  -->
<!DOCTYPE svg PUBLIC "-//W3C//DTD SVG 1.1//EN" "http://www.w3.org/Graphics/SVG/1.1/DTD/svg11.dtd">
<svg version="1.1" id="Layer_1" xmlns="http://www.w3.org/2000/svg" xmlns:xlink="http://www.w3.org/1999/xlink" x="0px" y="0px"
	 width="300px" height="90px" viewBox="0 0 300 90" enable-background="new 0 0 300 90" xml:space="preserve">
<g>
	<path fill="#F9F9F9" d="M86.406,13.423c4.347,2.57,3.372,4.611,4.257,7.357v3.195c-0.264,1.595,0.267,2.041-0.975,11.705
		c0,1.863-1.065,2.217-1.065,7.802l-0.087,0.09c-0.09,0.178-0.177,0.532-0.267,1.152c0.089,0.091,0.089,0.177,0.089,0.268
		c0,0.087-0.089,0.267-0.176,0.53l-0.181,0.535c0,0.354,0.979,1.151,0.979,1.505c-0.091,0.268-0.091,0.445-0.091,0.535
		c0.091,0,0.091,0,0.091,0.086c-0.091,0.536-0.535,1.153-0.889,1.51c0.091,0.44,0.091,0.707,0.091,0.974
		c-0.091,0.088-0.091,0.269-0.181,0.446c0,0.263,0,0.442,0.09,0.706c-0.09,0.354,0.091,1.42-0.353,1.863
		c0.085,0.531,0,1.151,0.263,1.686c-0.087,0.266-0.087,0.531-0.087,0.884c0.087,0.177,0.087,0.445,0.177,0.712
		c-0.09,0.088-0.09,0.178-0.09,0.267c0,0.179,0,0.355,0.09,0.618c-0.09,0.268-0.09,0.534-0.09,0.978
		c0.09,1.33,0.534,3.192,0.534,5.056v0.441c0.087,0.442,0.087,0.978,0.177,1.507c0,0.092,0,0.355-0.09,0.623v0.529
		c0,0.444-0.177,1.862-0.177,2.309c0.09,0.177,0.09,0.443,0.09,0.706c0.444-0.439-1.596,2.661-1.596,3.282
		c0,0-0.091,0.091-0.177,0.091c-0.181,0-0.267-0.091-0.444-0.268l-0.09,0.445l0.177,0.888c-0.087,0.086-0.177,0.177-0.264,0.177
		c-0.268,0-0.979-3.104-1.419-4.968v-0.265c-0.711-3.104-1.509-6.74-2.04-10.732l-0.798-0.531c-0.888-1.505-2.217-2.839-4.438-4.788
		c0.444-0.176-2.837,0.621-2.837,0.621h-0.087c-1.418,0.087-3.104,0.354-5.054,0.622c-1.242,2.659-1.95,5.407-2.928,8.336
		l-0.263,0.799c-0.091,0.085-0.091,0.263-0.181,0.529l-0.354,1.151c-0.086,0.268-0.177,0.621-0.444,1.243l-0.617,1.51
		c-0.267,0.619-0.534,1.505-0.801,2.746c-1.419,1.418-2.127,1.863-3.015,1.863c-1.419,0-3.015-2.308-3.015-3.727
		c0-1.863,0.889-3.812,2.484-8.866l1.509-4.7c0.178-0.532,0.885-1.773,1.062-2.926c-0.087-0.443-0.177-0.975-0.264-1.595
		c0.177-0.979,0.264-0.802,0.975-3.019v-0.087c0.885-0.711,1.419-0.974,2.304-3.014c0.09-0.445,0.797-2.575,2.928-7.008
		c2.306-4.964,5.055-9.931,6.563-14.365l0.354-0.798c0.177-0.354,0.885-1.773,2.04-4.343c0.086-0.267,0.264-0.534,0.53-0.798
		c0.621-1.333,2.484-5.058,3.99-5.058C83.746,12.445,84.457,12.979,86.406,13.423z M76.121,36.211
		c-0.177,0.267-2.571,4.791-3.545,9.845h1.949c1.329,0,3.546-0.267,6.741-0.443c0.621-0.622,0.708-13.658,0.708-14.723
		c0-0.265,0-1.239-0.086-2.925c0-0.534-0.621-3.282-0.621-3.282c0-0.091,0-0.091,0-0.091C80.73,24.593,79.401,27.611,76.121,36.211z
		"/>
	<path fill="#F9F9F9" d="M130.679,47.652c0.268,0.264,0.445,0.621,0.445,1.066c0-0.092-0.09-0.182-0.267-0.358v0.976
		c0,0.266-0.091,0.356-0.267,0.356c-0.177-0.091-0.354-0.091-0.531-0.091l0.267-0.266c0,0-0.09,0.089-0.358,0.266l-0.975,0.712
		c0.267-0.09,0.621-0.181,1.242-0.181c-0.711,0.267-1.065,1.686-1.242,1.686c-0.086,0-0.177-0.177-0.268-0.177
		c0,0-0.086,0.177-0.086,0.354c0.444,0,0.707,0,0.707,0c0,0.091,0,0.091-0.087,0.091c0.265,0.086,0.354,0.268,0.354,0.531
		c0,0.089-0.09,0.267-0.176,0.353c0-0.086-0.091-0.177-0.268-0.353c-0.087,0.089-0.263,0.443-0.621,1.064l-0.264-0.443l0.354-0.354
		l-0.622,0.177c0,0.267,0.354,0.71,0.354,0.888c0,0.087-0.087,0.177-0.176,0.265c0.089,0,0.089,0.09,0.089,0.181
		c0,0.439-1.064,1.329-1.064,1.772c-0.177,0.085-3.812,3.812-7.361,7.357c-1.506,0.888-2.924,1.953-4.257,3.105
		c0.091,0.267,0.091,0.71,0.091,1.24c-0.444,0.27-2.13,1.421-5.232,3.551c-0.978,0.439-2.75,1.949-5.235,2.302
		c-0.264,0.268-1.152,0.89-1.772,0.89c-0.354,0-0.884-0.091-1.687-0.177l-2.036-0.27c-0.091,0-1.687-2.306-2.661-2.393
		c-0.267-0.622-0.711-1.418-1.332-2.306c0.443,0,2.04,0.888,2.57,0.888c0.621,0,1.243-0.798,1.954-0.798
		c2.748,0,5.762-1.156,8.867-3.55c1.419-1.065,4.523-3.458,7.539-7.448c3.368-3.015,9.044-8.512,10.019-13.567
		c0.444-0.444,0.621-0.622,0.621-0.711c0-0.177-0.087-0.441-0.177-0.708l-0.354-0.797c-0.09-0.09-0.267-0.177-0.531-0.177
		l0.177-0.358c0.087-0.177,0.177-0.353,0.177-0.44c0-0.09,0-0.18,0-0.18c-0.09,0-0.177,0.267-0.267,0.267
		c0.09,0-0.086-0.267-0.354-0.267c-0.177,0-0.266,0-0.444,0.09l0.444,0.267c-0.09,0-0.09,0-0.09,0.087c0,0.09,0,0.268,0.09,0.358
		c-0.266,0-0.975,0.263-1.328,0.263c-0.357,0-1.42-0.532-1.776-0.532c-2.127,0-4.257,0.622-7.539,1.863
		c-7.534,5.408-7.448,1.95-10.994,10.906c0,0,0.087,0.087,0.087,0.177c0,0.177-0.087,0.355-0.176,0.709
		c-2.838,4.078-5.409,6.74-7.448,10.553c0.089,0.18,0.089,0.534,0.089,0.978c-0.62,0.885-1.154,1.328-1.599,1.328
		c-0.622,0-1.859-0.705-3.636-2.126c0.09-0.266,0.177-0.443,0.267-0.443c-0.797-0.621-1.151-1.241-1.151-1.687v-2.394
		c0-1.862,4.696-7.805,4.696-8.957c0-2.126,0.091-3.368,0.268-3.812l0.534-0.529c0.086-0.803,0.707-2.041,1.682-3.64
		c3.105-4.965,4.969-18.977,5.676-21.103c0-0.267,0.798-0.71,0.798-1.332c0-0.267-0.087-0.445-0.264-0.621
		c0.087-0.354,0.885-1.596,0.885-2.217c0-0.267-0.087-0.444-0.264-0.708c0.086-0.267,1.505-1.596,1.505-2.217
		c0-0.18-0.087-0.357-0.177-0.534c1.687-1.152,3.105-3.459,5.322-7.893V7.036c0.087-1.065,0.708-3.104,2.04-6.206l-0.177,21.106
		c0,0.263-0.621,0.798-0.621,1.151c0,0.267,0,0.531,0,0.888c0,2.748-1.333,11.528-2.217,14.896c-0.09,0.354-1.065,2.216-1.065,2.57
		c0,0.445,0.264,0.889,0.798,1.243c4.877-4.343,9.311-6.474,13.478-6.474c4.877,0,4.701,0.797,7.892,7.271l0.091,0.888
		c0.177,0.178,0.62-0.089,0.62,1.328C132.274,47.031,132.274,47.208,130.679,47.652z M123.939,41.002
		c-0.268,0-0.445,0.177-0.445,0.531c0.178,0,0.445-0.177,0.889-0.445C124.206,41.002,124.028,41.002,123.939,41.002z
		 M129.614,51.288c0-0.444,0.267-0.622,0.798-0.622c0.177,0.178,0.267,0.354,0.267,0.446
		C130.412,51.112,129.881,51.288,129.614,51.288z"/>
	<path fill="#F9F9F9" d="M168.562,54.035c-1.508,6.918-5.32,9.846-18.181,16.405c-0.177,0.09-0.974,0.179-2.479,0.357
		c-1.687,1.95-3.993,2.924-7.095,2.924c-1.509,0-2.484-0.175-2.838-0.443l-3.282-2.748c-0.091,0-0.176,0-0.267,0
		c-3.636,0-3.458-5.766-3.903-6.386c0.268-0.439,0.445-0.798,0.445-1.062c0-0.358-0.532-0.889-0.532-1.155
		c0-1.062,0.532-3.812,0.532-4.877c0.443-0.088,2.216-0.708,2.216-1.859c0-0.358-0.444-1.953-0.444-2.222
		c2.308-1.949,2.308-2.746,5.412-7.711c1.419-2.217,12.947-13.658,14.189-13.658c0.354,0,1.152,0.268,1.505,0.268
		c0.444,0,1.241-0.798,2.394-2.484c0.268,0.087,0.888,0.622,1.862,1.419l2.662,0.621c0.712,0.354,1.772,0.798,3.192,1.329
		c5.855,0,6.562,7.185,6.562,13.127C170.512,48.805,169.891,51.465,168.562,54.035z M160.579,43.75
		c-0.354-0.09-0.706-0.354-0.974-0.622c0.177-0.267,0.268-0.53,0.268-0.975c0-1.065-0.713-2.836-1.687-2.836
		c-0.799,0-2.66,1.242-5.59,3.812c-7.003,6.12-9.75,10.199-12.946,14.28c-0.354,0.354-1.859,4.876-1.859,5.498
		c0,0.975,1.329,2.394,2.303,2.394c3.282,0,7.007-1.419,11.083-4.17c0.979-0.264,2.041-0.708,3.373-1.42
		c0.445-0.443,1.328-2.125,2.747-4.877c0.356-0.708,1.418-6.296,2.217-6.736c0-2.04,0.358-3.105,1.064-3.373V43.75z"/>
	<path fill="#F9F9F9" d="M202.99,62.725c-0.885,0-2.48-0.263-4.697-0.883c-0.888-0.176-2.661-3.636-3.195-3.636
		c-0.263,0-0.53,0.176-0.797,0.53c-2.839,5.321-5.142,8.779-6.826,10.285c-0.18,0.091-6.03,2.308-6.208,2.308
		c-0.798,0-2.216-0.354-4.256-1.066c-1.065-2.039-5.852-6.028-5.852-7.447c0-2.484-0.359-6.826,1.505-11.703
		c1.242-0.979,1.862-1.688,3.281-6.297c0.798-0.358,0.62-2.13,3.637-6.473c0-0.711,2.745-7.806,3.988-7.806
		c1.155,0,2.308,2.483,2.308,3.903c0,0.443-0.799,2.394-0.799,2.837c0,0.268-0.09,1.152-0.177,2.749
		c0.264,0.443,0.531,1.155,0.621,2.129c-0.712,1.419-1.599,3.637-2.66,6.565c-0.178,0.086-0.444,0.176-0.712,0.353
		c0.09,0.265,0.176,0.53,0.176,0.798c0,1.065-3.899,7.448-3.899,12.148c0,0.354,2.041,1.065,2.128,1.329h0.53
		c0.445-0.531,1.333-0.976,2.661-1.681c3.372-1.956,3.993-3.994,5.146-6.656l6.296-14.804c0.354,0,1.15-0.268,1.508-0.268
		c0.355,0,3.193,2.484,3.99,2.484c0.354,0,0.622-0.091,0.708-0.182c0.357,0.358,1.155,2.839,1.155,3.458
		c0,0.535-0.269,2.309-0.798,5.236l-0.889,5.055c0,0.974,0.445,1.419,1.418,1.419c0-0.091,1.244-0.536,3.902-1.419
		c0.266,1.062,0.44,2.039,0.44,2.836C206.624,58.291,205.564,62.725,202.99,62.725z"/>
	<path fill="#F9F9F9" d="M240.967,34.97c0.088,0.267,0.354,0.356,0.708,0.356h0.534c0.264-0.089,0.44-0.089,0.53-0.089
		c-0.443,0.888-4.61,2.394-4.966,2.661c-0.8,0-0.441,1.419-3.548,2.127c-0.444,1.241-3.901,0.798-9.4,3.815
		c-0.707,1.859-1.064,2.924-3.635,7.715c0,0.617-0.443,1.684-1.42,3.192l-0.62,1.772c0,0.267-0.088,0.71-0.266,1.152
		c-0.801,1.331-2.481,6.209-3.016,6.562c-0.442,0.975-0.708,1.772-0.708,2.484c0.086,0.62,0.086,1.062,0.086,1.42
		c0,0.354,0,0.619-0.086,0.796c-0.444,0.444-1.42,4.878-3.638,7.448c-0.267-1.862-0.353-3.726-0.353-5.585
		c0.086-0.62,0.179-1.508,0.353-2.659c-0.174-0.177-0.353-0.446-0.529-0.89c0-0.708,0.441-2.308,0.441-3.015
		c-0.086-0.177-0.179-0.444-0.265-0.711c0-0.529,0.353-7.096,3.369-13.568c0.089-0.619,0.529-2.479,2.216-5.851
		c0-0.708-2.039-2.748-6.383-7.802c0.977-0.445,0.884-0.798,2.216-0.798c1.506,0,3.814,0.087,7.096,0.353
		c0.622-0.62,0.706-1.064,2.04-3.812c0-1.595,0.884-2.307,3.015-9.401c1.241-1.242,1.948-4.702,2.66-8.247h0.708h0.09
		c0.354,0,2.48-2.13,3.191-1.509c0.355,0,2.218,1.242,2.57,1.242c0.534,0,1.595,2.217,1.862,2.661l-0.619,0.889
		c-0.092,0.621-0.354,1.328-0.709,2.216c-2.483,4.696-3.549,8.957-5.766,14.012c0-0.09,0.093-0.09,0.093-0.09
		c0.084,0,0.175,0.267,0.353,0.798c1.241,0.177,2.394,0.267,3.546,0.267c3.902,0,5.587-0.443,10.905-1.863h0.621
		C244.16,33.287,241.32,34.616,240.967,34.97z"/>
</g>
</svg>
