<?xml version="1.0" encoding="utf-8"?>
<!-- Generator: Adobe Illustrator 16.0.0, SVG Export Plug-In . SVG Version: 6.00 Build 0)  -->
<!DOCTYPE svg PUBLIC "-//W3C//DTD SVG 1.1//EN" "http://www.w3.org/Graphics/SVG/1.1/DTD/svg11.dtd">
<svg version="1.1" id="Layer_1" xmlns="http://www.w3.org/2000/svg" xmlns:xlink="http://www.w3.org/1999/xlink" x="0px" y="0px"
	 width="300px" height="600px" viewBox="0 0 300 600" enable-background="new 0 0 300 600" xml:space="preserve">
<g>
	<path fill="#FFFFFF" d="M79.605,444.524l14.169,4.723c3.437,2.146,1.074,1.716,27.911,10.734l5.795,1.289
		c9.019,1.932,3.006,0,33.921,9.661c13.097,5.367-9.66-6.656,41.863,17.818c7.944,2.576,9.877,7.944,9.877,10.95
		c0,3.648-0.215,3.008-1.503,8.802l-0.43,1.075c0.43-1.721-2.575,9.017-14.169,11.376c-12.452,3.008-11.379,1.935-21.47,4.511
		c-9.018,1.073,0.431,0-63.119,8.372c-1.074,0.213-6.44,1.932-7.944,1.932c-4.079,0-3.865-2.36-3.865-4.078
		c-0.43,1.288,4.723-16.531,31.131-19.322l7.513-1.717c5.583-1.29,10.735-1.504,15.674-2.362c0.214,0.215,0.214,0.215,0.429,0.215
		c5.583-0.858,9.876-1.501,13.097-1.932c1.503,0,4.937,0,9.66-1.074c4.51-1.074,6.87-1.503,6.87-1.718
		c0-3.435-12.668-7.084-41.864-19.536l-2.146-1.074c-5.368-1.933-45.086-18.248-49.38-19.966c-0.859-0.431-4.508-2.577-10.949-4.724
		c-1.932-1.073-9.875-4.293-9.875-5.796c0,0.213-3.65-8.373-3.65-8.373c0-0.215,0-0.215,0-0.644s-0.214-1.291-0.645-2.79
		c0.214-0.216,0.645-0.432,1.289-0.86C68.226,440.444,77.243,443.664,79.605,444.524z"/>
	<path fill="#FFFFFF" d="M184.589,355.86c16.746,3.649,23.831,12.881,39.717,44.012c0.216,0.43,0.429,2.361,0.858,6.013
		c4.725,4.077,7.085,9.66,7.085,17.173c0,3.649-0.428,6.012-1.072,6.87l-6.655,7.943c0,0.215,0,0.431,0,0.644
		c0,8.802-13.956,8.373-15.457,9.448c-1.074-0.646-1.933-1.075-2.576-1.075c-0.859,0-2.148,1.289-2.792,1.289
		c-2.575,0-9.231-1.289-11.808-1.289c-0.215-1.074-1.718-5.367-4.51-5.367c-0.858,0-4.722,1.074-5.367,1.074
		c-4.723-5.583-6.654-5.583-18.678-13.096c-5.367-3.435-33.062-31.347-33.062-34.351c0-0.858,0.644-2.792,0.644-3.651
		c0-1.073-1.932-3.006-6.011-5.795c0.215-0.645,1.503-2.147,3.436-4.509l1.502-6.441c0.859-1.718,1.933-4.293,3.22-7.729
		c0-14.168,17.39-15.887,31.775-15.887C171.921,351.137,178.362,352.64,184.589,355.86z M159.684,375.185
		c-0.214,0.855-0.857,1.715-1.503,2.359c-0.642-0.429-1.287-0.645-2.36-0.645c-2.575,0-6.871,1.719-6.871,4.08
		c0,1.932,3.007,6.44,9.232,13.523c14.815,16.962,24.689,23.618,34.566,31.347c0.857,0.857,11.809,4.508,13.311,4.508
		c2.362,0,5.797-3.22,5.797-5.582c0-7.943-3.435-16.96-10.09-26.837c-0.645-2.361-1.72-4.937-3.437-8.158
		c-1.073-1.073-5.152-3.221-11.809-6.654c-1.717-0.859-15.244-3.436-16.315-5.368c-4.938,0-7.517-0.859-8.159-2.574L159.684,375.185
		L159.684,375.185z"/>
	<path fill="#FFFFFF" d="M123.617,282.656c4.508,4.938,6.87,8.373,6.87,10.305c0,3.864-15.245,9.877-20.826,9.877
		c-4.079,0-14.384-2.363-14.384-5.153c0-2.576,12.452-14.599,14.599-15.028c1.502-0.214,6.011-3.005,7.514-3.005
		C118.25,279.65,122.542,282.441,123.617,282.656z M167.842,305.628c8.589,0,10.092,3.007,21.255,10.091
		c14.385,3.649,9.876,0.86,39.718,16.316c0,6.227-12.666,11.594-21.254,12.882c-2.576,0.429-1.933,3.436-8.158,3.436
		c-5.368,0-4.294-3.652-12.882-5.584c-9.231-2.79-8.802-2.361-18.893-12.451c-1.073-1.073-2.576-1.719-4.725-1.933
		c-2.79-4.294-4.294-7.085-4.294-8.588c0-0.644,1.291-3.648,7.302-14.17C166.555,305.628,167.199,305.628,167.842,305.628z"/>
	<path fill="#FFFFFF" d="M80.677,202.149c3.65,0,7.514,0.43,11.809,1.503h1.073c1.718,0,4.293,0.43,7.729,1.289
		c27.695,15.458,47.876,29.626,60.758,42.293c8.373,4.078,13.312,13.955,20.396,15.243c3.435,2.362,4.509,8.588,13.096,8.588
		c1.719,0,3.651-0.214,4.938-0.859l2.147-0.859c4.294-3.65,7.086-11.379,7.086-18.678c0-4.724-1.074-9.232-3.65-12.667
		c0.213-1.718,0.213-1.503,1.072-1.503c-1.072-2.575-1.715-4.937-1.715-5.796c0-3.864,2.146-6.226,6.439-7.084
		c0.644,0,1.287,0,1.717,0.214l0.86,0.215c-1.504,1.932-2.148,4.078-2.148,6.87c0,1.288,1.075,6.011,3.22,14.384
		c3.437,6.655,3.865,12.667,4.079,18.893l0.215,3.865l-0.431,1.503c-0.643,6.225-3.006,14.169-11.163,17.819
		c-3.005,1.288-6.439,1.502-6.654,2.362c0,2.147,2.791,6.44,2.791,7.513v0.216c1.502,3.65,5.583,10.521,6.441,12.667v3.006
		c0,2.361-1.073,4.08-3.006,4.724c-1.934-3.435-5.584-9.017-9.446-16.96h0.214c-1.502-1.075-2.36-4.079-5.797-8.159
		c-2.146-2.362-5.581-3.65-7.3-5.367l-8.586-1.503l-2.576-0.859c-1.073-0.215-2.147-0.645-3.649-1.074
		c-2.362-0.644-4.509-0.214-13.526-4.293l-1.503-0.215c-1.29-0.644-3.005-1.502-5.367-2.362l-6.226-2.363l-1.718-1.289
		c-3.22-0.429-6.226-1.931-8.802-4.293c-4.079-1.074-9.876-3.864-15.887-7.729l-2.576-0.859l-5.367-2.79
		c0-0.429-0.215-0.644-0.645-1.074l-2.79-1.074l-13.311-11.378c-1.718-0.645-3.22-1.932-4.938-4.079l0.215-1.718
		c-4.293-3.22-8.158-6.44-11.593-9.662c-1.932-5.582-2.791-10.305-2.791-14.385c0-4.293,0.645-10.09,1.933-11.808
		C77.243,202.364,78.96,202.149,80.677,202.149z M99.356,215.675c-4.508,0.643-6.87,1.932-6.87,3.865
		c0,0.644,13.954,12.881,16.53,14.599c4.938,3.22,27.91,16.102,29.843,16.531c1.288,0.214,31.129,13.311,31.344,13.311
		c-0.859-3.007-24.26-22.972-27.481-24.045c-0.429-5.367-7.728-7.943-25.332-14.599C106.87,218.251,100.645,215.675,99.356,215.675z
		"/>
	<path fill="#FFFFFF" d="M122.757,137.103l0.43,0.429v0.644l0.643,0.645v0.429c0.429,0.644,0.644,1.504,0.644,2.791
		c0,1.503-0.43,3.436-1.502,5.797c-0.215,0.644-0.859,2.361-2.146,5.153c-1.503,3.22-3.435,6.869-6.226,10.52
		c-4.293,5.797-6.656,9.017-7.085,9.661c-1.074,1.288-2.362,2.791-3.865,4.723c-1.073,0.859-2.362,1.933-3.864,3.435
		c-0.214,0.215-1.503,0.859-3.649,1.933c-1.718,1.074-3.22,1.503-4.724,1.503l-0.214-0.214c-2.361-0.215-3.436-1.074-3.436-2.147
		c0-3.65-0.214-5.153-0.43-4.509c0-0.429,0-1.073,0.215-1.931l0.43-1.289c0.214-0.43,0.429-0.858,0.644-1.502
		c0.214-0.215,0.214-0.429,0.429-0.644l0.43-1.074c0.214-0.429,0.645-0.859,1.073-1.073c3.221-3.65,7.943-9.232,14.599-16.746
		c2.791-3.006,5.368-6.011,8.158-8.803c4.938-5.367,7.515-8.158,7.729-8.158C122.113,136.887,122.542,136.887,122.757,137.103z
		 M155.176,134.74c1.503,0.215,3.65,0.43,6.87,0.86c3.436,3.435,18.678,6.44,29.627,10.949c3.435,1.502,9.231,2.792,17.39,4.079
		l17.82,2.791c1.073,0.215,2.146,0.215,3.435,0.215c1.503,0,3.221,0,5.152-0.43c-1.076,0.645-2.792,2.147-5.152,4.508
		c-4.509,4.508-7.299,5.152-14.385,5.152c-6.227,0-10.306-0.644-12.669-1.502c-0.857,0.643-1.287,1.288-1.287,1.932
		c0,2.361,4.293,4.937,16.103,18.893c4.509,1.503,6.869,5.368,14.385,19.966c3.22,2.792,4.938,5.582,4.938,8.803
		c0,0.429-2.791,6.656-8.374,8.372c-8.156,2.362-10.304,7.943-18.463,7.943c-2.361,0-6.011-0.644-11.378-2.147
		c-0.645-1.717-2.147-3.65-4.509-6.012c-5.367-0.859-4.938-1.289-23.831-13.311c-3.649-4.938-7.085-3.65-14.383-12.022
		c-15.888-11.808-26.409-21.04-26.409-28.554c0-2.362,1.718-5.153,5.367-8.803c0-5.153,2.791-3.006,5.797-13.956
		c-0.214,0.214,3.65-9.446,9.232-9.446C151.096,133.022,154.102,134.74,155.176,134.74z M154.532,159.215
		c0.214-0.214,0.644-0.645,0.857-1.288c-0.214-0.215-0.857-0.43-1.502-0.644C153.888,157.497,154.532,159,154.532,159.215z
		 M155.39,162.864c0,1.074,1.504,3.436,4.294,6.656c3.005,4.937,9.878,10.949,29.627,27.91c2.578,1.718,20.182,13.955,23.831,13.955
		c1.29,0,1.717-0.429,1.717-1.502c0-3.22-8.158-9.446-15.456-18.678c-2.575-1.503-4.079-3.865-15.457-15.244
		c-2.148,0-13.526-7.3-16.316-10.949c-6.441-2.577-9.661-4.079-9.661-4.294C156.249,160.717,155.39,161.362,155.39,162.864z"/>
	<path fill="#FFFFFF" d="M65.864,63.038l4.079-5.368l1.075-0.859h3.864l13.311,3.22l7.943,2.577l15.887,6.225l0.429,1.719
		l18.893,7.729l12.452,3.864l1.289,1.288l0.214,0.43l0.859-0.86l1.717,1.289l1.073-0.86l2.362,0.86l1.074,0.643l2.36,1.289
		l1.289,0.213l5.367,3.221l6.655,1.502l4.723,0.429l4.294,0.859v1.074l3.651,0.859l1.502,2.362l-0.431,1.072l0.86,1.718
		l-2.793,1.504l-9.017,1.072l-9.875-0.214l-18.679-3.219l-17.604-3.865l-18.894-5.582L75.31,76.348l-5.153-1.503l-3.435-3.65
		l-1.502-4.293L65.864,63.038z M190.384,101.897v-1.073l-0.429-0.429h-1.075l-0.429-2.147l1.933-0.858v-0.859l2.362-1.503
		l-0.859-1.073l0.432-0.644l3.004-1.718l2.146-1.074v-0.429l-1.072-0.644l0.431-0.86l1.071-0.644l2.363-1.932l0.43-0.429
		l1.501,0.429l1.503-0.859v0.859h0.645V85.58l2.79-0.645l3.435,0.215l2.577,0.43l1.503,2.791l0.858,3.22l2.577,1.932l-0.43,3.865
		v0.858l-1.718,5.153l-3.435,5.368l-1.934,1.502l-0.43,1.932l-0.643-0.429l-1.29,1.288H206.7l-1.933,3.435l-1.073,2.147
		l-1.288-0.645h-1.073l-1.074-0.859l-1.503,0.431l-0.859-0.859v-1.074l-1.502,0.859l-0.643-1.288l-2.792,0.859l-0.214-0.859
		l0.214-1.502l-0.214-0.215h-0.859l-1.934-1.717l-1.073-1.503l-1.288-1.932L190.384,101.897z"/>
</g>
</svg>
